<?xml version="1.0" encoding="utf-8"?>
<!-- Generator: Adobe Illustrator 16.2.0, SVG Export Plug-In . SVG Version: 6.00 Build 0)  -->
<!DOCTYPE svg PUBLIC "-//W3C//DTD SVG 1.1//EN" "http://www.w3.org/Graphics/SVG/1.1/DTD/svg11.dtd">
<svg version="1.1" id="Layer_1" xmlns="http://www.w3.org/2000/svg" xmlns:xlink="http://www.w3.org/1999/xlink" x="0px" y="0px"
	 width="401.775px" height="110.538px" viewBox="0 0 401.775 110.538" enable-background="new 0 0 401.775 110.538"
	 xml:space="preserve">
<filter  id="drop-shadow">
	<!--   Shadow Offset   -->
	<feOffset  dx="3" dy="3"></feOffset>
	<!--   Shadow Blur   -->
	<feGaussianBlur  stdDeviation="3" result="offset-blur"></feGaussianBlur>
	<!--   Color & Opacity   -->
	<feFlood  flood-opacity="0.2" flood-color="black" result="color"></feFlood>
	<!--   Clip color inside shadow   -->
	<feComposite  in="color" operator="in" in2="offset-blur" result="shadow"></feComposite>
	<!--   Put original object over shadow   -->
	<feComposite  in="SourceGraphic" operator="over" in2="shadow"></feComposite>
</filter>
<g filter="url(#drop-shadow)">
	<polyline fill="#FFFFFF" points="322.126,20.073 0,20.073 0,92.857 382.246,92.857 	"/>
</g>
<g>
	<g>
		<path fill="#5FC6D6" d="M100.702,63.379c0,5.065,0.113,7.937,0.507,10.919h-3.152c-0.225-1.294-0.338-2.757-0.338-4.221h-0.112
			c-1.914,3.321-4.729,4.897-9.118,4.897c-4.446,0-9.175-2.195-9.175-7.711c0-7.937,9.288-8.724,14.409-8.724h3.94v-1.576
			c0-4.502-3.152-6.304-7.317-6.304c-3.04,0-5.628,0.957-7.937,2.926l-1.97-2.308c2.477-2.363,6.528-3.659,9.906-3.659
			c6.304,0,10.356,2.814,10.356,9.4L100.702,63.379L100.702,63.379z M93.948,61.24c-5.628,0-11.256,1.408-11.256,5.854
			c0,3.208,3.095,4.84,5.91,4.84c7.204,0,9.061-4.616,9.061-8.949V61.24H93.948z"/>
		<path fill="#5FC6D6" d="M108.974,48.295h3.377v4.559h0.112c2.083-3.602,6.529-5.235,10.413-5.235
			c7.992,0,13.677,5.741,13.677,13.678c0,7.936-5.685,13.677-13.677,13.677c-3.885,0-8.331-1.633-10.413-5.235h-0.112v17.392h-3.377
			V48.295L108.974,48.295z M122.876,71.934c6.36,0,10.299-4.784,10.299-10.637c0-5.854-3.939-10.638-10.299-10.638
			c-6.136,0-10.864,4.784-10.864,10.638C112.013,67.15,116.741,71.934,122.876,71.934z"/>
		<path fill="#5FC6D6" d="M143.36,48.295h3.377v4.559h0.112c2.082-3.602,6.529-5.235,10.412-5.235
			c7.993,0,13.677,5.741,13.677,13.678c0,7.936-5.685,13.677-13.677,13.677c-3.884,0-8.33-1.633-10.412-5.235h-0.112v17.392h-3.377
			V48.295z M157.263,71.934c6.36,0,10.299-4.784,10.299-10.637c0-5.854-3.939-10.638-10.299-10.638
			c-6.135,0-10.863,4.784-10.863,10.638C146.4,67.15,151.128,71.934,157.263,71.934z"/>
	</g>
	<g>
		<path fill="#FFE266" d="M179.042,31.748h3.377v42.551h-3.377V31.748z"/>
		<path fill="#FFE266" d="M194.238,35.462c1.407,0,2.533,1.125,2.533,2.533c0,1.407-1.126,2.533-2.533,2.533
			c-1.407,0-2.533-1.126-2.533-2.533C191.705,36.587,192.831,35.462,194.238,35.462z M192.549,48.295h3.376v26.003h-3.376V48.295z"
			/>
		<path fill="#FFE266" d="M205.493,55.612c0-1.914-0.281-5.966-0.281-7.317h3.376c0.058,1.914,0.113,4.053,0.226,4.559h0.169
			c1.35-2.871,4.671-5.235,8.893-5.235c8.105,0,9.906,5.516,9.906,11.201v15.478h-3.377v-15.31c0-4.222-1.182-8.33-6.53-8.33
			c-5.009,0-9.005,3.49-9.005,10.638v13.001h-3.377L205.493,55.612L205.493,55.612z"/>
		<path fill="#FFE266" d="M259.749,69.401c-2.645,3.939-6.641,5.572-11.257,5.572c-7.936,0-13.171-5.685-13.171-13.734
			c0-7.767,5.403-13.621,13.002-13.621c7.993,0,12.213,6.135,12.213,12.158v2.364h-21.838c0,2.814,1.97,9.793,9.85,9.793
			c3.433,0,7.036-1.801,8.724-4.616L259.749,69.401z M257.16,59.101c0-4.615-3.997-8.442-9.006-8.442
			c-7.374,0-9.456,7.092-9.456,8.442H257.16z"/>
		<path fill="#FFE266" d="M268.133,67.657c1.407,2.758,4.502,4.277,7.542,4.277c2.926,0,5.966-1.801,5.966-4.784
			c0-7.148-15.422-2.139-15.422-12.044c0-5.066,4.615-7.486,8.892-7.486c4.222,0,7.486,1.576,9.175,4.897l-3.04,1.802
			c-1.295-2.364-3.095-3.659-6.135-3.659c-2.419,0-5.515,1.463-5.515,4.165c0,7.036,15.422,1.576,15.422,12.102
			c0,5.347-4.446,8.049-9.4,8.049c-4.446,0-8.442-1.688-10.468-5.291L268.133,67.657z"/>
		<path fill="#FFE266" d="M292.108,67.657c1.407,2.758,4.502,4.277,7.542,4.277c2.927,0,5.967-1.801,5.967-4.784
			c0-7.148-15.422-2.139-15.422-12.044c0-5.066,4.615-7.486,8.892-7.486c4.222,0,7.486,1.576,9.175,4.897l-3.039,1.802
			c-1.295-2.364-3.096-3.659-6.136-3.659c-2.42,0-5.515,1.463-5.515,4.165c0,7.036,15.422,1.576,15.422,12.102
			c0,5.347-4.446,8.049-9.4,8.049c-4.446,0-8.442-1.688-10.468-5.291L292.108,67.657z"/>
	</g>
	<g>
		<path fill="#5FC6D6" d="M28.795,69.024l2.382-1.878c2.534,3.023,5.168,5.275,7.901,6.756c3.664,1.969,7.687,2.954,12.068,2.954
			c2.993,0,5.812-0.461,8.462-1.385c2.649-0.923,5.011-2.187,7.087-3.79c1.372-1.041,2.864-2.554,4.479-4.543l2.436,1.887
			c-1.924,2.336-3.695,4.145-5.313,5.427c-2.335,1.848-4.977,3.344-7.923,4.488c-2.946,1.146-6,1.718-9.16,1.718
			c-3.023,0-5.984-0.534-8.886-1.603c-2.9-1.068-5.549-2.542-7.946-4.42C32.719,73.338,30.856,71.467,28.795,69.024z"/>
	</g>
</g>
</svg>
