<?xml version="1.0" encoding="utf-8"?>
<!-- Generator: Adobe Illustrator 16.2.0, SVG Export Plug-In . SVG Version: 6.00 Build 0)  -->
<!DOCTYPE svg PUBLIC "-//W3C//DTD SVG 1.1//EN" "http://www.w3.org/Graphics/SVG/1.1/DTD/svg11.dtd">
<svg version="1.1" id="Layer_1" xmlns="http://www.w3.org/2000/svg" xmlns:xlink="http://www.w3.org/1999/xlink" x="0px" y="0px"
	 width="952.551px" height="500.075px" viewBox="0 0 952.551 500.075" enable-background="new 0 0 952.551 500.075"
	 xml:space="preserve">

<defs>
  <filter id='drop-shadow'>
    
    <!-- Shadow Offset -->
    <feOffset
      dx='5'
      dy='5'
    />
    
    <!-- Shadow Blur -->
    <feGaussianBlur
      stdDeviation='3'
      result='offset-blur'
    />
    
    <!-- Color & Opacity -->
    <feFlood
      flood-color='black'
      flood-opacity='0.3'
      result='color'
    />
    
    <!-- Clip color inside shadow -->
    <feComposite
      operator='in'
      in='color'
      in2='offset-blur'
      result='shadow'
    />
    
    <!-- Put original object over shadow -->
    <feComposite
      operator='over'
      in='SourceGraphic'
      in2='shadow'
    />
  </filter>
</defs>

<polygon fill="#FFFFFF" points="187.52,192.423 9.52,373.252 9.52,486.107 283.52,298.379 " filter='url(#drop-shadow)'
/>
<polyline fill="#FFFFFF" points="837.035,20.073 283.369,20.073 283.369,145.173 940.369,145.173 " filter='url(#drop-shadow)'
/>
<g>
	<g>
		<path fill="#5FC6D6" d="M456.455,94.507c0,8.706,0.193,13.641,0.871,18.768h-5.418c-0.387-2.225-0.58-4.74-0.58-7.256h-0.193
			c-3.289,5.708-8.127,8.417-15.672,8.417c-7.643,0-15.77-3.773-15.77-13.254c0-13.641,15.963-14.994,24.766-14.994h6.771v-2.709
			c0-7.739-5.417-10.835-12.576-10.835c-5.224,0-9.674,1.645-13.641,5.03l-3.385-3.967c4.256-4.062,11.221-6.288,17.025-6.288
			c10.836,0,17.801,4.837,17.801,16.156V94.507z M444.846,90.83c-9.674,0-19.348,2.419-19.348,10.062
			c0,5.515,5.32,8.319,10.158,8.319c12.383,0,15.574-7.933,15.574-15.382V90.83H444.846z"/>
		<path fill="#5FC6D6" d="M470.672,68.58h5.805v7.836h0.193c3.579-6.191,11.222-8.997,17.897-8.997
			c13.737,0,23.508,9.868,23.508,23.509c0,13.64-9.771,23.508-23.508,23.508c-6.676,0-14.318-2.806-17.897-8.997h-0.193v29.893
			h-5.805V68.58z M494.567,109.211c10.932,0,17.703-8.223,17.703-18.283c0-10.062-6.771-18.284-17.703-18.284
			c-10.545,0-18.671,8.223-18.671,18.284C475.896,100.988,484.022,109.211,494.567,109.211z"/>
		<path fill="#5FC6D6" d="M529.775,68.58h5.805v7.836h0.193c3.579-6.191,11.222-8.997,17.897-8.997
			c13.737,0,23.508,9.868,23.508,23.509c0,13.64-9.771,23.508-23.508,23.508c-6.676,0-14.318-2.806-17.897-8.997h-0.193v29.893
			h-5.805V68.58z M553.671,109.211c10.932,0,17.703-8.223,17.703-18.283c0-10.062-6.771-18.284-17.703-18.284
			c-10.545,0-18.671,8.223-18.671,18.284C535,100.988,543.126,109.211,553.671,109.211z"/>
	</g>
	<g>
		<path fill="#FFE266" d="M591.105,40.139h5.804v73.136h-5.804V40.139z"/>
		<path fill="#FFE266" d="M617.223,46.523c2.418,0,4.353,1.935,4.353,4.354c0,2.418-1.935,4.354-4.353,4.354
			c-2.419,0-4.354-1.936-4.354-4.354C612.869,48.458,614.804,46.523,617.223,46.523z M614.32,68.58h5.804v44.694h-5.804V68.58z"/>
		<path fill="#FFE266" d="M636.568,81.156c0-3.289-0.483-10.254-0.483-12.576h5.804c0.098,3.289,0.194,6.966,0.388,7.836h0.29
			c2.321-4.934,8.029-8.997,15.285-8.997c13.931,0,17.026,9.481,17.026,19.252v26.604h-5.805V86.961
			c0-7.256-2.031-14.317-11.222-14.317c-8.61,0-15.479,5.998-15.479,18.284v22.347h-5.805V81.156z"/>
		<path fill="#FFE266" d="M729.822,104.858c-4.546,6.771-11.415,9.577-19.348,9.577c-13.641,0-22.638-9.771-22.638-23.605
			c0-13.35,9.287-23.411,22.348-23.411c13.737,0,20.992,10.545,20.992,20.896v4.063h-37.535c0,4.837,3.386,16.832,16.93,16.832
			c5.901,0,12.093-3.096,14.995-7.933L729.822,104.858z M725.373,87.154c0-7.933-6.869-14.511-15.479-14.511
			c-12.674,0-16.253,12.189-16.253,14.511H725.373z"/>
		<path fill="#FFE266" d="M744.233,101.859c2.419,4.74,7.739,7.352,12.963,7.352c5.031,0,10.255-3.096,10.255-8.223
			c0-12.286-26.507-3.676-26.507-20.702c0-8.707,7.933-12.867,15.285-12.867c7.255,0,12.866,2.709,15.769,8.417l-5.224,3.096
			c-2.226-4.063-5.321-6.288-10.545-6.288c-4.16,0-9.48,2.515-9.48,7.158c0,12.093,26.507,2.709,26.507,20.8
			c0,9.19-7.643,13.834-16.156,13.834c-7.643,0-14.511-2.902-17.993-9.094L744.233,101.859z"/>
		<path fill="#FFE266" d="M785.441,101.859c2.419,4.74,7.739,7.352,12.963,7.352c5.031,0,10.255-3.096,10.255-8.223
			c0-12.286-26.507-3.676-26.507-20.702c0-8.707,7.933-12.867,15.285-12.867c7.256,0,12.866,2.709,15.769,8.417l-5.224,3.096
			c-2.226-4.063-5.321-6.288-10.545-6.288c-4.16,0-9.48,2.515-9.48,7.158c0,12.093,26.507,2.709,26.507,20.8
			c0,9.19-7.643,13.834-16.156,13.834c-7.643,0-14.511-2.902-17.993-9.094L785.441,101.859z"/>
	</g>
	<g>
		<path fill="#5FC6D6" d="M332.862,104.21l4.094-3.228c4.356,5.196,8.883,9.067,13.58,11.612c6.298,3.385,13.212,5.078,20.743,5.078
			c5.144,0,9.991-0.793,14.544-2.381c4.553-1.587,8.613-3.759,12.182-6.515c2.357-1.788,4.923-4.39,7.699-7.809l4.188,3.243
			c-3.307,4.015-6.351,7.124-9.132,9.328c-4.015,3.176-8.555,5.747-13.619,7.715c-5.064,1.968-10.312,2.952-15.744,2.952
			c-5.196,0-10.286-0.918-15.272-2.755c-4.985-1.836-9.538-4.369-13.658-7.597C339.606,111.624,336.405,108.409,332.862,104.21z"/>
	</g>
</g>
<polygon fill="#FFFFFF" stroke="#FBFBFB" stroke-width="2" points="183.52,119.279 183.52,193.279 283.52,298.379 283.52,20.179 " filter='url(#drop-shadow)'/>
<path fill="#FFFFFF" d="M281.668,298.379"/>
</svg>
