<?xml version="1.0" encoding="utf-8"?>
<!-- Generator: Adobe Illustrator 16.2.0, SVG Export Plug-In . SVG Version: 6.00 Build 0)  -->
<!DOCTYPE svg PUBLIC "-//W3C//DTD SVG 1.1//EN" "http://www.w3.org/Graphics/SVG/1.1/DTD/svg11.dtd">
<svg version="1.1" id="Layer_1" xmlns="http://www.w3.org/2000/svg" xmlns:xlink="http://www.w3.org/1999/xlink" x="0px" y="0px"
	 width="36.167px" height="25.834px" viewBox="0 0 36.167 25.834" enable-background="new 0 0 36.167 25.834" xml:space="preserve">
<path fill="#FFFFFF" d="M32.75,18.583c0,1.658-1.344,3-3,3H3c-1.657,0-3-1.342-3-3V3c0-1.657,1.343-3,3-3h26.75c1.656,0,3,1.343,3,3
	V18.583z"/>
<g>
	<path fill="#9B9B9B" d="M28.208,6.292H4.541c-0.727,0-1.315-0.593-1.315-1.5s0.589-1.5,1.315-1.5h23.667
		c0.727,0,1.314,0.593,1.314,1.5S28.933,6.292,28.208,6.292z"/>
</g>
<g>
	<path fill="#9B9B9B" d="M28.208,12.292H4.541c-0.727,0-1.315-0.594-1.315-1.5c0-0.909,0.589-1.5,1.315-1.5h23.667
		c0.727,0,1.314,0.593,1.314,1.5S28.933,12.292,28.208,12.292z"/>
</g>
<g>
	<path fill="#9B9B9B" d="M28.208,18.292H4.541c-0.727,0-1.315-0.594-1.315-1.5c0-0.908,0.589-1.5,1.315-1.5h23.667
		c0.727,0,1.314,0.592,1.314,1.5C29.523,17.698,28.933,18.292,28.208,18.292z"/>
</g>
</svg>
