<?xml version="1.0" encoding="utf-8"?>
<!-- Generator: Adobe Illustrator 16.2.0, SVG Export Plug-In . SVG Version: 6.00 Build 0)  -->
<!DOCTYPE svg PUBLIC "-//W3C//DTD SVG 1.1//EN" "http://www.w3.org/Graphics/SVG/1.1/DTD/svg11.dtd">
<svg version="1.1" id="Layer_1" xmlns="http://www.w3.org/2000/svg" xmlns:xlink="http://www.w3.org/1999/xlink" x="0px" y="0px"
	 width="65.869px" height="25.834px" viewBox="0 0 65.869 25.834" enable-background="new 0 0 65.869 25.834" xml:space="preserve">
<path fill="#FFFFFF" d="M32.869,18.292c0,1.658-1.344,3-3,3H3.118c-1.657,0-3-1.342-3-3V2.708c0-1.657,1.343-3,3-3h26.75
	c1.656,0,3,1.343,3,3V18.292z"/>
<rect x="5.583" y="3.417" fill="#9B9B9B" width="10" height="14"/>
<rect x="17.583" y="3.417" fill="#9B9B9B" width="10" height="14"/>
<path fill="#FFFFFF" d="M65.869,18.292c0,1.658-1.344,3-3,3h-26.75c-1.658,0-3-1.342-3-3V2.708c0-1.657,1.342-3,3-3h26.75
	c1.656,0,3,1.343,3,3V18.292z"/>
<rect x="44.583" y="4.417" fill="#9B9B9B" width="10" height="14"/>
</svg>
