<?xml version="1.0" encoding="utf-8"?>
<!-- Generator: Adobe Illustrator 16.2.0, SVG Export Plug-In . SVG Version: 6.00 Build 0)  -->
<!DOCTYPE svg PUBLIC "-//W3C//DTD SVG 1.1//EN" "http://www.w3.org/Graphics/SVG/1.1/DTD/svg11.dtd">
<svg version="1.1" id="Layer_1" xmlns="http://www.w3.org/2000/svg" xmlns:xlink="http://www.w3.org/1999/xlink" x="0px" y="0px"
	 width="324px" height="400px" viewBox="-0.5 0.5 324 400" enable-background="new -0.5 0.5 324 400" xml:space="preserve">
<g>
	<g>
		<path fill="#FFFFFF" d="M38.733,229.773C37.172,230.846,38.019,230.359,38.733,229.773L38.733,229.773z"/>
		<path fill="#FFFFFF" d="M271.822,143.48c-1.105-1.889-0.602-4.956,1.537-5.965c-0.055-0.138-0.104-0.278-0.144-0.421
			c-0.657-2.395,0.798-4.625,3.058-5.383c0.668-0.223,1.33-0.459,1.994-0.69c3.411-10.967,7.234-21.815,10.687-32.79
			c2.097-6.667-2.403-13.97-8.956-15.772c-6.921-1.904-13.678,2.293-15.771,8.955c-3.344,10.638-7.039,21.157-10.367,31.779
			c-2.765-2.247-6.034-3.909-9.364-5.265c-0.772-0.313-1.58-0.539-2.408-0.688c-1.084-1.918-2.496-3.64-4.171-5.081
			c0.438-1.271,0.869-2.542,1.284-3.812c3.829-11.675,6.719-24.002,8.245-36.39c-1.192-1.081-1.616-2.833-1.278-4.395
			c-0.229-0.523-0.336-1.096-0.274-1.692c0.196-1.976,0.623-3.804,1.438-5.567c-0.252-1.484,0.182-3.087,1.271-4.124
			c0.022-0.856,0.056-1.713,0.06-2.567c0.047-8.343-5.763-15.898-13.783-18.104c-3.562-0.98-6.89-0.861-9.931,0.069
			c-1.678-1.194-3.344-2.408-5.043-3.569c-7.28-4.973-15.531-7.858-24.358-8.16c-8.305-0.284-15.944,5.938-18.104,13.784
			c-0.277,1.017-0.463,2.021-0.57,3.009c-5.88,1.226-10.557,5.544-13.49,11.222c-0.076,0.09-0.15,0.182-0.227,0.27
			c1.257-3.041,0.357-0.872-0.299,0.262c-0.035,0.06-0.074,0.124-0.114,0.188c-0.802,0.864-1.657,1.682-2.522,2.478
			c-0.449,0.413-0.915,0.807-1.387,1.197c-0.03,0.023-0.063,0.05-0.094,0.071c-1.942,1.412-3.967,2.71-5.996,3.989
			c-5.209,3.28-10.624,6.223-15.876,9.428c1.465-5.505,3.008-10.994,4.841-16.388c0.367-1.083,0.764-2.155,1.169-3.224
			c0.046-0.126,0.089-0.236,0.128-0.34c0.077-0.152,0.183-0.367,0.326-0.666c0.255-0.532,0.54-1.046,0.836-1.556
			c0.003-0.002,0.003-0.002,0.005-0.004c5.268-4.599,4.689-13.444,0-18.132c-5.189-5.19-12.872-4.592-18.131,0
			c-4.188,3.655-6.285,9.643-8.182,14.652c-2.215,5.847-3.855,11.921-5.484,17.951c-2.716,10.065-4.478,20.846-8.266,30.615
			c-1.974,0.565-3.97,1.34-6.009,2.343c-1.757,0.864-3.457,1.894-5.101,3.044c0.111,1.838-0.792,3.726-3.058,4.407
			c-3.856,1.16-5.594,4.006-8.094,6.667c-0.091,1.662-1.289,3.409-2.901,3.987c-0.478,1.255-1.496,2.272-3.058,2.547
			c-0.627,0.822-1.24,1.638-1.83,2.443c-1.735,2.366-3.029,4.997-3.983,7.776c0.662,0.695,1.098,1.647,1.098,2.889v10.99
			c0,1.553-0.672,2.664-1.633,3.359c0.042,0.201,0.086,0.401,0.108,0.609c0.29,2.841,0.304,5.694,0.304,8.547
			c0,1.498-0.625,2.586-1.529,3.289c0.055,0.653,0.112,1.304,0.163,1.957c-0.506,0.688-1.001,1.373-1.499,2.058
			c1.108,0.963,1.807,2.429,1.488,4.238c-0.572,3.262-2.383,5.798-4.45,8.309c-2.529,3.072-4.772,6.446-6.852,9.837
			c-1.685,2.743-3.075,5.625-4.412,8.531c0.357,1.148,0.224,2.452-0.296,3.675c-0.719,1.691-1.79,3.143-2.858,4.611
			c0.265,1.389-0.107,2.891-1.184,3.906c-0.164,0.175-0.256,0.267-0.296,0.292c-0.082,0.137-0.161,0.271-0.233,0.413
			c0.043,0.011-0.275,1.07-0.302,1.213c-0.06,0.386-0.087,0.521-0.08,0.423c-0.027,0.233-0.054,0.471-0.077,0.707
			c-0.055,0.598-0.111,1.196-0.175,1.795c-0.131,1.252-0.633,2.391-1.448,3.196c-0.172,0.739-0.329,1.481-0.509,2.22
			c-0.563,2.325-1.204,4.631-1.897,6.92c-0.33,1.094-0.7,2.176-1.074,3.254c-0.087,0.25-0.635,1.617-0.771,1.994
			c-0.653,1.379-1.403,2.711-2.226,3.998c-0.072,0.075-0.149,0.155-0.248,0.262c-0.118,0.131-0.281,0.274-0.453,0.414
			c0.14-0.097,0.302-0.203,0.483-0.328c-0.004,0.006-0.005,0.011-0.008,0.016c-1.031,0.709-1.95,1.533-2.75,2.438
			c0.284,1.586-0.221,3.312-1.951,4.43c-0.424,0.275-0.328,0.271-0.515,1.134c-0.228,1.045-0.349,2.104-0.55,3.151
			c-0.094,0.482-0.216,0.959-0.352,1.428c0.193,1.639,0.726,3.279,1.653,4.861c3.361,5.738,11.739,8.511,17.542,4.601
			c17.129-11.539,18.59-36.317,22.8-54.697c0.386-1.682,0.858-3.143,1.448-4.566c6.246,2.78,12.567,4.82,19.172,4.666
			c-3.712,10.271-6.239,20.949-6.793,32.316c-0.038,0.988-0.058,1.978-0.058,2.967c-0.041,4.086,1.213,7.631,3.284,10.502
			c-0.493,1.146-0.985,2.293-1.476,3.439c-6.748,15.73-14.479,31.045-19.92,47.295c-1.249,3.727-2.493,7.455-3.831,11.15
			c-0.406,1.124-0.834,2.238-1.27,3.349c0.264-0.741-1.24,2.747-1.762,3.839c0.045,0.166,0.082,0.338,0.111,0.521
			c0.23,1.455,0.228,2.687,0.029,3.774c0.92,2.57-0.39,6.037-3.944,6.037c-0.014,0-0.027-0.004-0.042-0.004
			c-0.599,0.533-1.245,1.078-1.935,1.653c-3.162,2.642-7.399,5.763-8.462,9.985c-1.822,7.239,2.543,12.093,7.379,16.577
			c0.522,0.078,1.061,0.259,1.606,0.572c2.718,1.569,5.116,3.512,7.432,5.557c2.854-0.176,5.741-0.932,8.466-2.266
			c1.223-0.598,2.392-1.26,3.518-1.969c0.863-1.592,2.004-3.037,3.287-4.398c2.925-3.105,5.227-6.389,6.654-10.464
			c1.368-3.909,2.971-7.743,4.86-11.431c1.54-3.004,4.74-6.873,5.344-10.183c0.674-3.692,0.28-7.077,2.42-10.377
			c1.522-2.346,4.181-3.67,5.939-5.82c-0.305-0.809-0.354-1.688-0.008-2.51c0.662-1.574,1.437-3.067,2.159-4.613
			c0.273-0.584,0.655-1.428,0.588-1.912c-0.323-2.362,0.531-4.688,3.056-5.385c0.425-0.115,0.892-0.141,1.364-0.108
			c-1.295-1.379-1.568-3.481-0.621-5.205c0.777-1.413,1.933-2.44,3.272-3.096c-0.509-0.976-0.647-2.123-0.355-3.188
			c0.276-1.004,1.029-2.162,2.011-2.615c0.346-0.16,0.701-0.299,1.058-0.424c0.452-1.168,1.371-2.128,2.765-2.47
			c3.365-7.812,6.707-15.636,10.214-23.382c3.823,1.895,8.314,2.525,12.786,1.684c0.149,0.625,0.287,1.252,0.405,1.883
			c0.009,0.095,0.018,0.189,0.027,0.285c0.119,1.381,0.163,2.768,0.196,4.15c0.069,2.871-0.059,5.744-0.25,8.607
			c-0.062,0.946-0.151,1.894-0.24,2.838c0.228,0.51,0.366,1.09,0.384,1.752c0.227,9.033-1.264,17.983-1.661,26.99
			c-0.313,7.082-4.115,13.092-5.519,19.965c-0.29,1.424-1.067,2.321-2.037,2.78c-0.602,1.989-1.311,3.943-2.055,5.883
			c-0.028,0.062-0.048,0.109-0.078,0.177c-1.338,3.007-2.004,4.537-2.411,7.473c-0.358,2.584-0.617,5.101-0.827,7.646
			c-0.274,0.361-0.843,1.688-1.251,2.792c-0.082,0.071-0.166,0.146-0.248,0.218c-1.267,1.116-2.621,2.132-3.888,3.25
			c-0.377,0.332-0.723,0.691-1.079,1.043c0.246,0.747,0.228,1.633-0.168,2.625c-0.273,0.682-0.572,1.363-0.887,2.047
			c0.463,1.939-0.656,3.918-2.304,4.878c-1.316,2.898-2.413,5.872-2.453,9.008c-0.038,2.948-0.979,8.073,0.929,10.613
			c1.625,2.163,4.072,3.686,6.032,5.524c0.046,0.043,0.077,0.092,0.122,0.138c8.424,1.745,15.344-0.169,22.789-3.354
			c1.308-1.657,2.394-3.532,3.167-5.593c0.104-0.102,0.212-0.197,0.318-0.298c0.005-0.104,0.006-0.206,0.02-0.313
			c0.321-2.936,0.89-5.557,2.961-7.789c1.961-2.114,2.238-4.239,2.594-7.075c0.875-6.933,6.59-12.734,6.654-19.633
			c0.011-1.021,0.34-1.867,0.849-2.544c0.394-1.551,1.272-2.926,2.853-3.786c0.5-0.273,1.014-0.479,1.533-0.632
			c0.211-1.544,0.424-3.086,0.566-4.637c0.216-2.326,1.768-4.283,4.229-4.361c0.53-2.362,0.967-4.745,1.357-7.14
			c4.949-5.398,8.713-11.429,12.107-17.748c1.836-2.068,3.271-4.544,4.102-7.336c0.188-0.629,0.4-1.247,0.602-1.87
			c0.084-0.171,0.168-0.342,0.254-0.514c0.775-1.562,1.363-3.179,1.769-4.812c1.019-2.115,2.129-4.188,3.249-6.248
			c2.768-5.09,5.664-10.088,8.014-15.392c3.174-7.159,5.653-14.218,6.721-21.991c0.25-1.83,0.479-3.664,0.707-5.496
			c1.762,2.883,3.859,5.648,6.375,8.285c1.985,2.08,4.481,3.588,7.188,4.489c0.462,0.969,1.047,1.868,1.725,2.688
			c0.703-0.224,1.508-0.265,2.398-0.043c3.725,0.922,7.37,2.452,10.771,4.312c5.424-1.492,9.51-6.515,9.51-12.359
			c0-0.987-0.129-1.95-0.35-2.881c1.734-2.226,2.807-5.058,3.096-8.108c1.25-13.152,7.705-25.115,13.361-37.485
			c1.393-3.045,1.867-6.326,1.285-9.338c-1.361-0.949-1.936-2.676-1.729-4.292c-0.989-1.514-2.354-2.856-4.158-3.912
			c-0.055-0.032-0.115-0.057-0.17-0.088c0.211-1.417,0.424-2.837,0.613-4.265c0.896-0.3,1.76-0.698,2.574-1.17
			c-0.091-0.664-0.043-1.344,0.135-1.988c-0.943-1.679-0.508-3.657,0.719-5.217c-0.518,0.659-0.293,0.612-0.141-0.155
			c0.041-0.234,0.062-0.349,0.072-0.37c0.016-0.15,0.033-0.302,0.049-0.452c0.146-1.337,0.27-2.689,0.728-3.961
			c0.804-2.243,2.948-3.726,5.382-3.057c0.105,0.03,0.211,0.067,0.316,0.105c0.446-1.906,0.916-3.805,1.408-5.697
			C273.223,145.058,272.398,144.462,271.822,143.48z M176.141,224.602c-0.105-0.176-0.203-0.356-0.311-0.531
			c0.148-0.196,0.303-0.394,0.452-0.594C176.236,223.852,176.188,224.227,176.141,224.602z"/>
	</g>
	<g>
		<path fill="#91AEB3" d="M196.299,54.476c-13.04,0.733-13.443,10.495,1.299,9.82C212.336,63.622,202.832,54.108,196.299,54.476z
			 M197.205,59.889c-4.158,0.795-5.908-2.221-0.699-3.106C199.42,56.286,201.361,59.097,197.205,59.889z"/>
		<path fill="#91AEB3" d="M229.145,83.902c0,0-9.908,20.54-27.574,17.986c-17.668-2.552-22.538-10.999-25.043-17.753
			c-2.504-6.754-9.627-4.852-6.067,3.077c3.56,7.929,19.569,23.948,34.761,20.061C220.411,103.385,226.146,96.535,229.145,83.902z"
			/>
		<path fill="#91AEB3" d="M110.508,140.524l3.066-8.305c0,0,4.073,3.021,6.516,1.959c2.443-1.062,2.094-7.375,5.105-6.795
			c3.007,0.58,2.171,4.246,3.041,9.243c0.865,4.997-0.541,3.428,0.558,6.291c1.098,2.864-1.32,2.973-1.32,2.973l4.573,1.496
			c0,0-3.447,1.679-4.938,3.928c-1.49,2.246,5.977,5.387,2.2,5.722c-3.774,0.336-7.129,0.635-3.513,3.273
			c3.614,2.637,1.26,4.644-0.811,5.144c-2.071,0.501-8.362,5.816-4.055,6.703c4.306,0.886,5.023,4.206,5.023,4.206
			s-8.726-3.032-11.363,0.584c-2.64,3.617,2.239,6.145,2.239,6.145s-4.985-0.192-5.54,4.297c-0.557,4.489,8.07,5.203,8.07,5.203
			s-13.691,2.909-12.593,5.771c1.1,2.861,7.196,4.855,7.196,4.855s-10.129-1-12.006,1.703c-1.875,2.701,0.649,3.746,4.167,4.068
			c3.52,0.32,9.025,1.631,13.873-0.916c4.845-2.545,8.369,0.21,8.369,0.21s-5.259,2.686-6.832,3.987
			c-1.574,1.304,5.087,6.155,5.087,6.155s-12.333-6.78-18.207-6.259s-13.769,2.066-13.769,2.066l12.655-33.676l5.135-13.565
			l4.327-8.418l4.447-11.812l-4.531-3.402l-6.735,1.551L110.508,140.524z"/>
		<path fill="#91AEB3" d="M108.413,212.165c0,0-7.02,1.894-5.649,3.038c1.371,1.148-2.406,1.484-3.328,5.37
			c-0.924,3.888,3.037,5.649,3.037,5.649s-6.293,0.561-5.611,3.457c0.682,2.897,4.681,5.081,4.681,5.081s-12.735-0.56-11.571,7.792
			c1.166,8.352,8.779,13.174,8.779,13.174s-14.642,1.725-12.247-14.135c2.396-15.855,2.674-22.224,2.674-22.224l4.636-9.714
			L108.413,212.165"/>
		<path fill="#91AEB3" d="M89.108,256.584c0,0-5.01,5.518-6.696,10.318c-1.689,4.801-1.572,6.061-2.114,9.49
			c-0.541,3.431-3.971,2.889-3.292,5.787c0.68,2.899-3.936,3.311-2.648,8.269c1.286,4.961-0.85,4.728-0.85,4.728
			s-4.46,2.088-2.524,4.877c1.936,2.785-1.624,10.29-1.624,10.29s-5.979,0.528-2.631,4.883c3.346,4.354,4.438,5.948,4.438,5.948
			s-5.871,0.521-7.327,3.188s-8.594,7.95-8.148,12.983c0.448,5.035,1.656,9.156,6.932,13.762c5.272,4.604,5.272,4.604,5.272,4.604
			s-22.354-13.658-18.374-21.199c3.981-7.539,13.851-14.231,13.851-14.231l0.951-3.57l-0.368-10.114l4.391-2.928l-0.365-8.848
			l4.365-7.997l-0.41-4.613l4.128-8.242l2.424-8.407L89.108,256.584z"/>
		<path fill="#91AEB3" d="M223.568,190.096c0,0,0.478-8.92,0.289-11.018c-0.185-2.098-1.103-5.293-1.103-5.293l2.338-5.81
			l-0.741-5.958c0,0,1.307-13.857,4.127-14.214c2.823-0.355-0.578,22.038,1.741,24.369c2.318,2.329-0.342,8.065,1.636,11.271
			c1.977,3.207,6.666,3.636,4.065,7.672c-2.604,4.038,2.195,8.049,2.195,8.049l-9.351,1.887l-4.632-9.313"/>
		<path fill="#91AEB3" d="M140.527,245.25c0,0,5.818-10.664,9.025-12.641c3.207-1.976,9.647-0.855,9.647-0.855
			s-11.08,1.405-7.807,4.922c3.273,3.514,4.881,9.713,4.881,9.713s-3.05-0.998-2.753,2.357c0.298,3.357-1.043,7.281-1.043,7.281
			s-2.407,1.479,0.373,4.195c2.776,2.713,9.864,6.312,9.864,6.312s-12.018,2.756-13.435,5.844c-1.42,3.086,7.42,7.374,7.42,7.374
			s-7.707,1.316-8.131,3.682c-0.423,2.362,7.198,4.856,7.198,4.856l10.513,4.14c0,0-15.438-2.435-16.78,1.489
			c-1.339,3.924,2.659,6.106,2.659,6.106s-3.699,1.177-4.934,6.356c-1.231,5.185-0.932,8.538-0.932,8.538l-5.638-1.611l4.186-14.748
			l-0.934-10.485l3.377-9.603l-1.315-10.029l2.258-3.159l-4.177-8.933L140.527,245.25z"/>
		<path fill="#91AEB3" d="M138.994,323.182c0,0-0.962,3.47-1.464,7.32c-0.505,3.847,3.273,3.512,2.621,5.686
			c-0.657,2.173-7.228-0.416-6.328,2.568c0.898,2.985,10.341,9.336,10.341,9.336s-11.388-4.481-14.642,1.725
			c-3.255,6.208-9.654,19.884-4.589,24.509c5.062,4.623,7.729,6.074,7.729,6.074s-12.956-3.074-14.664-7.997
			c-1.706-4.921,0.105-15.442,2.378-17.229c2.275-1.788,6.637-9.785,6.637-9.785l1.191-5.604l3.248-1.558l0.771-5.564l2.229-8.231
			L138.994,323.182"/>
		<path fill="#91AEB3" d="M110.958,152.748c0,0-4.896,2.018-6.51,8.821c-1.614,6.803-0.113,13.011-0.113,13.011l-1.211,4.231
			l-5.2-1.442l10.494-28.203L110.958,152.748"/>
		<path fill="#91AEB3" d="M231.43,209.586c0,0,0.674,7.553-2,13.18c-2.671,5.627-8.998,9.362-8.998,9.362l6.428,4.503l11.259-37.468
			l-4.12,0.048c0,0,3.001,1.637,1.763,5.553C234.521,208.678,231.43,209.586,231.43,209.586z"/>
		<path fill="#91AEB3" d="M115.034,145.09c0,0-2.858-0.062-3.292,2.196c-0.435,2.258-0.783,5.461-0.783,5.461l-2.54-3.581
			l1.674-6.173L115.034,145.09"/>
		<path fill="#91AEB3" d="M196.566,170.511c0.619-1.958-20.031-7.736-20.031-7.736l-3.242,6.314c0,0,19.967,10.593,20.141,8.992
			c0.178-1.601-16.43-6.467-15.246-11.014C179.367,162.524,195.948,172.467,196.566,170.511z"/>
		<path fill="#91AEB3" d="M230.621,117.172l-5.051,9.75c0,0,2.019-1.027-2.473-4.009c-4.492-2.982-14.515-6.319-13.107-4.755
			c1.408,1.568-5.256-2.068-5.256-2.068l16.668-2.748L230.621,117.172z"/>
		<path fill="#91AEB3" d="M256.88,141.476c0,0-2.928-4.39-5.965-10.04c-3.041-5.649-4.347-1.305-4.347-1.305
			s-5.738-7.524-8.752-8.103c-3.012-0.577-6.105,2.656-6.105,2.656l-0.127-10.98l19.844,9.229L256.88,141.476"/>
		<path fill="#91AEB3" d="M161.732,93.695c0,0-1.1-2.862-4.614,0.41c-3.515,3.271-6.229,6.051-6.229,6.051s-1.695-9.577-6.656-8.291
			c-4.957,1.288-4.957,1.288-4.957,1.288s-7.814-2.266-10.219-0.783c-2.405,1.482-6.721,5.247-6.721,5.247s-7.85-2.686-12.043-2.312
			c-4.194,0.372-8.09,4.1-8.09,4.1l0.017-9.303l31.965-6.646l24.239,6.305L161.732,93.695"/>
		<path fill="#91AEB3" d="M167.793,76.246c0,0-0.986-1.606-5.191,3.42c-4.205,5.023-3.143,7.466-3.143,7.466
			s-7.381-6.954-2.488-13.732C161.864,66.625,167.234,69.952,167.793,76.246z"/>
		<path fill="#91AEB3" d="M139.525,138.794c3.125-2.728,7.524-5.744,8.41-10.049c0.887-4.307,1.958-6.516,3.217-6.626
			c1.259-0.113-2.268,7.81-2.005,10.748c0.261,2.935,6.572,12.1,2.413,12.893c-4.16,0.792-2.729-6.947-6.776-4.895
			C140.737,142.916,135.21,142.56,139.525,138.794z"/>
		<polygon fill="#91AEB3" points="63.021,184.275 65.75,179.276 93.462,191.402 91.652,196.001 		"/>
		<polyline fill="#91AEB3" points="224.188,242.257 245.7,252.396 247.768,247.141 225.627,237.057 224.188,242.257 		"/>
		<path fill="#91AEB3" d="M156.016,203.073c-5.968-2.956-7.437-3.99-10.559-5.827c-3.121-1.838,2.304-3.798,7.488-2.566
			c5.181,1.231,2.359,2.75,6.472,6.191C163.525,204.311,171.938,210.962,156.016,203.073z"/>
		<path fill="#91AEB3" d="M169.777,250.896c0,0-3.564,9.83,3.412,9.845c6.977,0.014,11.369-21.938,6.853-22.808
			c-4.515-0.865-1.288,14.066-5.062,14.401C171.205,252.673,169.777,250.896,169.777,250.896z"/>
		<path fill="#91AEB3" d="M207.258,130.239c-0.35,3.202-9.506,7.188-21.854,3.845c-12.348-3.342-18.528-1.525-17.719-6.671
			c0.812-5.144,5.035-0.447,17.271,1.639C197.191,131.134,207.258,130.239,207.258,130.239z"/>
		<path fill="#91AEB3" d="M198.684,212.18c0,0-2.684-1.666-11.662-2.77c-8.976-1.104-10.291-1.623-7.646-7.564
			c2.643-5.944,2.055,1.719,8.458,2.42C194.236,204.962,192.797,210.166,198.684,212.18z"/>
		<path fill="#91AEB3" d="M77.9,151.879c0,0-4.794-4.013-6.15-12.139s-1.356-8.126-1.356-8.126s3.229,14.937-0.672,20.99
			c-3.903,6.055-2.371,12.579-2.371,12.579l5.485,1.097L77.9,151.879z"/>
		<path fill="#91AEB3" d="M250.275,43.338l-61.271-18.657l-19.02,42.913l-9.775-2.938c0,0-0.433-12.011,4.729-18.177
			c5.16-6.166,9.864-3.202,9.864-3.202l13.433-24.87L250.275,43.338"/>
		<polyline fill="#91AEB3" points="131.24,24.104 110.429,75.422 107.522,71.24 127.162,23.411 131.24,24.104 		"/>
		<polyline fill="#91AEB3" points="57.736,196.161 35.207,249.533 29.062,248.176 56.786,185.464 57.736,196.161 		"/>
		<polyline fill="#91AEB3" points="272.73,81.932 258.689,123.768 255.318,121.531 269.564,82.001 272.73,81.932 		"/>
		<polygon fill="#91AEB3" points="70.198,172.224 95.655,120.916 90.838,119.02 		"/>
		<polygon fill="#91AEB3" points="228.616,230.238 254.314,174.472 249.457,172.152 		"/>
		<path d="M227.923,58.22c-6.843-12.214-26.11-22.627-46.993-10.201c-15.461,9.2-17.742,23.983-13.686,36.308
			c1.016,3.083,3.765,9.02,5.887,11.526s17.771,18.84,42.723,9.735C239.885,96.82,234.578,70.101,227.923,58.22z M196.046,55.765
			c2.954-0.261,5.476,0.95,5.632,2.71c0.156,1.761-2.111,3.399-5.066,3.661c-2.954,0.262-5.475-0.949-5.631-2.709
			C190.824,57.667,193.092,56.029,196.046,55.765z M228.943,77.18c-0.062,4.023-0.479,22.849-19.707,27.727
			c-12.422,3.153-26.107-3.601-28.713-6.751c-2.188-2.067-1.844-3.922,0.789-5.222c1.371-0.969,3.947-1.546,9.367-1.811
			c10.522-0.514,15.286,0.756,15.286,0.756s6.808-9.06,11.468-13.704c2.51-2.499,6.907-5.141,8.875-4.593
			C227.463,73.903,228.977,75.195,228.943,77.18z"/>
		<path d="M220.411,103.385c0,0,2.739,2.295,2.78,4.51c0.037,2.218-14.754,5.274-19.687,5.08
			c-4.932-0.196-14.312-0.472-19.299-1.298c-4.748-0.786-6.593-1.001-6.593-1.001s26.296,6.86,28.867,9.012
			c2.566,2.149,5.871,1.855,4.916,0.039c-0.955-1.818,0.222-2.875,2.664-2.14c2.442,0.733,3.073,0.679,2.488-0.539
			c-0.583-1.216,2.623-2.61,5.323-0.79c2.694,1.821,4.64,2.283,4.64,2.283s-3.027,12.317-3.752,16.664
			c-0.724,4.345,0.022,3.804,0.022,3.804s3.319-9.016,4.286-12.431c0.964-3.415,2.438-4.655,2.879-3.269
			c0.441,1.389,0.582,2.961,0.582,2.961s3.051-3.125,3.012-5.341c-0.037-2.215,3.195-3.296,5.279-1.261
			c2.084,2.034,7.361,7.907,7.361,7.907s-3.689-5.857-1.192-4.492c2.501,1.365,7.954,5.636,7.954,5.636s-3.918-6.628-8.687-10.327
			c-4.769-3.698-7.584-5.035-12.539-7.291c-4.959-2.254-6.065-5.802-7.252-6.648c-1.184-0.845-3.383-2.396-3.383-2.396
			L220.411,103.385z"/>
		<path d="M235.186,85.267c0,0,9.496-0.209,10.539-7.489c1.043-7.278-2.938-9.253-2.938-9.253l7.488-25.187l-61.109-23.955
			L175.27,46.196c0,0-8.183-1.651-11.016,4.52c-2.833,6.169-0.033,10.89-0.033,10.89s-7.353-6.006-3.619-13.949
			c3.733-7.941,13.937-7.315,13.937-7.315l12.304-23.291l65.362,24.213l-5.904,23.99c0,0,2.61,10.337,0.541,15.595
			c-2.068,5.257-10.002,6.385-11.127,5.639C234.594,85.743,235.186,85.267,235.186,85.267z"/>
		<path d="M246.979,79.99c0,0,4.525,5.728,8.004,11.552c3.476,5.824,4.22,14.212,4.22,14.212l-8.733,20.648l-16.906-11.818
			l-7.734-1.428l-1.514-7.475l-4.72-3.172l6.554-7.137l5.148-11.026c0,0,3.719,1.36,7.229,0.414c3.511-0.947,6.863-1.244,8.317-3.91
			"/>
		<path d="M167.076,72.926c0,0-3.652-3.058-6.144,2.236c-2.489,5.296-3.57,12.156-1.474,11.97c2.099-0.187,2.099-0.187,2.099-0.187
			s0.634,7.133,2.572,9.92c1.938,2.788,1.938,2.788,1.938,2.788s-3.727-3.896-7.417-7.374c-3.692-3.477-5.492,0.064-6.676,1.014
			c-1.181,0.952,3.386,4.774,3.386,4.774s-3.852-0.502-4.468,2.089c-0.615,2.592-2.488,5.293-2.488,5.293s-0.328-8.427-3.792-9.386
			c-3.468-0.962-7.629-0.169-8.269-2.648c-0.644-2.48,1.111-1.79-3.197-2.677c-4.309-0.884-6.554-2.377-7.587,0.253
			c-1.036,2.627-2.948,4.911-2.948,4.911s1.083-6.859-3.951-6.414c-5.034,0.448-10.376,2.191-10.376,2.191l-3.441,4.111
			c-2.336,6.971-2.336,6.971-2.336,6.971s-4.832-6.758-5.104-5.043c-0.265,1.715-4.548,5.9-4.548,5.9l-1.483-2.405L105.95,65.66
			l0.714-1.743l28.981-2.152l0,0c0,0,8.782-5.854,16.219-7.784c7.441-1.927,9.762-1.976,9.762-1.976s0.463-0.147,1.632,5.88
			c1.168,6.027,5.246,7.302,5.246,7.302L167.076,72.926z"/>
		<polygon points="125.396,20.185 154.679,30.901 139.129,62.937 135.643,61.766 149.126,32.663 127.162,23.411 111.154,66.9 
			106.661,63.918 		"/>
		<path d="M249.516,125.218l18.438-47.088l28.08,9.132l-30.067,75.603c0,0-0.035-0.418-2.633,1.292
			c-2.6,1.71-4.027,2.259-4.027,2.259s1.701-2.266,2.828-3.844c1.127-1.581,1.84-3.123,1.157-6.023
			c-0.681-2.899-0.962-6.045-2.121-7.209c-1.159-1.166-3.655-3.059-4.166-4.07c-0.511-1.012-0.468-2.916-1.515-5.151
			c-1.044-2.232-6.821-29.201-6.821-29.201l25.909,17.994l16.973-39.771l-21.986-7.138l-15.442,47.458
			C254.121,129.459,250.859,128.48,249.516,125.218z"/>
		<path d="M265.727,169.651c0.508,3.337,0.732,5.854,0.732,5.854s-1.357,1.389-0.461,1.943c0.893,0.556,3.531-3.062,1.77-8.611
			c-1.76-5.552-3.131-6.698-3.131-6.698"/>
		<polygon points="248.359,169.293 271.598,178.645 246.93,253.133 223.708,243.992 224.211,240.143 246.001,249.834 
			248.42,241.373 228.555,234.259 228.803,232.336 248.691,239.658 268.393,180.618 247.381,172.549 		"/>
		<polygon points="248.359,169.293 222.83,243.646 226.105,244.836 225.484,242.566 250.453,171.432 		"/>
		<path d="M224.352,162.017c0,0,3.168,3.524,1.043,8.151c-2.127,4.629-1.498,4.574-0.387,6.375c1.112,1.805,3.51,3.813,3.678,5.701
			c0.17,1.887,0.594,3.118,2.308,4.55c1.713,1.435,4.571,1.498,2.879,3.869c-1.69,2.369-3.32,1.878-2.181,3.997
			c1.14,2.119,6.427,4.503,6.427,4.503l1.08,1.487c0,0-7.06-0.957-8.039,2.303c-0.979,3.258,1.641,7.781,1.641,7.781
			s-5.54-1.728-7.03-0.645s-4.504,6.424-4.504,6.424l-0.816,8.635c0,0,1.277,3.692,1.732,5.238c0.455,1.543,4.482,4.041,4.482,4.041
			l-2.477,7.828l7.08,4.764l-31.549,73.196l-19.143-8.442c0,0-0.076-4.436,1.957-6.52c2.035-2.083,5.812-2.419,4.357-4.509
			s-5.888-2.015-4.798-4.013c1.093-2,4.273-5.455,6.052-6.881c1.772-1.426,7.5-4.789,6.731-6.305
			c-0.771-1.518-0.733-4.691,1.099-5.488c1.83-0.797-0.078-4.435-1.994-4.58c-1.914-0.146-5.453-4.272-1.049-4.664
			c4.404-0.391,9.272-2.725,9.131-4.299c-0.14-1.572-2.963-4.811-2.531-7.067c0.437-2.259-0.362-4.091,1.785-4.914
			c2.146-0.825,3.838-3.195,0.666-3.229c-3.176-0.035-4.748,0.104-4.887-1.47c-0.142-1.571-2.171-2.979,1.754-5.229
			c3.922-2.25,7.248-7.619,5.647-7.795c-1.603-0.176-8.627-4.308-3.621-5.069c5.009-0.761,3.035-1.537,5.188-5.851
			s5.496-2.391,5.586-4.938c0.091-2.543-7.971-4.047-7.51-5.99c0.463-1.944,3.017-5.342,5.594-8.424
			c2.58-3.083-5.367-3.33-2.53-7.07c2.84-3.74,8.244-3.585,9.909-6.27c1.662-2.685-4.973-2.414,0.068-6.35
			c5.041-3.935,1.322-2.971,3.957-5.425c2.639-2.454,0.778-1.97,0.471-5.431C221.305,170.531,225.771,167.281,224.352,162.017z"/>
		<path d="M188.598,291.398c0,0-8.074,5.475-13.934,3.774s-5.084-3.67-3.512-3.812c1.574-0.139,2.832-0.252,2.832-0.252
			s-2.74-2.293-11.772-4.026c-9.034-1.733-14.068-1.287-14.068-1.287s7.831,2.478,14.172,6.033
			c6.341,3.562,11.681,6.573,15.145,6.269c3.459-0.31,8.836-0.471,11.057,3.139C190.742,304.844,192.715,291.352,188.598,291.398z"
			/>
		<path d="M184.45,305.402c1.864-3.78-8.509,7.731-13.2,8.467c-4.691,0.732-7.836,1.013-7.836,1.013s8.549-0.126,5.509,4.901
			c-3.044,5.024,0.188,5.69-2.933,6.283c-3.117,0.596-6.67,3.446-5.815,5.907c0.853,2.462,0.158,5.377-1.309,10.265
			c-1.468,4.889,0.561,6.293-3.187,6.942c-3.75,0.65-6.663-0.043-9.607-1.049c-2.942-1.006-10.082-6.397-10.082-6.397l-3.488-0.009
			c0,0,1.538,3.035,6.796,5.105c5.258,2.069,10.402,2.882,12.828,5.201c2.425,2.321,0.992,4.035,0.992,4.035
			s-3.44,4.109-2.984,5.653c0.453,1.545,0.104,4.746-2.617,6.258c-2.718,1.513-3.067,4.714-3.067,4.714s3.341,1.924-0.294,3.832
			c-3.636,1.905-11.648,4.521-16.961,1.821c-5.314-2.699-9.656-5.167-10.563-8.258c-0.908-3.088-2.531-7.068,1.278-10.576
			c3.811-3.51,6.476-5.647,6.455-9.453c-0.021-3.803,4.306-8.627,4.306-8.627l1.1-5.487c0,0-4.415,3.88-6.197,8.794
			c-1.784,4.915,0.448,5.035-3.363,8.544c-3.811,3.51-10.642,15.85-0.792,23.219c9.851,7.369,23.266,4.909,26.792,1.744
			c3.524-3.168,8.51-7.733,7.969-10.224c-0.536-2.485,0.128-5.719,2.191-7.485c2.062-1.771,1.958-6.519,1.875-7.463
			c-0.086-0.941,4.021-8.283,5.084-10.599c1.062-2.313,1.697-5.855,1.504-8.059c-0.197-2.205,3.41-4.428,4.9-5.512
			c1.49-1.083,2.182-3.998,3.215-6.627c1.035-2.632,3.302-5.685,4.873-5.824C179.396,316.316,180.688,313.03,184.45,305.402z"/>
		<path d="M147.888,261.508l-17.562-7.318c0,0-3.27-3.516-7.727-6.078c-4.458-2.563-4.458-2.563-4.458-2.563
			s8.084,0.556,10.787,2.427c2.703,1.871,4.001,2.182,2.937-0.262c-1.062-2.441-1.062-2.441-1.062-2.441s4.838,2.105,6.403,0.699
			c1.567-1.408-2.472-4.009-0.334-3.775c2.135,0.231,5.642,1.611,4.652,0.01c-0.99-1.604,0.386-5.107,2.599-4.037
			c2.211,1.073,3.208-1.977,3.208-1.977s0.632,7.133,2.348,7.402c1.715,0.27,5.678,2.032,1.938,2.787
			c-3.737,0.753,1.902,2.366,1.902,2.366s-2.516,0.224-4.009,2.472c-1.491,2.247,2.966,4.811,2.966,4.811s-6.785-0.242-5.687,2.619
			c1.098,2.86,4.186,4.277,4.186,4.277L147.888,261.508z"/>
		<path d="M143.462,254.502c0,0,2.28,11.424,0.752,13.252c-1.527,1.828-1.229,5.184-1.229,5.184s1.24,9.191-0.215,11.858
			c-1.457,2.665-0.232,2.134,0.448,5.032c0.679,2.9,0.409,4.613-1.811,8.193c-2.219,3.582-1.423,7.737-4.251,9.258
			c-0.431,0.231-0.847,0.442-1.236,0.643c-2.146,1.104-3.485,1.855-2.587,3.922c1.063,2.443,0.485,5.456,0.485,5.456
			s-1.483-2.406-2.332,2.319c-0.846,4.729-3.729,15.131-3.729,15.131l0.718,3.318c0,0,4.006-2.469,3.747-5.407
			c-0.261-2.936-2.728-6.944-0.017-9.721c2.713-2.778,5.388-5.976,3.833-9.221c-1.558-3.244,1.834-3.122,3.019-4.071
			c1.185-0.953,3.328-5.373,3.104-7.89c-0.224-2.516,3.31-23.44,5.723-29.575c2.416-6.134,10.28-5.668,10.28-5.668L143.462,254.502z
			"/>
		<path d="M143.219,289.828c0,0-0.208,7.207,1.621,8.734c1.825,1.528,2.814,3.133,2.814,3.133l-6.698,3.131
			C140.956,304.826,142.716,293.68,143.219,289.828z"/>
		<path d="M118.142,245.547c0,0,3.315,1.609,6.317,6.84c3.002,5.229,3.82,7.271,2.33,7.191c-1.486-0.08-5.367-3.328-5.367-3.328
			s2.757,2.502,2.505,4.427c-0.253,1.925-3.526,7.925-3.526,7.925s-4.444-7.217-10.177-9.877c-5.733-2.662-17-3.352-17-3.352
			s6.67,1.309,8.709,2.818c2.037,1.51-1.878,2.703-1.878,2.703s6.351,0.069,9.828,5.893c3.477,5.822,4.809,6.549,3.243,7.956
			c-1.565,1.407-8.31-0.742-8.31-0.742s5.902,4.55,3.608,7.291c-2.295,2.741-8.842-1.963-8.842-1.963
			c-1.562-0.917,10.444,10.487,7.689,15.171s0.471,2.919-1.553,3.945c-2.022,1.022-9.364,1.679-9.364,1.679s1.654,1.966,2.224,3.606
			c0.571,1.639,0.759,1.412-0.448,4.479s-4.064,1.84-4.981,3.402c-0.922,1.561,5.906,2.225,2.944,4.6
			c-2.958,2.377-3.664,1.594-3.664,1.594s1.084,2.653,0.392,4.406c-0.69,1.752-9.284,0.189-9.284,0.189s6.426,0.907,4.773,6.129
			c-1.652,5.222-3.846,6.685-3.846,6.685s1.686,4.712-1.25,4.973c-2.938,0.262-2.938,0.262-2.938,0.262s1.476,4.73-1.25,4.974
			c-2.725,0.242,0.546,3.759-1.951,4.19c-2.498,0.434-1,3.047-4.41,2.716c-3.413-0.333-1.037,4.956-10.042-1.222
			c-9.006-6.177-13.175-10.244-11.66-14.607c1.516-4.361,1.516-4.361,1.516-4.361l0.688-1.754l4.653,0.008l6.236-10.698
			c0,0-4.542,1.247-9.029,5.453c-4.488,4.202-10.09,12.522-6.991,16.475c3.1,3.953,15.803,18.469,23.662,16.501
			c7.86-1.966,12.349-6.167,16.523-16.266c4.179-10.096,4.985-12.916,5.98-15.964c1-3.048,5.344-11.257,5.344-11.257
			s0.801-0.492,1.912-2.281c1.108-1.793,0.23,0.189-0.394-2.079c-0.627-2.27,0.596-2.804,1.859-5.238
			c1.261-2.438,4.016-4.797,6.214-8.586c2.201-3.789,1.153-3.695,2.568-6.783c1.418-3.084,3.005-6.607,4.208-7.348
			c1.204-0.74,1.727-4.381,2.133-6.955c0.405-2.571,1.343-3.924,2.68-5.521c1.338-1.6,2.718-5.105,3.825-6.895
			c1.113-1.79,5.594-3.668,6.15-4.562C131.252,257.489,139.009,249.613,118.142,245.547z"/>
		<path d="M106.794,202.266c0,0-7.633-0.271-8.271,3.274c-0.636,3.544-1.803,1.11-0.636,3.544c1.167,2.432,1.796,2.377,3.998,2.18
			c2.205-0.195,16.411,2.666,16.411,2.666s-17.01-2.294-19.933,0.502c-2.923,2.799-2.406,1.482,0.139,1.573
			c2.544,0.091,4.23,1.21,4.23,1.21s-9.468,0.521-8.699,2.04c0.769,1.519,2.77,2.608,2.77,2.608s-4.23-1.209-4.692,0.73
			c-0.46,1.946,3.195,3.842,3.195,3.842s-3.173-0.035-3.552,2.854c-0.377,2.887-0.036,3.173,4.823,4.326
			c4.863,1.156,10.664,2.223,10.664,2.223s-13.956-2.135-12.011,0.436c0.898,1.188,3.657,1.896,3.657,1.896
			s-9.952-1.338-10.985,1.291c-1.035,2.63-0.707,9.895,0.006,10.781c0.714,0.889,5.316,5.131,5.316,5.131s-3.184,1.021-5.792,3.791
			c-2.609,2.768-2.005,2.396-5.584,4.936c-3.583,2.535-5.048,7.424-5.048,7.424s2.738,2.293,0.389,4.404
			c-2.348,2.112-5.732,6.853-4.049,7.971c1.684,1.117,1.854,3.007,1.854,3.007s-3.092,0.907-3.525,3.168
			c-0.433,2.256,1.229-0.427-0.923,3.885c-2.155,4.315-0.098,6.033-0.421,9.552c-0.322,3.518-3.977,1.625-4.727,3.907
			c-0.748,2.285-1.076,9.293-1.076,9.293s-0.511-2.176-1.356-8.125c-0.846-5.95,1.924-3.34,1.957-6.517
			c0.039-3.174-0.474-5.348,1.19-8.033c1.664-2.686,4.846-6.139,4.28-8.941c-0.564-2.804,1.151-4.856,1.846-7.773
			c0.692-2.916,4.071-4.167,4.224-9.57c0.154-5.404,7.227-11.424,7.227-11.424l0.21-4.777l1.387-5.828c0,0-1.336-4.32,1.105-8.979
			c2.438-4.656-2.653-4.839-2.653-4.839l-14.482-6.005l13.506-33.545l7.175,2.216l7.761-19.715c0,0,7.719,1.217,9.417-4.642
			c1.701-5.858-0.104-4.747,1.532-7.747c1.636-2.999,4.386-4.194,4.504-6.425c0.119-2.229-5.224-5.243-5.224-5.243l1.527-4.257
			c0,0,2.1,5.837,6.339,3.558c4.237-2.279,2.756-4.685-0.761-5.007c-4.137-0.377-5.091-0.181-5.091-0.181s7.993-6.418,11.307-4.81
			s7.943,3.733,7.943,3.733s-1.889,0.168-1.721,2.057c0.166,1.887,4.573,1.496,4.573,1.496s-7.469,1.615-9.789,4.04
			c-2.324,2.426,0.132,5.062,0.013,7.292c-0.118,2.232,1.308,4.006,2.936,4.496c1.629,0.49-5.235,1.735-2.292,2.74
			c2.941,1.007-0.427-1.23-4.524,2.623c-4.097,3.853,1.104,5.293,1.104,5.293s-5.95,0.846-7.012,3.159
			c-1.063,2.314,0.677,4.062,0.677,4.062s-3.615,5.713-4.365,7.998c-0.745,2.287,3.4,2.553,3.4,2.553s-6.815,5.362-7.592,7.333
			C103.822,200.943,106.794,202.266,106.794,202.266z"/>
		<polygon points="65.568,184.366 90.949,120.277 113.099,126.871 97.7,174.853 99.005,178.859 116.475,125.62 89.3,115.984 		"/>
		<polygon points="91.652,196.001 65.568,184.366 87.728,198.253 		"/>
		<path d="M68.666,165.7c0,0-3.223-4.153-3.153-10.502c0.07-6.347,3.181-3.453,2.677-9.116c-0.503-5.663-0.339-14.557,0.876-22.274
			c1.218-7.719,2.189-7.487,5.881-8.769c3.69-1.278,4.439-3.564,6.445-5.962c2.007-2.397,5.79-6.221,7.364-6.361
			c1.574-0.139,5.761-6.538,5.761-6.538l-1.666,7.441c0,0-3.983,0.355-6.333,2.465c-2.351,2.113-1.783,4.915-1.783,4.915
			s-5.468,2.706-6.873,4.734c-1.407,2.026-6.497,1.846-5.845,5.592c0.647,3.748,0.32,10.752,0.34,14.558
			c0.021,3.801,0.096,8.235-1.112,12.465c-1.21,4.229-1.743,12.521-0.427,13.038c1.313,0.517,2.74,2.293,2.74,2.293l-3.566,9.831
			L68.666,165.7z"/>
		<polygon points="65.819,158.66 29.062,248.176 55.625,261.671 74.212,221.018 73.709,215.354 54.662,257.951 32.465,247.24 
			67.351,165.183 		"/>
		<polygon points="56.981,187.665 54.662,257.951 78.276,206.068 83.85,193.841 65.568,184.366 73.56,163.679 67.506,159.777 		"/>
		<path d="M107.346,212.047c0,0,2.289-2.343,6.337-0.962c1.348,0.458,2.891,1.332,4.613,2.845
			c6.878,6.049,13.394,8.006,13.394,8.006s6.923-0.615,13.325,0.084c6.404,0.701,6.404,0.701,6.404,0.701s-14.975-4.379-22.064-5.65
			C122.265,215.797,112.807,212.83,107.346,212.047z"/>
		<path d="M143.41,196.795c-4.448,0.396,7.719,1.215,11.773,4.025c4.055,2.812,7.538,6.309,11.368,6.603s-9.663-1.678-16.401-6.151
			C143.41,196.795,149.702,196.235,143.41,196.795z"/>
		<polygon points="97.023,185.061 95.504,185.829 66.448,172.873 68.112,170.188 		"/>
		<g>
			<polyline points="68.679,172.992 68.02,187.001 70.363,188.38 70.198,172.224 			"/>
			<polyline points="71.075,174.188 70.417,188.198 72.759,189.577 72.594,173.419 			"/>
			<polyline points="73.472,175.385 72.813,189.394 75.156,190.773 74.991,174.616 			"/>
			<polyline points="75.868,176.582 75.209,190.591 77.553,191.97 77.387,175.812 			"/>
			<polyline points="78.264,177.778 77.606,191.788 79.949,193.167 79.783,177.009 			"/>
			<polyline points="80.66,178.975 80.003,192.984 82.345,194.363 82.18,178.205 			"/>
			<polyline points="83.056,180.171 82.399,194.18 84.742,195.56 84.576,179.402 			"/>
			<polyline points="85.452,181.368 84.795,195.376 87.138,196.756 86.972,180.598 			"/>
			<polyline points="87.849,182.564 87.192,196.573 89.534,197.953 89.368,181.794 			"/>
			<polyline points="90.245,183.761 89.589,197.77 91.931,199.149 91.764,182.991 			"/>
		</g>
		<g>
			<polyline points="228.725,232.816 228.854,245.246 227.055,244.186 227.559,233.408 			"/>
			<polyline points="229.413,234.107 228.908,244.886 230.709,245.947 230.578,233.518 			"/>
			<polyline points="231.268,234.809 230.762,245.586 232.562,246.646 232.432,234.217 			"/>
			<polyline points="233.121,235.508 232.615,246.285 234.415,247.346 234.286,234.918 			"/>
			<polyline points="234.975,236.209 234.469,246.984 236.27,248.046 236.141,235.617 			"/>
			<polyline points="236.828,236.909 236.322,247.686 238.123,248.746 237.994,236.316 			"/>
			<polyline points="238.684,237.609 238.176,248.386 239.977,249.445 239.848,237.018 			"/>
			<polyline points="240.536,238.311 240.029,249.086 241.83,250.146 241.702,237.717 			"/>
			<polyline points="242.391,239.01 241.884,249.785 243.684,250.846 243.557,238.417 			"/>
			<polyline points="244.244,239.709 243.738,250.486 245.537,251.545 245.41,239.117 			"/>
			<polyline points="246.098,240.409 245.592,251.186 247.391,252.246 247.264,239.816 			"/>
		</g>
		<path d="M147.488,271.27c3.168,3.523,5.132,7.787,3.014,8.929c-2.119,1.139-4.726,3.905-4.015,4.795
			c0.714,0.889-3.469,3.795-1.272,7.09c2.194,3.293,2.723,5.681-0.375,6.479c-3.101,0.804-1.953-0.564-1.953-0.564l-0.608-10.411
			l1.236-3.915l-0.53-10.734"/>
		<path d="M142.163,301.76c0,0,4.646,8.254,5.61,11.976c0.963,3.721-4.551,2.309-7.584,3.844c-3.036,1.539,0.306,3.463,1.158,5.922
			c0,0-1.999-1.09-3.32,1.882c-2.246,5.05-2.897,3.11-3.329,5.369c-1.171,6.093,3.503,7.298-0.874,8.005
			c-4.377,0.707-6.642,3.762-4.616,5.166c2.027,1.406-3.098,4.396-6.222,8.479c-3.125,4.085-3.098,18.669-0.303,21.591
			c2.794,2.924,4.365,6.272,0.307,3.463c-4.055-2.812-8.849-6.826-7.521-13.285c1.329-6.461,4.908-8.998,4.908-8.998
			s3.413-4.426,3.764-7.629c0.348-3.201,0.901-6.525,4.336-9.475c3.438-2.949,0.326-5.845,2.027-11.701
			c1.698-5.859,1.957-6.518,3.761-7.628c1.804-1.112-0.93-6.896-0.93-6.896s4.124-2.371,5.901-4.96
			C141.014,304.293,142.163,301.76,142.163,301.76z"/>
	</g>
</g>
</svg>
