<?xml version="1.0" encoding="utf-8"?>
<!-- Generator: Adobe Illustrator 16.2.0, SVG Export Plug-In . SVG Version: 6.00 Build 0)  -->
<!DOCTYPE svg PUBLIC "-//W3C//DTD SVG 1.1//EN" "http://www.w3.org/Graphics/SVG/1.1/DTD/svg11.dtd">
<svg version="1.1" id="Layer_1" xmlns="http://www.w3.org/2000/svg" xmlns:xlink="http://www.w3.org/1999/xlink" x="0px" y="0px"
	 width="277.114px" height="116.563px" viewBox="0 0 277.114 116.563" enable-background="new 0 0 277.114 116.563"
	 xml:space="preserve">
<path fill="#FFFFFF" d="M268.192,67.642c0.162,0.111,0.314,0.229,0.466,0.351c-0.077-0.276-0.143-0.556-0.239-0.825
	c0.916-1.264,2.114-2.746,2.248-3.945c0.243-2.189-0.588-3.733-1.497-5.581c-0.156-0.317-0.281-0.662-0.397-1.018
	c-0.08,0.042-0.152,0.085-0.231,0.125c-1.298,0.623-2.535-1.272-1.222-1.904c0.297-0.143,0.58-0.3,0.862-0.459
	c-0.298-1.223-0.635-2.422-1.339-3.31c-1.525-1.929-3.864-2.486-5.066-4.626c-0.612-1.092-0.733-2.35-0.652-3.612
	c-0.458-0.659-0.907-1.327-1.348-1.999c-1.618-2.463-3.922-4.244-6.51-5.273c-1.395-0.092-2.804-0.146-4.178,0.179
	c-0.185,0.045-0.356,0.044-0.513,0.014c-1.106,0.258-2.219,0.534-3.343,0.66c-0.04,0.166-0.086,0.331-0.126,0.498
	c-0.327,1.421-2.535,0.943-2.211-0.48c0.002-0.013,0.005-0.027,0.011-0.04c-2.437-0.363-4.616-1.46-7.057-1.793
	c-0.994-0.136-1.861-1.029-2.158-1.949c-1.044-3.259-5.154-3.624-7.573-5.521c-2.156-1.688-5.333-4.97-7.677-1.843
	c-1.351,1.799-4.306,0.862-4.929-1.072c-0.08-0.253-0.157-0.535-0.229-0.826c-1.868-0.155-3.527-0.813-5.15-1.553
	c-0.333,1.12-2.218,1.115-2.203-0.216c0-0.265,0.022-0.526,0.034-0.788c-1.643-0.743-3.331-1.389-5.244-1.509
	c-4.539-0.287-5.688-3.611-8.509-6.333c-0.2-0.049-0.404-0.093-0.607-0.144c-0.582-0.503-1.226-0.946-1.946-1.289
	c-2.815-1.336-5.287-1.878-8.354-2.037c-1.076-0.056-2.128,0.073-3.149,0.324c-0.233-0.047-0.469-0.103-0.703-0.148
	c-2.016,0.725-4.028,1.375-5.598,2.933c-0.526,0.523-1.138,0.789-1.757,0.862c-0.11,0.227-0.201,0.469-0.265,0.732
	c-0.059,0.247-0.187,0.417-0.336,0.554c-0.022,0.025-0.055,0.043-0.078,0.066c-0.045,0.033-0.08,0.079-0.129,0.104
	c-0.293,0.2-0.675,0.261-1.087,0.037c-1.693-0.917-2.707-2.4-3.741-3.878c-3.503-1.245-6.831-1.331-10.425-0.525
	c-1.156,1.641-4.121,1.747-5.221-0.685c-0.167-0.576-2.842-0.608-3.322-0.614c-0.513-0.007-0.953-0.127-1.337-0.316
	c-2.13,0.458-4.291,1.501-4.882,2.444c-0.293,0.462-0.651,0.812-1.046,1.059c0.104,0.799-0.691,1.706-1.625,1.212
	c-1.439-0.764-2.83-1.586-4.229-2.374c-1.181-1.152-2.759-2.034-4.782-2.474c-0.231-0.05-0.449-0.077-0.674-0.112
	c-1.015-0.356-2.062-0.65-3.171-0.83c-0.489-0.081-0.757-0.455-0.832-0.873c-1.828,0.236-3.402,0.534-4.199,0.695
	c-3.455,0.693-3.967,3.46-6.654,4.728c1.177,0.503,0.7,2.476-0.647,2.129c-0.787-0.203-1.475-0.627-2.11-1.123
	c-0.045-0.034-0.065-0.088-0.102-0.129c-2.316,0.465-4.706,0.552-6.948,1.442c-0.181,0.072-0.355,0.115-0.526,0.152
	c-0.289,0.377-0.658,0.679-1.063,0.896l-0.121,0.555c-0.31,1.425-2.52,0.944-2.209-0.48l0.014-0.062
	c-0.253-0.138-0.501-0.307-0.737-0.553c-1.316-1.368-2.576-2.8-4.171-3.808c-0.981,0.25-1.96,0.514-2.938,0.779
	c-0.405-0.139-0.825-0.264-1.273-0.361c-4.415-0.96-7.785,0.852-9.756,3.704c-0.196,0.067-0.396,0.129-0.596,0.195
	c-0.021,0.066-0.031,0.131-0.057,0.198c-0.507,1.262-1.271,2.221-2.197,2.981c0.306,0.488,0.164,1.01-0.197,1.393
	c0.01,0-0.004,0.031-0.038,0.089c-0.025,0.091-0.047,0.18-0.067,0.271c-0.298,1.343-2.253,0.982-2.214-0.255
	c-2.116,0.913-4.556,1.376-6.768,1.977c-0.039,0.2-0.083,0.4-0.126,0.599c-0.264,1.216-1.898,1.038-2.186,0.079
	c-1.026,0.181-1.869-0.219-2.434-0.884c-1.02,0.46-2.035,0.932-3.046,1.411c0.086,0.881-0.252,1.693-0.802,2.302
	c0.117,0.36,0.239,0.717,0.36,1.073c0.468,1.385-1.687,2.081-2.152,0.701c-0.079-0.235-0.154-0.467-0.232-0.702
	c-0.919,0.099-1.856-0.288-2.451-1.388c-0.786-1.461-2.001-2.422-3.358-3.214c-4.185-0.922-8.33-1.356-12.707-1.091
	c-2.584,0.883-4.917,2.103-6.735,3.911c-0.493,2.097-1.641,4.107-3.058,5.639c-0.574,0.622-1.375,0.366-1.754-0.166
	c-1.485,0.672-3.39,1.184-4.673,1.142c-0.198,0.133-0.406,0.244-0.639,0.301c-0.247,0.06-0.484,0.083-0.718,0.085
	c-0.195,1.659-1.573,3.225-3.449,2.646c-6.44-1.984-7.992,4.431-9,9.092c0.196,0.446,0.354,0.914,0.483,1.396
	c0.693,0.242,1.175,1.128,0.515,1.815c-2.437,2.546-4.105,5.187-5.118,8.418c0.156,0.141,0.321,0.274,0.476,0.421
	c-1.042-0.896,0.06,0.872,0.453,1.106c0.034,0.764,0.032,1.53,0.015,2.291c-0.04,1.626,0.012,3.177,0.124,4.697
	c0.521,0.28,0.889,0.685,1.111,1.157c0.639,0.165,1.216,0.547,1.63,1.192c0.676,1.051,0.58,2.661-0.308,3.584
	c0.153,1.315,0.086,2.641-0.072,3.966c0.341,0.777,0.711,1.553,1.149,2.338c1.669,2.977,4.067,5.465,6.848,7.547
	c2.776,0.308,5.57,0.303,8.357,0.449c0.278,0.016,0.565,0.072,0.853,0.144c0.23-0.241,0.56-0.388,0.987-0.296
	c0.708,0.155,0.944,0.778,0.83,1.329c0.212,0.111,0.398,0.288,0.521,0.55c0.143,0.309,0.315,0.609,0.506,0.912
	c0.637,0.58,1.198,1.22,1.615,1.969c1.082,1.058,2.367,1.933,3.632,2.391c0.342,0.125,0.53,0.346,0.603,0.595
	c3.316,0.804,6.753,1.198,10.222,1.339c0.529-0.253,1.052-0.525,1.602-0.708c0.414-0.136,0.821-0.218,1.233-0.267
	c0.667-0.546,1.417-0.983,2.295-1.229c0.111-0.033,0.221-0.045,0.332-0.062c0.336-0.463,0.805-0.817,1.35-1.023
	c0.004-0.652,0.497-1.32,1.323-1.141c0.661,0.143,0.898,0.693,0.836,1.217c0.373,0.169,0.711,0.411,0.987,0.714
	c0.027,0.017,0.054,0.023,0.08,0.044c0.864,0.579,1.808,0.924,2.785,1.176c0.056-0.008,0.108-0.014,0.163-0.025
	c0.612-0.109,1.199,0.068,1.697,0.411c0.464,0.081,0.931,0.156,1.393,0.239c0.149-0.014,0.298-0.024,0.444-0.037
	c1.919-0.181,3.833-0.383,5.735-0.566c0.214-0.109,0.43-0.215,0.646-0.318c0.107-0.459,0.348-0.916,0.795-1.34
	c0.707-0.67,1.495-1.241,2.396-1.561c-0.106-0.705,0.411-1.525,1.317-1.328c0.64,0.138,0.88,0.658,0.838,1.16
	c2.062,0.053,3.97,0.65,5.633,1.911c0.735,0.114,1.47,0.216,2.205,0.323c0.497-0.913,1.569-1.345,2.645-1.279
	c-0.058-1.421,2.157-1.523,2.259-0.085c0.145,2.035,1.929,3.188,3.646,4.116c3.811,1.062,7.574,2.25,11.455,3.071
	c1.514-0.357,4.262-0.818,5.082-2.021c1.203-1.763,3.739-2.223,5.042-0.222c1.081,1.66,5.202,0.908,6.704,0.23
	c1.919-0.867,3.316,0.493,3.582,2.127c1.439-0.232,2.877-0.492,4.326-0.779c0.32,0.496,0.681,0.963,1.058,1.415
	c1.004-0.284,2.042-0.475,3.137-0.66c0.174-0.028,0.352-0.038,0.533-0.035c0.695-0.183,1.479-0.214,2.345-0.025
	c1.776,0.386,2.872,1.45,3.389,2.739c0.535,0.081,1.058,0.25,1.545,0.539c0.501,0.297,1.004,0.592,1.521,0.861
	c0.462-0.029,0.951,0.002,1.476,0.115c1.646,0.358,2.695,1.301,3.255,2.465c0.481,0.223,0.956,0.459,1.417,0.725
	c0.233,0.134,0.386,0.311,0.475,0.509c0.197,0.017,0.399,0.04,0.609,0.085c0.826,0.178,2.846,0.754,4.579,0.744
	c1.641-0.75,2.798-2.088,3.043-3.895c0.02-0.135,0.071-0.238,0.12-0.34c0.058-0.466,0.126-0.93,0.234-1.389
	c-0.491-0.658-0.72-1.508-0.535-2.359c0.337-1.547,1.9-2.554,3.445-2.234c0.04-0.097,0.079-0.191,0.09-0.284
	c0.134-1.009,0.491-1.8,0.996-2.396c0.024-1.675,1.325-3.377,3.448-2.916c1.221,0.266,1.891,1.074,2.119,2.006
	c0.344,0.152,0.675,0.334,0.985,0.551c0.574-0.155,1.16-0.297,1.738-0.436c0.574-0.089,1.146-0.174,1.719-0.244
	c1.767-0.236,3.546-0.369,5.322-0.486c0.85-0.055,1.706-0.096,2.56-0.127c0.042-0.079,0.089-0.157,0.133-0.234
	c0.097-0.184,0.186-0.37,0.271-0.561c0.034-0.107,0.08-0.246,0.094-0.307c0.374-1.548,1.889-2.578,3.474-2.232
	c1.073,0.234,1.9,1.091,2.177,2.117c0.234-0.248,0.562-0.412,0.982-0.359c1.097,0.137,2.192,0.252,3.288,0.371
	c0.441-0.257,0.972-0.393,1.584-0.341c0.881-0.833,2.181-0.942,3.359-0.472c0.853,0.342,1.706,0.689,2.532,1.099
	c0.058-0.007,0.112-0.015,0.175-0.011c1.572,0.077,3.146,0.142,4.714,0.195c2.194-1.531,4.596-2.492,7.105-3.153
	c0.222-0.368,0.441-0.735,0.655-1.112c0.61-1.072,2.135-0.482,2.151,0.491c3.637-0.661,7.406-0.91,11.032-1.462
	c1.374-0.211,2.421,0.734,2.848,1.914c2.97,1.406,5.798,2.446,9.261,2.734c2.167,0.179,3.85-0.234,5.505-0.886
	c0.328-0.641,0.876-1.146,1.633-1.3c0.793-0.165,1.589-0.33,2.384-0.496c0.011,0,0.021,0,0.03-0.003
	c0.084-0.384,0.157-0.769,0.261-1.148c0.62-2.627,3.729-2.724,5.116-1.218c0.548-0.365,1.229-0.565,2.03-0.469
	c1.097,0.133,2.032,0.246,2.918-0.49c0.847-0.702,1.073-1.755,1.657-2.639c0.16-0.25,0.335-0.459,0.511-0.666
	c-0.054-0.613-0.045-1.243,0.064-1.897c0.173,0.12,0.333,0.228,0.489,0.331c0.232-0.557,0.845-0.951,1.525-0.571
	c1.969,1.1,4.004,2.849,6.153,1.202c1.091-0.836,2.07-1.491,3.368-1.71c0.273-0.985,0.746-1.864,1.439-2.728
	c0.526-0.656,1.009-1.25,1.345-1.875c-0.188-1.077-0.164-2.105,0.149-3.168c-0.104-0.09-0.211-0.182-0.331-0.264
	C265.956,68.834,266.988,66.817,268.192,67.642z"/>
<path d="M271.495,61.36c-0.512-4.3-3.422-5.736-3.422-5.736s1.877-2.947-0.969-6.655c-1.632-2.126-4.843-2.179-4.843-2.179
	s0.359-6.85-5.664-10.253s-12.63,0.315-12.63,0.315s-0.729-2.574-4.232-3.498c-3.505-0.922-3.96,0.429-3.96,0.429
	s0.589-1.966-2.428-4.393c-3.016-2.428-5.523-2.007-5.523-2.007s-0.934-3.102-5.241-4.039c-4.308-0.937-6.408,2.796-6.408,2.796
	s-1.021-3.444-4.371-4.334c-3.354-0.89-4.522,0.788-4.522,0.788s-0.829-2.113-3.926-3.432c-3.096-1.317-5.551-0.402-5.551-0.402
	s-2.363-8.243-14.131-9.837c-10.327-1.398-14.45,4.792-15.193,7.651c0.709-2.726,6.791-7.384,15.138-5.89
	c12.556,2.246,12.885,10.372,12.885,10.372s2.665-2.642,6.74-0.627c4.072,2.014,3.371,5.243,3.371,5.243s0.753-2.736,4.294-1.966
	c3.534,0.769,5.229,4.842,5.229,4.842s2.371-3.512,6.166-3.169c3.791,0.34,5.037,3.51,5.037,3.51s-0.231-1.177,3.57,0.616
	c3.797,1.793,4.046,7.323,4.046,7.323s1.645-2.381,4.465-1.285c2.824,1.098,4.033,4.421,4.033,4.421s4.36-5.978,11.377-2.681
	c7.013,3.296,5.648,11.055,5.648,11.055s3.717-0.802,6.006,2.755c2.289,3.559-1.325,5.35-1.325,5.35s4.446,1.772,4.557,6.465
	c0.105,4.697-3.852,5.123-3.852,5.123s2.772,5.76-1.889,9.417c-4.661,3.656-12.406-2.214-12.406-2.214s1.412,6.105-1.824,7.656
	c-3.238,1.551-7.097-2.188-7.097-2.188s-2.393,6.566-9.949,7.984c-7.557,1.415-13.589-7.144-13.589-7.144s-1.88,3.458-6.947,3.807
	c-5.071,0.346-6.433-3.01-6.433-3.01s-1.867,6.36-8.783,6.306c-6.915-0.056-7.569-5.189-7.569-5.189s-0.214,5.43-5.096,5.654
	c-4.882,0.229-5.471-5.215-5.471-5.215s-1.609,5.934-8.761,6.955c-7.148,1.021-13.473-4.703-13.473-4.703s1.154,2.83-0.878,6.253
	c-2.032,3.424-5.264,2.724-5.264,2.724s3.96,6.979-1.17,9.086c-5.13,2.105-7.329-4.816-7.329-4.816s-3.322,1.215-6.322-0.566
	c-2.992-1.779-3.047-5.979-3.047-5.979s-0.101,4.166-6.574,3.564c-6.473-0.604-7.924-4.301-7.924-4.301s0.254,3.276-4.667,2.205
	c-4.924-1.07-5.45-4.569-5.45-4.569s-2.501,5.581-10.626,5.907c-8.127,0.328-13.515-9.705-13.515-9.705s-1.573,3.525-6.629,3.071
	c-5.055-0.456-7.704-4.576-7.704-4.576s-1.8,6.053-8.605,6.989c-6.808,0.936-9.243-4.91-9.243-4.91s-3.922,6.166-12.371,5.042
	c-9.551-1.271-12.519-8.36-12.519-8.36S13.48,84.188,9.735,79.188C5.99,74.184,9.85,66.808,9.85,66.808s-6.607-3.69-5.698-10.097
	c0.909-6.406,7.329-10.002,7.329-10.002s-5.153-2.25-1.254-8.329c3.899-6.08,10.359-0.97,10.359-0.97s-0.649-3.685,2.348-5.61
	c2.994-1.926,6.098,0.844,6.098,0.844s0.982-8.968,11.169-10.62c10.185-1.651,18.271,7.838,18.271,7.838s0.44-4.254,3.082-5.291
	C64.196,23.537,68,26.779,68,26.779s0.375-3.944,3.599-4.694c3.224-0.749,4.688,2.147,4.688,2.147s1.793-11.208,9.865-12.03
	c8.07-0.823,13.367,7.417,13.367,7.417s-0.086-4.047,6.092-4.314c6.179-0.267,6.796,3.573,6.796,3.573s0.007-9.665,10.025-10.546
	c10.018-0.883,15.453,8.19,15.453,8.19s1.427-5.81,7.384-5.803c5.958,0.006,8.012,4.641,8.012,4.641s0.97-4.46,7.135-3.925
	c6.166,0.535,8.064,5.137,8.064,5.137s0.251-5.785-6.978-7.357c-7.228-1.571-9.21,2.549-9.21,2.549s-2.509-3.284-7.443-3.552
	c-4.934-0.268-8.39,5.747-8.39,5.747s-5.496-7.801-16.014-6.865c-7.883,0.702-8.794,7.108-8.794,7.108s-3.389-2.188-7.143-1.231
	c-3.75,0.957-4.968,3.591-4.968,3.591s-4.728-7.149-13.14-6.24c-8.413,0.91-10.367,10.632-10.367,10.632s-2.928-2.087-6.317-0.568
	C66.328,21.905,67,23.984,67,23.984s-2.914-2.89-6.184-1.184c-3.271,1.705-2.556,5.083-2.556,5.083s-9.339-10.407-20.232-6.976
	c-10.895,3.43-9.671,9.657-9.671,9.657s-2.588-2.173-5.617-0.094c-3.028,2.078-3.463,4.078-3.463,4.078s-7.479-3.397-10.301,2.915
	c-2.823,6.315-0.695,8.388-0.695,8.388s-5.343,3.832-5.65,11.174c-0.31,7.344,5.783,10.44,5.783,10.44s-4.367,8.231,1.926,14.111
	c6.292,5.878,15.14,2.969,15.14,2.969s4.049,8.15,13.89,9.463c7.67,1.024,12.306-4.732,12.306-4.732s1.559,4.688,8.78,4.807
	c9.012,0.151,10.572-6.396,10.572-6.396s2.027,2.533,6.092,3.095c4.068,0.563,6.04-1.103,6.04-1.103s4.146,6.862,12.343,7.678
	c7.909,0.787,12.054-4.307,12.054-4.307s0.369,2.012,4.399,2.727c4.03,0.719,5.972-0.794,5.972-0.794s1.19,2.674,6.62,2.89
	c5.433,0.213,7.336-1.145,7.336-1.145s0.764,2.422,2.903,3.691c3.574,2.121,6.371,1.064,6.371,1.064s1.792,6.08,9.07,4.225
	c4.436-1.128,3.511-8.738,3.511-8.738s2.223,0.16,4.217-3.11c2.002-3.27,0.871-3.999,0.871-3.999s4.436,4.646,12.24,2.982
	c5.234-1.115,6.915-4.344,7.069-4.99c0.06,0.4,0.901,2.645,4.975,2.937c4.438,0.321,6.019-1.75,6.019-1.75s3.598,2.714,7.183,2.526
	c8.172-0.426,11.075-5,11.075-5s-0.355,0.89,4.493,0.815c4.848-0.072,7.451-2.407,7.451-2.407s4.02,5.223,12.452,4.964
	c8.431-0.264,11.716-6.476,11.716-6.476s5.683,3.492,8.979,0.182c3.299-3.309,1.635-5.281,1.635-5.281s6.231,3.932,10.827,0.581
	c4.593-3.351,2.602-9.743,2.602-9.743S272.184,67.108,271.495,61.36z"/>
</svg>
