<?xml version="1.0" encoding="utf-8"?>
<!-- Generator: Adobe Illustrator 16.2.0, SVG Export Plug-In . SVG Version: 6.00 Build 0)  -->
<!DOCTYPE svg PUBLIC "-//W3C//DTD SVG 1.1//EN" "http://www.w3.org/Graphics/SVG/1.1/DTD/svg11.dtd">
<svg version="1.1" id="Layer_1" xmlns="http://www.w3.org/2000/svg" xmlns:xlink="http://www.w3.org/1999/xlink" x="0px" y="0px"
	 width="17.879px" height="16.026px" viewBox="0 0 17.879 16.026" enable-background="new 0 0 17.879 16.026" xml:space="preserve">
<path fill="#FFFFFF" d="M13.904,4.625c-1.048-0.297-1.776-0.999-2.19-1.868c-0.493-0.011-0.932-0.104-1.326-0.251
	c-0.62,0.758-1.562,1.271-2.84,1.271c-0.497,0-0.941-0.081-1.339-0.22c-0.389,0.13-0.81,0.22-1.291,0.22
	c-0.072,0-0.133-0.017-0.202-0.02C4.002,4.855,3.696,6.214,3.787,7.54c1.535,0.735,2.195,2.458,1.992,4.057
	c0.872,0.705,2.016,1.152,3.455,1.152c0.99,0,1.844-0.212,2.562-0.574c0.143-0.698,0.454-1.349,0.936-1.868
	c0.027-0.957,0.355-1.899,0.998-2.6C13.412,6.706,13.474,5.579,13.904,4.625z"/>
<path d="M13.404,8.645c0,0,2.576-3.22-0.387-5.41c-2.963-2.19-4.636,0.387-4.636,0.387S4.904,1.689,3.486,5.039
	c-1.415,3.348,1.16,4.25,1.16,4.25s0.027,0.187,0.102,0.482c0.348,1.387,1.614,4.949,5.951,3.252
	C13.662,11.863,13.404,8.645,13.404,8.645z M11.215,7.999c0,0,1.546,3.22-1.931,3.864c-3.478,0.645-3.349-3.219-3.349-3.219
	s-2.191-1.417-0.902-3.22C6.32,3.622,8.252,5.554,8.252,5.554s1.547-2.705,3.863-0.902C14.434,6.455,11.215,7.999,11.215,7.999z"/>
</svg>
