<?xml version="1.0" encoding="utf-8"?>
<!-- Generator: Adobe Illustrator 16.2.0, SVG Export Plug-In . SVG Version: 6.00 Build 0)  -->
<!DOCTYPE svg PUBLIC "-//W3C//DTD SVG 1.1//EN" "http://www.w3.org/Graphics/SVG/1.1/DTD/svg11.dtd">
<svg version="1.1" id="Layer_1" xmlns="http://www.w3.org/2000/svg" xmlns:xlink="http://www.w3.org/1999/xlink" x="0px" y="0px"
	 width="24.886px" height="24.943px" viewBox="0 0 24.886 24.943" enable-background="new 0 0 24.886 24.943" xml:space="preserve">
<path fill="#FFFFFF" d="M19.64,12.259c-2.391-0.794-3.16-3.595-2.307-5.693c-0.906-0.471-1.527-1.258-1.846-2.171
	c-0.096-0.001-0.176-0.02-0.266-0.026C15.111,4.375,15.011,4.4,14.896,4.4c-1.084,0-1.939-0.348-2.587-0.887
	c-0.252,0.035-0.504,0.049-0.753,0.032c-0.331,0.32-0.724,0.585-1.186,0.77C9.88,5.813,8.63,7.027,6.58,7.027
	c-0.316,0-0.609-0.038-0.889-0.092C5.656,7.003,5.634,7.077,5.596,7.143C5.181,7.85,4.416,8.607,3.584,8.927
	c-0.141,0.411-0.355,0.8-0.601,1.144c0.055,0.191,0.096,0.388,0.127,0.585c0.422,0.64,0.657,1.394,0.705,2.17
	c1.288,1,1.774,2.763,1.446,4.342c0.112,0.534,0.125,1.089,0.053,1.632c1.502,0.014,2.566,0.688,3.223,1.639
	c0.287-0.066,0.582-0.111,0.889-0.111c0.547,0,1.09-0.013,1.635-0.051c0.031-0.008,0.064-0.012,0.098-0.019
	c0.227-0.053,0.451-0.075,0.678-0.095c0.67-0.814,1.682-1.368,3.061-1.368c0.838,0,1.527,0.218,2.105,0.558
	c1.754-1.768,2.688-4.218,2.805-6.72C19.751,12.508,19.683,12.389,19.64,12.259z"/>
<path d="M17.484,9.344c0,0,2.648-4.041-2.924-5.853C8.985,1.68,8.706,6.418,8.706,6.418S4.665,5.582,3.272,8.507
	c-1.393,2.927,1.254,6.688,1.254,6.688S2.992,18.68,6.199,20.77c3.204,2.09,7.662-1.115,7.662-1.115s4.738,1.115,6.549-3.065
	C22.222,12.409,17.484,9.344,17.484,9.344z M18.878,15.893c-1.531,4.18-6.826,1.254-6.826,1.254s-1.812,3.066-4.601,1.812
	c-2.787-1.255-0.835-5.018-0.835-5.018s-3.066-1.253-2.091-4.319C5.5,6.557,9.262,7.951,9.262,7.951S9.403,3.491,14,5.582
	c4.6,2.091,1.674,5.573,1.674,5.573S20.41,11.712,18.878,15.893z"/>
</svg>
