<?xml version="1.0" encoding="utf-8"?>
<!-- Generator: Adobe Illustrator 16.2.0, SVG Export Plug-In . SVG Version: 6.00 Build 0)  -->
<!DOCTYPE svg PUBLIC "-//W3C//DTD SVG 1.1//EN" "http://www.w3.org/Graphics/SVG/1.1/DTD/svg11.dtd">
<svg version="1.1" id="Layer_1" xmlns="http://www.w3.org/2000/svg" xmlns:xlink="http://www.w3.org/1999/xlink" x="0px" y="0px"
	 width="181.573px" height="212.204px" viewBox="0 0 181.573 212.204" enable-background="new 0 0 181.573 212.204"
	 xml:space="preserve">
<path d="M4.663,15.479c0,0,30.205-4.102,60.819,53.106c25.588,47.813,27.921,74.893,59.862,93.674
	c31.939,18.782,49.106,40.884,49.106,40.884l0.936-1.226c0,0-22.024-28.258-45.557-40.541
	c-20.847-10.88-30.753-28.844-42.663-59.215C48.559,3.719,3.785,5.254,3.785,5.254L4.663,15.479z"/>
<g>
	<path fill="#FFFFFF" d="M68.302,68.585C55.789,45.199,43.343,32.062,33.001,24.698c9.746,7.679,21.084,20.475,32.48,41.771
		c23.763,44.404,27.475,70.924,53.467,89.525C95.472,137.506,91.179,111.332,68.302,68.585z"/>
	<path fill="#FFFFFF" d="M145.597,173.775c18.875,14.418,28.852,27.252,28.852,27.252l0.5-0.654
		C170.727,195.529,160.779,184.963,145.597,173.775z"/>
</g>
</svg>
