<?xml version="1.0" encoding="utf-8"?>
<!-- Generator: Adobe Illustrator 16.2.0, SVG Export Plug-In . SVG Version: 6.00 Build 0)  -->
<!DOCTYPE svg PUBLIC "-//W3C//DTD SVG 1.1//EN" "http://www.w3.org/Graphics/SVG/1.1/DTD/svg11.dtd">
<svg version="1.1" id="Layer_1" xmlns="http://www.w3.org/2000/svg" xmlns:xlink="http://www.w3.org/1999/xlink" x="0px" y="0px"
	 width="233.803px" height="202.649px" viewBox="0 0 233.803 202.649" enable-background="new 0 0 233.803 202.649"
	 xml:space="preserve">
<g>
	<polygon fill="#FFFFFF" points="224.932,188.91 15.717,189.26 9.302,9.077 224.932,9.077 	"/>
	<path fill="#91AEB3" d="M109.25,190.104l-5.358-27.26c0,0,2.563-0.932,4.194,2.796c1.63,3.729,6.756,18.174,13.046,16.077
		c6.291-2.098,11.884-0.935,12.349,1.396c0.466,2.329-3.263,3.727-3.263,3.727l-8.619,2.098L109.25,190.104z"/>
	<path fill="#91AEB3" d="M31.493,92.455l-4.485,34.044c0,0-3.728,4.194-8.853,3.729c-3.992-0.364-3.262-2.331-3.262-2.331
		l-2.097-50.208l8.387-5.767L31.493,92.455z"/>
	<path fill="#91AEB3" d="M81.816,65.458l64.944,2.332c0,0-24.23,1.863-28.89,6.521c-4.66,4.66-6.057,6.99-13.979,8.388
		c-8.46,1.493-9.32,7.223-9.32,7.223l-13.279-6.379L81.816,65.458z"/>
	<path fill="#91AEB3" d="M156.895,135.119l-0.233,0.816l1.046,0.96c0.07-0.27,0.281-0.495,0.643-0.495
		c0.51,0,0.722,0.446,0.654,0.834c0.104-0.077,0.229-0.135,0.395-0.135c0.564,0,0.77,0.543,0.625,0.951
		c0.06,0.16,0.062,0.339,0.013,0.5c0.073-0.025,0.144-0.054,0.235-0.054c0.19,0,0.332,0.071,0.443,0.17
		c0.107-0.097,0.241-0.17,0.431-0.17c0.692,0,0.848,0.82,0.476,1.203c-0.039,0.201-0.148,0.382-0.342,0.475l1.089,1.002l3.233-5.038
		l0.438-1.312L156.895,135.119z"/>
	<path fill="#91AEB3" d="M221.547,126.034l-9.785,7.688l-3.729,1.631l-32.967,0.466l2.33,5.241l-1.281,3.495
		c0,0-0.467,0.583-1.398,0.815c-0.932,0.231-3.844,0.466-3.844,0.466l1.809,0.825c0.111-0.144,0.283-0.244,0.521-0.244
		c0.123,0,0.227,0.031,0.316,0.076c0.105-0.178,0.285-0.309,0.557-0.309c0.412,0,0.619,0.29,0.65,0.604
		c0.035-0.006,0.064-0.022,0.107-0.022c0.348,0,0.559,0.211,0.637,0.467c0,0,0.002-0.001,0.004-0.001
		c0.576,0,0.781,0.571,0.617,0.983l0.404,0.185c0.111-0.17,0.287-0.293,0.551-0.293c0.299,0,0.482,0.157,0.58,0.363
		c0.113-0.111,0.264-0.189,0.469-0.189c0.535,0,0.744,0.49,0.645,0.892c0.02-0.003,0.031-0.019,0.055-0.019
		c0.404,0,0.615,0.283,0.658,0.593l0.615,0.281c0.064-0.281,0.273-0.523,0.646-0.523c0.492,0,0.699,0.408,0.654,0.782
		c0.16,0.029,0.293,0.094,0.381,0.198c0.107-0.164,0.281-0.282,0.539-0.282c0.441,0,0.648,0.336,0.654,0.676
		c0.105-0.186,0.289-0.326,0.568-0.326c0.451,0,0.672,0.347,0.668,0.693c0.137,0.055,0.232,0.146,0.301,0.26
		c0.08-0.032,0.15-0.079,0.254-0.079c0.59,0,0.787,0.593,0.605,1.008l0.266,0.121c0.111-0.15,0.283-0.255,0.527-0.255
		c0.494,0,0.707,0.418,0.66,0.796l0.688,0.312c0.111-0.141,0.281-0.235,0.516-0.235c0.242,0,0.416,0.1,0.527,0.246
		c0.111-0.146,0.281-0.246,0.521-0.246c0.6,0,0.791,0.612,0.594,1.025c0.096-0.054,0.203-0.093,0.338-0.093
		c0.471,0,0.691,0.381,0.668,0.746l0.439,0.199c0.076-0.262,0.285-0.479,0.641-0.479c0.605,0,0.795,0.626,0.586,1.04l0.209,0.096
		c0.113-0.122,0.271-0.204,0.486-0.204c0.312,0,0.506,0.174,0.6,0.394c0.068-0.021,0.135-0.043,0.217-0.043
		c0.248,0,0.422,0.11,0.533,0.264c0.068-0.27,0.27-0.498,0.631-0.498c0.365,0,0.561,0.231,0.627,0.503
		c0.061-0.016,0.117-0.037,0.188-0.037c0.408,0,0.621,0.287,0.66,0.601c0.104-0.077,0.227-0.135,0.389-0.135
		c0.355,0,0.566,0.221,0.641,0.483c0.371-0.401,1.223-0.259,1.223,0.448v0.515c0.072-0.024,0.146-0.048,0.234-0.048
		c0.441,0,0.66,0.335,0.668,0.676c0.113-0.125,0.277-0.21,0.496-0.21c0.6,0,0.791,0.61,0.596,1.025l0.477,0.217
		c0.107-0.178,0.287-0.311,0.559-0.311c0.523,0,0.732,0.468,0.65,0.861l0.293,0.135c0.111-0.104,0.258-0.179,0.455-0.179
		c0.43,0,0.648,0.318,0.668,0.649c0.092-0.231,0.289-0.418,0.613-0.418c0.461,0,0.674,0.36,0.662,0.716
		c0.133,0.015,0.242,0.061,0.33,0.129c0.109-0.152,0.275-0.263,0.521-0.263c0.637,0,0.814,0.689,0.555,1.099l0.758,0.347
		c0.111-0.097,0.25-0.164,0.436-0.164c0.215,0,0.375,0.084,0.488,0.203c0.104-0.181,0.283-0.318,0.561-0.318
		c0.68,0,0.846,0.793,0.502,1.183l0.488,0.225c0.078-0.261,0.287-0.477,0.641-0.477c0.404,0,0.607,0.284,0.645,0.594
		c0.02-0.002,0.033-0.011,0.055-0.011c0.037,0,0.055,0.023,0.088,0.029c0.049-0.01,0.09-0.029,0.145-0.029
		c0.322,0,0.523,0.181,0.615,0.407c0.158-0.65,1.156-0.656,1.326-0.012c0.146,0.219,0.158,0.515,0.039,0.751v0.365l0.061,0.028
		c0.105-0.082,0.232-0.143,0.404-0.143c0.219,0,0.379,0.083,0.492,0.206c0.023-0.069,0.039-0.139,0.07-0.209
		c0.367-0.821,1.572-0.11,1.207,0.705c-0.057,0.124-0.08,0.252-0.115,0.379l0.734,0.336c0.074-0.265,0.285-0.485,0.641-0.485
		c0.479,0,0.688,0.388,0.656,0.757c0.08-0.035,0.172-0.057,0.277-0.057c0.195,0,0.342,0.073,0.451,0.178
		c0.088-0.229,0.273-0.412,0.596-0.412c0.514,0,0.73,0.452,0.656,0.842c0.014,0.042,0.02,0.09,0.029,0.137
		c0.268,0.084,0.414,0.312,0.441,0.566c0.111-0.147,0.264-0.264,0.504-0.264c0.568,0,0.775,0.555,0.631,0.964l1.467,0.669
		l0.465-20.386L221.547,126.034z"/>
	<path fill="#91AEB3" d="M198.248,133.956l-1.164-14.679c0,0-1.631,5.358-7.922,9.552c-6.291,4.194-14.096,6.99-14.096,6.99
		S196.85,135.819,198.248,133.956z"/>
	<path fill="#91AEB3" d="M211.295,116.481c0,0-2.221,9.949-5.125,13.979c-2.904,4.031-6.99,4.194-6.99,4.194
		s9.553,3.028,11.648-1.166c2.098-4.193,0.932-11.416,0-13.979"/>
	<path fill="#91AEB3" d="M63.236,141.061l-1.165,1.981l-4.542,0.931c0,0-4.427,2.563-7.456,1.864
		c-3.029-0.698,10.017,2.329,13.279,1.631c3.262-0.7,5.359-0.7,5.126-2.097c-0.234-1.398-1.981-3.205-4.777-3.845"/>
	<polygon fill="#91AEB3" points="72.206,75.594 72.788,80.136 79.662,79.787 78.846,68.255 	"/>
	<path fill="#91AEB3" d="M68.012,64.585c0,0,0.932,6-5.591,12.058c-6.523,6.057-14.444,8.388-18.638,8.388
		c-4.194,0,10.075,5.721,23.53-4.37c1.398-1.049,1.748-13.396,1.398-16.075"/>
	<path fill="#91AEB3" d="M130.917,156.787l-3.028-9.087c0,0,3.029-1.863,5.592-3.261c2.562-1.397,2.562-1.397,2.562-1.397
		s-3.494,2.097-4.426,6.989C130.684,154.923,130.217,154.226,130.917,156.787z"/>
	<g>
		<path fill="none" d="M221.775,187.072l-0.904-173.807l-1.414-0.009L12.563,11.872l5.125,177.997l-0.12,0.097L221.775,187.072z
			 M216.77,165.988c0.475,0,0.693,0.387,0.668,0.753c0.078-0.029,0.164-0.053,0.266-0.053c0.193,0,0.338,0.072,0.447,0.174
			c0.09-0.227,0.279-0.408,0.6-0.408c0.508,0,0.721,0.441,0.654,0.83c0.016,0.047,0.021,0.098,0.031,0.148
			c0.254,0.08,0.396,0.289,0.436,0.527c0.113-0.134,0.281-0.225,0.51-0.225c0.902,0,0.902,1.398,0,1.398
			c-0.395,0-0.607-0.27-0.656-0.571c-0.07,0.085-0.172,0.141-0.291,0.178c-0.082,0.821-1.383,0.801-1.383-0.072v-0.682
			c-0.096,0.058-0.207,0.1-0.348,0.1c-0.477,0-0.693-0.386-0.668-0.752c-0.078,0.03-0.164,0.053-0.266,0.053
			C215.867,167.387,215.867,165.988,216.77,165.988z M209.697,163.705c0.029-0.324,0.246-0.629,0.666-0.629
			c0.406,0,0.619,0.282,0.656,0.591c0.016,0,0.027-0.008,0.043-0.008c0.049,0,0.086,0.014,0.129,0.021
			c0.035-0.004,0.064-0.021,0.104-0.021c0.322,0,0.523,0.181,0.615,0.41c0.158-0.655,1.162-0.657,1.328-0.006
			c0.148,0.221,0.158,0.521,0.037,0.757v0.423c0.111-0.108,0.262-0.187,0.465-0.187c0.219,0,0.381,0.083,0.492,0.208
			c0.027-0.069,0.039-0.141,0.07-0.211c0.367-0.821,1.572-0.11,1.207,0.705c-0.184,0.409-0.24,0.835-0.254,1.279
			c-0.025,0.898-1.424,0.901-1.398,0c0.006-0.216,0.047-0.417,0.074-0.622c-0.061,0.018-0.117,0.038-0.191,0.038
			c-0.318,0-0.518-0.177-0.611-0.403c-0.352,0.446-1.252,0.315-1.252-0.411v-0.936c-0.021,0.043-0.039,0.089-0.07,0.125
			c-0.078,0.254-0.281,0.461-0.629,0.461c-0.357,0-0.568-0.223-0.641-0.486c-0.002-0.002-0.002-0.002-0.004-0.004
			c-0.104,0.082-0.232,0.141-0.402,0.141C209.414,164.94,209.277,164.066,209.697,163.705z M207.684,162.261
			c0.213,0,0.373,0.083,0.484,0.203c0.107-0.183,0.289-0.318,0.564-0.318c0.902,0,0.902,1.397,0,1.397
			c-0.215,0-0.373-0.082-0.486-0.201c-0.105,0.181-0.287,0.317-0.562,0.317C206.781,163.659,206.781,162.261,207.684,162.261z
			 M203.141,160.166c0.422,0,0.639,0.309,0.666,0.633c0.09-0.225,0.295-0.401,0.615-0.401c0.459,0,0.682,0.361,0.674,0.717
			c0.125,0.017,0.227,0.06,0.311,0.123c0.113-0.15,0.285-0.258,0.529-0.258c0.902,0,0.902,1.397,0,1.397
			c-0.17,0-0.295-0.061-0.402-0.141c-0.111,0.149-0.283,0.259-0.529,0.259c-0.459,0-0.682-0.362-0.672-0.718
			c-0.363-0.045-0.547-0.332-0.57-0.633c-0.09,0.234-0.295,0.418-0.621,0.418C202.238,161.562,202.238,160.166,203.141,160.166z
			 M201.742,159.349c0.902,0,0.902,1.399,0,1.399C200.842,160.748,200.842,159.349,201.742,159.349z M193.006,155.505
			c0.312,0,0.51,0.172,0.605,0.392c0.066-0.019,0.131-0.041,0.211-0.041c0.24,0,0.41,0.102,0.523,0.247
			c0.074-0.264,0.285-0.481,0.641-0.481c0.365,0,0.561,0.231,0.627,0.503c0.061-0.016,0.117-0.037,0.188-0.037
			c0.408,0,0.621,0.287,0.66,0.601c0.104-0.077,0.225-0.135,0.389-0.135c0.355,0,0.566,0.221,0.641,0.483
			c0.371-0.401,1.223-0.259,1.223,0.448v0.515c0.072-0.024,0.146-0.048,0.234-0.048c0.439,0,0.66,0.333,0.672,0.674
			c0.113-0.125,0.275-0.208,0.492-0.208c0.902,0,0.902,1.397,0,1.397c-0.439,0-0.66-0.333-0.672-0.673
			c-0.111,0.125-0.275,0.207-0.492,0.207c-0.141,0-0.252-0.041-0.348-0.098c-0.326,0.498-1.283,0.381-1.283-0.368v-1.119
			c-0.113,0.11-0.264,0.188-0.467,0.188s-0.354-0.077-0.467-0.188c-0.111,0.11-0.262,0.188-0.465,0.188
			c-0.473,0-0.682-0.38-0.656-0.744c-0.051-0.07-0.086-0.148-0.105-0.233c-0.057,0.016-0.102,0.045-0.17,0.045
			c-0.24,0-0.412-0.103-0.525-0.248c-0.074,0.264-0.283,0.482-0.639,0.482c-0.314,0-0.512-0.173-0.605-0.393
			c-0.066,0.02-0.131,0.043-0.211,0.043C192.105,156.903,192.105,155.505,193.006,155.505z M191.725,154.573
			c0.902,0,0.902,1.398,0,1.398S190.822,154.573,191.725,154.573z M187.996,153.175c0.24,0,0.412,0.103,0.525,0.249
			c0.111-0.146,0.283-0.249,0.523-0.249c0.598,0,0.791,0.607,0.598,1.022c0.092-0.053,0.199-0.09,0.334-0.09
			c0.902,0,0.902,1.397,0,1.397c-0.598,0-0.789-0.607-0.596-1.022c-0.094,0.054-0.201,0.091-0.336,0.091
			c-0.24,0-0.412-0.103-0.523-0.249c-0.113,0.146-0.285,0.249-0.525,0.249C187.096,154.573,187.096,153.175,187.996,153.175z
			 M186.133,152.302c0.9,0,0.9,1.397,0,1.397C185.23,153.699,185.23,152.302,186.133,152.302z M181.24,150.264
			c0.227,0,0.395,0.087,0.508,0.22c0.111-0.161,0.285-0.279,0.541-0.279c0.43,0,0.648,0.319,0.668,0.652
			c0.109-0.174,0.287-0.303,0.555-0.303c0.449,0,0.674,0.347,0.676,0.694c0.123,0.05,0.211,0.133,0.279,0.234
			c0.078-0.032,0.166-0.055,0.268-0.055c0.902,0,0.902,1.397,0,1.397c-0.26,0-0.436-0.121-0.547-0.288
			c-0.078,0.031-0.166,0.055-0.268,0.055c-0.447,0-0.672-0.345-0.676-0.691c-0.252-0.103-0.387-0.346-0.4-0.599
			c-0.109,0.173-0.287,0.3-0.555,0.3c-0.227,0-0.395-0.086-0.508-0.219c-0.111,0.161-0.285,0.278-0.541,0.278
			C180.338,151.661,180.338,150.264,181.24,150.264z M178.096,148.282c0.9,0,0.9,1.397,0,1.397
			C177.193,149.68,177.193,148.282,178.096,148.282z M173.203,146.418c0.131,0,0.236,0.036,0.33,0.086
			c0.105-0.177,0.271-0.318,0.543-0.318c0.41,0,0.615,0.289,0.65,0.604c0.037-0.006,0.066-0.022,0.107-0.022
			c0.348,0,0.559,0.211,0.637,0.467c0,0,0.002-0.001,0.004-0.001c0.9,0,0.9,1.398,0,1.398c-0.35,0-0.555-0.212-0.631-0.469
			c-0.004,0-0.006,0.003-0.01,0.003c-0.121,0-0.223-0.026-0.312-0.07c-0.08,0.036-0.162,0.07-0.271,0.07
			c-0.361,0-0.57-0.225-0.639-0.493c-0.107,0.082-0.236,0.144-0.408,0.144C172.301,147.816,172.301,146.418,173.203,146.418z
			 M158.35,136.4c0.508,0,0.719,0.441,0.656,0.828c0.104-0.075,0.229-0.129,0.393-0.129c0.566,0,0.775,0.552,0.631,0.961
			c0.055,0.154,0.055,0.327,0.008,0.484c0.072-0.024,0.146-0.048,0.234-0.048c0.188,0,0.328,0.07,0.438,0.165
			c0.108-0.095,0.248-0.165,0.437-0.165c0.692,0,0.848,0.82,0.476,1.203c-0.058,0.29-0.268,0.544-0.65,0.544
			c-0.302,0-0.492-0.16-0.592-0.369c-0.037,0.007-0.066,0.02-0.107,0.02c-0.549,0-0.758-0.516-0.639-0.921
			c-0.072,0.024-0.146,0.047-0.234,0.047c-0.566,0-0.777-0.551-0.631-0.96c-0.045-0.127-0.044-0.265-0.021-0.399
			c-0.104,0.079-0.231,0.138-0.397,0.138C157.449,137.799,157.449,136.4,158.35,136.4z"/>
		<path d="M224.924,9.193l-2.225-0.063l0.012-0.053H9.302l3.728,184.521l212.943-1.397L224.924,9.193z M12.563,11.872l206.894,1.385
			l1.414,0.009l0.904,173.807l-204.207,2.894l0.12-0.097L12.563,11.872z"/>
	</g>
	<path d="M223.176,126.091L222.018,49.7l0.285-0.143l-0.174-6.816c0,0-3.67,0-5.592-0.174c-1.922-0.175-9.436,0.699-10.834,1.572
		c-1.398,0.875-7.338,5.767-10.484,8.388c-3.145,2.62-2.445,9.261-2.445,9.261s0,0,0-1.572s3.844-5.941,7.688-5.941
		c3.227,0,9.896-0.215,10.482,0.65c0.584,0.865-0.756,80.777-0.756,80.777L223.176,126.091z"/>
	<g>
		<path d="M162.195,144.089l-1.049-3.146c0,0,4.659,1.953,8.678,2.128c4.02,0.174,6.379-0.962,6.379-0.962s-2.303,1.748-4.428,1.982
			c-1.484,0.162-0.67,0.871,0.902,0.871s3.932-0.61,3.932-0.61s-1.311,2.358-6.902,2.009S162.195,144.089,162.195,144.089z"/>
		<path d="M161.146,140.942l8.999-12.405l-7.425,13.28C162.719,141.817,161.495,142.342,161.146,140.942z"/>
		<path d="M166.736,133.605c0,0,1.312,0.844,3.67,0.844c2.359,0,3.875-0.727,3.875-0.727s-1.951-4.661-2.389-5.535
			c-0.438-0.873-1.486-0.873-2.127,0.291C169.18,129.545,166.736,133.605,166.736,133.605z"/>
		<path d="M172.154,128.974l5.68,12.057l-1.225,1.136c0,0,0.088-0.174-0.262-1.748c-0.35-1.571-4.543-10.482-4.543-10.482
			L172.154,128.974z"/>
		<path d="M167.088,137.012c1.439,0,1.572,1.573,1.396,2.447c-0.174,0.873-1.396,1.746-2.359,1.397
			c-0.959-0.35-1.66-1.312-1.135-2.447C165.514,137.273,166.389,137.012,167.088,137.012z"/>
		<path d="M171.893,137.1c1.408,0,1.746,0.699,1.746,1.485c0,0.785-0.088,2.01-1.309,2.184c-1.225,0.174-1.748-0.786-1.836-1.748
			C170.406,138.061,171.018,137.1,171.893,137.1z"/>
		<polygon points="177.834,141.03 176.609,144.352 175.213,145.224 176.697,141.293 		"/>
	</g>
	<path d="M193.123,56.839c0,0-1.166,3.727-1.166,6.057s-0.465,8.504,0.117,11.882c0.582,3.379,0.582,11.533,0.582,11.533
		s-10.6,1.281-17.008,1.281c-6.406,0-7.223,0.35-10.717,0.35c-3.494,0-6.523,1.28-7.572,1.864c-1.049,0.582-1.659,1.454-1.659,1.454
		l1.893,0.41c0,0,1.63-2.214,3.96-2.564c2.33-0.35,9.552-0.231,12.931-0.231s11.998-0.232,14.91-0.699s4.543,2.131,5.359,1.982
		c0.814-0.149-0.467-16.777-0.932-19.225c-0.467-2.445-0.117-3.262-0.117-4.658c0-1.398-0.35-6.523,0.465-8.039
		c0.816-1.512,3.029-2.797,4.078-3.727c1.049-0.932-1.281-1.281-1.281-1.281L193.123,56.839z"/>
	<path d="M173.9,88.175c0,0-1.629-8.039,4.545-8.736c6.174-0.699,15.26-1.166,15.26-1.166l0.117,8.736L173.9,88.175z"/>
	<path d="M210.289,132.381c0,0,0.045,2.041-2.488,2.041c-0.326,0-2.043,0.069-4.535,0.069c-4.9,0-4.191-2.702-5.07-2.712
		s0.344,2.911-6.307,2.911c-8.482,0-17.172,0.312-17.172,0.312l0.467,1.283c0,0,29.701,0.056,32.5,0
		C212.91,136.182,210.289,132.381,210.289,132.381z"/>
	<path d="M158.092,135.003c-0.786,0-0.699-0.612-0.699-2.271c0-1.66-1.048-28.83-1.048-28.83l-1.485-0.524
		c0,0,0.786,4.628,0.786,7.774c0,3.146,0.175,13.979,0.524,16.425s0.088,6.902,0.088,7.601c0,0.631,0.299,1.186,2.087,1.226
		c0.003,0,0.003-0.002,0.005-0.002c0.001,0,0.002,0.002,0.005,0.002c0.191,0.004,0.384,0.006,0.61-0.002
		c2.359-0.088,6.636-0.262,6.636-0.262l0.438-1.312C166.039,134.827,158.878,135.003,158.092,135.003z"/>
	<path d="M168.166,103.591c-0.174-0.19-0.357-0.379-0.555-0.564c0,0-0.176,1.572-3.232,1.659c-3.058,0.088-5.155-0.785-7.689-1.834
		c-2.148-0.89-5.329-2.797-5.329-2.797l-3.495,0.699c0,0,6.728,3.932,11.62,6.029c4.893,2.097,8.475,3.232,9.524,1.311
		C169.926,106.411,169.371,104.931,168.166,103.591z"/>
	<path d="M151.361,100.055c0,0-9.173,1.485-10.833,1.573s-1.836,0.612-3.495-0.262c-1.66-0.874-4.194-1.747-4.543-2.01
		c-0.35-0.262-0.175-0.873,1.397-1.224c1.572-0.35,8.649-2.562,8.649-2.562l-1.82-0.668l-1.849-0.003c0,0-4.893,1.922-6.378,2.709
		c-1.485,0.785-1.312,2.01,0.524,2.883c1.834,0.874,4.28,2.01,5.066,2.272c0.787,0.262,1.224,0.262,5.592-0.263
		c4.369-0.523,8.213-0.7,8.213-0.7L151.361,100.055z"/>
	<polygon points="128.238,89.281 141.401,95.165 137.819,96.386 125.282,90.926 	"/>
	<path d="M165.166,99.969c0,0-1.662,0.349-3.845-0.35c-2.184-0.7-2.446-1.312-2.097-2.708c0.349-1.398,1.397-0.351,2.708-0.351
		c1.31,0,2.533,0.262,2.533,0.262L165.166,99.969z"/>
	<path d="M120.93,79.309l0.727,0.39c0,0-1.748,0.438-1.923,2.622c-0.175,2.184,0.874,3.494,0.874,3.494l-1.398-0.175
		c0,0-1.397-0.786-0.961-3.67c0.438-2.883,2.271-2.883,2.271-2.883L120.93,79.309z"/>
	<path d="M119.209,85.64c0,0-0.932,0.582-0.932,2.156c0,1.572,0.67,2.431,0.67,2.431l1.427,0.232c0,0-1.165-0.801-0.989-2.548
		c0.174-1.748,1.223-2.097,1.223-2.097L119.209,85.64z"/>
	<path d="M120.17,85.901c0,0,8.125,2.01,8.649-0.262s-8.3-6.553-8.3-6.553l-0.611,0.961c0,0,8.387,3.146,7.95,5.243
		s-8.125-0.263-8.125-0.263L120.17,85.901z"/>
	<path d="M122.53,85.901c0,0,6.246,1.006,5.679,3.757c-0.413,1.998-4.345,1.349-6.552,1.049c-0.809-0.108-1.552-0.306-1.552-0.306
		l-0.896-1.092c0,0,7.164,2.097,8.038,0.437c0.873-1.66-6.028-3.757-6.028-3.757L122.53,85.901z"/>
	<polygon points="121.263,79.917 121.481,71.399 122.966,72.403 123.316,81.096 	"/>
	<polygon points="164.99,99.749 168.396,103.986 167.916,104.424 163.811,99.487 	"/>
	<path d="M134.761,96.911c0,0-1.397-0.786-0.698-1.573c0.698-0.786,2.096-0.175,2.096-0.175s-2.621-1.572-3.057-0.175
		c-0.438,1.397,0.961,2.795,0.961,2.795l0.961-1.223"/>
	<path d="M154.565,90.91l0.699,0.263c0,0-0.158-2.02-0.525-2.387c-0.699-0.699-2.301-0.349-2.649-0.088
		c-0.35,0.263-2.009,1.659-0.758,2.533c0.685,0.478,1.776,0.611,2.126,0c0.35-0.612,0.35-0.612,0.35-0.612l-0.699-0.174
		c0,0-0.35,0.612-1.135,0.262c-0.787-0.35-0.262-1.223,0.873-1.485C153.983,88.961,154.653,89.687,154.565,90.91z"/>
	<path d="M154.418,88.523c0,0,0.379-1.515-1.368-2.126s-3.087,0.466-3.524,1.077c-0.437,0.611-1.66,1.66-0.611,2.358
		c1.049,0.7,2.184,0.438,2.184,0.438l0.38-1.049c0,0-0.816,0.611-1.69,0.176c-0.873-0.437,0.35-1.661,1.225-2.01
		c0.873-0.35,1.922-0.7,2.445,0.087c0.525,0.786,0.611,1.397,0.611,1.397L154.418,88.523z"/>
	<path d="M152.176,86.456c0,0-0.35-1.02-1.834-1.456c-1.486-0.437-2.534,1.165-2.971,1.777c-0.438,0.611-1.137,1.658-0.263,2.184
		c0.874,0.523,1.806,0.174,1.806,0.174l0.262-0.524c0,0-0.495,0.117-1.368-0.146c-0.874-0.263-0.204-0.99,0.583-1.777
		c0.785-0.786,1.396-1.659,2.271-0.786c0.874,0.874,0.874,0.874,0.874,0.874L152.176,86.456z"/>
	<path d="M164.523,97.231c0,0-0.059-1.021-0.844-2.243c-0.787-1.224-4.135-2.706-6.086-3.318c-1.952-0.612-3.786-1.051-3.786-1.051
		l-0.35,0.612c0,0,6.611,2.01,7.922,2.971s2.212,3.058,2.212,3.058L164.523,97.231z"/>
	<polygon points="146.993,87.824 132.577,81.271 132.751,80.136 147.692,87.3 	"/>
	<path d="M121.612,71.661c0,0-0.611-0.787,1.354-1.092c1.966-0.307,4.325-0.088,4.762,0.131s1.354,1.266,2.141,2.752
		c0.786,1.485,3.146,7.208,3.146,7.208l-0.438,0.611c0,0-0.568-0.132-1.049-1.354s-3.363-6.945-3.669-7.688
		c-0.306-0.743-5.067,0.218-5.067,0.218L121.612,71.661z"/>
	<path d="M154.68,96.503c0,0,1.223-0.116,1.457,0.7c0.232,0.813-0.291,1.397-0.291,1.397s0.291-0.465-0.234-0.524
		c-0.523-0.06-0.466,0.06-0.873-0.349S155.088,96.795,154.68,96.503z"/>
	<path d="M150.662,94.756c0,0,1.223-0.115,1.456,0.699s-0.291,1.397-0.291,1.397s0.291-0.466-0.233-0.524s-0.466,0.059-0.874-0.35
		C150.313,95.571,151.069,95.047,150.662,94.756z"/>
	<path d="M146.696,93.01c0,0,1.121-0.107,1.335,0.64c0.214,0.746-0.267,1.282-0.267,1.282s0.267-0.429-0.215-0.481
		c-0.48-0.055-0.428,0.053-0.801-0.321C146.375,93.755,147.069,93.275,146.696,93.01z"/>
	<path d="M142.551,91.084c0,0,0.953-0.09,1.135,0.545s-0.227,1.089-0.227,1.089s0.227-0.363-0.182-0.408
		c-0.41-0.046-0.363,0.045-0.682-0.272C142.279,91.718,142.868,91.311,142.551,91.084z"/>
	<path d="M128.034,85.333c0,0-2.01,0.351-5.373-0.61c-3.364-0.962-3.713-1.137-3.713-1.137l0.523,1.747c0,0,2.272,0.919,3.713,0.963
		c1.441,0.043,3.67,0.436,4.282,0.043C128.078,85.945,128.034,85.333,128.034,85.333z"/>
	<path d="M127.51,89.615c0,0-1.923,0.437-4.413,0c-2.489-0.437-4.106-0.961-4.106-0.961l0.132,1.135c0,0,4.324,1.137,5.766,1.05
		C126.331,90.751,127.466,90.533,127.51,89.615z"/>
	<path d="M194.812,95.745c0.58-0.146,0.697,4.572,1.629,5.971s2.213,1.165,2.33,1.719c0.117,0.552-1.748,0.521-1.98,3.086
		s0.875,9.582,0,9.436c-0.873-0.146,0.088-11.271-4.281-11.271c-1.863,0-20.764,1.193-20.996,0.378
		c-0.232-0.814,20.734-0.465,22.365-2.096C195.207,101.639,194.229,95.892,194.812,95.745z"/>
	<path d="M145.303,102.036l0.554,19.687l-6.815,9.261l2.01,1.573c0,0,5.592-9.786,5.941-10.746
		c0.35-0.962-0.816-20.009-0.816-20.009L145.303,102.036z"/>
	<polygon points="135.198,128.537 140.615,120.587 141.576,120.062 140.702,102.938 139.653,102.502 140.09,119.276 
		133.364,127.576 	"/>
	<path d="M129.752,127.315c0,0,3.96-0.698,7.223,1.049c3.262,1.748,6.756,7.221,6.756,7.221l-1.514,0.468
		c0,0-2.445-4.079-6.873-6.06c-4.428-1.979-6.641-1.863-6.641-1.863L129.752,127.315z"/>
	<path d="M137.791,177.405c0,0-2.563,3.729-7.456,7.224s-12.464,4.775-12.464,4.775l5.358,0.467c0,0,8.736-1.515,13.513-7.573
		c2.005-2.542,2.911-3.959,2.911-3.959s-11.532-32.881-12.668-32.765C125.85,145.69,137.791,177.405,137.791,177.405z"/>
	<path d="M143.628,135.614c0,0-4.092,3-6.071,5.446c-1.98,2.446-6.174,8.154-6.058,11.3c0.116,3.145,0.641,5.314,0.641,5.314
		l-2.271-5.431c0,0,1.062-4.226,2.563-6.64c3.115-5.01,9.668-10.485,9.668-10.485L143.628,135.614z"/>
	<path d="M142.668,149.55"/>
	<path d="M116.705,178.921c-0.64,0.027-1.397-5.826,0.699-10.253c2.097-4.426,4.194-4.66,5.125-8.154
		c0.932-3.495,1.077-6.697,1.631-6.756c0.553-0.059,0.35,21.927-0.467,21.899c-0.814-0.03-1.396-9.551-1.396-9.551
		s-4.311,3.581-5.009,7.774C116.588,178.074,117.346,178.89,116.705,178.921z"/>
	<path d="M122.53,160.514c0,0-4.369-0.699-5.854,2.184s-0.524,6.728,0.262,7.34c0.786,0.611,0.524,1.922-0.087,1.572
		c-0.612-0.35-3.32-4.805-1.748-8.562s8.038-3.495,8.038-3.495L122.53,160.514z"/>
	<path d="M123.316,172.482c0,0-1.485,0.874-3.407,0c-1.922-0.873-2.621-1.659-2.621-1.659l-0.35,1.136c0,0,0.874,0.874,2.358,1.223
		c1.485,0.35,4.194,0.35,4.194,0.35L123.316,172.482z"/>
	<path d="M124.102,160.95c0,0,3.67,2.098,3.32,5.767s-3.494,5.679-3.494,5.679l-0.438,1.136c0,0,4.805-2.097,4.718-6.989
		c-0.088-4.892-4.106-6.377-4.106-6.377V160.95z"/>
	<path d="M116.676,137.012c0,0,2.097,0,5.243-2.185c3.145-2.184,6.785-6.697,6.785-6.697l2.301-0.466c0,0-7.076,6.727-9.436,8.562
		s-4.806,1.835-4.806,1.835L116.676,137.012z"/>
	<path d="M121.043,141.555c0,0-1.484,1.835-7.338,2.709c-5.853,0.874-8.212-0.438-8.212-0.438s-1.224-1.223-0.437-1.922
		s1.485-0.786,1.485-0.786l0.437,1.747C106.978,142.865,117.288,142.865,121.043,141.555z"/>
	<polygon points="115.977,136.749 117.026,142.69 118.598,142.516 116.938,135.964 	"/>
	<polygon points="106.105,142.778 105.231,136.226 106.367,136.312 107.502,143.216 	"/>
	<path d="M116.152,106.259c0,0,5.154,11.183,5.592,17.124c0.437,5.94-1.835,11.271-5.243,13.192
		c-3.407,1.922-10.134,1.485-15.202-2.359c-5.067-3.845-7.251-5.592-7.251-5.592s-1.135-1.572,0.961-0.087
		c2.096,1.485,10.484,9.697,19.046,7.514c8.562-2.184,6.378-14.24,5.94-17.735C119.559,114.82,113.793,103.812,116.152,106.259z"/>
	<path d="M116.763,138.061c0,0-2.708,1.223-5.941,1.223c-3.232,0-4.543-0.611-4.543-0.611l0.087-2.359c0,0,2.708,1.311,5.33,0.874
		c2.621-0.438,4.892-1.31,4.892-1.31L116.763,138.061z"/>
	<path d="M117.171,109.025l0.117-2.563c0,0-0.64-1.299-1.905-2.97c-0.254-0.335,0.157-2.621,0.157-2.621s-2.542-0.126-3.518-0.946
		c-1.676-1.406-3.747-2.654-6.205-3.269c-0.582-0.145-0.529-1.26-0.529-1.26s-2.495,0.85-3.131,0.866
		c-2.468,0.07-5.232,0.8-8.285,2.512c-9.007,5.05-9.038,12.037-8.072,17.435c0.966,5.397,0.267,5.514,0.267,5.514l1.52-0.884
		l0.811,1.583l5.475,2.096l-1.281-1.747l0.466-0.698l-1.863-4.193c0,0,0.465,0.465,1.164,0.698s1.048-0.583,1.048-0.583
		s-1.048-0.348-1.281-1.28s1.165-1.631,1.165-1.631l1.048,1.514h1.281c0,0-1.165-0.115-0.932-1.63
		c0.233-1.516,1.048-1.049,1.048-1.049l1.63,0.581l0.466-1.396c0,0,1.514,0.698,1.98,0c0.466-0.699-0.35-1.979-0.35-1.979
		s0.699,0.116,1.98,0.465s1.515-0.465,1.515-0.465s-0.932,0.348-1.398-1.167c-0.466-1.514,1.63-0.349,1.63-0.349
		s0.933-0.231,1.282-0.582c0.349-0.35,0.349-1.631,0.349-1.631l1.398-2.447c0,0-0.233,0.815,0.814,1.515
		c1.049,0.699,2.679,0.117,2.796-0.465c0.117-0.583,0.117-0.583,0.117-0.583s-1.165,1.281-1.979,0.349
		c-0.816-0.931,1.513-1.396,1.513-1.396l1.631,0.932c0,0,1.281-0.932,0.583-1.282c-0.699-0.35,1.165,1.632,1.165,1.632
		s0.465-0.816,0.116-1.632c-0.349-0.815,0.932,0.467,0.932,0.467l1.048,2.329l0.466-0.35"/>
	<path d="M116.588,107.978c0,0,0.674-1.045,1.748-0.99c1.166,0.059,4.018,4.194,2.913,6.407c-0.368,0.735-1.689,1.223-1.689,1.223
		l-0.467-0.874c0,0,1.282-0.058,1.573-0.991c0.417-1.339-1.397-5.59-2.679-4.774c-1.281,0.814-0.931,1.747-0.931,1.747
		L116.588,107.978z"/>
	<path d="M90.204,122.946c0,0-1.485-0.262-2.184,0.786c-0.699,1.048,0.35,3.494,1.835,4.63c1.485,1.137,2.359,2.271,3.495,1.573
		c1.135-0.699,1.048-1.136,1.048-1.136l0.699,0.523c0,0-0.611,1.398-2.008,1.486c-1.398,0.086-4.457-2.01-5.33-3.408
		c-0.874-1.398-1.136-3.844-0.262-4.717c0.874-0.874,2.446-0.7,2.446-0.7L90.204,122.946z"/>
	<path d="M110.647,128.886c0.588,0.169,0.787-1.047,1.835-1.047c1.049,0,0.611,1.223,1.136,1.223c0.523,0,0.349-2.01-1.049-2.01
		S110.036,128.711,110.647,128.886z"/>
	<path d="M105.144,123.12c0,0,1.048,0.35,2.796-0.698c1.747-1.049,1.922-2.533,2.271-2.796c0.35-0.262,0.35,2.796-1.485,3.582
		C106.891,123.994,104.794,124.169,105.144,123.12z"/>
	<path d="M112.527,111.849c0.915-0.229,1.048,0.218,1.136,0.7c0.087,0.479,0.13,1.048-0.525,1.048s-0.874-0.524-0.917-0.962
		C112.178,112.198,112.352,111.893,112.527,111.849z"/>
	<path d="M98.768,118.62c0.914-0.229,1.048,0.218,1.135,0.698s0.131,1.048-0.524,1.048c-0.656,0-0.874-0.523-0.917-0.96
		C98.417,118.97,98.592,118.664,98.768,118.62z"/>
	<path d="M108.901,113.772c-0.6-0.105,0.087-1.441,1.572-2.141c1.486-0.699,4.194-1.005,4.151-0.786
		c-0.044,0.218-2.098,0.523-3.583,1.397C109.556,113.117,109.643,113.903,108.901,113.772z"/>
	<path d="M99.989,117.18c0.136,0.955-1.354,0.481-2.884,1.922c-1.528,1.441-1.791,2.709-2.141,2.709
		c-0.349,0,0.437-2.621,1.835-3.714C98.198,117.005,99.901,116.567,99.989,117.18z"/>
	<path d="M105.93,139.021c0,0-4.456,2.71-7.863,4.894c-3.407,2.185-7.513,8.998-7.688,10.484
		c-0.175,1.484-2.708,13.367-2.708,13.367l0.732,0.274l0.666,0.25c0,0,1.486-11.883,3.669-16.251
		c2.185-4.368,8.824-9.261,10.397-10.396c1.572-1.136,2.883-1.136,2.883-1.136L105.93,139.021z"/>
	<path d="M104.445,158.242c0,0-0.263,1.223-1.573,3.757c-1.311,2.534-3.495,7.601-3.495,7.601s-0.499,0.748-5.404-0.281
		c-4.906-1.028-4.993-2.95-4.993-2.95l-0.579,1.672c0,0,2.099,2.014,5.14,3.185c3.04,1.171,7.146,1.082,7.146,1.082l3.845-11.793
		l0.174-2.709"/>
	<polygon points="95.97,170.997 94.66,189.17 95.621,189.258 97.717,171.172 	"/>
	<polygon points="90.99,169.6 88.718,189.344 87.583,189.693 90.204,168.813 	"/>
	<path d="M102.668,165.933l6.349,23.18c0,0-0.932-12.521-1.515-16.365c-0.582-3.845-3.669-11.127-3.669-11.127L102.668,165.933z"/>
	<polygon points="136.917,181.717 140.528,188.997 141.868,188.938 137.732,179.502 	"/>
	<path d="M96.902,173.095c0,0-2.097,0.479-3.975,0.262c-1.879-0.219-2.447-0.743-2.447-0.743l-0.015-3.363l6.073,1.659
		L96.902,173.095z"/>
	<polygon points="20.485,41.811 21.185,75.942 29.544,90.605 28.29,52.06 29.805,52.878 31.493,92.455 81.292,83.543 80.2,45.626 
		79.429,44.373 81.758,45.071 82.573,84.795 30.502,94.23 20.253,76.292 19.786,41.576 	"/>
	<polygon points="28.756,53.576 81.063,45.654 81.758,45.071 60.091,34.007 59.582,34.508 79.662,45.071 29.455,52.411 
		21.584,41.776 59.756,34.53 60.091,34.007 19.786,41.576 	"/>
	<polygon points="29.338,54.042 30.27,92.601 20.253,76.292 20.485,41.811 	"/>
	<polygon points="78.191,52.702 71.026,54.144 73.255,79.903 78.962,79.321 77.448,51.83 78.613,51.362 79.662,79.787 
		71.973,80.836 69.76,53.344 78.613,51.362 	"/>
	<polygon points="73.08,67.031 73.953,78.388 78.147,78.126 77.099,66.069 	"/>
	<path d="M69.294,64.411c-0.699-7.107-2.913-10.6-5.359-11.533c-2.446-0.932-8.387-1.164-14.095-0.35
		c-5.708,0.815-14.794,3.378-15.958,6.523c-1.166,3.145-1.747,7.455-1.398,13.629c0.35,6.175,1.048,10.833,3.495,12.231
		c2.447,1.398,7.572,3.146,16.775,1.516c8.452-1.498,15.026-3.729,15.959-6.408C69.644,77.341,69.993,71.519,69.294,64.411z
		 M66.95,78.978c-0.838,2.412-6.76,4.422-14.369,5.77c-8.287,1.469-12.901-0.104-15.105-1.363
		c-2.202-1.259-2.832-5.455-3.146-11.013c-0.314-5.562,0.209-9.441,1.259-12.272c1.049-2.833,9.23-5.14,14.37-5.873
		c5.139-0.734,10.489-0.525,12.691,0.314c2.204,0.84,4.197,3.984,4.826,10.383C68.104,71.322,67.79,76.567,66.95,78.978z"/>
	<g>
		<path fill="none" d="M45.974,39.575c-3.835,0.438-5.453,3.75-5.453,3.75s2.679,1.164,6.655,0.27
			c3.353-0.754,4.54-1.891,4.832-2.229C51.112,40.56,49.12,39.218,45.974,39.575z"/>
		<path d="M45.297,39.131c-3.96,0.817-6.05,4.987-5.767,5.185c0.284,0.196,3.67,1.806,7.98,0.758
			c4.311-1.049,5.242-2.432,5.708-3.029C53.728,41.388,49.257,38.315,45.297,39.131z M47.176,43.595
			c-3.976,0.895-6.655-0.27-6.655-0.27s1.421-3.597,5.256-4.034c3.146-0.357,5.335,1.269,6.23,2.074
			C51.716,41.704,50.529,42.841,47.176,43.595z"/>
	</g>
	<path d="M46.302,41.562c-1.864,0.378-12.509-18.478-12.013-18.797c0.495-0.319,11.816,17.552,11.816,17.552
		s10.143-23.58,10.899-23.144C57.761,17.61,48.166,41.185,46.302,41.562z"/>
	<polygon points="47.307,11.552 48.966,36.016 49.927,36.103 48.529,11.552 	"/>
	<polygon points="192.598,68.778 81.642,63.536 81.816,65.458 192.424,70.351 	"/>
	<polygon points="20.659,70.351 12.796,75.243 12.796,77.689 21.183,71.923 	"/>
	<path d="M58.169,14.435c-1.118-0.348-1.98,0.409-2.096,1.107c-0.117,0.7-0.35,1.688,0.873,1.98s2.213,0.057,2.33-0.874
		C59.393,15.717,59.102,14.728,58.169,14.435z M58.914,16.226c-0.083,0.658-0.783,0.825-1.649,0.618
		c-0.866-0.208-0.702-0.905-0.619-1.401c0.083-0.494,0.693-1.029,1.485-0.783C58.791,14.863,58.997,15.565,58.914,16.226z"/>
	<path d="M34.119,20.584c-0.882-0.274-1.564,0.321-1.656,0.876c-0.092,0.551-0.276,1.331,0.69,1.562
		c0.966,0.23,1.748,0.045,1.84-0.69C35.085,21.597,34.855,20.815,34.119,20.584z"/>
	<path d="M76.4,62.356c-0.087-1.092-0.917-1.442-1.923-1.354c-1.004,0.086-1.747,1.441-1.528,2.227
		c0.218,0.787,0.83,1.616,2.009,1.529C76.505,64.644,76.487,63.448,76.4,62.356z M74.871,64.187
		c-0.82,0.059-1.245-0.517-1.397-1.062c-0.151-0.547,0.365-1.488,1.063-1.55c0.699-0.06,1.276,0.183,1.336,0.94
		C75.933,63.275,75.946,64.106,74.871,64.187z"/>
	<path d="M72.712,58.228c0.218,1.074,1.084,1.322,2.071,1.115c0.987-0.207,1.562-1.642,1.251-2.396
		c-0.31-0.752-1.018-1.504-2.178-1.276C72.334,55.969,72.496,57.155,72.712,58.228z M74.012,56.229
		c0.807-0.157,1.297,0.363,1.514,0.886c0.216,0.526-0.184,1.521-0.87,1.667c-0.686,0.143-1.289-0.027-1.438-0.775
		C73.066,57.261,72.954,56.436,74.012,56.229z"/>
	<polygon points="138.838,11.989 139.887,27.716 140.819,27.599 139.887,12.105 141.634,12.222 142.217,27.482 143.149,27.716 
		142.45,11.64 138.838,11.405 	"/>
	<polygon points="164.582,27.948 121.249,26.667 121.249,28.298 164.932,29.579 	"/>
	<polygon points="121.831,27.599 121.131,11.989 120.433,11.931 121.19,29.288 	"/>
	<polygon points="162.02,11.757 161.903,28.065 164.932,29.579 164.814,12.222 	"/>
	<polygon points="164.115,29.347 167.844,32.841 121.598,31.442 121.831,27.599 121.131,27.366 121.016,32.259 169.941,33.657 
		164.234,28.414 	"/>
	<polygon points="169.01,33.308 169.824,11.64 171.105,11.175 169.941,33.657 	"/>
	<path d="M49.375,142.166c0,0,1.922-5.708,6.581-5.241c4.659,0.466,5.708,6.057,5.708,6.057l1.34-0.231c0,0-1.688-6.233-7.165-6.465
		c-5.475-0.234-7.63,5.3-7.63,5.3L49.375,142.166z"/>
	<path d="M47.278,141.06c-0.758,1.049,3.436,3.429,8.328,3.378c5.708-0.058,9.378-0.114,7.98-2.387
		c-1.398-2.271-1.456-0.408-1.456-0.408s-0.757,1.163-6.814,1.223c-3.179,0.032-6.757-2.038-6.757-2.038
		S48.035,140.012,47.278,141.06z"/>
	<path d="M47.917,146.418c0,0,1.917,4.938,6.116,4.894c5.535-0.059,7.223-2.039,7.398-3.611c0.174-1.573-0.874-0.116-0.874-0.116
		l-0.758,0.232c0,0-1.806,2.912-5.767,2.563c-3.96-0.351-4.543-3.786-4.543-3.786L47.917,146.418z"/>
	<path d="M49.666,139.486c0,0-8.039-0.058-8.737,2.099c-0.698,2.155,8.504,6.407,15.611,6.348c7.105-0.059,12.057,0.06,12.755-2.271
		c0.699-2.33-6-5.184-7.339-5.243c-1.339-0.058,0.582,0.7,0.582,0.7s8.911,3.962,3.203,4.776c-5.708,0.815-17.764,0.118-21.9-2.621
		c-4.136-2.738,5.534-3.262,5.534-3.262L49.666,139.486z"/>
	<path d="M60.383,147.292l-0.234,1.28c0,0-3.32,0.41-6.174,0.118s-4.311-0.933-4.311-0.933l-0.582-1.282L60.383,147.292z"/>
	<path d="M54.325,150.727c5.418,0,12.231-0.115,12.231,0.524c0,0.641-6.407,0.933-12.406,0.989c-6,0.058-10.659-0.755-10.659-1.338
		C43.491,150.318,50.713,150.727,54.325,150.727z"/>
	<g>
		<path d="M40.186,76.024l1.507,2.211c0,0,20.316-10.453,20.727-10.688c0.412-0.234,1.547-1.566,2.129-2.627
			c0.586-1.072,0.826-1.269,0.356-1.972c-0.469-0.705-2.074-0.392-2.074-0.392s0.764,0.352,1.292,1.232
			c0.528,0.881-1.096,2.955-1.645,3.348c-0.548,0.391-20.257,10.686-20.257,10.686l-1.213-2.212L40.186,76.024z"/>
		<path d="M40.635,75.299l-0.763,0.294l-1.232-2.408c0,0,17.261-8.926,18.554-9.688c1.291-0.763,2.877-0.881,3.523-0.881
			c0.646,0,2.525-0.116,2.525-0.116l0.396,0.66c0,0-0.308-0.5-3.685-0.191c-1.779,0.162-2.114,0.354-3.523,1.233
			c-1.41,0.88-17.087,9.042-17.087,9.042L40.635,75.299z"/>
		<polygon points="58.721,69.368 53.377,74.241 52.614,78.763 48.327,81.229 43.278,77.354 43.806,77.177 48.386,80.818 
			52.262,78.704 52.966,74.007 57.428,70.015 		"/>
		<polygon points="54.728,64.964 49.326,65.729 42.455,63.438 38.992,65.552 41.047,72.128 41.516,72.011 39.58,65.669 
			42.396,63.907 49.385,66.081 53.964,65.494 		"/>
		<polygon points="42.573,71.307 40.049,65.904 40.753,65.552 43.571,70.836 		"/>
		<polygon points="45.274,76.356 48.406,80.211 49.149,79.879 46.272,75.827 		"/>
		<path d="M43.474,74.105c-0.216-0.255-0.451-0.216-1.038,0.116c-0.587,0.334-2.231,1.155-2.231,1.155
			c-0.665,0.234-2.075,0.958-2.329,1.097c-0.254,0.138-0.528,0.371-0.431,0.549c0.099,0.176,0.352,0.273,1.058-0.101
			c0.704-0.37,4.012-1.976,4.501-2.191C43.494,74.516,43.689,74.36,43.474,74.105z M43.004,74.556
			c-0.294,0.137-4.306,2.115-4.716,2.308c-0.412,0.196-0.491,0.176-0.588,0.041c-0.098-0.138,0.162-0.132,0.293-0.233
			c0.177-0.139,4.307-2.115,4.717-2.352c0.411-0.234,0.47-0.116,0.568-0.078C43.376,74.28,43.297,74.419,43.004,74.556z"/>
		<polygon points="41.34,77.687 40.695,78.078 39.58,76.317 39.423,76.434 40.616,78.391 41.537,77.903 		"/>
		<polygon points="39.071,73.83 38.307,74.241 39.148,75.964 39.324,75.905 38.659,74.438 39.227,74.124 		"/>
		<path d="M61.284,64.095l0.695-0.381c0,0,0.342,0.359,0.479,0.653c0.138,0.295,0.167,0.579,0.167,0.579l-0.646,0.36
			c0,0-0.215-0.439-0.352-0.684C61.489,64.376,61.284,64.095,61.284,64.095z"/>
		<path d="M62,65.522l0.724-0.273c0,0,0.244,0.852-0.294,1.136C62.03,66.595,62.096,65.914,62,65.522z"/>
		<path d="M61.118,63.917l0.627-0.41c0,0-0.718-0.513-1.282-0.195C59.993,63.575,60.834,63.624,61.118,63.917z"/>
		<polygon points="59.19,65.729 44.101,73.537 44.217,73.675 59.269,65.845 		"/>
		<path d="M43.219,71.424c0.124-0.063,0.745,1.546,1.078,2.173c0.332,0.625,1.075,2.113,0.997,2.134
			c-0.079,0.019-0.997-1.468-1.292-2.153C43.709,72.894,43.102,71.482,43.219,71.424z"/>
		<path d="M47.956,69.29c0.104-0.068,0.528,1.097,0.999,1.918c0.469,0.822,1.134,1.703,1.036,1.801
			c-0.098,0.098-0.88-1.193-1.252-1.801C48.366,70.602,47.897,69.329,47.956,69.29z"/>
		<path d="M53.573,66.334c0.157-0.096,0.705,1.138,1.175,1.997c0.469,0.861,0.939,1.841,0.86,1.918
			c-0.078,0.078-0.685-1.154-1.135-2.035C54.024,67.334,53.573,66.334,53.573,66.334z"/>
		<path d="M58.329,64.125c0.091-0.037,0.528,0.762,1.018,1.604c0.489,0.842,1.154,2.016,1.096,2.054
			c-0.059,0.041-0.802-1.389-1.252-2.054S58.231,64.162,58.329,64.125z"/>
	</g>
</g>
</svg>
