<?xml version="1.0" encoding="utf-8"?>
<!-- Generator: Adobe Illustrator 16.2.0, SVG Export Plug-In . SVG Version: 6.00 Build 0)  -->
<!DOCTYPE svg PUBLIC "-//W3C//DTD SVG 1.1//EN" "http://www.w3.org/Graphics/SVG/1.1/DTD/svg11.dtd">
<svg version="1.1" id="Layer_1" xmlns="http://www.w3.org/2000/svg" xmlns:xlink="http://www.w3.org/1999/xlink" x="0px" y="0px"
	 width="233.803px" height="202.649px" viewBox="0 0 233.803 202.649" enable-background="new 0 0 233.803 202.649"
	 xml:space="preserve">
<g>
	<polygon fill="#FFFFFF" points="219.17,188.627 14.506,185.803 11.353,11.095 217.896,13.863 	"/>
	<path fill="#91AEB3" d="M180.904,26.705c0,0-0.701,12.756-1.051,18.172c-0.348,5.417-8.91,10.135-8.91,10.135
		s6.814-2.098,8.387-2.445c1.574-0.35,1.523,1.479,1.523,1.479l1.098-21.399C181.951,32.646,183.697,27.229,180.904,26.705"/>
	<path fill="#91AEB3" d="M171.293,96.249c0,0,0,4.894-0.525,6.466c-0.523,1.573-1.707,2.566-1.707,2.566s1.883,2.15,2.406,1.801
		c0.525-0.348,1.574-0.348,1.049-4.018C171.992,99.396,171.293,96.249,171.293,96.249"/>
	<path fill="#91AEB3" d="M165.352,23.211c0,0-0.176,1.746-1.398,2.446c-1.223,0.698-2.445,0.523-2.445,0.523
		s2.621,2.446,3.668,1.398C166.225,26.529,165.352,23.211,165.352,23.211"/>
	<polygon fill="#91AEB3" points="93.187,69.515 92.838,76.154 124.464,75.631 124.115,70.215 	"/>
	<polygon fill="#91AEB3" points="92.489,74.232 86.896,65.846 129.881,64.447 124.988,73.534 124.115,70.215 93.187,69.515 	"/>
	<path fill="#91AEB3" d="M220.219,103.238c0,0-2.797-5.591-22.367-9.086c-19.57-3.494-26.211-3.494-26.211-3.494l48.578-2.097
		V103.238z"/>
	<path fill="#91AEB3" d="M84.625,90.309c0,0-30.054,0.699-45.431,3.495c-15.377,2.796-25.162,11.881-25.162,11.881l-0.35-16.774
		L84.625,90.309z"/>
	<path fill="#91AEB3" d="M149.043,122.139c-0.34-0.017-0.691-0.017-1.041-0.007c15.096,0.558,31.17,1.242,44.314,1.83
		c2.287-1.603,5.189-2.239,8.047-2.772c1.354-0.252,1.934,1.822,0.57,2.075c-1.359,0.255-2.77,0.501-4.107,0.898
		c13.795,0.625,23.393,1.093,23.393,1.093l-1.049-9.086H14.615l-0.932,7.688c0,0,18.215-0.771,39.46-1.502
		c-0.301-0.384-0.377-0.923,0.085-1.353c2.104-1.96,5.733-3.473,8.618-2.842c1.355,0.296,0.781,2.369-0.572,2.075
		c-1.973-0.432-4.677,0.739-6.245,2.055c14.714-0.503,30.627-0.972,42.851-1.151c0.058-0.064,0.102-0.136,0.181-0.19
		c1.539-1.081,3.267-1.633,5.139-1.273c0.016,0.003,0.025,0.014,0.041,0.018c0.169-0.171,0.405-0.289,0.721-0.289
		c0.964,0,1.243,1.03,0.867,1.663c0.742-0.003,1.469-0.006,2.162-0.006c8.072,0,21.295,0.37,35.906,0.887
		c1.499-1.677,4.001-2.068,6.146-1.961C150.426,120.056,150.432,122.209,149.043,122.139z"/>
	<path fill="#91AEB3" d="M77.286,43.013l1.631,33.549l-24.463,0.468c0,0,11.648-2.564,16.774-12.115
		C76.354,55.362,76.587,48.604,77.286,43.013z"/>
	<path fill="#91AEB3" d="M42.572,47.906l1.166,29.705l-18.872-0.582c0,0,6.988-0.467,12.814-13.28
		C43.504,50.935,41.874,51.4,42.572,47.906z"/>
	<path fill="#91AEB3" d="M220.566,167.192l-1.396-1.987c0,0-13.26,3.358-31.307,7.085c0.002,1.179,0.014,2.346,0.428,3.47
		c0.473,1.289-1.545,1.842-2.053,0.608c-0.596-0.182-0.799-0.738-0.723-1.309c0.111-0.823-0.369-1.496-1.006-1.945
		c-0.098,0.263-0.312,0.478-0.699,0.532c-1.322,0.188-2.531,0.327-3.666,0.644c-1.398,0.987-2.844,1.971-4.363,2.797
		c0.172,0.954-1.006,1.899-1.754,1.001c-0.029-0.035-0.051-0.071-0.082-0.109c-0.877,0.377-1.779,0.693-2.715,0.909
		c-0.906,0.207-1.709-0.737-1.217-1.581c0.361-0.612,0.732-1.212,1.158-1.758c-20.408,3.74-43.229,6.964-59.637,6.555
		c-10.116-0.253-21.945-2.165-33.814-4.809c0.207,0.615-0.102,1.435-0.958,1.456c-1.096,0.03-2.15,0.426-3.127,0.901
		c-1.001,0.491-1.932-0.483-1.471-1.473c0.346-0.739,0.876-1.36,1.521-1.813c-30.497-7.208-60-18.611-60-18.611l2.692,27.145
		L221.5,188.16L220.566,167.192z M43.276,173.296c-3.799-1.073-6.381,1.036-9.688,2.431c-2.243,0.948-4.541,1.752-6.782,2.701
		c-1.247,0.531-2.287-1.089-1.086-1.854c2.298-1.468,4.698-3.391,7.42-3.954c0.421-0.086,0.753,0.066,0.99,0.309
		c0.865-0.386,1.733-0.758,2.598-1.155c2.314-1.064,4.693-1.236,7.12-0.551C45.181,171.599,44.615,173.676,43.276,173.296z
		 M218.121,178.577c-0.441,0.012-0.611,0.132-0.818,0.515c-0.658,1.221-2.518,0.135-1.857-1.086
		c0.564-1.045,1.506-1.544,2.676-1.581C219.512,176.382,219.506,178.532,218.121,178.577z"/>
	<path d="M222.891,11.562L11.353,11.095l1.864,176.133l208.74,3.263L222.891,11.562z M16.478,180.706L13.683,15.29l206.411-0.468
		l-2.33,171.939L16.478,180.706z"/>
	<path d="M133.821,36.102c0,0,0.173-0.993-0.572-1.268c-0.742-0.275-1.659,0.163-2.573,0.439c-0.916,0.278-1.486,0.332-1.66,0.828
		c-0.172,0.496-0.223,0.902,0.292,1.012c0.515,0.111,0.509,0.418,0.509,0.418s-1.201-0.218-1.258-0.768
		c-0.059-0.552,0.229-1.377,1.373-1.708c1.145-0.332,3.404-1.158,3.748-0.554C134.021,35.108,134.393,35.717,133.821,36.102z"/>
	<path d="M134.406,37.292c0,0,0.293-0.8-0.421-1.074s-1.59,0.438-2.47,0.712c-0.876,0.274-1.424,0.056-1.59,0.549
		c-0.164,0.494-0.067,0.899,0.427,1.009c0.493,0.107,0.342,0.417,0.342,0.417s-1.122-0.346-1.178-0.895
		c-0.054-0.549,0.19-1.246,1.288-1.576c1.095-0.326,3.393-1.051,3.721-0.449C134.855,36.586,134.955,36.912,134.406,37.292z"/>
	<path d="M135.599,38.843c0,0-0.106-1.186-0.757-1.438c-0.65-0.251-1.452,0.4-2.254,0.649c-0.801,0.253-1.303,0.054-1.452,0.505
		c-0.15,0.447-0.35,0.9,0.101,0.998c0.45,0.102,0.602,0.301,0.602,0.301s-1.186-0.1-1.277-0.596
		c-0.179-0.955,0.375-1.357,1.377-1.658c1.001-0.299,3.062-0.916,3.362-0.369C135.601,37.787,136.1,38.494,135.599,38.843z"/>
	<path d="M132.975,39.41c0.736-0.353,1.605-0.363,1.729-0.268l0.238-0.447l-0.355-0.447c0,0-0.537,0.537-1.192,0.718
		c-0.657,0.177-2.157,0.591-2.157,0.591l0.338,0.836C131.574,40.393,132.309,39.73,132.975,39.41z"/>
	<path d="M135.479,37.831c0,0,0.388,0.207,0.388,0.685s-0.03,1.58-0.865,1.996c-0.835,0.419-1.669,0.779-1.669,1.133
		c0,0.359-0.536,0.303-0.536,0.303l-0.717-0.421c0,0,2.326-0.772,2.861-1.492C135.479,39.32,135.479,38.307,135.479,37.831z"/>
	<path d="M131.246,34.791c0,0,0.655-1.254,1.133-1.848c0.477-0.597,1.015-1.852,1.251-2.326c0.239-0.479-0.118-0.656-0.478-0.895
		c-0.355-0.24-0.834,0.238-1.371,1.073c-0.217,0.337-1.52,3.009-1.52,3.009l-0.179-0.536c0,0,1.043-1.788,1.64-2.863
		c0.596-1.07,1.58-1.252,1.938-0.831c0.357,0.415,0.445,0.625,0.03,1.817c-0.418,1.193-1.818,3.19-1.818,3.19L131.246,34.791z"/>
	<path d="M130.709,41.051c0,0,0.274-0.622,0-1.135c-0.273-0.509-0.716-0.477-1.432-1.191c-0.715-0.715-1.312-1.611-1.133-2.92
		c0.18-1.312,1.055-2.229,1.293-2.646c0.18-0.312,0.506-0.606,0.556,0.497c0.04,0.895-0.716,1.172-0.636,1.649
		c0.074,0.446,0.755-0.198,0.755-0.198s0.257-1.659,0.119-2.045c-0.298-0.837-0.913-0.262-0.913-0.262s-0.875,1.215-1.232,1.99
		c-0.359,0.775-0.239,1.551-0.239,2.322c0,0.777,0.298,1.374,0.298,2.148c0,0.772,0,0.772,0,0.772L130.709,41.051z"/>
	<path d="M105.511,39.734c0.783-0.158,1.2,1.333,0.267,1.199S104.844,39.868,105.511,39.734z"/>
	<path d="M112.041,40.266c0.507,0.17,1.066,1.201,0.133,1.201C111.242,41.467,111.642,40.133,112.041,40.266z"/>
	<path d="M115.753,35.02c-1.284-0.619,0.242-0.393,0.242-0.393l2.311,0.756c0,0-0.512-2.156-2.378-2.89
		c-1.864-0.733,0-1.065-1.998-1.198c-2-0.135-2-0.135-2-0.135s-2.065-0.935-3.131-0.534c-1.066,0.399-2.599,0.802-2.599,0.802
		s-0.356,0.143-1.219,0.475c0.023,0.07-0.031,0.303,0,0.394c0.233,0.7-1.019,1.398-1.019,1.398l-0.729,0.263
		c0,0-0.1-0.522-0.304-0.932c-0.251,0.43-0.33,0.865-0.33,0.865s-1.066,0.268-1.131,1.268c-0.068,1,0.065,1.332,0.065,1.332
		s-1,1.067-0.867,1.6c0.133,0.531,0.2,1.665,0.2,1.665s0.602,1.333,1,1.468c0.399,0.133,0.465-0.666,0.465-0.666
		s0.335,0.531,1,0.531c0.667,0,0.733-0.4,0.733-0.4l-0.934-0.998c0,0,0.403,0.065,1.602-0.133c1.199-0.202,3.064-1.199,3.064-1.199
		s0.201,0.132,1.667,0.332c1.466,0.199,0.2,1.065,2.198,0.732c2-0.331,1.133-0.199,2.334,0c1.199,0.2,2.332-0.465,2.332-0.465
		l-1-0.468l1.578-1.096C116.907,37.394,117.042,35.644,115.753,35.02z"/>
	<path d="M101.467,40.646c0,0.533-0.8,0.622-0.623,1.598c0.179,0.978,0.711,1.157,0.8,1.6c0.088,0.443-1.244-0.354-1.509-1.777
		C99.868,40.646,101.467,40.111,101.467,40.646z"/>
	<path d="M115.274,40.666c-0.2,0.498,0.931,0.936,0.799,1.934c-0.133,0.999-0.799,0.932-0.933,1.332
		c-0.135,0.401,1.666-0.4,1.734-1.664C116.939,40.999,115.408,40.332,115.274,40.666z"/>
	<path d="M101.912,43.599c0.208,0.165,0.934,2.2,1.198,3.601c0.267,1.398,3.798,4.331,5.066,4.331c1.266,0,3.865-0.668,4.399-2.401
		c0.532-1.732,1.832-2.898,2.03-3.498c0.2-0.6,0.368-1.764,0.7-1.764c0.335,0-0.999,4.063-1.732,5.132
		c-0.732,1.06-1.932,3.063-4.598,3.063c-2.666,0-5.465-2.267-6.129-3.998C102.177,46.33,100.912,42.798,101.912,43.599z"/>
	<path d="M110.275,40.033c0.138,0.275,0.8-0.101,1.8,0c0.999,0.1,1.267,0.466,1.599,0.202
		C114.008,39.967,110.008,39.499,110.275,40.033z"/>
	<path d="M104.212,39.834c0.097,0.312,0.332-0.268,1.432-0.268c1.099,0,1.596,0.49,1.7,0.199
		C107.508,39.301,104.011,39.199,104.212,39.834z"/>
	<path d="M108.362,46.707c-1.084,0-1.174,0.451-1.129,0.904c0.045,0.451,0.542,0.996,1.401,0.996c0.858,0,1.583-0.136,1.538-0.771
		C110.126,47.203,109.584,46.707,108.362,46.707z M109.085,48.109c-1.174,0-2.079-0.951-0.587-0.951
		C109.583,47.158,110.261,48.109,109.085,48.109z"/>
	<path d="M106.826,43.904c0.172-0.197,0.587,0.318,1.4,0.361c0.814,0.047,1.267-0.406,1.673-0.271
		c0.408,0.138-0.679,0.767-1.537,0.724C107.504,44.674,106.51,44.266,106.826,43.904z"/>
	<path d="M113.562,48.516c0.632-0.859,1.266-1.809,2.44-1.944c1.175-0.133,2.081-0.63,2.625-0.542
		c0.542,0.089,1.219-0.725,1.219-0.725s5.742-7.275,6.512-7.911c0.767-0.634,1.898-0.043,1.898-0.043s-1.041,0.224-1.312,0.767
		c-0.272,0.542-1.72,1.399-1.899,2.17c-0.181,0.768-0.181,1.133-1.085,1.72c-0.903,0.587-0.859,1.536-1.673,2.306
		c-0.813,0.769-0.588,0.404-1.4,0.992c-0.814,0.59-0.634,1.179-1.312,1.676c-0.678,0.495-0.407-1.311-2.26,0.27
		c-1.854,1.583-4.114,2.576-4.792,3.528c-0.678,0.948-1.356,3.343-5.064,2.483c-3.707-0.857-3.345-1.354-4.837-2.893
		c-1.491-1.536-2.034-1.673-1.762-2.352c0.271-0.68,1.671-1.672,1.671-1.672s1.626,3.528,2.758,4.16
		c1.131,0.631,3.889,2.396,6.284,0.315C113.969,48.741,112.93,49.375,113.562,48.516z"/>
	<path d="M127.938,38.029c0,0-1.131,0.178-0.724,0.9c0.406,0.727,3.617,4.886,5.651,5.157c2.034,0.271,0.571-2.079,0.467-2.442
		c-0.105-0.361-0.286-0.361-0.286-0.361s-1.72,0.227-2.17-0.135c-0.452-0.363-0.858-0.771-0.858-0.771L127.938,38.029z"/>
	<path d="M110.126,27.427c0,0-3.195,1.149-6.386,2.388l-0.046,1.719c0,0,0.378-0.088,0.611,0.61
		c0.233,0.699-0.175,1.202-0.175,1.202l-0.262-0.175l-0.153,0.479l-0.24-0.152c0,0-0.355-0.107-0.589-0.853
		c-0.24-0.764,0.415-1.048,0.415-1.048l-0.197-1.551c-2.85,1.121-5.665,2.33-5.726,2.667c-0.135,0.747,9.629,5.696,9.629,5.696
		s13.902-3.322,13.63-3.863C120.365,34.003,110.126,27.427,110.126,27.427z"/>
	<path d="M133.589,41.191c0,0,1.899,2.264,1.809,3.801c-0.091,1.535-1.809,3.525-3.707,4.611c-1.899,1.085-10.577,5.965-11.482,6.6
		c-0.905,0.633,0,7.89,0,7.89l-4.115,0.155c0,0,1.085-1.762,1.04-3.794c-0.048-2.233-0.632-1.991-0.089-3.89
		c0.541-1.898,2.441-3.074,3.707-3.89c1.266-0.812-0.361,0.727-0.271,1.177c0.09,0.451,3.435-0.18,5.333-1.807
		c1.898-1.629,3.437-3.437,4.25-3.799c0.814-0.361,1.808-0.273,3.346-1.539c1.537-1.265,0.814-3.432,0.452-3.885
		s-0.61-1.393-0.61-1.393L133.589,41.191z"/>
	<polygon points="90.641,113.525 92.269,69.039 124.637,69.221 130.431,112.67 127.899,113.031 123.191,70.668 93.353,70.125 
		94.061,113.198 	"/>
	<path d="M117.045,79.711l-8.499,3.613l-8.319-3.437l-0.181,6.512l10.127,4.884l7.956-5.425L117.045,79.711z M109.992,89.293
		l-7.957-3.614l-0.181-3.981l7.233,3.797l7.053-3.797l0.724,3.797L109.992,89.293z"/>
	<polygon points="91.906,75.549 84.854,64.52 130.967,63.615 124.818,74.827 124.275,73.381 127.711,65.965 87.748,66.147 
		92.269,73.199 	"/>
	<path d="M99.275,64.926c0,0,1.288-1.152,1.22-2.307c-0.067-1.15-0.654-2.304-0.542-4.068c0.122-1.905,1.764-2.643,0.476-3.254
		c-1.289-0.609-1.018-2.984-1.018-2.984s-2.034,2.375-2.034,3.526c0,1.153-2.238,3.798-2.17,4.409
		c0.068,0.609,1.424-0.611,0.542,0.948c-0.881,1.56-0.61,3.46-0.61,3.46L99.275,64.926z"/>
	<path d="M102.599,46.617c0,0-3.594,0-5.29,1.289c-1.695,1.289-4.068,5.898-5.289,9.019c-1.221,3.118-2.238,7.526-2.238,7.526
		l1.221,0.272c0,0,0.88-2.646,1.288-4.138c0.407-1.49-0.408-1.965,0.678-3.594c1.085-1.627,1.966-1.493,2.78-3.933
		c0.814-2.441,0.204-3.391,1.831-4.206c1.628-0.812,3.052-1.017,3.866-0.474C102.259,48.922,102.599,46.617,102.599,46.617z"/>
	<polygon points="14.731,112.324 220.566,111.277 220.566,113.374 13.333,113.722 	"/>
	<polygon points="14.615,115.005 219.17,114.306 219.17,116.17 14.615,116.17 	"/>
	<polygon points="169.061,105.281 162.543,27.106 163.6,27.986 169.938,105.632 	"/>
	<polygon points="164.305,27.986 172.051,105.807 173.283,105.807 165.006,28.163 	"/>
	<path d="M165.186,28.691c0,0,0,0.879,6.16-1.057c6.162-1.936,10.74-2.816,11.621-1.23c0.879,1.582-0.529,5.277,0.354,6.512
		c0.879,1.234,2.816,2.113,8.273,1.408c5.459-0.702,7.219-1.055,7.219-1.055l4.051,25.178c0,0-2.465,2.818-11.445,2.113
		c-8.979-0.706-10.562-1.234-10.916-3.875s0.705-4.049-2.641-2.818c-3.346,1.233-10.037,2.818-10.037,2.818l-0.176-1.232
		c0,0,7.219-2.113,10.035-3.169c2.818-1.057,4.58-0.53,4.227,2.288c-0.352,2.818,5.988,5.635,11.797,5.107
		c5.811-0.529,8.1-1.585,8.1-1.585l-3.699-22.888c0,0-5.811,1.057-10.562,0.703c-4.756-0.353-6.867-0.175-6.514-3.345
		c0.35-3.168,2.639-6.337-1.938-5.634c-4.578,0.703-5.633,2.466-8.98,2.816c-2.283,0.239-5.281,0.352-5.281,0.352L165.186,28.691z"
		/>
	<polygon points="181.031,32.565 180.854,54.045 181.91,54.572 181.91,33.799 	"/>
	<path d="M162.543,21.474c-3.168,0.353-2.992,6.513,1.762,6.513C167.65,27.986,166.043,21.084,162.543,21.474z M164.062,27.221
		c-3.637,0-3.771-4.714-1.346-4.982C165.393,21.939,166.621,27.221,164.062,27.221z"/>
	<path d="M169.061,105.281c0,0,0.484,0.579,1.533,0.579c1.047,0,2.447-0.699,2.447-0.699s1.047,1.921-1.574,1.921
		S168.746,106.275,169.061,105.281z"/>
	<polygon points="127.086,88.736 167.623,88.562 168.496,90.658 127.086,90.309 	"/>
	<polygon points="170.943,88.387 219.52,87.163 219.52,90.309 171.641,90.658 	"/>
	<path d="M65.431,148.351c-0.903,0.133-2.246,0.414-3.879,1.041c-3.009,1.156-12.293,4.988-11.34,3.24
		c1.103-2.022,9.633-4.621,13.801-5.49l-8.479-7.238l-26.845,11.107l8.479,6.031l12.35,8.78l24.992-9.72L65.431,148.351z"/>
	<g>
		<path d="M13.684,157.755l11.436-4.448l-9.081-7.751c-0.6,0.086-1.41,0.254-2.354,0.53V157.755z"/>
		<path d="M13.684,144.555c0.33-0.077,0.646-0.149,0.938-0.21l-0.938-0.8V144.555z"/>
	</g>
	<path d="M110.006,148.758c-0.886,0.176-2.208,0.524-3.797,1.228c-2.931,1.298-11.961,5.56-11.101,3.779
		c0.997-2.063,9.337-5.066,13.433-6.136l-8.777-6.77l-26.106,12.361l21.415,13.674l24.337-10.888L110.006,148.758z"/>
	<path d="M158.605,149.225c-0.959,0.189-2.385,0.565-4.1,1.327c-3.164,1.398-12.912,5.999-11.982,4.078
		c1.072-2.229,10.078-5.47,14.498-6.625l-9.475-7.307l-28.18,13.343l23.116,14.762l26.272-11.752L158.605,149.225z"/>
	<path d="M126.13,187.229l17.464-7.812l-10.15-7.827c-0.959,0.19-2.385,0.567-4.099,1.327c-3.165,1.399-12.912,6-11.984,4.08
		c1.075-2.229,10.079-5.471,14.5-6.626l-9.475-7.307l-28.181,13.343l16.947,10.821H126.13z"/>
	<path d="M181.908,186.762l14.338-6.413l-10.15-7.827c-0.959,0.189-2.385,0.566-4.098,1.327c-3.164,1.399-12.91,6-11.984,4.078
		c1.074-2.228,10.078-5.47,14.498-6.625l-9.473-7.306l-28.182,13.343l14.758,9.423H181.908z"/>
	<path d="M219.17,188.627v-10.753c-1.695,0.58-2.812,0.763-2.469,0.053c0.299-0.618,1.219-1.314,2.469-2.021v-10.7l-25.625,12.134
		l17.676,11.288H219.17z"/>
	<path d="M89.158,185.363l10.17-4.549l-10.151-7.826c-0.958,0.188-2.384,0.567-4.1,1.327c-3.165,1.398-12.911,6-11.983,4.078
		c1.074-2.228,10.079-5.47,14.499-6.625l-9.474-7.306l-28.182,13.344l11.838,7.557H89.158z"/>
	<path d="M41.985,184.899l11.214-5.016l-10.152-7.828c-0.958,0.19-2.385,0.566-4.1,1.327c-3.164,1.398-12.911,5.999-11.982,4.079
		c1.074-2.229,10.079-5.47,14.5-6.625l-9.475-7.307l-17.841,8.447v11.499l2.228,1.423H41.985z"/>
	<path d="M209.221,151.043c-0.885,0.175-2.203,0.522-3.787,1.227c-2.924,1.292-11.932,5.542-11.072,3.768
		c0.992-2.058,9.312-5.055,13.398-6.121l-8.756-6.751l-26.041,12.329l21.361,13.641l24.277-10.859L209.221,151.043z"/>
	<path d="M178.406,130.418c-0.674,0.135-1.678,0.399-2.885,0.935c-2.225,0.983-9.084,4.221-8.428,2.87
		c0.756-1.567,7.09-3.849,10.199-4.662l-6.664-5.139l-19.828,9.386l16.264,10.385l18.482-8.267L178.406,130.418z"/>
	<path d="M220.508,139.848c-1.064,0.345-1.744,0.433-1.52-0.034c0.195-0.403,0.76-0.853,1.541-1.312l0.119-7.601l-17.951,8.499
		l16.264,10.385l1.4-0.626L220.508,139.848z"/>
	<path d="M129.656,128.846c-0.674,0.134-1.679,0.398-2.884,0.935c-2.228,0.983-9.085,4.22-8.432,2.868
		c0.757-1.567,7.091-3.848,10.201-4.66l-6.665-5.14l-19.826,9.387l16.262,10.385l18.483-8.268L129.656,128.846z"/>
	<path d="M85.273,127.623c-0.675,0.134-1.678,0.397-2.884,0.934c-2.226,0.983-9.084,4.221-8.431,2.869
		c0.757-1.566,7.092-3.849,10.201-4.661l-6.666-5.14l-19.826,9.387l16.263,10.384l18.483-8.267L85.273,127.623z"/>
	<path d="M40.733,124.954c-0.7,0.138-1.742,0.414-2.994,0.97c-2.311,1.021-9.427,4.38-8.75,2.977
		c0.785-1.626,7.36-3.994,10.587-4.837l-6.918-5.335l-18.544,8.781v2.261l14.847,9.48l19.184-8.581L40.733,124.954z"/>
	<path d="M61.508,118.744c-0.452,0.09-1.123,0.266-1.93,0.624c-1.488,0.659-6.074,2.823-5.637,1.919
		c0.505-1.048,4.741-2.573,6.82-3.117l-4.457-3.436l-13.256,6.277l10.874,6.942l12.358-5.526L61.508,118.744z"/>
	<path d="M104.143,120.143c-0.451,0.089-1.123,0.265-1.929,0.624c-1.489,0.658-6.074,2.822-5.637,1.918
		c0.505-1.046,4.742-2.572,6.82-3.117l-4.456-3.436l-13.256,6.277l10.874,6.943l12.357-5.527L104.143,120.143z"/>
	<path d="M149.748,120.666c-0.451,0.091-1.123,0.267-1.93,0.626c-1.488,0.657-6.072,2.821-5.636,1.918
		c0.505-1.048,4.741-2.574,6.819-3.118l-4.455-3.436l-13.257,6.277l10.874,6.942l12.357-5.526L149.748,120.666z"/>
	<path d="M201.107,122.14c-0.557,0.111-1.385,0.329-2.379,0.771c-1.834,0.812-7.484,3.478-6.945,2.364
		c0.621-1.291,5.842-3.173,8.404-3.842l-5.492-4.234l-16.336,7.735l13.398,8.557l15.232-6.812L201.107,122.14z"/>
	<polygon points="92.313,91.008 13.683,91.357 13.683,88.91 93.361,88.91 	"/>
	<polygon points="54.221,14.357 54.687,75.399 77.053,75.864 75.189,12.494 78.917,12.96 80.78,77.262 52.823,78.194 50.027,14.357 
			"/>
	<polygon points="43.038,14.124 44.786,78.427 19.973,78.078 17.876,14.124 22.069,14.474 22.419,75.281 42.339,75.98 
		39.544,14.474 	"/>
	<g>
		<rect x="20.089" y="77.378" width="0.815" height="5.592"/>
		<rect x="22.239" y="77.399" width="0.815" height="5.592"/>
		<rect x="24.389" y="77.42" width="0.815" height="5.592"/>
		<rect x="26.539" y="77.441" width="0.815" height="5.592"/>
		<rect x="28.688" y="77.463" width="0.815" height="5.592"/>
		<rect x="30.839" y="77.484" width="0.815" height="5.592"/>
		<rect x="32.988" y="77.505" width="0.815" height="5.592"/>
		<rect x="35.139" y="77.526" width="0.815" height="5.592"/>
		<rect x="37.288" y="77.548" width="0.815" height="5.592"/>
		<rect x="39.438" y="77.569" width="0.815" height="5.592"/>
		<rect x="41.588" y="77.59" width="0.815" height="5.592"/>
		<rect x="43.738" y="77.611" width="0.815" height="5.592"/>
	</g>
	<g>
		<rect x="53.174" y="76.097" width="0.814" height="5.592"/>
		<rect x="55.588" y="76.097" width="0.814" height="5.592"/>
		<rect x="58.003" y="76.097" width="0.814" height="5.592"/>
		<rect x="60.417" y="76.097" width="0.814" height="5.592"/>
		<rect x="62.832" y="76.097" width="0.814" height="5.592"/>
		<rect x="65.247" y="76.098" width="0.814" height="5.592"/>
		<rect x="67.661" y="76.097" width="0.814" height="5.592"/>
		<rect x="70.075" y="76.097" width="0.815" height="5.592"/>
		<rect x="72.49" y="76.097" width="0.814" height="5.592"/>
		<rect x="74.904" y="76.098" width="0.815" height="5.591"/>
		<rect x="77.319" y="76.098" width="0.815" height="5.592"/>
		<rect x="79.733" y="76.098" width="0.815" height="5.592"/>
	</g>
	<polygon points="57.017,14.357 56.784,73.068 74.957,73.534 73.791,14.822 72.161,14.822 73.791,72.369 57.949,72.369 
		58.182,14.357 	"/>
	<polygon points="37.913,14.124 40.243,73.534 24.399,73.534 23.934,14.822 24.866,14.822 25.332,72.602 38.845,73.068 
		36.748,14.124 	"/>
	<path d="M108.995,135.701c-2.446,3.845,0.349,8.737,0.349,8.737h1.748l2.447,1.048l2.271-1.572l2.97,2.271l3.146-1.398l2.097,1.398
		l1.397-3.146l3.146,2.097c0,0,3.146-3.844,2.097-8.737"/>
	<path d="M158.387,136.865c0,0-2.914-0.466-1.865,4.078c1.049,4.543-1.861,7.339-1.861,7.339s4.658-1.281,3.959-4.428
		C157.918,140.711,158.387,136.865,158.387,136.865z"/>
	<path d="M177.49,138.498c0,0,3.494-1.748,3.844,1.396c0.352,3.146-1.396,7.923,0.236,9.437c1.629,1.513,3.494,2.68,3.494,2.68
		s-0.35-1.981-2.217-4.193c-1.863-2.214,1.633-10.368-1.514-11.767S177.49,138.498,177.49,138.498z"/>
	<path d="M64.962,135.352c0,0-2.271-1.048-2.621,0.874c-0.35,1.922,1.048,2.446,1.048,2.446s-1.748,0.523-1.398,1.923
		c0.35,1.396,1.922,1.747,1.922,1.747s-1.048,1.748,0.174,2.445c1.223,0.699,2.447-0.174,2.447-0.174s0.699,1.572,2.096,1.747
		c1.398,0.175,2.446-1.224,2.446-1.224s0.175,1.224,1.922,1.398c1.748,0.175,1.748-0.699,1.748-0.699s2.097,1.922,3.32,1.573
		c1.223-0.351,1.398-2.098,1.398-2.098s1.397,1.747,3.145,0.874c1.747-0.874,0.349-2.446,0.349-2.446s1.922,0.874,2.971-0.175
		c1.048-1.049,0.174-2.796,0.174-2.796s0.874,0,1.397-1.747c0.525-1.748-1.572-2.096-1.572-2.096s2.097-0.7,0.349-2.098
		c-1.747-1.397-3.495-0.35-3.495-0.35L64.962,135.352z"/>
	<path d="M82.61,158.592c0,0-1.573,1.572-1.223,3.844s2.622,8.562,2.622,8.562s1.049-1.397,3.32-0.874
		c2.271,0.524,1.397,1.923,4.893,1.223c3.495-0.698,3.615,2.826,8.387,0.176c4.718-2.622,6.989,0.349,6.989,0.349
		s6.466-8.911,1.398-12.93"/>
	<path d="M136.254,124.868c0,0-1.398-0.232-1.748,2.679c-0.35,2.912,0.816,4.427,0.816,4.427s-1.863-0.232-1.863,1.98
		s0.465,3.028,3.959,2.911c1.783-0.058,2.709-0.623,2.709-0.623s0.787,1.205,3.465,0.974c2.68-0.232,3.289-1.031,3.289-1.031
		s3.523,0.376,4.748,0.215c2.68-0.349,2.914-0.93,2.68-2.561c-0.232-1.632-2.096-1.749-2.096-1.749s1.281,0.351,1.049-3.377
		c-0.234-3.729-2.332-3.961-2.332-3.961"/>
	<path d="M164.209,157.718c1.049-0.698,2.098,1.397,5.941,0.699c3.846-0.699,7.691-2.621,8.037-2.097
		c0.352,0.524-2.619,3.319-8.211,3.319S163.162,158.417,164.209,157.718z"/>
	<path d="M38.751,156.086c0,0-3.728,2.563-3.262,5.826c0.466,3.261,0.466,4.192,0.466,4.192l2.33,0.233c0,0-1.397-0.698-0.699-4.426
		c0.699-3.729,2.33-3.96,2.33-3.96L38.751,156.086z"/>
	<path d="M62.981,157.253c0,0,2.563,3.028,2.796,6.521c0.232,3.496-3.029,7.689-3.029,7.689l-3.029-1.398l-1.397,2.33l-3.496-1.397
		h2.098l2.562-2.098l2.097,0.933c0,0,2.795-1.398,2.33-5.359c-0.467-3.96-2.33-6.057-2.33-6.057L62.981,157.253z"/>
	<path d="M130.547,158.649c0,0-3.03,2.796-2.563,6.29c0.466,3.495,0.466,3.495,0.466,3.495l2.33,1.631
		c-0.176,0.046,2.598,0.4,2.664,1.524c0.131,2.204,3.858,4.067,3.858,4.067l5.826-1.165l1.163,1.63l1.863-1.63l2.797,0.466
		l2.328-1.631l3.963,1.165c0,0,3.727-3.028,2.795-8.62c-0.93-5.591-2.328-5.126-2.328-5.126L130.547,158.649z"/>
	<path d="M89.891,124.52c0,0-1.398,2.562-1.048,5.242c0.35,2.679,2.446,5.94,2.446,5.94l1.981-0.932l1.281,0.816l0.699-0.933
		l1.397,1.164l2.563-1.048l1.049,0.467l0.932-0.699l1.864,0.582l0.699-1.165l1.048,0.699c0,0,2.353-2.541,1.748-6.174
		c-0.699-4.194-2.913-4.194-2.913-4.194l-0.699,1.282c0,0,2.563,0.583,2.563,3.379s-0.699,4.425-0.699,4.425l-0.932-0.697
		l-1.165,1.514l-1.514-0.932l-1.048,0.814l-1.165-0.814l-1.864,1.863l-1.979-1.63l-0.932,1.048l-1.282-0.467l-1.165,0.35
		c0,0-2.097-2.329-2.213-5.009s1.399-4.427,1.399-4.427L89.891,124.52z"/>
	<path d="M42.291,138.202c-2.189,0.9-2.888-1.037-3.862-6.428c-0.357-1.98-1.507-2.956-2.814-3.402
		c0.054,0.347-0.033,0.715-0.297,0.926c-0.834,0.663-1.916,1.058-3.028,1.175c0.26,1.225-1.671,1.713-2.089,0.447
		c-0.07-0.214-0.114-0.425-0.146-0.636c-0.757-0.219-1.464-0.588-2.023-1.161c-0.237-0.241-0.335-0.587-0.296-0.913
		c-9.684,0.069-5.637,9.054-7.424,10.498c-1.946,1.572-4.013,0.252-4.013,0.252s-0.547,7.437,14.045,7.663
		c14.592,0.225,15.048-9.768,15.048-9.768S44.48,137.302,42.291,138.202z"/>
	<path d="M185.994,127.665c0,0-2.795,0.232-3.262,2.562c-0.465,2.331,0.234,8.156,1.633,9.32c1.396,1.165,1.396,1.165,1.396,1.165
		l2.33-1.631l0.467,1.631l2.328-1.398l3.029,0.465l0.697-1.862l0.699,1.862l2.797-1.396l1.865,1.63c0,0,3.725-0.931,3.725-5.357
		c0-4.428-3.027-6.989-3.027-6.989l-6.988,2.796L185.994,127.665z"/>
	<path d="M186.812,161.706c0,0-2.861,0.579-3.924,2.445c-1.064,1.866-1.375,4.452-1.375,4.452l1.352,1.15
		c0,0,0.121-1.184,1.615-3.649c1.49-2.465,4.129-3.112,4.129-3.112l-0.975-0.79"/>
	<path d="M205.564,163.544c0,0,1.396,0.466,2.098,1.631c0.699,1.163,0.465,3.027,0.465,3.027l2.332-1.164c0,0-1.4-4.194-2.797-4.893
		C206.264,161.446,204.398,163.077,205.564,163.544z"/>
	<path d="M213.254,145.838c0,0-1.398,0.231-1.631,2.562c-0.234,2.33,0,6.058,0,6.058l1.631,0.467c0,0-0.469-2.797,0.23-5.591
		c0.701-2.797,2.332-3.03,2.332-3.03S214.883,143.275,213.254,145.838z"/>
	<path d="M59.731,124.551c0,0,1.357,0.951,1.243,2.559c-0.114,1.607,1.043,3.229,1.043,3.229s0.502,0.15,0.299-1.005
		C62.113,128.18,61,122.74,59.731,124.551z"/>
	<path d="M47.745,122.946c0,0-1.621,0.523-1.621,2.271c0,1.748-0.54,2.622-0.944,3.496c-0.405,0.872,0.27,1.571,0.27,1.571
		s1.621-0.874,1.755-3.494C47.34,124.169,48.555,121.723,47.745,122.946z"/>
	<path d="M43.644,132.207c0.554-0.554,6.116,3.319,10.31,3.145c4.193-0.174,8.562-2.097,9.261-1.572
		c0.699,0.524-7.514,2.271-9.436,2.271C51.856,136.051,42.771,133.08,43.644,132.207z"/>
</g>
</svg>
