<?xml version="1.0" encoding="utf-8"?>
<!-- Generator: Adobe Illustrator 16.2.0, SVG Export Plug-In . SVG Version: 6.00 Build 0)  -->
<!DOCTYPE svg PUBLIC "-//W3C//DTD SVG 1.1//EN" "http://www.w3.org/Graphics/SVG/1.1/DTD/svg11.dtd">
<svg version="1.1" id="Layer_1" xmlns="http://www.w3.org/2000/svg" xmlns:xlink="http://www.w3.org/1999/xlink" x="0px" y="0px"
	 width="233.803px" height="202.649px" viewBox="0 0 233.803 202.649" enable-background="new 0 0 233.803 202.649"
	 xml:space="preserve">
<g>
	<polygon fill="#FFFFFF" points="217.451,189.64 24.543,189.64 16.479,9.228 209.037,10.511 	"/>
	<path fill="#91AEB3" d="M54.831,155.508c0,0-21.011-9.911,1.048-17.474c12.23-4.193,14.562-4.66,14.562-4.66l6.406,8.854
		c0,0-3.264,3.61-1.865,5.358c1.398,1.747,6.156-0.698,6.156-0.698s12.949,12.346,31.123,11.647
		c18.172-0.698,24.748-4.48,24.748-4.48s1.693-0.295,3.789-1.692c2.098-1.398,1.282-1.865,1.282-1.865s9.204-7.92,13.396-13.861
		c4.195-5.94,4.195-5.94,4.195-5.94s30.751,4.543,22.016,16.425c-6.666,9.066-8.736,8.037-8.736,8.037s-22.366,9.786-61.857,9.786
		C71.605,164.943,54.831,155.508,54.831,155.508"/>
	<polygon fill="#91AEB3" points="74.982,133.024 77.43,132.675 77.43,135.121 	"/>
	<path fill="#91AEB3" d="M82.089,132.441c0,0,7.584-1.284,10.834-1.571c4.601-0.406,10.31-1.923,10.31-1.923l-20.48,13.146
		l-2.99-3.012C79.762,139.082,80.924,133.958,82.089,132.441z"/>
	<path fill="#91AEB3" d="M108.998,129.472c0,0,2.389-0.756,6.99-0.874c4.602-0.117,7.338-0.175,7.338-0.175l3.846,3.553l0.813,3.728
		l6.759,9.202l0.582,3.962l-1.012,2.734l0.43,0.527c0,0-9.787,3.493-17.359,3.61c-7.57,0.117-23.879-3.377-26.908-5.822
		c-3.029-2.447-5.491-4.972-5.491-4.972s9.919-4.583,14.694-8.077c4.776-3.494,6.174-5.009,6.174-5.009"/>
	<path fill="#91AEB3" d="M149.305,129.821c0,0-5.01-1.048-7.457-1.224c-2.446-0.175-7.513-0.698-7.513-0.698l5.184,9.377
		l2.329,1.922l0.524,3.728c0,0,2.154-1.57,4.019-5.357C148.256,133.781,149.305,129.821,149.305,129.821z"/>
	<path fill="#91AEB3" d="M156.35,130.345l-2.621-0.174l-2.184,6.378C151.545,136.549,153.816,136.112,156.35,130.345"/>
	<path fill="#91AEB3" d="M127.418,116.673c0,0,0.453-1.005,3.365-1.005s3.029,1.863,6.291,1.515c3.261-0.351,4.193-1.979,5.24-0.116
		c1.049,1.863,4.312,4.191,5.592,4.075c1.281-0.116,3.495-1.515,5.241,0c1.749,1.516,3.029,1.516,4.31,1.865
		c1.282,0.349,5.012-0.814,5.826-1.748c0.814-0.932,1.98-2.329,1.864-2.679s0.581,2.679-1.05,4.427
		c-1.631,1.747-3.842,2.095-4.309,1.979c-0.469-0.116-3.704-1.325-4.881-1.42c-1.18-0.095-2.689,1.188-3.856,0.955
		c-1.167-0.234-6.058-4.775-8.505-4.311c-2.445,0.465-7.688-2.796-10.949-2.68S127.418,116.673,127.418,116.673"/>
	<path fill="#91AEB3" d="M121.229,117.996c0,0,0.818,2.682,1.748,3.962c0.934,1.281,1.047,3.728,1.748,5.125
		c0.698,1.397,3.611,3.261,4.311,5.941c0.699,2.679,2.213,2.912,2.912,3.729c0.699,0.814,1.164,3.728,2.562,4.076
		c1.396,0.35,2.68,1.282,2.446,3.495s-1.864,5.593-1.05,7.105c0.816,1.515,2.215,1.98,2.215,1.98s-2.445-0.001-3.029-1.864
		c-0.582-1.863,0.814-4.893-0.348-6.641c-1.164-1.747-5.593-6.988-5.593-6.988s-1.048-1.513-1.282-3.728
		c-0.232-2.214-0.232-3.729-1.514-3.729s-3.727-3.494-3.727-3.494l-3.029-7.572L121.229,117.996"/>
	<path fill="#91AEB3" d="M117.734,116.017c0,0-0.115-2.562-2.098-2.679c-1.979-0.116-3.143,0.351-3.727-1.514
		c-0.579-1.865-1.164-1.051-2.562-0.817s-2.678-0.466-2.91-1.164c-0.236-0.699-0.932-4.545-5.94-3.029
		c-5.012,1.516-3.729,0.933-5.362,0.933c-1.627,0-0.697,1.746-1.977,1.862c-1.283,0.118-4.779,0.468-5.479,1.282
		c-0.697,0.816-8.15,3.262-8.97,2.214c-0.813-1.049-3.026-0.35-3.026-0.35l-0.234,2.913c0,0,8.621-1.747,8.971-1.747
		c0.352,0,6.361-1.878,6.361-1.878l3.225-0.248l4.277-1.486h3.375l2.214,1.98l1.866,0.466l2.096,2.098h2.912l3.029,2.214
		l1.747,0.581L117.734,116.017z"/>
	<path fill="#91AEB3" d="M103.872,92.021c0,0-0.35,2.212-0.35,3.262c0,1.048-1.747,1.514-2.677,2.678
		c-0.934,1.166-4.428,0.859-4.428,0.859S101.31,96.562,103.872,92.021z"/>
	<path fill="#91AEB3" d="M109.348,71.81l-0.263,1.834c0,0,0.35-0.786,1.485-0.263c1.136,0.524,2.01,0.786,2.883,0.524
		c0.875-0.262,2.271-0.262,2.271-0.262l-0.133-2.31c0,0-1.438,0.825-3.973,0.649C109.085,71.81,109.348,71.81,109.348,71.81z"/>
	<polygon fill="#91AEB3" points="85.701,146.421 83.022,147.47 81.85,146.57 84.535,145.024 	"/>
	<polyline fill="#91AEB3" points="151.633,77.575 150.354,80.487 148.605,78.74 150.471,75.479 151.633,77.575 	"/>
	<polygon fill="#91AEB3" points="150.673,81.798 149.391,82.497 148.372,79.905 148.605,78.74 	"/>
	<path fill="#91AEB3" d="M143.131,142.926c0,0-0.583,1.748-0.35,2.447c0.232,0.698,0.466,1.282,0.466,1.282l-0.647,0.791
		l-0.665,0.81c0,0-0.55-0.32,0.032-4.165C142.547,140.246,143.131,142.926,143.131,142.926z"/>
	<path fill="#91AEB3" d="M157.953,126.475c0,0,0.757,0.319,1.428,0.494c0.67,0.174,1.225,0.233,1.225,0.233l0.988-2.185
		l-3.436-0.466L157.953,126.475z"/>
	<polyline fill="#91AEB3" points="142.896,149.304 142.723,147.731 141.935,148.256 141.935,150.003 142.896,149.304 	"/>
	<path fill="#91AEB3" d="M155.129,125.454c0,0-0.875,0.523-1.836,0.611c-0.962,0.086-1.047-1.224-1.047-1.224
		s1.53-1.521,2.096-1.397c0.566,0.122,0.872,0.087,0.872,0.087L155.129,125.454z"/>
	<path fill="#91AEB3" d="M193.688,120.211c0,0,4.076,4.193,11.766,4.893c7.686,0.699,9.434-2.446,9.434-2.446l0.932,22.481
		l-9.667-12.697c0,0-8.038-5.707-10.485-6.639c-2.445-0.933-3.846-1.747-3.846-1.747l2.1-4.544"/>
	<path fill="#91AEB3" d="M42.947,121.609c0,0-1.396,3.145-7.338,4.542c-5.939,1.398-11.883,0-11.883,0l-0.697,21.318
		c0,0,3.262-3.891,6.176-7.362c2.909-3.472,4.655-9.062,10.248-10.46c5.592-1.398,6.99-2.446,6.99-2.446L42.947,121.609"/>
	<path fill="#91AEB3" d="M64.967,118.464c0,0-0.701,2.795-6.99,4.543c-6.292,1.747-11.883,1.397-11.883,1.397l0.35,2.797
		c0,0,9.785-3.495,13.979-3.846c4.192-0.349,4.192-0.349,4.192-0.349L64.967,118.464"/>
	<path fill="#91AEB3" d="M192.289,120.444c0,0-10.426,0.641-17.064-0.583c-6.644-1.224-9.787-3.495-9.787-3.495l1.016,3.119
		c0,0,5.625,0.726,9.992,1.425c4.369,0.699,15.375,3.146,15.375,3.146L192.289,120.444z"/>
	<path fill="#91AEB3" d="M216.984,173.33c0,0-17.238,14.909-95.521,14.446c-78.28-0.468-96.921-10.252-96.921-10.252v12.115h192.908
		L216.984,173.33z"/>
	<path d="M144.736,67.909c0,0,2.23,0.911,2.014,1.537c-2.354,6.723-12.54,24.723-25.574,41.77
		c-13.345,17.449-43.918,32.633-43.918,32.633l-2.549-2.729c-0.744,3.97-3.162,10.609,7.141,5.451
		c4.619-2.313,24.314-9.429,46.89-36.842c18.243-22.156,23.118-36.872,23.57-39.821C153.089,64.851,144.736,67.909,144.736,67.909z
		 M126.633,110.472c-25.555,31.012-43.791,34.486-48.258,36.47c-4.462,1.984-2.238-1.79-2.238-1.79s17.869-4.163,42.186-29.47
		c21.763-22.654,30.631-47.442,30.631-47.442C154.288,66.751,150.36,81.675,126.633,110.472z"/>
	<polygon points="16.479,9.228 22.537,190.959 218.706,190.959 213.58,8.764 209.037,10.511 215.445,187.231 25.798,187.231 
		21.139,8.764 	"/>
	<polygon points="16.479,9.228 213.58,8.764 213.113,13.89 17.877,12.491 	"/>
	<path d="M84.076,87.113c-0.26,0.173,0.828,2.98,0.395,3.037c0,0-1.303-1.109-1.838-1.089c-0.889,0.03-2.585-1.567-2.794-1.907
		c-0.342-0.546,1.226-2.522,1.021-2.861c-0.204-0.341-1.976,0-1.431-2.044c0.547-2.045,4.154-5.312,4.496-6.881
		c0.342-1.565,1.838-2.382,1.838-2.382s-0.885,1.567,0.071,1.636c0.952,0.065,1.36,0.882,1.36,0.882s-0.136-1.498,1.293-1.701
		c1.43-0.203,2.387-0.816,2.658-1.704c0.273-0.885,2.043-1.158,2.043-1.158s-1.838,1.979-0.34,1.635
		c1.498-0.342,3.066-1.564,3.066-1.564s-0.207,0.271-0.137,1.771c0.068,1.496-0.479,2.52-0.479,2.52s0.615,0.887,1.976,0.34
		c1.362-0.545,2.18-0.816,2.18-0.816s-0.681,0.679-1.159,1.908c-0.477,1.223-1.975,2.312-3.541,2.45
		c-0.564,0.05,1.438,3.577,1.16,3.747c-0.496,0.301-2.377-1.678-2.727-1.021c-0.545,1.021-1.635,1.63-3.338,2.178
		c-1.703,0.546-3.131,0.34-4.357,1.638C84.783,86.471,84.439,86.877,84.076,87.113z"/>
	<path d="M88.148,87.496c0.59-0.648,1.227,0.68,0.613,1.157C88.148,89.128,87.469,88.245,88.148,87.496z"/>
	<path d="M93.122,84.974c0.728-0.658,1.567,0.611,0.884,0.953C93.326,86.267,92.371,85.655,93.122,84.974z"/>
	<path d="M96.664,91.784c-0.862,0.054-2.112,1.158-0.954,1.364c1.159,0.203,1.636,0.614,2.249,0
		C98.57,92.535,97.754,91.718,96.664,91.784z M97.413,93.012c-0.612,0.409-1.521-0.243-1.021-0.477
		C97.413,92.06,98.025,92.602,97.413,93.012z"/>
	<path d="M92.439,90.354c-0.076-0.537,0.615-0.34,1.158-0.748c0.545-0.411,0.203-0.954,0.545-1.021
		c0.342-0.068,0.545,0.749-0.205,1.496C93.189,90.829,92.508,90.834,92.439,90.354z"/>
	<path d="M83.312,89.879c0.508,0.571-1.09,1.566-0.068,2.86c1.023,1.297,2.182,0.545,2.385,0.887c0.206,0.34-2.316,1.43-3.133-0.478
		C81.677,91.24,82.766,89.264,83.312,89.879z"/>
	<path d="M96.324,82.183c0.623,0.453,1.566-1.43,2.859,0.337c1.295,1.773-0.953,2.728-0.545,3.271
		c0.409,0.546,1.979-2.449,1.09-3.812C98.844,80.614,95.574,81.638,96.324,82.183z"/>
	<path d="M85.494,92.875c0.525-0.433,4.766,3.679,7.149,3.814c2.386,0.137,6.063,0.343,7.019-0.815
		c0.952-1.158,1.702-3.884,1.158-5.724c-0.548-1.838-2.523-4.019-1.977-4.495c0.545-0.477,2.59,3.134,2.793,4.77
		c0.202,1.633,0.202,4.631-1.089,5.788c-1.294,1.158-7.153,1.975-10.15,0.818C87.4,95.874,84.742,93.488,85.494,92.875z"/>
	<path d="M117.08,66.806c-1.549-1.302-1.363-1.797-2.42-1.675c-1.053,0.125-0.557,0.497-1.487,0.683
		c-0.931,0.187-0.31-0.371-1.614-0.371c-1.303,0-0.678,0.621-1.303,0.621c-0.619,0-0.928-0.312-1.734,0
		c-0.808,0.309-1.115,1.238-0.87,2.789c0.249,1.551,0.125,2.357,1.304,2.668c1.178,0.309,1.488-0.311,1.488-0.311
		s0.373,0.496,1.49,0.559c1.098,0.061,0.93-0.373,1.799-0.373c0.867,0,1.053,0.373,1.859-0.062c0.807-0.436,0.681-0.806,0.681-0.806
		s0.685,0.559,1.491,0C118.568,69.969,118.629,68.109,117.08,66.806z M116.957,69.969c-0.685-0.062-1.178-0.249-1.365,0.312
		c-0.186,0.558-0.621,0.744-1.303,0.432c-0.682-0.309-1.612,0.559-2.17,0.559c-0.561,0-0.932-0.93-1.238-0.93
		c-0.312,0-0.994,0.746-1.43,0.684c-0.434-0.064-2.232-4.219-0.496-4.465c0.914-0.13,0.619,0.37,1.365,0.186
		c0.744-0.186,0.807-0.745,1.363-0.809c0.559-0.062,1.055,0.623,1.738,0.623c0.682,0,0.619-0.808,1.303-0.808
		c0.682,0,2.294,1.241,2.604,2.666C117.639,69.845,117.639,70.031,116.957,69.969z"/>
	<path d="M107.963,66.56c0,0-1.674,0.683-1.736,1.797c-0.062,1.116,0.684,1.551,0.93,1.675c0.25,0.125,0.807-0.062,0.807-0.062
		l-0.062-0.558c0,0-1.303,0-0.99-1.055c0.309-1.055,0.99-0.146,0.99-0.146L107.963,66.56z"/>
	<path d="M110.195,70.898c0,0-0.621-2.48,0.125-2.603c0.744-0.125,0.619,2.232,0.93,2.603"/>
	<path d="M112.985,71.087c0.312-0.435-0.062-3.041,0.372-3.103c0.436-0.063,0.436,2.544,0.932,2.728"/>
	<path d="M115.592,70.59c0.248-0.559-0.371-2.233-0.061-2.605c0.309-0.371,0.494,1.614,1.178,1.984"/>
	<path d="M101.754,93.05c0,0,2.59-4.74,3.418-5.899c0.826-1.159,2.025-1.984,1.695-3.475c-0.33-1.488-0.33-3.472,0.662-4.298
		c0.992-0.828,0.992-1.488,0.828-2.978c-0.168-1.489,0.557-4.798,0.557-4.798l1.55-0.578l1.532,0.744l1.486-0.662l2.564-0.166
		l0.58-0.826c0,0,1.486,9.924-0.004,12.404c-1.484,2.481-1.156,3.473-1.321,5.127c-0.163,1.656-2.15,7.776-1.654,7.776
		s4.634,0.993,5.79,1.984c1.158,0.992,1.158,0.662,2.811,0.825c1.656,0.167,5.873,3.558,5.873,3.558l-1.076,1.405
		c0,0-4.133-3.475-5.125-2.646c-0.993,0.829-4.798,0.165-5.625-1.488c-0.828-1.653-2.812,0.333-3.806-2.314
		c-0.992-2.649-0.659-2.649-0.163-4.797c0.496-2.15,1.817-3.639,0.992-4.963c-0.829-1.324,1.324-1.819,1.156-4.467
		c-0.166-2.645-0.248-0.58,0.746-3.061c0.989-2.479,0.246-7.316,0.246-7.316s-2.481,0.453-3.471,0.453
		c-0.992,0-2.152-0.496-2.152-0.496s-0.828,2.479-0.166,4.135c0.661,1.656-0.33,2.484-0.826,4.137c-0.494,1.653,0.496,2.318,0,3.97
		c-0.494,1.652-1.158,0.992-1.82,2.646c-0.659,1.653-4.101,6.934-4.101,6.934L101.754,93.05z"/>
	<path d="M96.543,98.074c0,0-4.521,0.985-5.883,1.852c-1.367,0.87-1.242,1.737-2.608,1.49c-1.364-0.248-2.853,0.62-4.093,1.24
		c-1.24,0.622-3.102,0.992-5.211,0.868c-2.109-0.123-6.45,1.861-6.45,1.861l-1.735,1.117l-0.498,1.984c0,0,3.104-0.868,3.6,0.62
		c0.496,1.487,0.992,5.457-0.25,5.334c-1.238-0.123-1.238-0.123-1.238-0.123s0.992,2.479,3.1,2.231
		c2.109-0.248,4.217,0.371,5.955-0.868c1.738-1.24,3.102-1.24,3.102-1.24s0,0.123,2.978-0.993s2.978-1.49,4.341-1.241
		c1.363,0.248,3.6-0.577,3.6-0.577l-0.498-0.538c0,0-2.854-0.374-4.59,0.248c-1.735,0.618-1.489,0.867-2.605,0.867
		c-1.115,0-3.722,0.496-4.465,0.994c-0.744,0.495-2.107,0.743-3.228,0.991c-1.116,0.249-3.845,1.117-3.845,1.117
		s1.117-2.108,0-4.838c-1.115-2.729-2.605-3.847-2.605-3.847s2.233,0,3.104-0.744c0.867-0.744,3.347-0.617,4.713-0.99
		c1.363-0.373,2.729,0.123,3.473-0.745c0.744-0.867,1.861-0.125,2.977-0.621c1.117-0.494,2.357-1.735,3.475-2.108
		c1.117-0.372,5.389-2.226,6.381-3.093"/>
	<path d="M116.089,117.045l-1.241,1.861c0,0-3.101-2.108-4.465-2.977c-1.365-0.867-1.242-0.125-2.854-0.62
		c-1.613-0.496-1.613-1.984-2.978-2.232c-0.681-0.126-1.146-0.743-1.642-1.302c-0.497-0.557-1.023-1.058-1.832-0.933
		c-1.611,0.249-3.225,0.745-5.457,0.868c-2.234,0.125-3.35,0.125-3.35,0.125l0.496-0.371c0,0,3.086-2.451,4.959-2.357
		c2.482,0.125,4.096,0.621,4.715,1.364c0.621,0.744,2.11,1.364,3.104,1.612c0.992,0.248,1.24,2.234,2.977,2.108
		c1.734-0.123,3.226,0.126,3.846,0.993C112.985,116.054,116.089,117.045,116.089,117.045z"/>
	<path d="M78.748,139.045c0,0,0.043-7.319,4.674-14.1c4.63-6.783,10.584-13.15,10.584-13.15s-1.734-0.576-3.225,0.248
		c-1.488,0.827-7.359,7.277-10.832,13.727c-3.475,6.451-3.352,10.628-3.352,10.628L78.748,139.045z"/>
	<path d="M115.088,85.731c0,0,9.188-8.092,13.82-10.406c4.631-2.316,11.576-3.723,11.576-3.723l-2.812-2.15
		c0,0-8.435,2.562-13.065,6.037c-4.631,3.473-8.602,5.623-8.602,5.623L115.088,85.731z"/>
	<path d="M119.146,120.48c0,0,3.476,8.766,4.467,9.923c0.994,1.157,2.979,1.322,3.309,2.977c0.332,1.653,0.496,2.645,1.817,4.797
		c1.325,2.15,2.979,4.793,3.972,5.954c0.992,1.157,2.314,3.805,1.488,5.789c-0.827,1.984,0,4.464,2.811,4.135
		c2.814-0.331,5.129-0.993,5.129-3.308c0-2.316-0.495-1.654-0.333-4.631c0.169-2.978,1.819-3.146,1.158-4.963
		c-0.659-1.819-1.158-2.811-2.479-3.804c-1.322-0.991-5.789-10.42-7.941-12.735c-2.146-2.319-4.629-6.615-5.125-7.941
		c-0.496-1.321-1.158-0.33-0.826,0.662c0.33,0.992,7.275,11.577,8.434,13.397c1.159,1.819,3.309,6.285,4.467,7.28
		c1.156,0.99,2.482,1.157,1.986,3.803c-0.498,2.647-0.332,4.136-0.166,6.615c0.166,2.48-0.664,4.135-3.309,4.465
		c-2.646,0.332-3.144-1.817-2.646-3.638c0.496-1.82,0.332-4.962-0.662-6.285c-0.992-1.323-3.64-4.464-4.136-5.623
		c-0.495-1.158-1.983,0.329-1.983-2.151c0-2.481-0.994-4.963-1.984-5.459c-0.994-0.496-1.984,0.002-3.143-3.306
		c-1.156-3.31-2.977-7.608-2.977-7.608L119.146,120.48z"/>
	<path d="M131.719,105.428c0,0,6.121,1.985,6.945,3.142c0.828,1.159,2.814,1.322,4.467,1.654c1.654,0.33,5.621-0.661,6.782,0.827
		c1.157,1.488,3.142,3.308,4.3,3.142c1.158-0.164,3.306,1.82,3.803,2.15c0.498,0.33,2.814-1.157,4.632-2.15
		c1.821-0.991,3.972,2.649,3.806,5.293c-0.168,2.646-3.806,7.281-6.947,5.955c-3.145-1.323-4.633-2.15-5.789-1.323
		c-1.158,0.828-2.15,1.819-3.804,0.497c-1.653-1.324-5.458-4.304-7.111-3.807c-1.655,0.497-4.302-0.33-5.46-1.487
		c-1.157-1.158-3.307-0.993-4.301-1.158c-0.99-0.163-2.645-0.33-3.637,0c-0.994,0.331-1.366,0.248-1.366,0.248l-0.993-2.108
		c0,0,3.68,0.539,5.006,0.539c1.321,0,6.658,2.562,8.31,2.562c1.653,0,3.1,0.082,6.409,2.068c3.307,1.984,4.466,2.976,5.789,1.818
		c1.322-1.159,5.625,0.663,6.947,0.663c1.324,0,5.458-1.488,5.458-3.473c0-1.987-0.166-5.957-2.812-4.467
		c-2.646,1.487-4.796,1.985-6.284,0.495c-1.49-1.488-4.299-1.323-5.623-2.812s-1.82-1.819-3.639-1.985
		c-1.82-0.164-3.477,0.004-5.625-0.66c-2.149-0.661-3.639-2.316-5.459-2.812c-1.818-0.496-4.629-1.489-4.629-1.489L131.719,105.428z
		"/>
	<path d="M81.056,142.422c0,0-4.195-4.574-8.021-12.07c-5.896-11.554-11.49-29.415-3.969-43.256
		c12.404-22.823,33.243-27.042,51.604-24.313c18.359,2.729,25.305,10.668,25.305,10.668l-0.742,1.984c0,0-8.932-7.443-19.104-9.675
		c-10.173-2.233-25.059-3.473-34.734,1.735c-9.676,5.21-23.57,18.362-24.064,29.525c-0.499,11.164,3.969,30.516,8.188,35.727
		c4.217,5.209,7.234,9.347,7.234,9.347L81.056,142.422z"/>
	<path d="M84.199,145.399c0,0,8.438,9.18,22.826,10.669c14.391,1.489,27.539-3.226,27.539-3.226l-0.25-1.241
		c0,0-8.682,4.218-24.807,3.226c-16.129-0.992-23.488-10.378-23.488-10.378l-1.034,0.496L84.199,145.399z"/>
	<path d="M141.387,149.247c0,0,10.419-9.306,12.652-13.525c2.233-4.216,4.875-10.82,4.875-10.82l-1.525-0.715
		c0,0-1.241,6.328-4.963,11.413c-3.721,5.085-10.541,11.784-10.541,11.784L141.387,149.247z"/>
	<path d="M148.334,79.53c0,0,5.954,6.822,8.559,14.762c2.605,7.938,2.605,22.328,2.605,22.328l1.24-0.619
		c0,0,0.497-18.235-4.716-27.17c-5.208-8.93-6.944-10.604-6.944-10.604L148.334,79.53z"/>
	<path d="M149.988,75.931c0,0,8.725,10.917,10.379,18.361c1.651,7.442,3.143,20.18,3.143,20.18l1.156,0.66
		c0,0-0.164-15.877-3.969-24.479c-3.805-8.602-10.047-16.706-10.047-16.706L149.988,75.931z"/>
	<path d="M161.041,125.396c0,0-3.156,8.091-6.794,12.89c-3.64,4.796-12.312,11.717-12.312,11.717l0.204,0.744
		c0,0,10.619-8.653,13.598-12.791c2.977-4.136,6.282-12.571,6.282-12.571L161.041,125.396z"/>
	<path d="M135.059,153.835c0,0-13.562,5.624-26.628,4.465c-13.065-1.16-25.968-12.073-25.968-12.073l-1.324,0.661
		c0,0,10.256,11.08,27.127,12.237c16.871,1.16,28.744-5.07,28.744-5.07l-1.289-0.22"/>
	<path d="M78.494,143.745c0,0-10.256-8.271-13.729-30.104c-1.785-11.227-4.301-24.48,7.277-37.547
		c13.424-15.147,34.071-15.379,42.508-15.545c8.435-0.168,15.549,1.156,20.676,3.141c5.125,1.984,11.41,7.279,11.41,7.279
		l1.158-1.49c0,0-15.381-10.75-31.756-10.254s-33.908,3.807-43.667,15.383s-12.074,24.479-9.262,38.041s5.624,21.338,9.099,25.804
		c3.471,4.466,5.126,6.45,5.126,6.45L78.494,143.745z"/>
	<path d="M117.756,67.682c0,0,0.867,0.187,1.115-0.249c0.248-0.433,0.062-3.16,0.062-3.16l1.117,0.185c0,0-0.312,1.862-0.312,2.79
		c0,0.931-0.62,1.676-1.61,1.487"/>
	<path d="M104.172,63.899c0,0,0.248,3.596,0.248,4.34c0,0.746,0.993,1.862,2.17,1.862c1.179,0,1.428,0.187,1.428,0.187v-0.56
		c0,0-1.179-0.124-2.172-0.618c-0.99-0.498-0.869-2.422-0.93-3.785s0.061-1.613,0.061-1.613L104.172,63.899z"/>
	<path d="M71.547,107.315c0,0-0.808,0.808-1.488,0.498c-0.684-0.312-2.357-0.87-2.357-0.87l-0.496,1.367c0,0,1.115,0,2.232,0.122
		c1.114,0.124,2.42,0.495,2.666,1.24c0.25,0.744-1.053,0.992-1.053,0.992s1.488,0.311,1.613,0.992
		c0.123,0.682-0.436,2.047-1.491,1.984c-1.052-0.061-2.603,0.374-2.603,0.374l0.246,1.363c0,0,1.735-0.433,2.791-0.37
		c1.057,0.062,2.234,0.247,2.234,0.247s1.797-0.56,0.93-3.784S72.416,107.192,71.547,107.315z"/>
	<path d="M68.012,109.859c0,0,0.992,0,1.117,0.931c0.123,0.93-0.684,1.673-0.684,1.673l-0.371-2.354"/>
	<path d="M94.061,97.453c0,0,1.924,1.18,2.357,1.366c0.438,0.186,2.357-0.374,3.475-1.428s3.038-3.473,3.038-3.473l-1.364-1.49
		l-0.371,0.933L102,93.856c0,0-0.559,1.427-2.17,2.854c-1.613,1.427-2.73,1.427-2.73,1.427l-1.611-0.932l-1.116,0.247"/>
	<path d="M148.334,79.53c0,0,5.334,8.807,5.83,18.73s-0.197,16.592-0.197,16.592l-2.285-1.459c0,0,1.49-7.442,0.744-16.125
		c-0.744-8.683-4.605-16.08-4.605-16.08L148.334,79.53z"/>
	<path d="M151.434,125.056c0,0-0.248,3.475-2.977,9.428c-2.729,5.954-6.449,10.172-6.449,10.172l0.744-2.233
		c0,0,2.977-2.979,4.462-7.938c1.491-4.962,2.699-9.869,2.699-9.869L151.434,125.056z"/>
	<path d="M154.288,87.841c0,0,2.355,6.326,2.355,16.251c0,9.924-0.371,11.535-0.371,11.535l0.867,0.993c0,0,1.118-7.443,0.497-13.77
		c-0.619-6.325-1.118-11.166-1.118-11.166L154.288,87.841z"/>
	<path d="M154.908,123.566c0,0-0.496,4.341-2.234,7.692c-1.736,3.349-4.217,10.17-4.217,10.17l2.977-2.976
		c0,0,3.848-11.412,4.218-13.274c0.371-1.859,0-1.985,0-1.985L154.908,123.566z"/>
	<path d="M96.357,110.999c0,0-7.939,8.104-11.25,13.065c-3.306,4.962-5.625,14.06-5.625,14.06l0.832,1.157
		c0,0,1.654-7.938,6.449-14.885c4.796-6.947,10.917-13.563,10.917-13.563L96.357,110.999z"/>
	<path d="M143.002,72.459c0,0-8.768,1.161-14.061,4.302c-5.294,3.143-13.64,10.885-13.64,10.885l-0.751,1.851
		c0,0,9.428-9.097,15.713-12.075c6.284-2.977,13.066-4.135,13.066-4.135L143.002,72.459z"/>
	<path d="M65.707,123.007c0,0,0.307-0.219-0.043-1.223c0,0-36.131,4.757-36.459,18.323c-0.332,13.564,29.109,26.796,83.363,26.463
		c54.248-0.33,96.921-18.192,96.261-30.763c-0.661-12.574-40.687-16.211-40.687-16.211s36.384,4.633,37.376,15.217
		c0.993,10.586-45.981,29.11-91.963,29.11c-45.979,0-82.089-13.276-81.042-24.146C33.688,127.55,65.707,123.007,65.707,123.007z"/>
	<path d="M86.195,88.847c0.436,0,0.525-1.138,1.136-1.835c0.612-0.699,1.31-1.048,1.31-1.048s-1.221,0.262-1.658,0.785
		s-1.137,1.66-0.787,1.747"/>
	<path d="M91.699,85.264c0.254,0.397,0.264-0.611,1.049-1.135c0.787-0.524,1.135-0.7,1.135-0.7S91.088,84.303,91.699,85.264z"/>
	<path d="M114.766,118.114c0,0-10.398-0.568-16.688-0.044c-6.291,0.523-8.168,0.742-8.168,0.742l-1.226,1.529
		c0,0,1.092-0.35,9.655-1.224c8.562-0.873,16.366-0.247,16.366-0.247L114.766,118.114z"/>
	<path d="M86.151,118.944c0,0-7.95,0.83-11.097,1.267c-3.143,0.437-4.849,0.787-4.849,0.787l0.089,1.396
		c0,0,5.459-1.092,7.731-1.354c2.271-0.262,5.854-0.655,5.854-0.655L86.151,118.944z"/>
	<path d="M25.475,143.276l5.592-7.922l-0.174,3.728c0,0-3.846,4.893-3.785,7.224c0.057,2.33,0.911,5.3,11.474,10.949
		c13.938,7.456,41.646,15.317,84.396,12.931c75.137-4.193,87.951-26.443,88.184-29.239c0.23-2.796-3.088-5.359-3.088-5.359
		l-0.175-2.445c0,0,5.941,6.757,6.059,9.436c0.116,2.68-23.534,30.482-97.968,31.103c-83.874,0.699-92.959-24.812-92.959-24.812"/>
	<path d="M136.081,82.817c0,0-5.765,13.455-16.772,25.161c-11.011,11.709-23.066,19.746-23.066,19.746s13.279-11.882,21.843-21.144
		C126.646,97.32,136.081,82.817,136.081,82.817z"/>
	<path d="M121.047,97.844c3.95-4.825,7.697-11.074,8.617-12.894c0,0-1.42,5.411-7.746,13.598
		c-5.363,6.943-10.299,10.306-10.299,10.306S116.668,103.197,121.047,97.844z"/>
	<path d="M142.723,100.641c0,0-1.225,7.338-6.642,13.979c-5.417,6.64-10.483,9.785-10.483,9.785s6.289-5.94,9.785-10.659
		C138.879,109.027,142.723,100.641,142.723,100.641z"/>
	<polygon points="44.695,163.895 34.213,188.356 40.152,188.356 46.094,164.943 	"/>
	<polygon points="69.508,169.835 66.361,187.659 69.508,187.659 70.906,170.535 	"/>
	<polygon points="92.225,172.631 92.225,188.707 95.019,188.707 93.622,172.631 	"/>
	<polygon points="215.588,178.223 201.258,153.76 199.512,154.809 215.236,185.91 	"/>
	<polygon points="193.221,188.007 182.387,161.798 180.291,162.147 190.076,188.007 	"/>
	<polygon points="169.457,189.056 162.816,167.039 161.068,167.739 165.961,189.056 	"/>
	<polygon points="143.596,189.754 140.451,171.583 138.703,171.933 141.15,190.104 	"/>
	<polygon points="118.785,188.707 117.385,172.981 114.939,172.981 116.688,188.707 	"/>
	<path d="M39.92,12.109c0,0-8.686,27.941-8.387,50.79C32,98.31,45.045,128.249,45.045,128.249l2.332-2.446
		c0,0-15.377-26.095-13.047-65.7c1.611-27.449,10.715-47.994,10.715-47.994H39.92z"/>
	<path d="M187.164,13.507c0,0,10.717,34.947,11.184,60.108c0.465,25.163-5.127,51.255-5.127,51.255l-3.67-1.164
		c0,0,7.863-23.067,6.001-50.559c-1.864-27.49-14.444-60.107-14.444-60.107L187.164,13.507z"/>
	<path d="M155.477,13.041c0,0,10.719,26.093,10.951,53.818c0.232,27.724-2.562,43.334-2.562,43.334l-1.164-9.552
		c0,0,1.63-16.271,1.63-33.782c0-30.753-12.813-53.818-12.813-53.818"/>
	<path d="M64.85,12.806c0,0-7.49,32.619-6.986,52.888c0.701,28.19,5.122,43.565,5.122,43.565V94.35c0,0-4.427-14.211-3.263-33.549
		c1.166-19.339,8.621-48.227,8.621-48.227"/>
	<polygon points="68.816,115.379 72.771,120.91 70.206,120.998 	"/>
	<polygon points="159.672,111.125 158.016,116.343 159.498,116.62 	"/>
	<path d="M132.413,13.273c0,0,3.962,20.968,4.427,30.054c0.465,9.087,0,15.377,0,15.377s-0.934-16.309-4.193-30.985
		c-3.166-14.244-3.962-14.678-3.962-14.678"/>
	<path d="M89.776,13.041c0,0-2.794,21.199-3.493,29.82s0.232,17.475,0.232,17.475s1.287-16.291,2.797-25.163
		c1.863-10.95,3.493-23.064,3.493-23.064L89.776,13.041z"/>
	<polygon points="108.416,12.574 110.746,48.452 111.678,12.341 	"/>
	<path d="M132.762,57.655c0,0-19.404-4.496-36.344-0.699c-16.939,3.799-30.404,16.076-30.404,16.076s12.93-14.678,33.898-17.823
		S132.762,57.655,132.762,57.655z"/>
	<path d="M109.521,51.19c0,0-9.609-0.175-19.918,3.146c-10.311,3.318-18.522,9.085-18.522,9.085s8.911-7.163,18.347-9.96
		C98.662,50.727,109.521,51.19,109.521,51.19z"/>
</g>
</svg>
