<?xml version="1.0" encoding="utf-8"?>
<!-- Generator: Adobe Illustrator 16.2.0, SVG Export Plug-In . SVG Version: 6.00 Build 0)  -->
<!DOCTYPE svg PUBLIC "-//W3C//DTD SVG 1.1//EN" "http://www.w3.org/Graphics/SVG/1.1/DTD/svg11.dtd">
<svg version="1.1" id="Layer_1" xmlns="http://www.w3.org/2000/svg" xmlns:xlink="http://www.w3.org/1999/xlink" x="0px" y="0px"
	 width="233.803px" height="202.649px" viewBox="0 0 233.803 202.649" enable-background="new 0 0 233.803 202.649"
	 xml:space="preserve">
<g>
	<polygon fill="#FFFFFF" points="206.884,183.835 25.717,182.854 23.29,10.324 206.884,10.324 	"/>
	<path fill="#91AEB3" d="M69.391,152.596c0,0,1.865,9.786,0.932,17.241c-0.932,7.454,2.564-0.7,2.098,5.123
		c-0.466,5.826-2.328,10.486-2.328,10.486l11.184,0.467l-2.098-8.389l0.699-9.318l-1.864-2.331l-0.467-7.223l-2.563-6.057H69.391z"
		/>
	<path fill="#91AEB3" d="M87.447,132.267c0,0,2.796,8.912,2.446,11.707c-0.348,2.796-2.271,0.874-2.271,0.874
		s-0.175-0.35-0.873-3.494c-0.699-3.146-2.354-8.423-2.354-8.423L88.127,132"/>
	<path fill="#91AEB3" d="M87.098,146.071c0,0-1.922,2.446-1.572,4.193c0.35,1.748,1.748,3.146-0.873,2.796s-3.146,0-2.971,0.874
		c0.174,0.873-2.099-0.524-3.146-0.699c-1.049-0.175-1.236,1.069-1.236,1.069l-2.609-2.816c0,0,2.448-1.574,5.068-1.922
		c2.623-0.35,5.742-2.204,5.756-3.286c0.012-1.082,0.84-1.401,0.84-1.401L87.098,146.071"/>
	<polyline fill="#91AEB3" points="56.694,131.044 57.325,137.409 60.188,137.684 57.838,131.344 	"/>
	<path fill="#91AEB3" d="M86.922,131.044c0,0,1.399-1.921,0.524-3.495c-0.872-1.572-1.397,2.098-2.271-0.174
		c-0.875-2.271-2.098-2.271-2.271-0.524c-0.175,1.747,1.209,4.774,1.209,4.774S85.526,132.092,86.922,131.044"/>
	<path fill="#91AEB3" d="M60.013,106.406c0,0,4.563,1.05,5.419,3.146c0.854,2.095,0.699,3.494,0.699,3.494l3.319-3.494
		C69.451,109.552,66.829,105.009,60.013,106.406z"/>
	<path fill="#91AEB3" d="M75.567,81.594c-0.125,3.22,0.697,5.767-1.225,7.514s-1.922,1.747-1.922,1.747s4.718-2.096,5.766-5.242
		C79.235,82.468,75.741,77.051,75.567,81.594z"/>
	<path fill="#91AEB3" d="M101.077,140.654c-3.775,1.006-0.174,4.369,2.271,6.115c2.447,1.748,0.701-0.349,0.523-2.445
		C103.698,142.228,108.94,138.558,101.077,140.654z"/>
	<path fill="#91AEB3" d="M91.817,169.312c0,5.094,2.096,6.989,3.318,3.669c1.224-3.319,3.67-7.863,1.398-7.164
		c-2.271,0.699-5.068-6.814-4.717-2.097C92.165,168.437,91.817,166.516,91.817,169.312z"/>
	<path fill="#91AEB3" d="M97.756,109.552c-2.475-4.556-6.115-7.688-5.939-4.893c0.174,2.796-0.352,2.271-1.574,3.844
		c-1.223,1.573,1.574,1.224,4.195,3.495C97.057,114.27,102.125,117.59,97.756,109.552z"/>
	<path fill="#91AEB3" d="M163.979,41.755c0,0,3.846-2.621,6.643-2.621c2.795,0,7.34,6.988,8.736,13.629s1.396,10.135,1.396,10.135
		s2.799-1.049,3.846,2.097c1.049,3.145,3.145,56.381,3.145,56.381l3.496-0.466l-2.447-50.323l-3.145-8.038l-2.328-2.912
		l-1.168-10.717l-7.338-11.882c0,0-3.695-5.722-5.125-5.636c-1.428,0.088-5.447,9.523-5.447,9.523"/>
	<path fill="#91AEB3" d="M162.353,63.714c0,0,2.326-2.913,3.377,2.678c1.049,5.592,1.746,24.812,1.746,24.812l-2.445-1.397
		c0,0,0-18.173-1.051-20.619C162.933,66.741,162.353,63.714,162.353,63.714"/>
	<polygon fill="#91AEB3" points="167.825,107.279 168.292,119.396 166.661,115.899 165.729,114.386 166.079,106.931 	"/>
	<polygon fill="#91AEB3" points="109.987,90.157 110.164,103.261 118.552,100.29 	"/>
	<polygon fill="#91AEB3" points="110.164,71.983 110.164,86.138 119.425,82.118 	"/>
	<polygon fill="#91AEB3" points="109.987,53.462 109.987,67.615 118.376,62.897 	"/>
	<polygon fill="#91AEB3" points="109.987,35.464 109.987,49.618 117.153,44.375 	"/>
	<polygon fill="#91AEB3" points="129.56,107.105 128.858,94 121.521,98.718 	"/>
	<polygon fill="#91AEB3" points="128.687,87.885 128.335,75.303 121.171,80.546 	"/>
	<polygon fill="#91AEB3" points="128.161,69.537 127.812,56.257 120.821,62.372 	"/>
	<polygon fill="#91AEB3" points="127.812,51.364 127.112,37.736 120.3,44.2 	"/>
	<polygon fill="#91AEB3" points="134.278,94.35 134.626,107.105 139.519,99.766 	"/>
	<polygon fill="#91AEB3" points="133.927,75.479 134.103,89.456 139.345,81.2 	"/>
	<polygon fill="#91AEB3" points="134.103,56.257 134.278,70.237 138.995,61.499 	"/>
	<polygon fill="#91AEB3" points="133.446,37.648 133.753,50.841 138.646,43.503 	"/>
	<polygon fill="#91AEB3" points="144.062,89.807 144.587,101.164 141.44,97.844 	"/>
	<polygon fill="#91AEB3" points="143.188,71.11 144.062,83.386 140.392,79.761 	"/>
	<polygon fill="#91AEB3" points="143.362,51.889 143.976,64.339 140.349,60.844 	"/>
	<polygon fill="#91AEB3" points="143.101,32.669 143.583,46.167 139.606,42.147 	"/>
	<path d="M105.254,128.356c-0.513-0.419-0.793-0.233-0.793-0.233s0.793-1.071,0.186-1.586c-0.605-0.516-0.838-0.421-0.838-0.421
		s0.512-1.261-0.094-1.54c-0.607-0.279-1.494,0.466-1.494,0.466s0.045-1.028-0.652-1.214c-0.701-0.186-1.355,0.377-1.868,1.027
		c-0.513,0.652-2.007,2.146-2.007,2.146l-1.307,0.655l0.207,0.313c0.129-0.021,0.258-0.059,0.39-0.1
		c0.079-0.042,0.309-0.163,0.804-0.448c0.887-0.514,2.799-3.918,3.828-2.892c1.025,1.025-2.008,2.985-1.682,3.219
		c0.137,0.102,0.704-0.093,1.26-0.654c0.748-0.756,1.878-2.436,2.336-2.008c0.45,0.425-0.535,2.102-1.215,2.94
		c-0.518,0.636-1.082,1.035-0.981,1.074c0.235,0.094,0.466,0.002,1.121-0.605c0.651-0.608,1.397-2.427,1.959-1.681
		c0.56,0.746-1.772,3.546-1.772,3.546s0,0.233,0.329-0.046c0.325-0.28,1.536-2.148,1.911-1.635c0.373,0.515-0.98,2.989-2.332,4.154
		c-1.355,1.167-1.961,0.981-3.08,1.869c-0.699,0.554-2.82,1.35-3.549,2.026c-0.178,0.334,0.631,0.861,0.341,1.16l-0.106,0.546
		c0,0,1.399-1.637,2.895-2.709c1.492-1.071,4.105-2.381,4.992-3.826C104.929,130.457,105.767,128.776,105.254,128.356z"/>
	<g>
		<polygon fill="none" points="208.69,11.29 27.067,13.246 28.043,14.003 27.792,184.66 206.884,183.835 		"/>
		<path d="M212.212,8.479l-3.49-0.135l-0.002,0.143L23.692,8.941l-0.402,1.383l2.275,177.748l184.76-2.705L212.212,8.479z
			 M28.043,14.003l-0.977-0.757L208.69,11.29l-1.807,172.545L27.792,184.66L28.043,14.003z"/>
	</g>
	<path d="M72.542,69.46c0.475,1.43,3.357,0,3.918,3.08s-1.68,2.799-1.398,4.199c0.277,1.4,4.758-1.119,3.639-5.881
		C77.581,66.099,71.979,67.779,72.542,69.46z"/>
	<path d="M62.179,66.099L62.179,66.099c0,0,0.279-0.559,5.321-1.119c5.041-0.561,6.068,1.961,5.506,3.361
		C72.446,69.742,74.5,69.46,74.5,69.46s4.479,1.398,3.639,3.359c-0.84,1.96-0.559,3.081-0.559,3.081s2.799,8.96,6.719,8.399
		c3.921-0.56,7.842,0.561,7.842,0.561l2.799-7c0,0,0.619-9.156-6.16-17.361c-10.641-12.881-29.961,2.799-29.961,2.799L62.179,66.099
		z"/>
	<path d="M60.844,72.026c0,0.555,0.756,0.204,2.059,0.279c1.323,0.074,3.193,0.564,2.98,0
		C65.465,71.185,60.844,70.905,60.844,72.026z"/>
	<path d="M59.984,75.945c0.673,0.595-2.38,0.841-1.679,2.381c0.699,1.54,1.82,1.399,2.238,2.239c0.42,0.84-2.658,0.701-3.498-1.26
		C56.204,77.347,58.725,74.826,59.984,75.945z"/>
	<path d="M75.62,93.912l1.121,4.855c0,0,4.48,2.24,8.025,0.559c3.549-1.68,3.549-3.173,3.549-3.173s-0.188-2.613-0.188-4.666
		c0-2.055,2.238-2.614,2.613-7.281c0.373-4.667,0.934-7.096,0.934-7.096h1.306c0,0,0.374,7.656-0.56,9.896
		c-0.933,2.239-2.426,4.666-2.426,4.666l0.186,6.159c0,0-2.24,3.732-7.281,3.921c-5.04,0.188-7.094-1.12-7.094-1.12l-1.68-5.972
		L75.62,93.912z"/>
	<path d="M75.62,95.032v-1.866c0,0-7.092-0.562-9.334-0.934c-2.238-0.372-3.732-4.669-4.666-7.84
		c-0.936-3.173-0.283-3.546-1.076-3.827c-0.791-0.279,0.328,5.135,1.076,7.935c0.744,2.8,3.173,5.602,5.414,5.786
		C69.271,94.473,75.62,95.032,75.62,95.032z"/>
	<path d="M61.807,86.261c0,0,4.441,0.309,4.441,0.867c0,0.562-3.885,0.254-3.885,0.254"/>
	<path d="M61.76,65.679c0,0-2.056,2.243-2.056,4.854c0,2.612-0.56,5.601,0.187,5.786c0.748,0.188,0.56-4.105,1.122-6.346
		c0.559-2.24,2.239-5.229,2.239-5.229L61.76,65.679z"/>
	<path d="M94.288,75.06c0,0,5.599,3.172,5.787,5.787c0.187,2.613-0.187,5.416-2.986,4.668c-2.801-0.748-4.668-2.988-4.668-2.988
		l-0.746,3.548c0,0,6.347,5.132,9.145,2.706c2.803-2.426,1.68-10.734-1.865-13.16c-3.545-2.428-5.228-3.547-5.228-3.547
		L94.288,75.06z"/>
	<path d="M99.701,87.94c0,0,0.186,0.746-0.747,2.985c-0.933,2.24-2.238,3.176-2.238,3.176l2.051,1.305c0,0,1.684-2.423,2.053-4.852
		c0.375-2.429-0.186-4.108-0.186-4.108L99.701,87.94z"/>
	<path d="M100.819,88.314c0,0,1.684,4.663,2.803,5.413c1.12,0.748,2.611,0.934,2.611,0.934s-1.816,2.614-2.753,2.8
		c-0.933,0.186-3.077-0.421-3.077-0.421s2.844-0.699,3.219-1.26c0.373-0.56,0.373-0.56,0.373-0.56s-2.055-0.371-2.801-1.865
		C100.45,91.86,99.888,90.183,100.819,88.314z"/>
	<path d="M60.78,82.714c0,0-0.842,2.053-3.269,4.105c-2.425,2.055-5.974,1.867-5.974,1.867s1.121,2.987,2.242,3.735
		c1.117,0.744,2.612,1.864,2.612,1.864s-0.188,2.615-2.427,4.108c-2.24,1.492-4.855,2.241-4.855,2.241s0.749,1.68,2.057,1.864
		c1.305,0.187,3.73,0,3.73,0s0,1.867-2.986,4.666c-2.984,2.802-5.785,3.551-5.785,3.551s0.744,2.426,2.426,3.359
		c1.682,0.933,2.615,0.933,2.615,0.933l0.934-1.308c0,0-1.68-0.186-2.616-1.119c-0.933-0.936-0.933-0.936-0.933-0.936
		s5.414-3.358,7.094-6.159s0.935-4.479,0.935-4.479s-0.749,0.186-2.241,0c-1.493-0.186-2.238-0.186-2.238-0.186
		s3.92-1.496,5.225-5.042c1.307-3.545,1.307-3.545,1.307-3.545s-1.865,0.558-3.173-0.748c-1.306-1.307-1.306-1.307-1.306-1.307
		s2.427,0.374,3.732-0.56c1.307-0.935,3.361-4.759,3.361-4.759L60.78,82.714z"/>
	<path d="M75.805,100.633c0,0-2.236,0.375-3.545,1.494c-1.311,1.121-0.748,2.426-0.748,2.426s-3.545,1.121-4.107,2.613
		c-0.559,1.496,0,3.362-1.119,4.48c-1.119,1.121-2.053,0.56-2.238,2.988c-0.189,2.428-2.24,5.224-0.936,6.72
		c1.306,1.494,1.867,2.426,1.867,4.48c0,2.054-0.187,4.107-0.187,5.229c0,1.12,0.185,3.357,0.56,4.291
		c0.373,0.935,0.934,2.616-2.988,1.868c-3.918-0.748-5.039,0.187-5.039,0.187s-1.308-0.562-3.172-0.935
		c-1.867-0.371-2.053-2.052-2.053-2.052l-0.749-2.8c0,0-4.106-0.374-4.481,0.745c-0.371,1.12-2.424,1.12-2.424,1.12
		s-2.801,3.175-2.99,4.855c-0.186,1.681-0.934,5.411,0.375,6.347c1.308,0.934,1.866-0.189,1.866,1.866
		c0,2.053,2.056,2.987,2.056,2.987s10.081,1.308,12.693,2.8c2.613,1.492,1.682,2.053,4.48,2.053s6.345-1.492,2.426-2.053
		c-3.923-0.56-5.6-0.937-8.211-1.868c-2.615-0.932-3.361-1.306-6.164-1.306c-2.799,0-3.545-0.188-4.107-1.12
		c-0.559-0.935-1.307-4.854-2.238-4.854c-0.935,0-1.495-1.492-1.12-3.546c0.372-2.054,0.745-3.362,3.175-4.295
		c2.424-0.932,3.172-3.917,3.547-1.492c0.373,2.427,2.053,4.108,5.598,4.481c3.549,0.371,8.587,0.932,10.641,0.186
		c2.057-0.746,4.295-0.746,3.733-1.866c-0.559-1.12-2.8-1.866-3.358-3.921c-0.561-2.054,1.121-9.333,0.375-10.454
		c-0.75-1.12-1.869-2.237-1.683-4.106c0.187-1.867,2.054-4.294,3.175-5.414c1.119-1.121,2.241,4.106,2.611,2.426
		c0.375-1.681-2.426-5.04,0.375-7.84c2.801-2.801,4.854-0.743,6.347-0.933c1.495-0.188,1.308-2.243-0.56-2.987
		c-1.867-0.747-0.933-0.934,0.56-2.052C79.542,100.261,76.741,99.513,75.805,100.633z"/>
	<path d="M81.407,124.342c-0.254,2.814-0.002,5.6,0.746,7.652c0.746,2.055,2.986,2.988,2.986,5.789c0,2.8,0,1.866,0.749,3.545
		c0.747,1.681-0.935,1.681-1.495,2.802c-0.561,1.119,0.373,2.054-0.561,3.174s-5.411,2.237-7.466,2.61
		c-2.054,0.375-1.12,1.87-3.921,2.056c-2.8,0.186-6.908-1.306-7.094,0.374c-0.186,1.681-0.188,2.054,2.801,1.681
		c2.986-0.374,6.908-2.802,8.588-3.176c1.68-0.373,7.84-1.492,8.398-3.358c0.561-1.866,3.549-2.426,3.174-4.481
		c-0.373-2.054-1.866-6.905-2.425-8.586c-0.562-1.681-0.933-2.802-1.122-5.229c-0.186-2.426-0.186-9.146-1.307-6.906
		C82.34,124.528,81.594,122.291,81.407,124.342z"/>
	<path d="M89.061,95.032c0,0,3.732-1.863,7.654-0.931c3.918,0.931,5.039,2.052,6.158,3.73c1.121,1.681,1.681,0.937,2.242,3.55
		c0.559,2.61,1.306,5.6,0.934,7.84c-0.375,2.239-1.308,2.799,0.372,4.666c1.68,1.866,2.614,5.975,2.239,7.28
		c-0.373,1.306-1.305,3.545,0.189,4.667c1.49,1.119,2.424,3.547,1.865,5.414c-0.561,1.866,1.118,7.095,1.306,8.961
		c0.188,1.865-2.612,1.493-0.933,3.732c1.679,2.241,1.679,2.053,1.679,3.733s1.495,1.494,1.683,3.173
		c0.187,1.681-1.683,3.548-0.749,5.041c0.936,1.493,3.921,2.427,3.921,5.041s-1.121,2.985-0.186,5.785
		c0.932,2.801,1.307,4.669,0.932,7.095c-0.374,2.427,0,3.175,0.934,4.479c0.932,1.308,0.746,6.722,0.746,6.722l-3.735,0.186
		c0,0,2.803-2.053,1.682-3.731c-1.121-1.68-1.49-4.669-1.49-8.029s0.932-4.104-0.191-5.972c-1.119-1.868,1.123-4.294-1.303-6.534
		c-2.428-2.241-3.736-4.48-3.736-7.28c0-2.802,1.309-0.935-0.371-5.416c-1.68-4.479-2.242-4.663-2.242-7.092
		c0-2.428,2.613-0.56,2.055-3.359c-0.561-2.801-1.492-5.229-1.68-8.029c-0.186-2.8-2.615-2.8-2.803-5.786
		c-0.184-2.986,0.747-2.8,0-6.16c-0.745-3.359-2.238-2.985-2.238-5.6s0.747-2.24,0.747-5.601c0-3.359-0.374-3.922-1.679-5.414
		c-1.309-1.492-0.934-2.986-3.734-3.547c-2.801-0.56-2.24,1.118-1.869,2.426c0.373,1.31-2.238-0.932-3.733-1.491
		c-1.493-0.561-0.188,2.615-1.493,1.68c-1.305-0.935-2.428-1.308-3.359-1.308C87.94,98.953,88.499,96.339,89.061,95.032z"/>
	<path d="M73.379,152.064c0,0-2.8-0.842,0,2.24c2.8,3.079,3.92,2.8,3.08,6.159c-0.84,3.36-1.68,5.601,0,6.721
		s1.961,1.96,1.399,4.762c-0.56,2.8-2.239,4.759-0.839,5.878c1.4,1.122,2.24,6.721,2.24,6.721l3.08,0.56c0,0,0.279-3.639-0.842-7.28
		c-1.119-3.639-1.398-4.479-0.838-7c0.561-2.52,2.52-5.319,0.279-7c-2.24-1.68-1.68-3.079-1.96-5.04
		c-0.28-1.96-0.841-3.08-1.681-4.479c-0.84-1.4-0.933-4.391-0.933-4.391L73.379,152.064z"/>
	<path d="M105.022,184.545c0,0-1.121-4.759-1.4-8.68c-0.281-3.919,0.279-7.28,0.279-7.28v-5.321c0,0,1.121,0.561,1.959,2.801
		c0.842,2.239,3.082,2.239,2.241,4.48c-0.84,2.24-1.399,2.24,0.28,5.04c1.682,2.8,0,3.361,0.279,4.761
		c0.281,1.4,2.242,4.481,2.242,4.481L105.022,184.545z"/>
	<path d="M84.114,131.625c0,0,2.147,0.092,3.922-0.934c1.77-1.026,2.985-1.493,2.985-1.493s4.294,4.294,4.946,7.094
		c0.654,2.799,0.561,4.014,0.561,4.014l-1.308,0.84c0,0,0.095-4.479-1.494-7.187c-1.585-2.709-2.612-3.454-2.612-3.454
		s-0.747,0.748-2.986,1.495c-2.239,0.745-3.732,0.931-3.732,0.931L84.114,131.625z"/>
	<path d="M86.354,144.879c0,0,1.961-0.468,5.134-2.333c3.175-1.866,4.479-2.986,4.479-2.986l0.561,0.746c0,0-1.117,2.054-5.414,4.2
		c-4.295,2.146-5.6,1.774-5.6,1.774L86.354,144.879z"/>
	<path d="M59.567,137.879c0,0-0.936-0.469-2.149-4.107c-1.213-3.642-2.146-9.24-2.146-9.24s1.682,3.548,3.08,6.627
		c1.4,3.081,3.359,6.627,3.359,6.627L59.567,137.879z"/>
	<path d="M91.196,129.593c0,0,1.072-0.395,1.505-1.47c0.276-0.69,0.825-1.63,1.226-1.996c1.024-0.934,0.852-0.713,2.064-1.085
		c1.214-0.371,1.75-0.351,2.064-0.209c0.316,0.14,0.436,0.076,0.316,1.015c-0.281,2.204-2.355,2.415-2.355,2.415
		s-0.301-0.457,0.08-1.016c0.432-0.631,1.084-0.104,1.471-1.12c0.384-1.014-0.385-0.665-1.689-0.477
		c-1.311,0.188-1.508,1.562-2.162,2.963c-0.652,1.4-0.244,3.639-0.244,3.639L91.196,129.593z"/>
	<path d="M61.711,137.785c0,0-2.893-3.782-3.873-6.441c-0.98-2.662-1.959-7.561-2.8-7.561c-0.839,0-0.839,2.8,0.841,6.159
		c1.68,3.361,3.688,7.937,3.688,7.937L61.711,137.785z"/>
	<path d="M68.338,110.201c0,0-1.539-3.5-6.301-3.5c-4.76,0-5.318,1.121-5.74,2.8c-0.418,1.68-0.418,2.241-2.098,3.641
		c-1.683,1.398-2.152,1.439-1.875,4.1c0.283,2.662,0.334,6.821,0.192,9.062c-0.138,2.239,2.103,10.919,2.103,10.919l-3.361-0.98
		c0,0,0.138-9.659-0.42-13.021c-0.561-3.359,0-9.24,1.262-10.501c1.258-1.26,1.463-2.688,2.496-4.042
		c2.271-2.97,5.623-4.077,8.564-4.077c2.939,0,4.619,1.26,5.459,2.801C69.459,108.941,68.338,110.201,68.338,110.201z"/>
	<path d="M60.079,152.904c0,0-0.279,2.101,0.279,6.999c0.559,4.901-1.398,10.082-1.959,13.441c-0.561,3.36-2.102,12.18-2.102,12.18
		l-2.658,1.262c0,0,3.778-12.882,4.619-18.761c0.842-5.881,1.121-8.961,0.842-11.761c-0.281-2.802-1.121-4.2-1.121-4.2
		L60.079,152.904z"/>
	<path d="M69.319,94.241c0,0,0.701,1.26-0.98,2.521c-1.678,1.259-2.939,0.979-2.939,0.979s0.701,1.54,2.102,1.54
		c1.398,0,2.66-0.42,2.66-0.42s-1.541,2.8-3.082,3.359c-1.54,0.561-2.238,0-2.238,0s0.139,2.8,1.26,3.08s2.52,2.102,2.52,2.102
		l3.359-1.682l3.5-3.079l1.4-1.961l-1.959-6.3L69.319,94.241z"/>
	<path d="M182.622,119.977c0,0-3.73-43.334-3.963-47.527s2.564-11.183,4.428-11.183s3.494,5.357,3.959,7.455
		c0.467,2.096,3.73,50.557,3.73,50.557l1.164-0.117c0,0-2.33-48.11-3.027-50.439c-0.699-2.33-3.729-8.855-5.592-9.086
		c-1.867-0.232-6.059,7.92-5.592,10.717c0.465,2.795,3.961,49.975,3.961,49.975L182.622,119.977z"/>
	<path d="M190.776,119.278c0,0-0.76,1.281-3.555,1.544c-2.795,0.262-4.6-0.846-4.6-0.846l-1.08,0.321c0,0,3.059,1.602,6.203,1.077
		c3.146-0.523,4.195-2.214,4.195-2.214h-0.789"/>
	<path d="M158.091,64.481c-0.42,0.5-0.539,1.131-0.924,1.91c0,0,1.924-0.929,3.555,0.584c1.631,1.515,2.445,10.6,2.678,13.863
		c0.232,3.262,0.117,8.62,0.117,8.62l2.332,1.979c0,0-1.049-20.619-1.518-24.58C163.929,63.44,160.751,61.325,158.091,64.481z"/>
	<path d="M154.433,107.98c0,0-1.631-25.745-1.748-29.589c-0.117-3.845,0.582-5.707,1.979-7.688c1.398-1.981,3.145-5.708,3.145-5.708
		l0.932,0.117c0,0-3.494,5.357-4.543,7.455c-1.049,2.096-1.164,2.796-0.697,9.201c0.465,6.408,1.631,26.793,1.631,26.793
		s-5.709,4.661-6.408,5.359c-0.697,0.7-0.697,0-0.697,1.748c0,1.747,0,2.679,0,2.679l8.617-2.797l-1.162,2.563l-7.688,2.214
		c0,0-0.35-2.098-0.467-4.193c-0.117-2.098,0.35-2.445,1.516-3.262C150.003,112.057,154.433,107.98,154.433,107.98z"/>
	<path d="M153.847,73.032c0,0,0.117,0,1.283,0.933c1.162,0.931,1.281,1.048,1.979,0.582c0.699-0.465,0.932-2.329-0.115-3.495
		c-1.049-1.163-1.631-0.932-1.631-0.932l-1.166,2.447"/>
	<path d="M156.528,78.625c0.801-0.134,1.748,1.863,0.58,1.863C155.944,80.488,155.13,78.858,156.528,78.625z"/>
	<path d="M156.761,83.051c0.883-0.296,1.516,1.631,0.465,1.631C156.179,84.682,155.712,83.399,156.761,83.051z"/>
	<path d="M157.226,88.061c1.262-0.254,1.516,1.747,0.352,1.747C156.411,89.808,156.642,88.178,157.226,88.061z"/>
	<path d="M157.692,93.069c0.682-0.151,1.748,1.863,0.584,1.863C157.108,94.933,156.642,93.303,157.692,93.069z"/>
	<path d="M160.722,89.808c0,0,0.115-1.632,1.863-1.515c1.746,0.116,8.152,5.01,10.02,7.571c1.861,2.564,4.309,4.543,4.074,6.407
		c-0.23,1.864,0,7.806,0,7.806l-13.861-3.845l-0.348-2.795l12.812,3.728c0,0,0.117-3.846,0.117-4.894
		c0-1.049-1.982-4.076-5.129-6.872c-3.145-2.795-8.15-5.476-8.15-5.476s-1.166-0.468-0.816,2.213c0.348,2.68,0.23,9.319,0.23,9.319
		S160.024,91.091,160.722,89.808z"/>
	<polygon points="166.896,107.281 166.778,115.319 165.265,113.688 164.913,105.999 	"/>
	<path d="M157.577,123.59c0,0-0.584-10.018,1.627-9.901c2.215,0.115,3.848,7.688,3.848,7.688s-2.098-5.94-3.496-5.94
		s-1.516,7.338-1.516,7.338s1.051,0.932,3.031,0.816c1.98-0.116,1.98-1.049,1.98-1.049s-0.582,1.98-2.098,1.98
		S157.577,123.59,157.577,123.59z"/>
	<path d="M162.353,118.23c0,0-0.469-5.475,1.746-5.824s4.076,5.824,4.193,6.989c0.082,0.807-0.082-0.334,0.232,1.397
		c0,0-0.35,1.748-2.676,2.098c-1.498,0.226-2.797-0.815-2.797-0.815v-0.699c0,0,1.396,0.348,2.678,0.466
		c1.283,0.117,1.982-1.164,1.982-1.164s-1.166-6.175-3.145-6.291c-1.982-0.116-1.867,5.592-1.867,5.592L162.353,118.23z"/>
	<path d="M157.458,122.309l-1.746-0.583c0,0,0.232-5.125,1.281-5.125c1.047,0,1.047,0.582,1.047,0.582s-0.348-1.632-1.398-1.632
		c-1.045,0-1.861,6.641-1.861,6.641s1.281,0.933,1.98,0.933c0.697,0,1.279-0.351,1.279-0.351L157.458,122.309z"/>
	<polygon points="155.159,120.735 148.78,120.56 148.954,119.046 147.556,118.696 147.733,121.2 155.071,121.667 	"/>
	<path d="M168.524,120.793c0,0,1.281,1.165,6.408,0.582c5.125-0.583,6.871-2.096,6.871-2.096l0.119-2.679
		c0,0-2.682,2.212-6.99,2.678c-4.311,0.465-6.875-0.582-6.875-0.582L168.524,120.793z"/>
	<path d="M160.372,62.899c0,0-0.01-0.299-0.02-0.82c-0.043-1.704-0.152-5.797-0.332-9.548c-0.232-4.893,7.342-21.318,9.67-21.668
		c2.33-0.349,12.232,14.212,13.047,19.804c0.816,5.592,1.281,9.786,1.281,9.786h-1.396c0,0-0.584-4.66-1.398-9.554
		c-0.816-4.893-9.553-18.521-11.533-18.521c-1.979,0-7.105,13.746-7.807,17.592c-0.697,3.844,0.469,12.113,0.469,13.744
		S160.372,65.113,160.372,62.899z"/>
	<path d="M157.226,66.976c0,0-0.117-3.264-0.35-5.242c-0.234-1.98,1.164-5.94,2.912-6.291c1.746-0.35,1.516,2.098,1.516,2.098
		s-0.236-1.05-1.166-0.816c-0.934,0.234-2.098,2.68-2.213,3.262c-0.117,0.583,0.463,5.01,0.463,5.01"/>
	<polygon points="131.829,116.017 129.384,37.037 131.479,36.513 133.577,116.367 132.53,35.64 128.511,35.464 130.782,116.017 	"/>
	<polygon points="107.667,107.315 105.388,33.784 107.34,33.295 108.852,107.542 109.292,107.642 108.317,32.481 104.573,32.318 
		106.69,107.315 	"/>
	<polygon points="146.804,104.346 144.526,30.813 146.479,30.325 148.429,104.671 147.456,29.511 143.714,29.349 145.829,104.346 	
		"/>
	<polygon points="104.572,32.931 130.782,37.212 147.382,30.222 147.47,27.339 130.782,34.94 104.747,30.747 	"/>
	<path d="M124.78,26.477c-0.023-0.099-0.021-0.185-0.01-0.269l-20.024,4.539l1.396,0.436l18.682-4.271
		C124.819,26.766,124.817,26.619,124.78,26.477z"/>
	<path d="M128.042,26.242c-0.051,0.216-0.084,0.429-0.109,0.647l18.344,1.294l1.193-0.845L128.042,26.242z"/>
	<polygon points="132.53,72.449 145.11,66.159 145.196,67.44 132.792,73.644 	"/>
	<polygon points="132.296,53.812 144.878,47.521 144.966,48.802 132.56,55.005 	"/>
	<polygon points="133.142,91.99 146.042,85.495 146.13,86.777 133.226,93.214 	"/>
	<polygon points="129.907,72.683 108.678,69.188 108.764,70.237 129.995,73.731 	"/>
	<polygon points="129.208,54.277 107.98,50.782 108.067,51.831 129.296,55.325 	"/>
	<polygon points="130.521,91.292 108.678,87.826 108.764,88.874 130.347,92.472 	"/>
	<path d="M207.784,120.21c0,0-15.377,1.63-19.34,3.028c-3.959,1.398,16.775,6.524-6.057,6.059
		c-22.832-0.467-33.316,1.629-29.121,2.562c4.191,0.934,19.801,5.592-10.484,4.894c-11.191-0.259-34.811-4.787-22.369-5.824
		c11.186-0.933,11.416-3.495,5.127-3.728c-6.291-0.233-18.635-2.097-18.635-2.097l1.396-5.825l-3.031-6.524l0.467-4.425l1.168-1.864
		l13.043-5.125l12.348,10.716l8.271-11.24l6.236,3.53l1.568-0.679V88.522h5.592l1.166,19.34l-7.225,6.058l-0.113,6.408l7.279,1.339
		l2.387,1.34l3.613,0.599l2.68-1.298l2.098,0.583l2.676-2.098l7.107-0.351l6.172-1.163l0.818,0.697c0,0,2.795,1.165,5.123,1.398
		c2.332,0.232,4.195-2.214,4.195-2.214l-1.4-28.307l19.105,3.261L207.784,120.21z"/>
	<path d="M26.991,96.446l30.751-3.494c0,0-1.862,5.823-4.192,6.756c-2.328,0.933-2.328,0.933-2.328,0.933s0.932,1.396,2.562,1.396
		s1.631,0,1.631,0s1.398,0.234-0.699,3.495c-2.098,3.262-6.164,6.114-6.164,6.114s-0.072,1.652,1.271,2.506
		c1.344,0.856,2.563,1.166,2.563,1.166l-0.933,4.193c0,0-0.966-0.078-6.757-1.164c-22.364-4.195,5.085-4.688-5.126-6.758
		c-17.241-3.494-7.92-4.659-3.26-6.058c4.658-1.396-4.195-3.262-7.457-3.728c-3.262-0.465-3.262-0.465-3.262-0.465L26.991,96.446z"
		/>
	<path d="M106.551,88.933l-5.732-0.152c0,0,1.307,4.87,2.705,5.744c1.396,0.873,1.396,0.873,1.396,0.873l-1.44,2.063l-1.354,0.034
		l1.572,2.62l1.572,3.67l0.467,4.544l1.28,0.35L106.551,88.933z"/>
	<polyline points="111.387,52.413 129.907,70.935 129.907,72.683 109.987,51.889 111.387,52.413 	"/>
	<polygon points="111.211,70.237 130.782,89.282 130.958,91.029 109.638,69.887 	"/>
	<polygon points="110.513,33.892 129.296,53.855 129.56,52.589 111.561,33.542 	"/>
	<polyline points="110.863,89.107 130.782,109.376 130.958,107.805 111.911,88.759 110.863,89.107 	"/>
	<polygon points="133.972,92.472 146.157,103.087 146.333,101.863 135.149,92.253 	"/>
	<polygon points="133.577,73.206 145.503,85.308 145.503,84.608 134.146,72.726 	"/>
	<polygon points="133.36,54.423 144.978,65.956 145.021,64.905 133.796,53.987 	"/>
	<polygon points="133.317,36.032 144.411,47.347 144.411,46.647 133.708,35.683 	"/>
	<path d="M124.843,30.048l1.746,0.699l1.865-0.467l-0.467-18.755l-0.525,0.176c0,0,1.225,18.171-0.35,18.171
		c-1.572,0-1.922,0-2.096-3.145s-0.35-15.026-0.35-15.026h-0.875L124.843,30.048z"/>
	<path d="M124.929,29.436c0,0-1.922,0.874-0.438,1.397c1.484,0.525,6.699,0.205,3.844-1.251
		C128.056,29.438,126.851,31.358,124.929,29.436z"/>
</g>
</svg>
