<?xml version="1.0" encoding="utf-8"?>
<!-- Generator: Adobe Illustrator 16.2.0, SVG Export Plug-In . SVG Version: 6.00 Build 0)  -->
<!DOCTYPE svg PUBLIC "-//W3C//DTD SVG 1.1//EN" "http://www.w3.org/Graphics/SVG/1.1/DTD/svg11.dtd">
<svg version="1.1" id="Layer_1" xmlns="http://www.w3.org/2000/svg" xmlns:xlink="http://www.w3.org/1999/xlink" x="0px" y="0px"
	 width="233.803px" height="202.649px" viewBox="0 0 233.803 202.649" enable-background="new 0 0 233.803 202.649"
	 xml:space="preserve">
<g>
	<rect x="18.149" y="13.55" fill="#FFFFFF" width="201.061" height="172.406"/>
	<path fill="#91AEB3" d="M51.538,162.641l2.197,6.355c0,0,63.219,1.04,72.348,0.463c9.131-0.579,66.108-5.087,66.108-5.087
		l0.462-7.05c0,0-16.104,3.893-23.153,4.238c-7.051,0.347-35.597,0.771-35.597,0.771l-0.424,4.12l-12.943,0.579l-11.905-0.693
		l-0.769-2.928c0,0-12.482,1.539-20.804,1.539C78.737,164.949,55.121,164.949,51.538,162.641z"/>
	<path fill="#91AEB3" d="M55.776,175.738c0,0,46.075,0,66.57-0.617c20.495-0.616,69.036-4.775,69.036-4.775l0.616-2.468
		c0,0-38.525,3.238-71.039,4.314c-32.515,1.08-65.954,0.927-65.954,0.927L55.776,175.738z"/>
	<path fill="#91AEB3" d="M217.113,12.851L18.149,13.55l0.123,91.795h1.042c0.151,0,0.267,0.047,0.367,0.113
		c0.043-0.009,0.079-0.026,0.128-0.026c0.386,0,0.597,0.259,0.651,0.553l3.047-4.134l-0.554-0.175l1.878-3.407l-1.223,0.392
		l1.296-3.8l-1.209,0.044l2.795-3.713l2.971,3.407l-1.295,0.027l3,4.253l-1.369-0.059l1.324,2.549l-1.324,0.014l3.028,3.029
		l3.145-2.52l-1.747,0.7l2.49-6.028h-1.311l1.573-4.193l-1.53,0.087l2.505-4.586l4.31,3.581l-1.834-0.044l1.951,3.217l-1.165,0.699
		l2.33,3.03l-1.631,0.699l3.845,4.848l3.538-2.052l-1.398,0.13l3.335-5.257L49.164,97l2.301-4.236l-1.864,0.232l2.097-3.495
		l-1.267,0.074l1.267-2.404L50.3,87.26l3.729-5.214l4.397,4.428l-1.704,0.349l2.839,3.845l-1.267,0.568l1.922,3.537l-1.295,0.553
		l2.096,2.796l-1.397,0.467l2.097,4.659l2.097-1.865l-0.845-0.537l1.616-3.626l-1.528,0.176l1.354-3.32l-1.223,0.306l2.956-4.412
		L64.541,90.1l2.01-4.806l4.194,5.023l-1.092-0.087l2.971,4.498l-1.122,0.363l2.082,1.473l-1.311,0.392l2.024,1.399l-1.893,0.349
		l2.908,2.991c0.032-0.005,0.057-0.019,0.092-0.019c0.151,0,0.268,0.049,0.368,0.115c0.117-0.259,0.251-0.508,0.413-0.741
		c-0.001-0.26,0.004-0.523,0.048-0.803c1.056-6.629,1.059-14.905,6.729-19.646c3.261-2.726,6.606-4.324,10.308-4.861
		c0.675-0.983,3.444-0.749,4.883-0.938c8.708-1.145,15.675-2.011,24.429-1.568c3.362,0.17,6.754,0.201,10.148,0.232
		c-0.413-1.295-0.505-2.8-0.688-4.106c-0.191-1.368,0.35-2.652,1.119-3.742c0.377-0.534,1.32-0.392,1.303,0.353
		c-0.002,0.072-0.005,0.154-0.007,0.227c0.114-0.039,0.231-0.061,0.349-0.038c0.142-2.295,2.047-4.557,3.141-4.997
		c0.492-0.199,0.99,0.297,0.859,0.859c-0.415,1.797-1.446,3.558-2.648,5.009c0.002,0.02,0.004,0.04,0.007,0.061
		c0.683-0.206,1.37-0.138,2.038,0.3c0.566,0.37,0.641,0.896,0.57,1.45c0.512-0.034,0.968,0.52,0.663,1.035
		c-0.096,0.159-0.14,0.333-0.162,0.511c0.284-0.424,1.085-0.468,1.28,0.176c0.307,1.006,0.218,2.617-0.445,3.427
		c2.432,0.07,4.814-0.222,7.217-0.005c1.043,0.094,2.061,0.311,3.06,0.59c0.06-0.031,0.122-0.062,0.201-0.074
		c0.062-0.008,0.125-0.008,0.187-0.015c0-0.003,0-0.007-0.001-0.01h0.124c0.49-0.046,0.98-0.028,1.445,0.059
		c0.082,0.011,0.164,0.009,0.248,0.023c0.066,0.011,0.111,0.04,0.164,0.065c0.818,0.244,1.461,0.756,1.652,1.598
		c2.264,1.259,4.291,2.959,5.941,4.949c4.367,5.266,4.316,10.732,5.439,17.213c0.07,0.409,0.086,0.804,0.067,1.184
		c0.067,0.152,0.114,0.316,0.163,0.478h0.248c0.305,0,0.498,0.166,0.598,0.377l2.082,1.166l3.407-2.446l-1.573,0.086l4.02-4.367
		l-2.534-0.262l2.534-3.146l-1.66,0.174l4.019-4.193l3.801,3.932h-1.267l3.494,3.932l-1.049-0.262l1.049,2.884h-1.135l3.406,3.319
		l2.271-1.398l-1.485-0.088l1.573-4.105l-1.223,0.351l1.659-2.885l-1.397,0.176l1.484-3.407l-0.873,0.087l2.186-3.407l-1.312,0.305
		l1.486-4.848l2.62,4.543l-0.917-0.044l2.752,2.402l-1.047,0.262l2.707,3.583h-1.485l1.878,3.145l-1.396-0.174l2.927,3.407
		l2.708-2.883l-1.268,0.262l1.441-3.32l-1.311,0.263l1.66-2.972l-1.004,0.219l0.83-2.314l-0.611,0.044l1.703-3.32l2.314,2.621
		l-1.004,0.349l2.053,2.402l-0.873,0.263l1.485,1.617l1.397-0.918l-0.961-0.262l1.616-2.359l-0.698,0.043l1.223-2.796l2.009,2.534
		l-0.742,0.044l2.142,3.539l-1.355-0.219l1.224,2.141l-1.049,0.175l2.796,3.363l1.158-1.703l-0.83,0.13l1.332-2.533l0.873,1.311
		l0.852,1.421l-0.83-0.373l2.055,5.062c0.11-0.165,0.287-0.286,0.545-0.286h0.127L217.113,12.851z M60.508,45.679l-2.168-1.287
		l-0.353,2.495l-0.35-2.495l-2.169,1.287l1.734-1.834l-2.356-0.897l2.513,0.216l-0.77-2.402l1.398,2.1l1.4-2.1l-0.771,2.402
		l2.515-0.216l-2.359,0.897L60.508,45.679z M96.246,25.356l-0.611-0.362l-0.099,0.702l-0.099-0.702l-0.61,0.362l0.488-0.516
		l-0.664-0.253l0.708,0.062l-0.216-0.677l0.393,0.591l0.394-0.591l-0.217,0.677l0.708-0.062l-0.664,0.253L96.246,25.356z
		 M99.852,48.037l-0.36-0.214l-0.059,0.416l-0.058-0.416l-0.359,0.214l0.288-0.303l-0.392-0.149l0.418,0.036l-0.127-0.399
		l0.23,0.348l0.233-0.348l-0.128,0.399l0.417-0.036l-0.392,0.149L99.852,48.037z M154.543,44.088l-2.495-1.476l-0.401,2.872
		l-0.402-2.872l-29.186,11.013l28.684-11.642l-2.71-1.031l2.89,0.248l-0.884-2.763l1.608,2.412l1.608-2.412l-0.884,2.763
		l2.888-0.248l-2.71,1.031L154.543,44.088z M172.391,29.188l-0.527-0.312l-0.084,0.607l-0.086-0.607l-0.527,0.312l0.421-0.445
		l-0.573-0.218l0.612,0.051l-0.188-0.584l0.342,0.512l0.34-0.512l-0.188,0.584l0.611-0.051l-0.573,0.218L172.391,29.188z
		 M184.883,51.524l0.529,0.559l-0.662-0.392l-0.107,0.762l-0.105-0.762l-0.663,0.392l0.528-0.559l-0.719-0.274l0.767,0.065
		l-0.233-0.731l0.426,0.64l0.428-0.64l-0.236,0.731l0.768-0.065L184.883,51.524z M201.911,31.771l-1.429-0.847l-0.23,1.644
		l-0.23-1.644l-1.428,0.847l1.141-1.205l-1.551-0.59l1.653,0.14l-0.505-1.581l0.92,1.381l0.921-1.381l-0.507,1.581l1.654-0.14
		l-1.551,0.59L201.911,31.771z"/>
	<path fill="#91AEB3" d="M126.018,133.068c0,0,1.166,0.582-2.562,1.282c-3.727,0.698-6.755-1.282-6.755-1.282l1.048-5.707
		l2.795-4.777l0.699-2.446l0.932-0.465l1.165-1.981l-0.232-2.328l-0.09-2.088l6.146,3.951l2.423-1.128l2.121,2.176l0.473,0.975
		l-3.618,0.539l-3.495,0.7l-1.688,0.893l-0.045,1.295l-1.901,0.93l0.372,1.31C123.805,124.915,125.436,132.02,126.018,133.068z"/>
	<path fill="#91AEB3" d="M133.357,131.09c0,0,2.562-1.051,4.893-2.214c2.33-1.166,2.33-1.166,2.33-1.166s3.727,0.116,5.009-0.933
		c1.281-1.048,2.214-4.075,2.214-4.075s-1.631,3.261-4.078,3.261c-2.445,0-3.406,0.21-3.406,0.21s-2.78,1.425-4.864,1.305
		c-2.083-0.12-2.083-0.12-2.083-0.12"/>
	<path fill="#91AEB3" d="M112.176,94.655c0,0,1.728,1.837,2.543,2.535c0.815,0.699,1.864,0.582,3.611,0.116s3.366-3.649,3.366-3.649
		s-1.735,2.835-4.297,2.951C114.835,96.724,112.896,95.616,112.176,94.655z"/>
	<path fill="#91AEB3" d="M109.827,117.691l0.232-1.164c0,0-1.165,0.815-1.863,1.515c-0.699,0.698-1.98,2.096-2.213,3.144
		c-0.234,1.05-0.699,4.078-1.515,5.242c-0.816,1.166-0.116,1.166-0.699,2.797c-0.582,1.632-3.844,2.913-3.844,2.913l1.048,3.495
		l2.913-3.029l2.445-6.176l0.699-4.192L109.827,117.691z"/>
	<path fill="#91AEB3" d="M118.679,115.944c0,0-1.863,6.175-1.514,7.223c0.35,1.049,1.514-0.698,1.864-0.814
		c0.35-0.117-1.864,3.027-1.864,3.027s1.981-0.232,3.377-2.796c1.398-2.562,0.467-3.262,0.467-3.262S120.078,116.41,118.679,115.944
		z"/>
	<path fill="#91AEB3" d="M136.969,113.148c0,0-0.001,1.167-0.467,1.98c-0.465,0.815-0.814,0.815-0.232,1.398
		c0.582,0.582,0.699,1.282,0.699,1.282s-0.699,1.747-1.631,1.397c-0.933-0.35-1.321-0.998-1.98-2.331
		c-0.66-1.332-0.232-2.329-0.232-2.329h1.63L136.969,113.148z"/>
	<path fill="#91AEB3" d="M133.939,107.907c0,0-1.049-0.584-1.397-1.398c-0.349-0.815-0.933-1.396-1.165-0.581
		c-0.232,0.813-0.232,2.446-0.232,2.446l1.631,1.048L133.939,107.907"/>
	<path fill="#91AEB3" d="M130.474,113.506c0,0,0.67,1.042-1.311,0.81c-1.979-0.233-4.31-2.331-4.31-2.331s1.963,0.086,3.369,0.625
		C129.63,113.148,130.035,113.162,130.474,113.506"/>
	<path fill="#91AEB3" d="M107.637,100.858c0,0-3.868-1.688-5.033-1.921c-1.165-0.233-0.932,0.582-1.631,0.117
		c-0.699-0.466,2.562,2.095,3.028,2.561c0.466,0.468,2.33,0.934,2.33,0.934S106.962,101.266,107.637,100.858"/>
	<path fill="#91AEB3" d="M156.771,109.073c0,0-8.154,0.932-9.551,0.932c-1.398,0-1.398,0-1.398,0l-1.729,2.482l2.314,2.5
		l0.812,3.405C147.221,118.393,154.674,116.529,156.771,109.073z"/>
	<path fill="#91AEB3" d="M100.856,118.158c0,0-6.756-0.232-9.086-4.193c-2.33-3.96,0.699-3.96,0.699-3.96l12.295-0.159l-1.295,2.874
		l-0.557,2.314l-1.356,2.193L100.856,118.158z"/>
	<g>
		<path d="M181.726,123.717c4.944,5.822,6.782,11.761,10.052,18.322c0,0,5.649-0.699,13.338-4.194
			c7.688-3.494-4.543-11.532,2.097-12.23c6.641-0.699,12.485-1.748,12.485-1.748l-0.799-21.783h-0.154
			c-0.568,0-0.775-0.556-0.629-0.965l-0.135-0.012l-2.186-5.504l0.481,0.022l-1.049-1.288l-0.677,1.397l0.918-0.262l-2.229,3.231
			l-3.495-4.979l1.224-0.088l-1.18-2.358l1.268,0.263l-1.836-3.102l0.612-0.044l-1.224-1.573l-0.523,1.573l0.786-0.219l-1.528,2.621
			l1.004,0.219l-2.271,1.965l-2.271-2.576l0.786-0.133l-1.79-2.707l0.393-0.132l-1.224-1.659l-0.961,1.966l0.961,0.043l-1.397,2.447
			l1.572-0.525l-1.703,3.189l1.528-0.219l-1.878,3.146l1.66-0.393l-3.977,4.762l-4.499-5.024l1.529-0.219l-1.31-2.62l1.354-0.35
			l-2.403-3.364l0.699,0.044l-2.62-2.446l1.266-0.043l-1.66-2.665l-0.916,2.621h0.961l-1.748,3.319l0.787-0.087l-1.268,3.102
			l1.268-0.087l-1.137,2.401l1.137-0.087l-2.186,4.456h2.272l-3.845,3.494l-4.543-5.417l1.66,0.219l-1.703-3.145l0.873,0.131
			l-2.752-3.539l1.049,0.132l-2.884-2.491l-2.358,2.315l1.223-0.131l-2.709,3.495l2.359,0.263l-3.363,4.106l1.092,0.218
			l-4.105,3.626l-2.406-1.949c0.156,0.412-0.051,0.974-0.623,0.974h-0.045c-0.002,0.345-0.025,0.688-0.096,1.027
			c1.811,4.412,3.621,7.563,7.01,11.208C176.129,116.896,178.879,120.364,181.726,123.717z"/>
		<path d="M29.681,124.915c15.028,1.048,11.183,3.145,6.99,9.784c-4.193,6.641,13.721,7.34,13.721,7.34
			c1.235-3.914,2.602-7.759,5.141-11.079c1.519-1.985,3.191-4.026,5.191-5.543c0.148-0.112,1.304-0.835,2.362-1.39
			c0.061-0.903,0.417-1.813,1.2-2.601c3.37-3.394,6.489-9.639,10.737-12.878c-0.057-0.301-0.117-0.601-0.188-0.904
			c-0.301-1.29-0.045-2.396,0.524-3.266c-0.046-0.431-0.017-0.869,0.051-1.307c-0.002,0-0.003,0.002-0.006,0.002
			c-0.112,0-0.211-0.021-0.295-0.061l-0.083,0.233l-3.714-4.411l1.267-0.873l-1.791-1.53l1.485-0.35l-2.228-1.441l1.617-0.131
			l-3.146-4.892l1.092,0.043l-2.927-2.797l-0.786,2.229l1.441-0.263l-3.058,4.762l1.267-0.351l-1.485,3.495l1.66-0.306l-1.791,3.932
			l1.791,0.088l-3.931,4.456l-3.364-6.989l1.179-0.132l-2.927-3.582l2.708,0.088l-2.578-3.802l1.705-0.13l-3.015-4.106l1.747-0.262
			l-3.145-2.841l-2.272,3.016l1.267-0.133l-1.004,2.622l1.048,0.087l-1.922,3.233l1.878-0.131l-2.446,3.975l1.922-0.044
			l-3.276,5.373l2.883-0.437l-6.64,4.368l-4.674-5.897l1.66-1.266l-2.053-3.015l1.005-0.524l-1.922-3.363l1.267-0.088l-2.752-1.922
			l-1.616,2.883l1.747-0.654l-1.412,4.323l0.888,0.044l-2.228,5.723l1.792-0.131l-4.179,4.383l-4.077-4.558l1.354-0.131
			l-1.224-2.577l1.049,0.044l-2.665-4.062l1.092-0.175l-2.053-2.054l-1.834,2.141l0.786,0.088l-0.174,1.354l-1.092,2.316
			l1.354-0.525l-1.922,3.801l1.092,0.175l-4.277,4.62c0.047,0.38-0.167,0.797-0.66,0.797c-0.151,0-0.267-0.048-0.367-0.113
			c-0.043,0.007-0.079,0.024-0.128,0.024h-1.04l0.047,10.116C18.321,116.857,14.655,123.866,29.681,124.915z"/>
	</g>
	<path d="M219.677,9.825L14.655,12.153l1.397,177.065l205.488-0.466L219.677,9.825z M20.246,185.489V14.484l195.703-0.467
		l3.261,171.938L20.246,185.489z"/>
	<path d="M74.114,108.243c0,0-18.492,20.343-22.499,27.738c-4.006,7.396-4.931,16.027-4.931,16.027l8.013,24.039l2.774,0.308
		l-8.322-23.731c0,0-1.232-7.702,8.322-20.956c9.554-13.253,17.489-23.271,17.489-23.271L74.114,108.243z"/>
	<path d="M55.93,176.664c0,0,40.99,0.927,66.877-0.616c25.889-1.543,69.036-4.624,69.036-4.624l0.617-2.156
		c0,0-40.683,4.315-75.507,4.931c-34.827,0.616-61.331,0.307-61.331,0.307l-0.925,1.543"/>
	<path d="M168.268,106.932c0,0,12.02,10.633,16.643,17.107c4.621,6.472,8.783,22.188,8.783,22.188s0.924,16.183,0.463,18.955
		c-0.463,2.773-2.082,5.316-2.082,5.316l-1.617,0.231L193,147.383c0,0-4.16-13.405-11.559-23.114
		c-7.396-9.707-14.331-16.874-14.331-16.874L168.268,106.932z"/>
	<path d="M166.881,110.4c0,0,4.853,4.854,9.938,12.251c5.086,7.396,11.327,20.803,11.327,20.803l-135.22,3.466l1.617-3.004
		l130.368-2.312c0,0-5.779-13.638-11.096-21.034C168.498,113.175,166.881,110.4,166.881,110.4z"/>
	<path d="M78.121,111.788c0,0-7.166,6.01-12.251,12.943c-5.085,6.936-11.327,19.185-11.327,19.185l2.544,1.618
		c0,0,9.654-18.529,11.557-21.266C72.342,118.951,78.121,111.788,78.121,111.788z"/>
	<path d="M54.774,170.961c0,0,52.702,0,75.124-0.925c22.421-0.925,61.946-4.392,61.946-4.392l0.463-3.235
		c0,0-40.914,5.083-67.264,5.776c-26.351,0.694-71.655-0.693-71.655-0.693L54.774,170.961z"/>
	<polygon points="48.303,150.619 107.938,150.389 109.325,165.412 120.651,166.184 122.193,166.877 107.476,167.492 
		106.551,153.163 49.227,153.394 	"/>
	<polygon points="193.693,146.227 132.902,148.54 132.67,164.719 121.344,165.875 120.959,167.031 134.52,166.568 135.214,149.927 
		193.693,148.54 	"/>
	<polygon points="119.264,151.083 120.42,150.851 121.885,166.952 119.727,167.031 	"/>
	<polygon points="137.603,152.622 137.293,161.406 138.527,161.406 138.834,153.394 161.794,152.932 162.258,159.866 
		163.645,160.174 162.875,151.854 	"/>
	<polygon points="102.16,162.946 103.546,162.946 103.393,155.241 78.582,155.396 77.504,163.564 79.507,163.41 79.662,156.629 
		102.622,156.477 	"/>
	<g>
		<polygon points="159.6,152.932 160.178,159.404 160.986,159.635 160.408,152.7 		"/>
		<polygon points="156.268,153.009 156.846,159.481 157.654,159.712 157.076,152.777 		"/>
		<polygon points="152.936,153.086 153.513,159.559 154.321,159.789 153.744,152.854 		"/>
		<polygon points="149.602,153.162 150.18,159.635 150.988,159.865 150.41,152.931 		"/>
		<polygon points="146.271,153.239 146.848,159.712 147.656,159.942 147.079,153.009 		"/>
		<polygon points="142.938,153.316 143.516,159.789 144.324,160.02 143.746,153.086 		"/>
		<polygon points="139.605,153.394 140.184,159.866 140.992,160.097 140.414,153.163 		"/>
	</g>
	<g>
		<polygon points="100.25,156.414 100.533,162.426 101.331,162.686 101.07,156.247 		"/>
		<polygon points="96.918,156.318 97.194,162.411 97.991,162.673 97.738,156.148 		"/>
		<polygon points="93.586,156.223 93.854,162.396 94.65,162.659 94.406,156.049 		"/>
		<polygon points="90.254,156.126 90.514,162.38 91.311,162.646 91.074,155.949 		"/>
		<polygon points="86.922,156.031 87.174,162.364 87.971,162.633 87.742,155.851 		"/>
		<polygon points="83.59,155.936 83.834,162.35 84.631,162.62 84.41,155.752 		"/>
		<polygon points="80.258,155.84 80.495,162.334 81.291,162.606 81.079,155.652 		"/>
	</g>
	<path d="M181.559,153.973c-0.232-2.66-3.242-3.997-6.357-3.816c-1.965,0.117-4.623,1.272-4.508,4.51
		c0.115,3.233,3.352,5.2,6.473,5.2S181.789,156.629,181.559,153.973z M177.166,158.479c-2.08,0.115-5.086-1.387-5.201-3.237
		c-0.115-1.848,2.08-3.812,3.814-3.929c2.768-0.184,4.508,1.504,4.508,3.699C180.287,157.206,179.247,158.363,177.166,158.479z"/>
	<path d="M72.342,157.785c-0.231-2.66-3.242-3.997-6.357-3.812c-1.965,0.114-4.623,1.269-4.508,4.506
		c0.116,3.237,3.352,5.2,6.473,5.2C71.07,163.679,72.573,160.442,72.342,157.785z M67.95,162.293
		c-2.081,0.116-5.085-1.388-5.201-3.236c-0.115-1.851,2.08-3.815,3.813-3.932c2.768-0.182,4.507,1.504,4.507,3.7
		C71.07,161.022,70.03,162.177,67.95,162.293z"/>
	<path d="M60.668,157.785c-0.115-2.889-3.114-3.595-6.01-3.466c-2.657,0.115-3.121,2.193-2.774,4.969
		c0.347,2.774,2.196,3.236,5.202,3.236C60.091,162.524,60.784,160.676,60.668,157.785z M56.624,161.253
		c-2.428,0-3.236-0.348-3.583-2.774c-0.347-2.427,0.808-2.427,1.964-2.774c2.226-0.667,4.739,0.348,4.739,2.659
		C59.744,160.676,59.05,161.253,56.624,161.253z"/>
	<path d="M191.266,153.391c-0.115-2.889-3.113-3.593-6.01-3.466c-2.658,0.116-3.12,2.196-2.773,4.97
		c0.348,2.772,2.196,3.236,5.201,3.236C190.688,158.131,191.382,156.281,191.266,153.391z M187.221,156.858
		c-2.428,0-3.236-0.347-3.583-2.773c-0.347-2.426,0.81-2.426,1.966-2.773c2.225-0.668,4.737,0.348,4.737,2.657
		C190.341,156.281,189.648,156.858,187.221,156.858z"/>
	<polygon points="162.643,158.711 138.295,159.866 138.062,161.254 162.951,160.098 	"/>
	<polyline points="103.238,162.87 78.813,163.335 78.737,161.717 103.007,162.101 103.546,162.946 	"/>
	<path d="M63.635,176.355c0,0,1.234,4.93,4.778,4.93s6.933-0.464,8.629-0.464c1.695,0,3.853-3.235,3.853-4.159
		s-1.08-1.079-1.08-1.079L63.635,176.355z"/>
	<path d="M188.146,171.423c0,0,0.154,5.854-3.081,6.318c-3.236,0.461-8.015,0.77-10.787-1.542c-2.774-2.311-3.082-3.851-3.082-3.851
		L188.146,171.423z"/>
	<path d="M74.114,108.243l3.853-23.577c0,0,4.006-4.469,6.78-6.626c2.773-2.158,7.088-2.926,7.088-2.926s9.246-2.16,18.184-2.16
		c8.938,0,22.101-0.422,22.101-0.422l-0.695,1.043c0,0-28.186,0.612-33.271,1.229c-5.085,0.617-11.095,2.928-11.095,2.928
		l-6.78,6.628l-5.316,24.038L74.114,108.243z"/>
	<g>
		<path d="M92.374,131.178c0,0,1.807-1.319,3.474-1.319c1.668,0,0.903-0.767,2.432,0.417c1.528,1.182,2.293,3.335,2.293,3.335
			l0.902,1.527c0,0-0.555,1.46-1.389-0.205c-0.834-1.67-1.181-2.781-2.779-3.615c-1.598-0.833-3.614-0.556-4.1-0.14
			c-0.486,0.417-0.486,0.417-0.486,0.417L92.374,131.178z"/>
		<polygon points="101.059,141.601 103.004,137.501 102.657,137.083 100.781,139.863 		"/>
		<g>
			<path d="M113.289,83.997c0.816-0.164,1.25,1.391,0.278,1.252C112.593,85.109,112.593,84.138,113.289,83.997z"/>
			<path d="M120.098,84.554c0.528,0.176,1.111,1.252,0.139,1.252S119.682,84.415,120.098,84.554z"/>
			<path d="M117.782,88.586c0.539,0.133-0.372,0.786-1.576,0.697c-1.204-0.096-1.807-0.881-1.481-1.021
				c0.324-0.14,0.185,0.558,1.481,0.602C117.504,88.909,117.597,88.542,117.782,88.586z"/>
			<path d="M109.977,84.855c0,0,0.348,0.556,1.043,0.556s0.764-0.418,0.764-0.418l-0.973-1.042c0,0,0.418,0.069,1.668-0.138
				c1.251-0.209,3.195-1.252,3.195-1.252s0.209,0.14,1.738,0.348c1.529,0.209,0.208,1.111,2.292,0.766
				c2.085-0.348,1.181-0.209,2.432,0c1.251,0.207,2.433-0.486,2.433-0.486l-1.043-0.487c0,0,1.876,0.138,2.849-0.417
				c0.974-0.555,1.09-1.434,1.09-1.434s-0.141-0.556-1.482-1.205c-1.34-0.646-1.762-0.973-1.762-0.973l2.41,0.786
				c0,0-0.533-2.245-2.479-3.011s0-1.112-2.085-1.251c-2.084-0.139-2.084-0.139-2.084-0.139s-2.154-0.974-3.266-0.558
				c-1.111,0.418-2.709,0.835-2.709,0.835s-1.876,0.555-2.711,0.972c-0.834,0.418-1.042,1.6-1.042,1.6s-1.111,0.277-1.18,1.32
				c-0.071,1.042,0.069,1.389,0.069,1.389s-1.043,1.113-0.904,1.668c0.139,0.555,0.208,1.736,0.208,1.736s0.626,1.391,1.042,1.529
				C109.907,85.688,109.977,84.855,109.977,84.855z"/>
			<path d="M109.072,84.948c0,0.557-0.833,0.649-0.647,1.668c0.184,1.019,0.741,1.207,0.833,1.668
				c0.092,0.464-1.297-0.372-1.575-1.854C107.406,84.948,109.072,84.394,109.072,84.948z"/>
			<path d="M123.469,84.97c-0.209,0.521,0.972,0.975,0.833,2.017c-0.14,1.042-0.833,0.971-0.973,1.389s1.737-0.418,1.808-1.737
				C125.205,85.316,123.607,84.622,123.469,84.97z"/>
			<path d="M109.537,88.028c0.218,0.173,0.973,2.292,1.25,3.752c0.278,1.46,3.96,4.516,5.281,4.516c1.32,0,4.03-0.693,4.586-2.5
				c0.555-1.808,1.91-3.022,2.119-3.649c0.207-0.625,0.383-1.84,0.729-1.84c0.349,0-1.042,4.238-1.806,5.351
				c-0.765,1.108-2.015,3.196-4.794,3.196s-5.698-2.363-6.392-4.172C109.814,90.878,108.495,87.193,109.537,88.028z"/>
			<path d="M115.477,91.397c0.125,0.45,0.689,0.407,1.111,0.383c1.773-0.103,1.147,0.972,0.313,1.042
				c-0.834,0.069-1.112-0.21-1.39-0.141c-0.278,0.07,0.486,0.487,1.39,0.419c0.903-0.071,1.528-0.382,1.25-1.077
				C117.875,91.329,115.302,90.773,115.477,91.397z"/>
			<path d="M118.256,84.31c0.144,0.287,0.834-0.104,1.876,0c1.041,0.105,1.32,0.486,1.668,0.21
				C122.148,84.241,117.979,83.754,118.256,84.31z"/>
			<path d="M111.934,84.102c0.103,0.325,0.348-0.276,1.494-0.276c1.146,0,1.664,0.511,1.771,0.205
				C115.372,83.546,111.724,83.442,111.934,84.102z"/>
			<path d="M123.642,84.97l7.852-12.785c0,0,1.112,1.32,2.919,2.016c1.807,0.697,4.17,0.902,4.17,0.902l0.276,1.113
				c0,0-0.235,0-0.651-0.053c-0.752-0.098-2.088-0.366-3.656-1.131c-2.432-1.18-3.127-1.457-3.127-1.457l-7.227,11.881
				L123.642,84.97z"/>
			<polygon points="131.633,86.358 133.3,85.664 138.858,76.216 138.304,75.567 			"/>
			<path d="M109.027,99.283c0-0.763-0.092,0.095-1.112,0.836c-1.019,0.739-1.667,0.833-1.576,1.759
				c0.093,0.925-1.019,0.649-1.759,1.761c-0.742,1.111,0.184,2.039-0.649,3.611c-0.835,1.576-1.203,2.595-1.296,3.521
				c-0.094,0.929,0,2.967,0,2.967l2.316-1.021c0,0-0.463-1.296-0.187-2.871c0.278-1.577,1.391-3.057,1.206-3.984
				c-0.186-0.927-0.093-1.294,0.648-2.407c0.742-1.113,0.187-2.04,1.019-2.596C108.471,100.302,109.027,100.213,109.027,99.283z"/>
			<path d="M103.838,111.79c0,0,2.595-1.018,5.096-1.018c2.501,0,1.852,0.928,2.964,0.928c1.112,0,4.261,0.649,6.115,1.575
				c1.854,0.925,3.891,7.04,3.891,7.04l-0.185,1.11c0,0-3.057-6.111-5.744-7.597c-2.687-1.483-2.687-0.371-3.706-0.091
				c-1.019,0.277-1.298,0.463-2.595-0.186c-1.297-0.649-2.871-0.649-3.798-0.744c-0.927-0.092-2.409-0.089-2.409-0.089
				L103.838,111.79z"/>
			<path d="M103.469,112.72c-0.834,1.019-2.225,0.833-2.41,2.501c-0.186,1.669-1.854,3.149-3.52,4.632
				c-1.667,1.482-0.74,1.482-0.74,2.778c0,1.297,0.556,3.892,0.556,3.892l-0.556,3.151c0,0,1.482,0.554,2.223,1.852
				c0.74,1.297,1.667,0.555,1.667,0.555s-1.761-1.572-2.131-3.702c-0.369-2.132,0.28-2.783,0.464-4.45
				c0.184-1.669-0.743-1.482,0.74-3.335c1.482-1.853,2.595-4.265,3.151-5.559c0.557-1.296,2.965-2.226,2.965-2.226L103.469,112.72z"
				/>
			<path d="M110.139,116.145c0,0-0.371,1.483-1.853,3.151c-1.481,1.669-2.409,2.411-2.224,3.707c0.187,1.296,0.002,1.853-0.37,2.78
				c-0.372,0.925-0.372,1.667-0.741,2.963c-0.371,1.296-4.169,6.486-4.169,6.486s-0.74-0.925,0.186,1.575
				c0.926,2.502,1.899,1.042,1.899,1.042l2.085-4.47c0,0,0.462,3.24,0.648,4.631c0.185,1.39,1.39,2.316,1.39,2.316l0.833-3.612
				c0,0-0.187,0.162-1.111-1.482c-0.923-1.647,0.834-3.611,0.834-3.611s-1.481-1.765-0.74-4.357c0.74-2.593,0.185-3.15,1.295-5.188
				C109.212,120.036,111.066,116.7,110.139,116.145z"/>
			<path d="M120.33,119.111c0,0-0.186,3.707-1.854,5.002c-1.667,1.299-2.595,2.595-2.595,2.595s0.927,0,0.742,1.664
				c-0.186,1.67-1.112,1.855-1.112,3.708c0,1.006,0.383,3.039-0.092,4.818c-0.211,0.797-2.022,0.425-2.965,1.208
				c-0.839,0.693-0.833,2.595-0.833,2.595s2.687-0.374,3.798-1.762c1.112-1.391,2.131-7.6,2.501-9.266s0.555-2.593,1.296-3.891
				c0.743-1.3,2.503-3.432,2.503-4.357S120.33,119.111,120.33,119.111z"/>
			<g>
				<path d="M120.584,99.144c0,0,2.502,0.14,3.197-1.597c0.694-1.737,0.207-7.227,2.57-8.964c2.363-1.735,3.613-3.057,6.531-3.195
					c2.92-0.139,2.85,0.209,2.85,0.209s-4.863,0.694-6.948,2.084c-2.085,1.389-3.197,2.362-3.475,4.308
					c-0.278,1.946,0.485,4.727-0.834,6.253C123.156,99.772,122.043,99.91,120.584,99.144z"/>
				<path d="M122.043,99.562c0,0,0.106,1.186,1.252,1.947c1.042,0.692,2.641,1.11,2.641,1.11s-3.404,0.35-4.447-1.182
					c-1.043-1.527-0.904-2.294-0.904-2.294L122.043,99.562z"/>
				<path d="M132.327,85.664c0,0,1.598-1.179,3.683-0.486c2.085,0.696,4.863,4.17,5.768,5.562c0.903,1.388,1.599,2.152,2.432,1.873
					c0.834-0.276,1.459-0.624,1.459-0.624l0.035,0.661c0,0-1.355,0.869-2.258,0.764c-1.807-0.21-2.119-2.084-4.135-4.726
					C137.295,86.047,133.647,85.109,132.327,85.664z"/>
				<path d="M132.186,98.313v1.15c0,0,0.17,0.373,0.879,0.205c0.504-0.119,0.883-0.611,0.883-0.611s-0.508,0.269-0.949,0.372
					c-0.439,0.101-0.475-0.134-0.475-0.134L132.186,98.313z"/>
				<path d="M144.209,94.351c0,0,0.662,0.088,1.25-1.009c0.244-0.45-0.312-0.902-0.312-0.902l0.521-0.451
					c0,0,0.551,0.394,0.278,1.39C145.738,94.143,144.557,94.664,144.209,94.351z"/>
				<path d="M145.157,94.144c0,0-0.033,2.736-1.045,3.815c-1.011,1.077-4.419,2.123-4.419,2.123s3.676-0.134,4.959-1.956
					c1.282-1.819,0.777-4.283,0.777-4.283L145.157,94.144z"/>
				<path d="M128.366,93.029c0,0,0.278,0.628,1.668,0.558c1.39-0.068,2.918-1.251,2.918-1.251s-0.131,1.207-1.599,1.599
					C128.748,94.629,128.366,93.029,128.366,93.029z"/>
				<path d="M131.215,93.552c0,0,1.46,0.209,2.988-0.451c1.529-0.661,2.502-1.668,2.502-1.668s-0.139,1.459-2.362,2.154
					C132.119,94.281,131.215,93.552,131.215,93.552z"/>
				<path d="M138.164,94.281c0.068,0.223,0.65,0,0.928,0.926c0.277,0.93-0.557,1.112-0.557,1.112s1.158,0.185,1.019-1.159
					C139.414,93.819,138.025,93.819,138.164,94.281z"/>
				<path d="M135.588,95.351c0.532-0.06,0.436,0.963,0.068,1.064C135.289,96.515,134.922,95.418,135.588,95.351z"/>
				<path d="M130.642,95.49c0.6-0.058,0.849,1.196,0.299,1.145C130.393,96.588,130.092,95.538,130.642,95.49z"/>
				<path d="M127.846,95.117c0,0,0.035,3.124,1.319,4.688c1.286,1.564,3.927,3.509,4.899,3.404c0.973-0.102,1.945-0.624,3.439-3.195
					c1.494-2.569,1.031-3.694,1.031-3.694l0.254-0.126c0,0,0.174,1.701-0.556,3.127c-0.729,1.422-2.257,4.341-4.169,4.271
					c-1.912-0.068-5.803-3.022-6.08-5.002C127.707,96.609,127.637,95.15,127.846,95.117z"/>
				<path d="M139.275,95.951c0,0,0.464,1.481,1.344,2.038c0.881,0.555,2.547,0.831,2.547,0.831s-0.324-0.463-0.463-0.694
					c-0.139-0.229-0.185-0.507-0.185-0.507s1.288,0.448,1.594,0.34s0.536-0.295,0.536-0.295l-0.74,0.928l-1.992,1.143
					c0,0-0.764,0.14-2.119,0.385c-1.355,0.242-2.235,0.324-2.235,0.324s1.065-2.27,1.111-2.919c0.048-0.647,0.048-1.157,0.048-1.157
					L139.275,95.951z"/>
				<path d="M138.35,94.236c0,0-0.186-0.555-0.834-1.065c-0.649-0.51-1.25-0.972-1.25-0.972l-0.463,0.369
					c0,0,0.646,0.184,1.342,0.834C137.84,94.049,138.489,94.699,138.35,94.236z"/>
				<path d="M132.744,101.233c0.139,0.304,1.715,0.324,1.668-0.141C134.365,100.629,132.513,100.725,132.744,101.233z"/>
				<path d="M144.181,105.251c0,0-0.531-2.173-1.774-2.305c-1.24-0.134-1.328-0.086-1.461-0.488c-0.133-0.4-0.977-0.843-1.42-0.354
					c-0.441,0.488-1.063,1.771-1.063,1.771s-1.064,1.376-1.995,2.084c-0.93,0.711-1.596,1.464-1.596,1.464s-0.62,1.418-1.019,1.728
					c-0.398,0.312-0.487,1.422-1.462,0.665c-0.978-0.752-1.685-0.884-2.615-1.238c-0.93-0.359-1.729-1.466-2.793-1.73
					c-1.063-0.266,0.27-0.355-1.061-0.619c-1.33-0.269-2.217-0.445-2.75-0.445c-0.531,0-0.531,1.154-0.531,2.038
					c0,0.888-0.797,2.485,0.443,3.015c1.24,0.534,2.572,0.358,4.256,0.534c1.684,0.175,0.972,0.44,2.303,1.148
					c1.33,0.71,0.287,0.424,2.416,1.155c1.842,0.634,2.459,0.621,3.789-0.798c1.329-1.42,4.273-3.787,4.363-4.056
					c0.088-0.263,0.797,0,0.532,0.976c-0.267,0.977-5.251,6.269-7.467,5.384s-3.636-2.304-5.054-2.569
					c-1.418-0.267-3.188-0.179-4.252-0.621c-1.064-0.444-2.304,0.796-2.304-1.329c0-2.13-0.708-5.498,0.531-5.586
					c1.239-0.086,4.342,0.622,4.874,0.709c0.531,0.086,2.656,1.862,3.277,2.13c0.623,0.265,2.572,0.795,2.572,0.795
					s0.797-1.414,1.686-2.126c0.885-0.713,1.771-1.242,2.747-2.482c0.976-1.238,2.571-3.016,3.634-2.661
					c1.063,0.355,3.279,0.976,3.457,1.865C144.623,104.186,144.621,104.987,144.181,105.251z"/>
				<path d="M132.151,102.737l0.249,1.306c0,0,1.614,0.372,2.299,0.12c0.682-0.248,0.992-0.371,0.992-0.371l-0.123-0.994
					l0.372-0.184v1.301c0,0-0.247,0.858-1.737,0.858s-2.176-0.547-2.176-0.547l-0.187-1.677L132.151,102.737z"/>
				<path d="M139.525,102.104c0,0-1.084-0.11-1.986-0.042c-0.904,0.07-1.32,0.21-1.32,0.21l-0.348,0.624
					c0,0,0.277-0.277,1.182-0.208c0.902,0.07,1.876,0.07,1.876,0.07l0.625-0.904L139.525,102.104z"/>
				<path d="M131.841,102.55c0,0-0.902-0.138-2.153,0.627c-1.252,0.762-1.668,2.014-1.668,2.568c0,0.558,0,0.558,0,0.558
					l1.111,1.041c0,0-0.765-2.084,0.557-2.987c1.319-0.902,2.432-1.249,2.432-1.249L131.841,102.55z"/>
				<path d="M138.582,118.878c0,0-5.49,1.321-8.062,1.947c-2.57,0.625-6.323,2.5-6.532,3.058c-0.207,0.555,1.807,8.131,3.197,10.074
					c1.371,1.919,2.361,2.987,2.361,2.987l0.141,0.694c0,0-4.17-3.89-5.143-7.712c-0.973-3.82-1.112-6.321-1.112-6.321
					s3.196-2.572,7.574-3.546C135.385,119.088,139.136,118.045,138.582,118.878z"/>
				<path d="M145.938,116.295c0,0,2.996,5.642,0.078,7.866c-2.918,2.223-5.976,1.181-5.976,1.181s-2.71,1.527-5.071,1.667
					c-2.363,0.139-6.115-0.555-6.115-0.555s0.764,0.415,1.181,1.18s2.71,7.646,2.71,7.646s-1.391-4.727-1.459-5.978
					c-0.07-1.252-0.07-1.598-0.07-1.598s3.406,0.208,5.072-0.07c1.668-0.276,4.031-1.461,4.031-1.461s4.371,1.334,7.453-2.058
					C150.854,120.724,145.938,116.295,145.938,116.295z"/>
				<path d="M135.94,119.16l2.316-0.28c0,0,1.667-2.129,4.354-2.221c2.688-0.095,4.263,0.461,4.263,0.461l-0.649-1.389
					c0,0-2.13-0.277-5.28,0s-4.633,2.039-4.633,2.039L135.94,119.16z"/>
				<path d="M144,106.187c-0.08,1.215-0.926,2.04-0.463,2.596c0.463,0.557,1.576,1.02,1.02,1.945
					c-0.557,0.924-1.297,0.831-0.463,1.76c0.833,0.929,1.018,2.223,0.926,2.872c-0.093,0.649-0.371,1.112,0.277,1.112
					c0.649,0,1.668-0.744,1.111-1.484c-0.555-0.74-0.74-0.74-0.74-1.571c0-0.835,0.186-1.021-0.276-1.393
					c-0.465-0.372,1.017-0.926,0.462-1.481c-0.557-0.557-1.297-1.573-1.113-2.037C144.927,108.04,144.279,102.017,144,106.187z"/>
				<path d="M137.053,102.688c0,0,0.695,0.713,0.302,1.41c-0.394,0.698,1.644-1.708,1.644-1.708L137.053,102.688z"/>
				<path d="M132.5,134.443c0,0-0.918,0.009-2.327,1.077c-1.008,0.765-0.972,1.355-0.972,1.355l0.729,1.147
					c0,0,0.268-1.343,1.285-1.809c1.02-0.464,1.762-0.564,1.762-0.564L132.5,134.443z"/>
				<path d="M137.33,138.15c-0.369-1.578-2.131-0.372-2.965-0.281c-0.834,0.092-0.926-0.276-2.964,0.37
					c-2.038,0.651-4.263,3.432-3.429,4.449c0.833,1.019,2.688,0.834,4.633-0.093s1.666-1.945,3.057-2.131
					C137.053,140.28,137.693,139.695,137.33,138.15z M135.023,140.44c-1.099,0.147-0.879,0.954-2.416,1.687
					c-1.54,0.732-3.007,0.88-3.667,0.073c-0.659-0.803,1.102-3.004,2.713-3.52c1.612-0.509,1.686-0.221,2.345-0.291
					c0.66-0.072,2.053-1.028,2.346,0.219C136.631,139.834,136.125,140.298,135.023,140.44z"/>
				<path d="M128.158,141.742c1.32,1.944-0.405,0.259-0.277,0.622c0,0-0.879-1.854,0.463-3.289c1.344-1.437,1.865-2.026,1.865-2.026
					l0.693,0.764C130.902,137.812,126.838,139.793,128.158,141.742z"/>
				<polyline points="132.812,135.484 136.602,137.397 136.184,137.571 135.558,137.434 132.71,135.724 132.605,135.659 				"/>
				<path d="M133.439,135.938c0,0-1.217,0.209-1.564,0.414c-0.346,0.21-1.459,0.939-1.459,0.939l0.277,0.384
					c0,0,0.521-0.556,1.634-1.008c1.112-0.453,1.598-0.278,1.598-0.278L133.439,135.938z"/>
				<path d="M135.94,119.16c0,0-1.944-0.838-1.944-2.505c0-1.668-1.299-2.408-1.299-2.408l-2.224-0.741c0,0,0.927,1.481,1.112,2.593
					c0.185,1.112,1.854,3.337,1.854,3.337L135.94,119.16z"/>
				<path d="M131.586,114.433c0,0-0.741,1.669-1.297,2.039c-0.556,0.368-3.15-0.188-4.075-1.299
					c-0.928-1.112-3.522-3.334-3.522-3.334l-1.667,0.926c0,0,6.115,4.258,7.598,4.632c1.481,0.372,2.222,0.187,2.964-0.369
					c0.741-0.556,1.111-1.483,1.111-1.483L131.586,114.433z"/>
				<path d="M134.18,119.249c0,0-0.927-0.371-4.633,0.187c-3.704,0.556-5.002,1.481-5.002,1.481l0.372,2.177l0.417-0.418
					l0.045-1.295c0,0,1.16-0.788,4.262-1.205c3.104-0.417,4.031-0.417,4.031-0.417L134.18,119.249z"/>
				<path d="M132.883,127.634c0,0,0.557,0.833,0.417,2.503c-0.138,1.666-1.111,5.001-1.111,5.001l0.312-0.104
					c0,0,0.488-2.189,0.835-3.336c0.347-1.146,0.451-2.535,0.243-3.438c-0.207-0.902-0.207-0.902-0.207-0.902L132.883,127.634z"/>
				<path d="M127.881,140.466c0,0-2.316,0.371-2.872-1.295c-0.558-1.665,2.499-2.876,3.519-2.69c1.02,0.189,0.674,0.396,0.674,0.396
					s-3.081,0.162-3.266,1.831c-0.188,1.667,2.037,1.021,2.037,1.021L127.881,140.466z"/>
				<path d="M125.031,138.681c0,0-0.209-1.805,0.974-2.43c1.181-0.628,2.153-0.695,2.153-0.695l0.486,0.418
					c0,0-2.431,0.277-2.918,1.388C125.239,138.475,125.031,138.681,125.031,138.681z"/>
				<path d="M142.98,99.19c0,0-1.064,0.833-3.149,1.529c-2.085,0.694-3.382,1.389-3.382,1.389l1.205-1.945L142.98,99.19z"/>
				<path d="M122.553,102.201c0,0,2.131,1.018,4.633,0.928c2.502-0.094,3.659-0.232,3.659-0.232l0.996-0.347l-2.894-2.571
					C128.947,99.979,126.307,102.619,122.553,102.201z"/>
			</g>
			<path d="M121.024,112.765c0,0-0.44-1.737-0.093-2.293c0.348-0.557,1.042-0.765,1.042-0.765s1.251,1.876,0.765,2.501
				C122.252,112.835,121.186,112.903,121.024,112.765z"/>
			<path d="M99.739,138.681c-0.625-0.624-0.556-0.764-0.765-2.918c-0.208-2.152-3.07-4.755-5.351-5.001
				c-1.944-0.209-3.126,1.876-2.085,5.212c1.044,3.334,2.364,2.083,3.405,3.614c1.043,1.526,2.363,3.473,4.24,2.985
				c1.875-0.485,2.015-0.764,2.015-1.739C101.198,139.863,100.365,139.308,99.739,138.681z M98.72,141.671
				c-1.587,0.411-2.704-1.234-3.588-2.528c-0.88-1.293-1.999-0.233-2.881-3.059c-0.881-2.821,0.118-4.585,1.765-4.41
				c1.931,0.207,4.352,2.409,4.529,4.233c0.175,1.825,0.117,1.942,0.646,2.471c0.53,0.531,1.235,0.999,1.235,1.822
				S100.31,141.257,98.72,141.671z"/>
			<path d="M112.732,129.302c-1.528-0.556-3.195,0.418-4.655,2.641c-1.459,2.224,0.139,2.848-0.626,5.28
				c-0.764,2.433-1.465,4.505,0.974,5.142c3.196,0.835,3.335-2.225,3.821-3.543c0.486-1.32,1.112-1.183,2.085-3.612
				C115.302,132.778,114.261,129.858,112.732,129.302z M113.827,135.295c-0.837,2.095-1.375,1.975-1.793,3.11
				c-0.418,1.139-0.539,3.766-3.291,3.048c-2.097-0.547-1.494-2.333-0.836-4.426c0.658-2.092-0.718-2.629,0.539-4.541
				c1.255-1.917,2.69-2.755,4.006-2.273C113.767,130.69,114.664,133.202,113.827,135.295z"/>
			<path d="M123.572,102.479c0,0,0.278,1.322-0.14,1.739c-0.416,0.416-0.694,1.319-0.694,1.319l1.668-0.068l2.362,0.834l1.946,1.183
				l-0.209-2.154l2.339-2.435l-3.103-0.484l-2.572,0.138L123.572,102.479z"/>
			<path d="M121.904,120.315c0,0,0.557,0.277,1.297-1.204c0.741-1.48,0.372-1.946,0.279-3.058c-0.094-1.112,0.184-1.853,0.184-1.853
				l-0.647-0.926c0,0-0.648,1.203-0.37,2.778c0.277,1.577,0.092,2.319-0.742,2.965C121.07,119.667,120.422,120.774,121.904,120.315z
				"/>
			<path d="M105.784,103.178c0,0-2.13-1.574-3.705-2.408c-1.576-0.835-4.447-2.687-4.633-4.169
				c-0.186-1.481-2.408-1.668-3.242-3.706c-0.834-2.041-2.687-4.353,0.093-6.394c2.78-2.039,6.485-3.339,8.43-3.983
				c1.947-0.647,1.947-0.647,1.947-0.647l1.481-0.929c0,0,1.669,0.927,1.761,1.576c0.093,0.649-0.464,4.076-0.464,4.354
				s1.298,1.943-1.39,2.594c-2.687,0.648-3.427,0.742-3.427,0.742s2.501-1.482,3.335-2.037c0.834-0.558,1.019-1.854,0.926-3.521
				c-0.092-1.668-0.649-2.598-1.854-1.855c-1.204,0.743-4.169,2.412-5.281,2.412s-3.52,2.221-4.075,2.591
				c-0.556,0.374-1.577,0.279-1.483,1.391c0.093,1.112,1.206,3.06,2.595,4.634s1.666,2.127,2.407,3.425
				c0.742,1.301,4.912,3.802,5.746,3.802c0.833,0,1.854,1.298,1.854,1.298L105.784,103.178z"/>
			<path d="M112.176,94.655c0,0-1.481-1.761-3.613-1.67c-2.131,0.096-1.574,0.836-2.131,1.113c-0.555,0.278-1.668-1.02-3.149-1.762
				c-1.482-0.739-1.76-1.203-2.41-1.39c-0.648-0.183,0-0.647,0.834-0.833c0.834-0.185,2.687-0.555,2.687-0.555l-1.668,1.111
				c0,0,0.836,0.646,1.576,1.296c0.741,0.65,1.39,0,3.058-0.278C109.027,91.411,110.88,91.32,112.176,94.655z"/>
			<path d="M138.733,68.851c0,0,0.202-1.156-0.667-1.477c-0.865-0.323-1.933,0.189-3,0.512c-1.066,0.32-1.732,0.387-1.934,0.965
				c-0.199,0.578-0.259,1.053,0.342,1.18c0.599,0.129,0.594,0.487,0.594,0.487s-1.4-0.255-1.469-0.897
				c-0.066-0.641,0.27-1.606,1.602-1.991c1.334-0.384,3.967-1.347,4.366-0.643C138.967,67.694,139.4,68.399,138.733,68.851z"/>
			<path d="M139.414,70.239c0,0,0.342-0.934-0.49-1.255c-0.829-0.317-1.854,0.511-2.877,0.831c-1.021,0.32-1.66,0.064-1.852,0.639
				c-0.191,0.576-0.08,1.049,0.494,1.176c0.576,0.127,0.4,0.484,0.4,0.484s-1.309-0.4-1.372-1.041c-0.065-0.637,0.22-1.45,1.5-1.834
				c1.276-0.381,3.954-1.228,4.336-0.527C139.938,69.415,140.055,69.794,139.414,70.239z"/>
			<path d="M140.805,72.046c0,0-0.124-1.383-0.883-1.676c-0.758-0.292-1.691,0.465-2.626,0.756c-0.933,0.295-1.517,0.061-1.69,0.586
				c-0.178,0.525-0.408,1.051,0.115,1.163c0.527,0.118,0.701,0.354,0.701,0.354s-1.38-0.119-1.488-0.697
				c-0.208-1.111,0.436-1.58,1.605-1.933c1.165-0.347,3.566-1.065,3.918-0.43C140.807,70.813,141.389,71.638,140.805,72.046z"/>
			<path d="M137.746,72.705c0.859-0.409,1.871-0.422,2.016-0.312l0.278-0.521l-0.417-0.52c0,0-0.625,0.624-1.39,0.832
				c-0.765,0.209-2.513,0.69-2.513,0.69l0.393,0.978C136.113,73.853,136.972,73.078,137.746,72.705z"/>
			<path d="M140.666,70.866c0,0,0.451,0.24,0.451,0.797s-0.035,1.842-1.008,2.327c-0.974,0.489-1.945,0.907-1.945,1.321
				c0,0.418-0.625,0.35-0.625,0.35l-0.834-0.488c0,0,2.709-0.902,3.335-1.738C140.666,72.602,140.666,71.421,140.666,70.866z"/>
			<path d="M135.732,67.321c0,0,0.764-1.459,1.32-2.152c0.555-0.697,1.181-2.155,1.459-2.711c0.277-0.557-0.14-0.764-0.557-1.041
				c-0.416-0.279-0.973,0.277-1.598,1.248c-0.254,0.395-1.771,3.509-1.771,3.509l-0.209-0.626c0,0,1.217-2.082,1.91-3.334
				c0.695-1.25,1.842-1.46,2.258-0.971c0.418,0.484,0.522,0.729,0.037,2.119c-0.487,1.389-2.119,3.716-2.119,3.716L135.732,67.321z"
				/>
			<path d="M135.107,74.618c0,0,0.318-0.727,0-1.321c-0.32-0.595-0.836-0.556-1.668-1.39c-0.834-0.834-1.529-1.877-1.32-3.404
				c0.208-1.527,1.228-2.594,1.506-3.081c0.209-0.366,0.591-0.71,0.646,0.578c0.047,1.044-0.832,1.367-0.74,1.923
				c0.085,0.521,0.881-0.23,0.881-0.23s0.299-1.936,0.139-2.385c-0.348-0.975-1.064-0.304-1.064-0.304s-1.02,1.414-1.438,2.317
				c-0.416,0.904-0.278,1.808-0.278,2.709c0,0.904,0.349,1.6,0.349,2.502s0,0.902,0,0.902L135.107,74.618z"/>
			<path d="M124.822,93.587c0,0-2.084,2.223-2.362,3.475s-0.417,2.5-0.417,2.5s2.779-1.11,2.779-2.64
				C124.822,95.395,124.822,93.587,124.822,93.587z"/>
			<path d="M107.174,81.982c0,0-0.557,0,1.042-0.765c1.598-0.764,3.057-0.557,3.057-0.557s-2.015,1.391-2.71,1.391
				c-0.694,0-1.112,0.557-1.112,0.557L107.174,81.982z"/>
			<polyline points="107.243,87.124 108.216,87.263 108.563,87.681 107.382,87.889 107.451,86.872 			"/>
		</g>
	</g>
	<path d="M82.281,107.625c0,0,13.406,2.312,17.104,2.312s5.378-0.092,5.378-0.092l-0.926,1.944
		C103.838,111.79,87.367,111.325,82.281,107.625z"/>
	<path d="M165.031,107.164c0,0-4.854,0.924-11.096,1.387c-6.24,0.463-9.245,0.693-9.245,0.693l1.163,1.298
		c0,0,6.695,0.09,10.395-0.373C159.946,109.707,165.031,107.164,165.031,107.164z"/>
	<path d="M167.11,107.395l-4.159-22.651l-10.172-9.939l-12.67-0.813c0,0,0.883-0.573,5.737-0.804
		c4.853-0.232,7.627,0.463,7.627,0.463l10.633,10.4l4.622,23.808L167.11,107.395z"/>
	<polygon points="80.277,84.359 104.163,82.354 100.155,84.05 79.507,84.743 81.125,83.587 	"/>
	<polyline points="161.794,83.356 134.982,82.2 134.058,83.818 162.951,84.743 162.719,83.818 	"/>
	<polygon points="94.296,86.501 81.356,86.593 78.121,104.622 80.2,105.547 82.974,88.209 93.375,87.979 	"/>
	<polygon points="163.875,103.697 160.871,87.285 136.01,85.178 138.219,87.515 158.79,88.903 162.951,103.697 	"/>
	<path d="M80.432,104.622c0,0,7.859,2.078,13.175,2.078s10.324,0.55,10.324,0.55l0.309,1.764c0,0-18.954-1.156-24.04-3.467"/>
	<path d="M144,106.187c0,0,5.082-0.177,9.936-1.102c4.854-0.926,9.939-1.388,9.939-1.388s-5.778,2.312-9.707,3.003
		c-3.93,0.694-9.246,0.925-9.246,0.925L144,106.187z"/>
	<path d="M109.864,107.625c0,0,0.308,1.233,2.928,0.618c2.619-0.618,3.697-3.698,3.083-3.698c-0.616,0-2.928,2.004-4.469,2.004
		C109.864,106.549,109.402,107.318,109.864,107.625z"/>
	<polyline points="75.461,101.851 72.404,98.704 74.297,98.355 72.273,96.956 73.583,96.564 71.501,95.092 72.623,94.729 
		69.652,90.23 70.744,90.317 66.55,85.294 64.541,90.1 66.143,89.968 63.187,94.38 64.41,94.074 63.056,97.395 64.584,97.219 
		62.969,100.845 63.813,101.382 61.717,103.247 59.62,98.588 61.017,98.121 58.921,95.325 60.216,94.772 58.294,91.235 
		59.561,90.667 56.722,86.822 58.425,86.474 54.028,82.046 50.3,87.26 51.698,87.171 50.431,89.575 51.698,89.501 49.601,92.996 
		51.465,92.764 49.164,97 51.233,96.724 47.897,101.98 49.295,101.851 45.757,103.902 41.913,99.055 43.544,98.355 41.214,95.325 
		42.379,94.626 40.428,91.409 42.262,91.453 37.952,87.872 35.447,92.458 36.977,92.371 35.404,96.564 36.715,96.564 
		34.225,102.593 35.972,101.893 32.827,104.412 29.798,101.383 31.123,101.369 29.798,98.82 31.167,98.879 28.167,94.626 
		29.463,94.599 26.492,91.191 23.697,94.904 24.906,94.86 23.609,98.66 24.833,98.269 22.954,101.676 23.508,101.851 
		20.246,106.275 24.746,101.413 23.653,101.238 25.575,97.438 24.221,97.963 25.313,95.646 25.487,94.293 24.702,94.205 
		26.536,92.064 28.589,94.118 27.497,94.293 30.162,98.355 29.113,98.312 30.337,100.889 28.983,101.02 33.06,105.577 
		37.239,101.194 35.447,101.325 37.675,95.603 36.788,95.559 38.199,91.235 36.453,91.89 38.068,89.007 40.821,90.929 
		39.554,91.017 41.476,94.38 40.471,94.904 42.524,97.919 40.864,99.185 45.539,105.082 52.178,100.714 49.295,101.15 
		52.572,95.777 50.65,95.821 53.096,91.847 51.217,91.978 53.14,88.744 52.091,88.657 53.096,86.035 51.829,86.168 54.101,83.152 
		57.246,85.993 55.499,86.255 58.513,90.361 56.809,90.491 59.386,94.293 56.678,94.205 59.604,97.787 58.425,97.919 
		61.789,104.908 65.72,100.452 63.93,100.364 65.72,96.433 64.061,96.738 65.546,93.243 64.279,93.594 67.336,88.832 65.895,89.095 
		66.681,86.865 69.608,89.662 68.516,89.619 71.662,94.511 70.045,94.642 72.273,96.083 70.788,96.433 72.579,97.963 71.312,98.836 
		75.025,103.247 75.461,102.024 	"/>
	<polygon points="218.264,101.129 216.145,95.908 216.975,96.281 216.123,94.86 215.25,93.55 213.918,96.083 214.748,95.953 
		213.59,97.656 210.794,94.293 211.843,94.118 210.619,91.978 211.975,92.196 209.833,88.657 210.575,88.613 208.566,86.079 
		207.344,88.875 208.042,88.832 206.426,91.191 207.387,91.453 205.989,92.371 204.504,90.754 205.377,90.491 203.324,88.089 
		204.328,87.74 202.014,85.119 200.311,88.439 200.922,88.396 200.092,90.71 201.096,90.491 199.436,93.463 200.746,93.2 
		199.305,96.521 200.572,96.259 197.864,99.142 194.938,95.734 196.334,95.908 194.456,92.764 195.941,92.764 193.234,89.181 
		194.281,88.919 191.529,86.517 192.446,86.561 189.826,82.018 188.34,86.865 189.652,86.561 187.467,89.968 188.34,89.881 
		186.855,93.288 188.253,93.112 186.594,95.997 187.816,95.646 186.243,99.752 187.729,99.84 185.457,101.238 182.051,97.919 
		183.186,97.919 182.137,95.035 183.186,95.297 179.691,91.365 180.958,91.365 177.157,87.434 173.139,91.627 174.799,91.453 
		172.265,94.599 174.799,94.86 170.779,99.228 172.353,99.142 168.945,101.588 166.762,100.364 169.295,102.418 173.4,98.792 
		172.309,98.574 175.672,94.468 173.312,94.205 176.021,90.71 174.799,90.841 177.157,88.525 180.041,91.017 178.992,90.885 
		181.744,94.424 180.871,94.293 182.574,97.438 180.914,97.219 185.457,102.636 189.302,99.142 187.029,99.142 189.215,94.686 
		188.078,94.772 189.215,92.371 187.947,92.458 189.215,89.356 188.428,89.443 190.176,86.124 189.215,86.124 190.131,83.503 
		191.791,86.168 190.525,86.211 193.146,88.657 192.446,88.613 194.85,91.978 193.496,92.327 194.806,94.947 193.276,95.166 
		197.775,100.19 201.752,95.429 200.092,95.821 201.97,92.676 200.441,92.895 202.145,89.705 200.572,90.23 201.97,87.783 
		201.009,87.74 201.97,85.774 203.193,87.434 202.801,87.565 204.591,90.272 203.805,90.405 206.076,92.981 208.348,91.017 
		207.344,90.798 208.872,88.177 208.086,88.396 208.609,86.822 209.833,88.396 209.221,88.439 211.057,91.541 209.789,91.278 
		210.969,93.637 209.745,93.725 213.24,98.704 215.469,95.473 214.551,95.734 215.228,94.337 216.276,95.625 215.795,95.603 
		217.98,101.106 	"/>
</g>
</svg>
