<?xml version="1.0" encoding="utf-8"?>
<!-- Generator: Adobe Illustrator 16.2.0, SVG Export Plug-In . SVG Version: 6.00 Build 0)  -->
<!DOCTYPE svg PUBLIC "-//W3C//DTD SVG 1.1//EN" "http://www.w3.org/Graphics/SVG/1.1/DTD/svg11.dtd">
<svg version="1.1" id="Layer_1" xmlns="http://www.w3.org/2000/svg" xmlns:xlink="http://www.w3.org/1999/xlink" x="0px" y="0px"
	 width="233.803px" height="202.649px" viewBox="0 0 233.803 202.649" enable-background="new 0 0 233.803 202.649"
	 xml:space="preserve">
<g>
	<polygon fill="#FFFFFF" points="225.277,189.047 11.867,186.368 13.615,14.079 225.277,11.193 	"/>
	<g>
		<path fill="#91AEB3" d="M184.206,41.335c0.653-0.36,2.203-1.31,4.145-2.512c-1.041-1.068-2.788-1.631-4.319-1.77
			c-1.922-0.174-4.194,0.611-4.544,3.845c-0.119,1.106,0.16,2.069,0.674,2.877C182.024,42.619,183.541,41.703,184.206,41.335z"/>
		<path fill="#91AEB3" d="M184.992,41.509c-0.661,0.393-2.331,1.482-4.399,2.839c1.053,1.208,2.701,1.954,4.399,2.055
			c2.971,0.175,4.281-2.884,4.281-5.417c0-0.68-0.22-1.256-0.569-1.749C186.95,40.322,185.567,41.168,184.992,41.509z"/>
	</g>
	<path fill="#91AEB3" d="M152.317,59.071l-0.088,6.902l71.99-0.874l-0.086-46.13l-73.74,1.048l0.962,28.919
		c0,0,1.224-1.571,1.922-1.66c0.699-0.087,1.661,1.398,1.661,1.398l1.047-1.66l0.146-2.038l1.107-0.379l0.291-0.263
		c0,0,1.863-1.077,2.475-1.951s1.871-1.966,2.154-2.184c0.285-0.219,0.787-0.845,1.486-0.263c0.474,0.396-0.175,0.881-0.787,1.776
		c-0.611,0.896-2.242,2.067-2.242,2.067v0.961l1.137,0.176l0.174,0.99l1.078,0.203l-0.263,0.962l1.224,0.437l-1.34,1.951
		l-1.602,0.814l-1.457,0.583l-0.699,1.048l1.399,0.875l-0.612,1.834L152.317,59.071z M174.856,54.964
		c-0.523-0.262-1.223-0.437-1.135-0.873c0,0,2.883,0.785,2.883,1.223C176.604,55.75,175.382,55.226,174.856,54.964z M181.41,57.412
		c-0.786,0-1.66-0.176-1.66-0.525c0,0,3.058-0.087,3.146,0.35C182.981,57.673,182.196,57.412,181.41,57.412z M188.962,57.304
		c-0.773,0.139-1.664,0.121-1.725-0.225c0,0,2.994-0.623,3.156-0.208C190.557,57.285,189.737,57.167,188.962,57.304z
		 M196.351,54.441c-0.787,0.785-1.224,0.96-1.574,0.785c0,0,1.836-2.096,2.272-1.922C197.485,53.48,197.136,53.654,196.351,54.441z
		 M199.059,49.898c-0.351-0.088,0.087-0.787,0.349-1.486s0.158-1.434,0.438-1.223C200.194,47.451,199.407,49.984,199.059,49.898z
		 M200.544,36.792c-0.438,0-0.35-0.873-0.611-1.486c-0.264-0.611-1.128-1.049-0.699-1.135
		C199.669,34.083,200.98,36.792,200.544,36.792z M201.505,41.248c-0.088,0.787,0.174,2.097-0.524,2.01c0,0-0.175-3.582,0.175-3.582
		S201.592,40.461,201.505,41.248z M195.728,30.502c0.395-0.188,2.275,1.681,2.036,1.952c-0.239,0.269-0.655-0.443-1.155-0.999
		C196.11,30.9,195.412,30.654,195.728,30.502z M192.855,28.841c-0.175,0.35-1.136-0.262-1.311-0.262s-1.276-0.188-1.136-0.611
		C190.497,27.706,193.03,28.493,192.855,28.841z M185.778,27.531c0,0.438-0.35,0.262-1.311,0.35s-1.223,0.262-1.223-0.175
		C183.245,27.443,185.778,27.094,185.778,27.531z M176.692,29.104c0.35,0.437-0.35,0.523-0.961,0.786
		c-0.611,0.262-0.842,0.592-1.311,0.438C174.157,30.24,176.343,28.667,176.692,29.104z M170.052,31.288
		c1.844,0,3.67,1.485,3.758,2.622c0.086,1.135-1.049,2.971-2.797,2.971c-1.747,0-2.971-1.225-3.232-2.621
		C167.519,32.861,168.654,31.288,170.052,31.288z M169.091,38.19c-0.088,0.524,0.088,1.224-0.35,1.136
		c-0.437-0.088,0.262-2.185,0.524-2.01C169.591,37.533,169.179,37.666,169.091,38.19z M168.218,42.996
		c0.087,0.873,0.699,1.572,0.175,1.572s-0.786-3.232-0.437-3.232C168.479,41.335,168.13,42.122,168.218,42.996z M170.138,50.239
		c-0.395-0.702-0.688-1.444-0.529-1.513c0.457-0.195,0.475,0.568,0.838,1.302c2.553-1.727,6.104-3.999,9.008-5.812
		c-0.502-0.874-0.812-1.899-0.84-3.055c-0.088-3.495,2.271-5.067,5.154-5.155c2.193-0.066,4.329,0.696,5.59,2.193
		c5.584-3.468,13.448-8.404,13.631-8.221c0.188,0.187-7.824,5.246-13.304,8.65c0.458,0.688,0.762,1.496,0.812,2.444
		c0.174,3.407-2.01,6.028-5.68,6.028c-2.16,0-3.878-0.862-4.958-2.272c-2.907,1.903-6.408,4.19-9.013,5.798
		c0.401,0.464,0.809,0.739,0.438,0.896c-0.171,0.074-0.474-0.247-0.776-0.689c-1.955,1.197-3.334,1.957-3.427,1.772
		C167.003,52.451,168.267,51.51,170.138,50.239z"/>
	<path fill="#91AEB3" d="M170.664,36.005c1.397,0.176,2.358-1.048,2.271-2.096c-0.088-1.049-2.009-1.573-3.058-1.573
		c-0.525,0-1.398,0.786-1.224,1.835C168.829,35.219,169.266,35.832,170.664,36.005z"/>
	<path fill="#91AEB3" d="M136.153,136.42c0,0-3.262-2.797-10.484-2.098c-7.222,0.699-9.784,0.931-13.745-1.398
		c-3.961-2.329-9.086-4.658-9.086-4.658l-0.408-12.844l13.018-0.438l0.175,7.951c0,0-2.534,1.252-2.534,3.583
		c0,2.329,1.572,4.6,4.369,3.668c2.795-0.93,2.969-2.184,2.969-2.184l2.709-2.009l-0.087-1.398l1.456-0.99l-0.466-7.688l2.911,0.117
		l0.292,6.639l0.961,0.436c0,0-2.358,1.195-2.358,4.224c0,3.027,3.582,3.204,5.592,2.505c2.008-0.699,4.018-4.98,4.018-4.98
		l1.631,11.329"/>
	<path fill="#91AEB3" d="M96.082,124.074c0,0-2.796-1.398-5.825-1.398c-3.029,0-4.776-0.525-4.776-0.525v-2.009l-1.922-1.137
		l-3.582-4.105l15.988,0.349L96.082,124.074z"/>
	<path fill="#91AEB3" d="M58.338,126.403c0,0-7.456,1.165-13.979-1.63c-6.523-2.796-12.114-1.865-16.076-3.263
		c-3.961-1.398-10.251-6.058-12.348-6.058s-2.097,0-2.097,0l44.499-0.465V126.403z"/>
	<polyline fill="#91AEB3" points="60.96,173.521 61.309,176.435 62.999,176.495 64.046,174.512 60.96,173.521 	"/>
	<path fill="#91AEB3" d="M66.027,176.26c0,0,4.659,0.234,7.92,0c3.263-0.232,3.263-0.232,3.263-0.232l1.164-1.633
		c0,0-4.427,1.163-7.339,0.932c-2.912-0.229-4.775-0.582-4.775-0.582L66.027,176.26"/>
	<path fill="#91AEB3" d="M80.705,175.795c0,0,2.795-0.468,4.659-0.934c1.864-0.467,1.632-3.261,1.632-3.261
		s-0.933,0.465-3.961,1.631c-3.029,1.166-3.029,1.166-3.029,1.166L80.705,175.795"/>
	<polyline fill="#91AEB3" points="59.504,153.429 56.707,159.134 60.669,160.185 59.504,154.36 	"/>
	<path fill="#91AEB3" d="M120.864,54.528l-0.35,2.009c0,0,1.223,0.875,2.883,0.787s2.796-0.35,2.796-0.35l-0.175-2.621
		L120.864,54.528z"/>
	<path fill="#91AEB3" d="M93.168,173.172c0,0,1.748,0.524,5.942-2.62c4.193-3.146,9.785-3.495,10.833-2.622
		c1.048,0.874,1.748,1.224,1.748,1.224l-4.893-3.67l-10.31-1.048l-4.893,2.097L93.168,173.172z"/>
	<path fill="#91AEB3" d="M201.854,172.823c0,0,0.35,0.35-4.719-0.524c-5.066-0.873-6.989-2.446-6.989-2.446l9.494-0.581
		C199.641,169.271,199.407,171.774,201.854,172.823"/>
	<polygon fill="#91AEB3" points="135.28,101.007 224.396,99.958 224.569,98.385 135.454,98.037 	"/>
	<path fill="#91AEB3" d="M121.126,84.757c0,0,1.398,0,3.32-0.176c1.922-0.175,2.971-0.35,2.971-0.35l0.35-1.747l-6.203-0.698
		L121.126,84.757"/>
	<path fill="#91AEB3" d="M209.426,175.446c0,0,2.214,2.793,4.659,2.793c2.447,0,5.068-1.048,5.068-1.048l-0.176-1.979
		c0,0-3.494,0.757-5.766,0.757S209.426,175.446,209.426,175.446"/>
	<polyline fill="#91AEB3" points="221.948,176.318 224.045,175.269 224.337,174.164 222.124,174.63 222.124,175.793 	"/>
	<path fill="#91AEB3" d="M90.897,175.443c0,0-2.621,4.194-5.766,5.242c-3.146,1.05-4.019,1.398-4.019,1.398v-3.146L90.897,175.443z"
		/>
	<path fill="#91AEB3" d="M78.841,182.083c0,0-3.844,0.699-6.465,0.523c-2.622-0.175-5.767-0.872-5.767-0.872l-0.233-1.397
		l11.765-1.05L78.841,182.083"/>
	<polygon points="8.957,12.591 9.656,185.229 14.897,186.976 12.8,16.436 223.521,10.844 223.87,186.625 10.004,183.482 
		9.306,188.024 225.618,190.122 225.618,8.398 	"/>
	<path d="M95.382,126.868l-0.232-18.64c0,0-2.548-1.458-4.311-2.064c-1.689-0.583-3.291-0.847-3.378-1.283
		c-0.087-0.435,0-1.078,1.865-1.776c1.864-0.7,5.591,0.931,5.591,0.931l0.088,0.292c0,0-0.605,0.144-1.602-0.086
		c-1.409-0.322-3.436-0.984-4.223-0.379c-1.136,0.874-0.437,0.96-0.437,0.96s7.266,2.198,7.615,2.913
		c0.35,0.714,0.655,19.133,0.655,19.133H95.382z"/>
	<path d="M93.897,103.92c0,0-3.35-9.466-3.699-10.602c-0.35-1.136-0.35-1.659,0.698-2.01c1.049-0.35,1.922,0.524,2.447,2.446
		c0.524,1.923,2.708,5.941,2.708,5.941s-0.029,0.847-0.321,0.875c-0.725,0.07-2.213-5.331-2.912-6.729
		c-0.699-1.398-1.747-2.01-1.922-1.049c-0.174,0.961,4.107,11.532,4.107,11.532L93.897,103.92z"/>
	<path d="M95.44,99.521c0,0,0.262-7.688,0.175-8.911c-0.087-1.223,0.087-2.184,1.048-2.184s2.185,1.66,2.097,2.621
		c-0.087,0.961-0.174,1.571-0.087,2.184c0.087,0.612,0.175,5.242,0.175,5.242l-0.35,1.573c0,0-0.524-2.446-0.524-4.02
		c0-1.572,0.495-4.279,0.059-5.328c-0.437-1.048-1.02-1.486-1.456-1.225c-0.438,0.263-0.524,10.223-0.524,10.223l-0.204,0.525
		L95.44,99.521z"/>
	<path d="M99.343,98.795c0,0,1.281-5.068,1.485-6.495s0.699-2.533,1.748-2.3c1.048,0.234,1.486,1.398,1.195,2.418
		c-0.292,1.018-1.048,6.115-1.078,6.465c-0.029,0.35-0.175,1.105-0.175,1.105s-0.64,0.844-0.494-0.874s0.96-5.795,1.078-6.843
		c0.116-1.048-1.049-2.358-1.399-1.34c-0.349,1.019-1.485,6.755-1.748,7.57C99.692,99.319,99.022,99.903,99.343,98.795z"/>
	<path d="M103.187,100.369c0,0,1.369-2.302,2.243-3.613c0.874-1.31,1.631-2.357,2.213-2.125c0.582,0.233,1.398,1.107,0.67,2.097
		c-0.729,0.99-0.961,2.038-1.311,2.359c-0.349,0.321-1.717,2.942-1.892,3.232c-0.175,0.29-1.282,1.689-1.34,2.097
		c-0.058,0.408-0.583,1.223-0.816,1.923c-0.232,0.698-1.136,1.251-1.136,1.251s-0.349,0,0.175-0.873
		c0.524-0.874,1.107-2.563,1.224-2.884c0.116-0.319,1.281-1.774,1.689-2.504c0.408-0.728,2.738-4.573,2.913-5.125
		c0.174-0.553-0.205-1.457-0.816-0.524c-0.611,0.933-3.173,4.951-3.552,5.067C103.071,100.862,102.489,101.125,103.187,100.369z"/>
	<path d="M99.78,98.853c0,0-0.379,1.193-0.903,1.223c-0.524,0.03-0.408-0.087-0.495-0.786c-0.087-0.698-0.118-1.019,0.116-1.019
		s0.35,0.553,0.554,0.553c0.205,0,0.495-0.465,0.669-0.436C99.896,98.417,99.867,98.591,99.78,98.853z"/>
	<path d="M102.342,99.057c0.204-0.032,0.263,1.049,0.466,1.165c0.203,0.116,0.787-0.407,0.99-0.291
		c0.204,0.117-0.437,1.368-1.34,0.815C101.556,100.193,102.168,99.086,102.342,99.057z"/>
	<path d="M103.129,130.538c0,0-0.612-19.047-0.787-20.793c-0.174-1.748,0.029-2.387,0.205-2.824
		c0.175-0.437-0.874-0.089-0.874,0.523s0.232,21.782,0.232,21.782L103.129,130.538z"/>
	<path d="M92.819,126.344c0,0,3.145-0.612,7.426,1.397c4.281,2.009,6.64,8.3,6.64,8.3l-1.223,2.009c0,0-1.128-7.469-8.212-8.824
		c-5.622-1.076-6.203-0.436-6.203-0.436L92.819,126.344z"/>
	<path d="M83.297,119.004c0.076,0.612,2.271,1.048,1.834,2.185c-0.437,1.136-0.612,0.786-0.612,1.312
		c0,0.523,1.922-0.088,1.485-1.923C85.568,118.743,83.209,118.305,83.297,119.004z"/>
	<path d="M91.364,128.588c-1.792,3.133-1.734,3.13-4.136,5.53c-2.271,2.272-5.067,4.544-6.116,5.155s-1.748,3.408-1.136,3.495
		c0.611,0.087,0.787-2.884,2.534-3.495c1.748-0.611,5.591-2.795,6.465-3.932c0.874-1.135,4.63-7.339,4.63-7.339L91.364,128.588z"/>
	<path d="M78.579,139.71c0,0-1.747-7.163-0.611-7.513c1.136-0.351,0.699,0.873,0.611,1.921c-0.087,1.049,1.136,5.33,1.136,5.33
		L78.579,139.71z"/>
	<path d="M85.043,127.042c-0.524,0.35,1.049,2.971-0.087,3.844c-1.136,0.874-3.233,2.098-4.544,2.098
		c-1.31,0-2.097,0.087-2.097,0.087l-0.087,1.398c0,0,3.669-0.088,5.417-0.962c1.748-0.874,3.058-2.708,2.621-4.368
		c-0.436-1.66-0.611-2.708-1.135-2.446"/>
	<path d="M105.75,135.954c0,0-2.272,5.417-7.339,8.912c-5.067,3.494-9.086,8.911-10.135,9.61c-1.048,0.699-0.349,3.145-0.349,3.145
		s-0.175-1.047,1.572-2.271c1.748-1.223,8.912-8.387,11.882-11.882s5.504-7.426,5.504-7.426L105.75,135.954z"/>
	<path d="M89.5,155.349c0,0,0,8.737,1.048,11.533s1.398,5.416,1.048,6.639c-0.349,1.224-0.174,1.049-3.495,2.272
		c-3.32,1.222-7.338,2.271-7.338,2.271l0.349,1.572c0,0,5.067-2.098,7.688-2.971c2.622-0.873,6.116-1.049,4.892-4.368
		c-1.223-3.319-2.97-18.348-2.97-18.348L89.5,155.349z"/>
	<path d="M79.015,138.75c0,0-1.398,1.922-4.718,1.922s-6.814-1.05-6.989-0.176c-0.175,0.874,4.02,1.748,7.513,1.486
		c3.495-0.263,5.942-2.272,5.942-2.272L79.015,138.75z"/>
	<polygon points="69.318,140.934 67.657,134.381 68.619,133.595 70.279,141.197 	"/>
	<path d="M63.027,105.725c-8.387,4.193-8.387,10.658-7.601,13.63c0.786,2.97-0.262,5.241-0.262,5.241l1.747,0.35
		c0,0,0.699,0.786,0.961,2.271c0.262,1.486,0.087,2.797,0.087,2.797s0.874-0.525,2.272,0.698c1.398,1.225,2.708,4.369,2.708,4.369
		l1.834-1.573l1.748,2.01l2.271-1.398l2.534,0.524l1.395-1.492l1.836-0.43l0.525-2.097l2.009-0.611c0,0-0.087-2.097-0.087-2.709
		c0-0.611,1.135-1.484,1.135-1.484s-2.796-3.495-2.446-4.981c0.35-1.483,1.922-2.882,1.922-2.882l1.311,1.572l0.349-0.698
		c0,0-1.747-3.758-0.961-4.718c0.787-0.962,1.748-0.263,1.748-0.263l1.223-1.136l1.397-0.524l-2.184-2.534l0.611-1.484
		c0,0-1.922-0.786-4.456-2.271C74.123,104.414,69.667,102.404,63.027,105.725z"/>
	<path d="M81.054,116.093c0.698-0.031,0.932,0.29,0.932,0.901c0,0.612-0.35,0.933-0.787,0.933c-0.436,0-0.844-0.495-0.844-0.933
		C80.355,116.558,80.414,116.123,81.054,116.093z"/>
	<path d="M55.426,165.542c0.103-2.679-0.583-6.989,1.281-6.407c1.864,0.583,7.573,2.68,11.649,2.447
		c4.077-0.233,10.368-0.583,12.813-2.097c2.447-1.514,3.729-0.815,4.311,1.282c0.583,2.096,1.282,6.64,1.515,7.804
		c0.232,1.164,1.747,2.562,1.048-2.097c-0.699-4.66-1.747-9.438-3.961-9.319c-2.213,0.117-6.523,3.262-14.678,3.028
		c-8.154-0.232-11.648-2.446-13.163-2.446c-1.514,0-2.33,3.495-1.98,7.339C54.611,168.919,55.31,168.569,55.426,165.542z"/>
	<path d="M70.803,173.814c5.951,0,11.998-0.702,13.862-1.982c1.864-1.279,2.447-1.514,2.331-3.261
		c-0.117-1.748,0.699-2.213,1.28-0.466c0.583,1.747,0.116,3.729-2.562,4.544c-2.679,0.814-9.203,2.678-14.678,2.678
		s-13.396-1.98-14.794-3.378c-1.397-1.396-1.98-1.283-2.213-5.709s1.165-2.212,1.398-0.115s0.117,4.193,2.213,5.241
		C59.737,172.415,62.066,173.814,70.803,173.814z"/>
	<polygon points="77.21,174.626 78.375,185.459 79.423,185.696 78.375,174.395 	"/>
	<polygon points="79.889,173.814 80.821,185.346 81.752,185.578 80.705,173.229 	"/>
	<polygon points="63.114,174.512 63.348,185.928 64.396,186.044 64.046,174.512 	"/>
	<polygon points="65.561,174.862 65.793,185.111 66.842,185.229 66.26,174.745 	"/>
	<path d="M77.909,178.182c0,0-1.689,0.815-5.883,0.931c-4.194,0.117-5.999-0.293-5.999-0.293l0.349,1.518l11.823-0.408
		L77.909,178.182z"/>
	<path d="M60.96,173.521c0,0,0.349,1.516,0.349,2.914c0,1.397-0.175,2.388,0.524,2.388s1.747,0.059,1.747,0.059l0.233,1.687
		c0,0-1.748-0.117-2.796-0.349c-1.048-0.232-0.814-1.281-0.932-3.261c-0.117-1.981,0.233-3.495,0.233-3.495L60.96,173.521z"/>
	<path d="M68.589,137.702c0,0-2.446-0.001-5.708,1.164c-3.262,1.165-7.805,8.038-7.921,9.785
		c-0.116,1.747-1.864,11.183-1.864,11.183l1.281,1.632l0.35-1.164l-0.466-1.398c0,0,0.699-11.183,5.009-15.261
		c4.311-4.078,6.757-4.542,7.688-4.659c0.932-0.117,2.097-0.117,2.097-0.117L68.589,137.702z"/>
	<path d="M59.387,159.485l-0.117-7.455c0,0,1.048-1.282,0.932,0c-0.116,1.282,1.049,7.337,2.331,7.804
		c1.281,0.468,1.747,0.699,1.747,0.699L59.387,159.485z"/>
	<polygon points="57.29,172.182 58.571,184.297 57.523,185.229 56.242,171.949 	"/>
	<path d="M62.416,180.337c0,0,0,2.33,0.698,2.794c0.699,0.468,0.699,0.468,0.699,0.468v1.515c0,0-0.932,0.009-1.748-1.398
		c-0.427-0.736-0.728-2.375-1.048-3.496C60.086,176.958,62.416,180.337,62.416,180.337z"/>
	<path d="M91.422,185.229c0,0,4.019-1.049,7.688-3.845c3.669-2.796,4.717-3.845,5.417-2.971s-1.398,2.971-1.398,2.971l1.049,5.241
		L91.422,185.229z"/>
	<path d="M91.072,159.542c0,0,19.395,1.748,21.493,0.351c2.096-1.398,13.454-19.57,12.755-20.271
		c-0.699-0.697-20.444-1.572-20.444-1.572l1.398-1.223c0,0,17.998,1.223,19.744,1.223c1.748,0,1.574,1.572,0,4.369
		c-1.572,2.796-11.881,18.348-12.58,18.871c-0.699,0.523-21.667-0.175-21.667-0.175L91.072,159.542z"/>
	<path d="M126.543,141.197c0,0,2.796,9.085-1.747,16.25c-4.543,7.163-8.212,8.562-15.726,8.387s-16.949-0.35-16.949-0.35
		l-0.699-1.572c0,0,15.725,0.698,19.57,0.524c3.844-0.175,13.281-5.941,14.329-11.882c1.048-5.941-1.048-7.339-1.048-7.339
		L126.543,141.197z"/>
	<path d="M119.729,161.291c0,0-1.747,0.874-3.844,1.224c-2.097,0.349-2.272-1.398-3.32-1.573c-0.466-0.076-1.923,0.175-1.923,0.175
		s3.394,3.359,5.243,2.971C119.204,163.388,119.729,161.291,119.729,161.291z"/>
	<path d="M105.4,165.659c0,0,5.067,1.573,6.116,4.894c1.049,3.318,3.145,11.706,2.446,12.93c-0.699,1.222,0,2.446,0,2.446
		l2.971,0.872c0,0-2.272-12.056-2.796-14.327c-0.524-2.271-2.446-7.513-4.368-7.513c-1.923,0-5.067,0-5.067,0L105.4,165.659z"/>
	<path d="M98.76,165.135c0,0-1.748,0.873-4.019,1.573c-2.272,0.698-2.272,1.571-2.272,1.571l-0.349-2.796L98.76,165.135z"/>
	<polygon points="123.223,159.717 125.32,186.625 126.368,186.102 123.923,157.971 	"/>
	<polygon points="125.845,156.049 128.466,185.928 127.067,185.928 124.796,156.398 	"/>
	<path d="M184.963,66.644c-4.193,0-6.873,2.912-6.873,7.572c0,4.658,3.495,6.988,7.339,6.988c3.845,0,7.572-2.679,7.572-6.523
		C193.001,70.837,190.321,66.644,184.963,66.644z M185.45,79.89c-3.152,0-6.017-1.907-6.017-5.728c0-3.819,2.196-6.206,5.634-6.206
		c4.393,0,6.59,3.437,6.59,6.59C191.657,77.697,188.602,79.89,185.45,79.89z"/>
	<path d="M55.776,114.753c0,0-39.957-0.115-39.84,0.699c0.117,0.815,39.84,0.466,39.84,0.466V114.753z"/>
	<path d="M95.382,114.638c0,0-8.038,0-9.902,0s-2.213,1.166-0.466,1.048c1.747-0.117,10.484,0.116,10.484,0.116L95.382,114.638z"/>
	<polygon points="102.372,114.87 114.836,114.404 115.069,115.453 102.372,115.686 	"/>
	<polygon points="27.643,115.51 24.499,21.677 80.239,20.804 82.161,111.841 81.112,110.966 79.19,22.726 26.77,22.433 
		30.439,114.693 	"/>
	<polygon points="33.177,60.236 31.313,28.667 72.085,28.319 73.832,58.837 72.55,58.957 71.036,29.6 32.246,29.833 33.875,58.139 
		73.263,56.755 73.832,58.955 	"/>
	<path d="M73.366,66.062c-1.515,0-2.563,0.464-2.563,2.795c0,2.33,2.214,3.494,3.496,3.494c1.281,0,2.679-0.932,2.679-2.679
		C76.977,67.924,76.278,66.062,73.366,66.062z M74.415,71.419c-1.281,0-2.563-0.232-2.795-2.213c-0.233-1.98,0.697-2.098,1.979-2.33
		c1.952-0.355,3.029,1.28,2.68,2.213C75.929,70.021,75.695,71.419,74.415,71.419z"/>
	<path d="M102.139,142.128l12.464,0.933l-5.824,10.948l-0.117,1.283c0,0-2.33-0.815-3.146-1.164
		c-0.815-0.351-10.717-0.933-10.717-0.933l-1.165-1.863l-1.048,0.931l1.048,1.515c0,0,8.854,0.582,10.601,0.932
		s5.242,1.281,5.242,1.281s0.466-2.328,1.398-4.309c0.932-1.981,5.824-9.32,5.824-9.32l-13.746-1.398L102.139,142.128z"/>
	<path d="M120.165,43.869c0.509,0.127,0,1.136,0,1.748c0,0.611,1.311,0.873,1.66,0.961c0.35,0.087,1.049,0.873-0.088,0.873
		c-1.25,0-2.533-0.35-2.358-1.572S119.815,43.781,120.165,43.869z"/>
	<path d="M132.047,40.025c-0.094,0.516,1.748,0.874,1.661,2.971c-0.088,2.096-1.748,2.096-1.748,2.533s2.971-0.524,2.796-2.621
		S132.222,39.064,132.047,40.025z"/>
	<path d="M114.224,40.375c-0.086,0.78-0.698,1.311-0.611,2.271c0.087,0.96,1.048,0.96,0.961,1.66
		c-0.087,0.698-1.66,0.087-1.66-1.572C112.914,41.073,114.312,39.587,114.224,40.375z"/>
	<path d="M132.222,45.703c0.088-0.523-0.437-0.26-0.262-0.785c0.176-0.524,0-0.699-0.262-1.312c-0.262-0.61-0.088-2.358,0.174-2.882
		c0.264-0.524,0.525-1.225,0.175-1.836c-0.349-0.611-0.175-0.873-0.175-0.873s-0.35-0.438-0.873-0.611
		c-0.523-0.176-0.088-0.35-0.262-0.873c-0.176-0.525-0.787-0.875-0.787-0.875s0-0.698-0.611-1.484
		c-0.611-0.787-2.971-1.572-2.971-1.572s-1.135-1.137-2.795-1.225c-1.66-0.087-2.796,0.611-2.796,0.611s-1.575-0.771-4.369,1.225
		c-2.446,1.747-2.941,2.621-2.33,3.145c0.612,0.525,2.275,1.387,3.99,1.311c1.952-0.088,1.835-0.088,2.446-0.35
		s0.699-0.175,1.049,0.174c0.35,0.35,2.097,0,3.494-0.436c1.398-0.437,2.709-0.611,2.709-0.611c0.175-0.438,0.785,0,1.136,0.175
		c0.349,0.175,0.698,0.437,1.136,0.96s0.438,1.137,0.262,1.486c-0.174,0.35-0.174,0.699,0.262,1.136c0.438,0.437,0,1.31,0.438,1.396
		c0.438,0.089-0.175,0.787-0.175,0.787l-0.087,1.31c0,0-0.438,0.525-0.525,0.875c-0.086,0.35-0.349,0.523-0.349,0.786
		s0.263,0.612,0.263,0.612s0,1.31-0.35,1.658c-0.35,0.35-0.088,0.875-0.088,0.875l-0.699,0.699c0,0-0.611-0.524-0.873-0.699
		c-0.262-0.174-0.523,0.437-0.523,0.437l-1.05,0.263h-0.786c0,0-0.699,0-1.049,0c-0.349,0-0.961-0.263-1.311-0.35
		c-0.349-0.088-0.437,0-0.785,0.174c-0.35,0.176-0.787,0.263-1.137,0.088s-1.311-0.088-1.311-0.088s-1.223,0.438-1.397,0.875
		c-0.175,0.436-0.874,0-1.136-0.176c-0.262-0.174-1.397-0.088-1.397-0.088s0.35,0.35,0.437,0.962
		c0.087,0.612,0.087,1.136,0.087,1.136l0.7,0.35c0,0,0.087,0.437,0.174,0.874c0.088,0.436,0.7,0.961,1.223,0.612
		c0.524-0.351,0.524,0.086,0.699,0.61s1.311,0.35,1.311,0.35l0.787,0.698c0,0,0.523,0.699,0.961,0.088
		c0.437-0.611-0.262,0.174,1.223,0.087c1.485-0.087,1.311,0.524,1.311,0.524s0.438-0.35,0.611-0.611
		c0.175-0.262-0.174-0.699,0.873-0.262c1.05,0.436,0.35-0.35,0.875-0.438c0.523-0.087,0.175-0.523,0.698-1.135
		c0.524-0.612,1.136-0.524,1.048-0.874c-0.086-0.351,0.088-0.612,0.787-1.137c0.699-0.523,1.223-2.708,1.223-3.058
		c0-0.349-0.175-0.961,0.262-1.311C131.96,46.752,132.136,46.228,132.222,45.703z M121.913,51.994c-0.612,0-0.699,0-0.699-0.436
		c0-0.525,1.835-0.264,1.747,0.174C122.874,52.169,122.524,51.994,121.913,51.994z"/>
	<path d="M114.487,36.296c0,0-0.466,0.408-0.699,0.932c-0.232,0.524-0.175,1.107-0.175,1.107s0.524,1.572,0.524,2.039
		c0,0.465,0.292,1.105,0,1.339c-0.292,0.233-0.642,0.7-0.175,0.991s0.349,1.514,0.349,1.514s0.116,0.64,0.233,1.048
		c0.117,0.409-0.874,0.468-0.523,0.933c0.349,0.466,0.232,0.465,0,1.281c-0.233,0.816,0.32,0.757,0.844,1.106
		s0.757,0.933,0.757,0.933s0.436,0.349,0.32,0.873c-0.116,0.525-0.291,0.698,0.234,0.932c0.524,0.234,0.523,0.291,0.814,0.758
		c0.292,0.465,0.583,0.465,0.583,0.465l0.524-0.641c0,0-0.815-1.629-0.99-1.746c-0.174-0.117-0.698-0.641-0.814-1.164
		c-0.117-0.525,0-1.398-0.292-1.398c-0.292,0-0.467-1.048-0.467-1.281s-0.582,0.116-0.29-0.582c0.29-0.699,0.232-0.932,0.058-1.515
		c-0.175-0.582-0.699-0.989-0.35-1.397s0-0.351,0-0.991c0-0.64-0.583-1.808-0.233-2.039c0.349-0.232,0.989-0.874,0.699-1.224
		c-0.292-0.35-0.292-0.232,0.408-0.467c0.699-0.232,1.166,0.292,1.223-0.406c0.058-0.699-0.991-1.28-0.991-1.28L114.487,36.296z"/>
	<path d="M124.389,38.101c-1.282-0.057-2.854,1.166-2.796,2.682c0.059,1.515,1.456,2.271,3.203,2.271s2.854-1.107,2.738-2.621
		C127.417,38.919,126.193,38.186,124.389,38.101z M124.446,42.413c-1.105-0.058-2.33-0.757-2.271-1.805
		c0.059-1.049,0.758-1.806,2.039-1.806c1.164,0,2.447,0.639,2.504,1.747C126.776,41.656,125.554,42.47,124.446,42.413z"/>
	<path d="M117.107,38.101c-1.921,0.234-2.155,1.574-2.097,2.913s0.874,2.272,2.563,2.214c1.689-0.057,2.621-1.281,2.562-2.854
		S118.958,37.876,117.107,38.101z M117.749,42.179c-1.224,0-1.98-0.465-1.923-1.571c0.059-1.108,0.641-1.747,1.573-1.747
		c1.398,0,1.98,0.872,1.98,1.688C119.379,41.363,118.972,42.179,117.749,42.179z"/>
	<path d="M122.175,39.908c0,0-0.582-0.175-1.281-0.175s-1.107,0.233-1.107,0.233l0.117,0.642c0,0,0.466-0.292,1.049-0.292
		c0.582,0,0.932,0.233,0.932,0.233L122.175,39.908z"/>
	<polygon points="127.067,40.2 131.61,39.5 131.437,40.375 127.242,41.073 	"/>
	<path d="M125.583,54.964l2.01,30.229c0,0,3.057,0.786,4.892,0.437c1.835-0.349,3.845-0.961,3.845-0.961s0.698-4.979-0.088-6.291
		c-0.787-1.311-1.049-4.63-1.311-7.426c-0.263-2.796,0.174-4.893,0.174-4.893l0.176-2.709c0,0,0.174-1.746-0.612-2.008
		s-0.349,0.697-1.224,0.436c-0.873-0.263-1.484-0.697-1.484-0.697s0.611,1.396,1.223,1.658c0.612,0.262,0.875,0.875,0.875,0.875
		s1.484,17.56,1.484,18.783c0,1.223-0.088,1.572-0.088,1.572s-1.396,0.699-3.318,0.787c-1.924,0.086-3.933-0.438-3.933-0.438
		s-0.087-12.668-0.262-14.59s-1.661-15.027-1.661-15.027L125.583,54.964z"/>
	<path d="M127.767,73.662c0,0,0.523-3.67,1.136-5.854c0.611-2.186,0.698-1.398,0.698-2.621c0-0.525-1.311-1.398-1.311-2.272
		s2.534-2.446,2.621-3.407c0.088-0.961-3.318-5.766-3.318-5.766l0.61-1.311c0,0,3.669,6.988,3.669,7.601
		c0,0.611-2.445,2.446-2.445,3.232s1.135,0.612,1.311,1.573c0.071,0.395-0.641,1.514-1.224,3.407
		c-0.836,2.713-1.659,6.378-1.659,6.378L127.767,73.662z"/>
	<path d="M129.165,54.265c0,0,1.834-1.223,2.271-1.484c0.436-0.263,1.659-0.787,2.445-0.611c0.786,0.174,2.359,0.698,2.971,1.048
		c0.611,0.351,0.699-0.175,1.572-0.262c0.874-0.088,1.224,0.786,1.836,1.136c0.611,0.35,0.785-0.088,1.397-0.523
		c0.61-0.438,0.61-0.264,1.048,0c0.438,0.26,0.438,0.349,1.748,0.349s2.01,0.698,2.01,0.698s-0.438,0.523-0.438,0.786
		s1.311-1.31,2.621-2.97c1.31-1.66,5.066-5.242,5.066-5.242l-0.698-0.699l-6.028,7.078c0,0-0.961-0.525-1.748-0.525
		c-0.785,0-2.009,0.262-2.445-0.262c-0.438-0.525-1.311,0.175-2.359-0.088c-1.049-0.262-2.359-0.611-2.795-0.35
		c-0.438,0.263-1.225-0.174-2.272-0.523c-1.048-0.351-2.883-0.438-3.146-0.351c-0.262,0.089-2.184,0-2.184,0l-1.66,1.486
		L129.165,54.265z"/>
	<path d="M134.668,61.691c0,0,2.708,0.438,4.718,0.262c2.01-0.174,3.496-0.174,4.456,0.088c0.961,0.262,2.097,0.787,3.407-0.35
		c1.311-1.135,9.61-5.591,9.61-5.591s2.009-0.786,2.534-2.009c0.523-1.224,0.874-1.311,0.874-1.311s-2.709-0.961-4.194-2.447
		c-1.484-1.484-2.445-3.058-2.796-3.058c-0.349,0-0.786-0.698-0.262-0.786c0.524-0.087,1.224-0.174,1.835,0.875
		c0.611,1.047,3.669,4.018,4.979,4.455c1.311,0.436,1.485,1.136,1.485,1.136s0,0.524-0.699,1.223s-5.766,4.019-8.125,5.241
		c-1.977,1.026-3.932,2.097-4.893,2.709c-0.961,0.611-0.961,0.786-1.572,0.786s-1.486,0-3.232,0c-1.748,0-3.232-0.262-4.543,0.087
		c-1.311,0.35-1.66,0-2.272-0.087c-0.611-0.087-1.136-0.087-1.136-0.087L134.668,61.691z"/>
	<path d="M120.864,54.528c0,0,0.088,9.697,0.175,13.28c0.087,3.582,0.612,14.764,0.612,15.376s-0.088,2.446-0.088,2.446
		s0,0.523-2.01,0.699c-2.009,0.174-2.533,0.436-4.106,0.174s-2.534-0.087-2.447-3.407c0.088-3.319,0.874-5.591,0.787-8.038
		c-0.087-2.445-0.96-5.678-0.612-7.163c0.35-1.485,0.263-4.368,0.175-6.116c-0.088-1.747-0.612-3.232-0.175-3.232
		c0.437,0,0.874,5.679,1.048,7.164c0.175,1.486-0.349,2.708-0.349,3.932c0,1.223,1.136,5.678,0.786,7.776
		c-0.35,2.097-0.524,4.63-0.612,5.766c-0.087,1.136-0.698,2.622,1.573,2.534c2.271-0.088,4.892-0.175,5.242-0.263
		s-0.523-5.329-0.611-7.514c-0.088-2.184-0.088-10.397-0.175-12.493c-0.087-2.098,0.175-11.707,0.175-11.707L120.864,54.528z"/>
	<path d="M127.767,82.485c0,0-1.922,0.263-3.059,0.525c-1.135,0.262-1.572,0-2.184-0.088c-0.611-0.089-1.137-0.263-1.137-0.263
		l-0.349-2.709v-2.009c0,0,1.835-0.437,1.659,0.612c-0.174,1.047-1.047,1.922-1.047,1.922l-0.088,1.311c0,0,0.262,0.437,1.485-0.175
		s1.747-0.35,2.796-0.175c1.048,0.175,1.572-0.175,1.572-0.175L127.767,82.485z"/>
	<path d="M116.758,51.732c0,0-5.591,1.659-6.814,2.621c-1.223,0.961-1.311,2.097-1.223,3.582c0.087,1.484-0.175,10.921-0.787,14.765
		c-0.611,3.845-1.922,7.776-1.659,8.212c0.262,0.438,1.907-0.318,2.65,0.846c0.874,1.369,4.688,0.902,4.688,0.902l0.35-0.961
		c0,0-2.097-1.049-3.582-0.961c-1.485,0.087-1.748,0.174-2.621-0.35c-0.874-0.523,1.573-9.872,1.66-11.271
		c0.087-1.397-1.048-2.358-0.35-3.495c0.699-1.135,0.437-3.67,0.35-5.504s-0.087-3.582,0.786-4.543s4.456-2.096,4.456-2.096
		l2.796-1.398L116.758,51.732z"/>
	<path d="M114.836,86.098c0,0-0.349,7.222-0.582,11.415s0.349,5.824,0,6.757c-0.35,0.932-0.816,1.514-0.233,2.212
		c0.582,0.699,0.349,1.166,0.116,1.865s0.466,2.562,0.699,3.961c0.233,1.397,0.117,10.832,0.117,10.832s1.63,0.466,3.611,0.816
		c1.98,0.349,1.863,1.163,3.494,1.048c1.632-0.116,2.447-1.398,2.447-1.398s-0.467-7.688-0.699-11.998
		c-0.232-4.31,0.583-11.997,0.583-11.997s0.466-3.495,0-4.077c-0.466-0.584-1.632,6.407-1.632,7.921s0.582,4.893,0.35,6.29
		c-0.232,1.398,1.05,2.331,0.234,2.798c-0.816,0.464,0.232,10.482,0.232,10.482s-0.584,1.049-2.215,0.815
		c-1.63-0.234-4.426-1.63-4.892-1.514s-0.465-1.165-0.582-3.146c-0.117-1.981-0.001-5.591-0.117-6.873s-1.281-2.33-0.932-3.146
		c0.35-0.814,1.282-1.98,0.932-2.795c-0.349-0.815-1.514-0.698-0.582-1.515c0.932-0.815,0.349-3.494,0.349-5.476
		c0-1.979,0.35-13.046,0.35-13.046L114.836,86.098z"/>
	<path d="M108.254,81.147c0,0,0.291,1.076-0.321,1.601c-0.611,0.524-1.048,1.397-1.135,2.185c-0.087,0.786-0.153,1.704,0.546,2.053
		c0.699,0.349,0.423,0.379,0.917,0.524c0.494,0.145,0.393,0.218,1.18,0.393c0.786,0.175,0.968,0.06,1.55,0.06
		s1.092-0.387,1.813-0.387c0.874,0,0.982-0.079,0.982-0.866c0-0.785-0.087-1.253-0.087-1.253l-0.524-0.698
		c0,0,0.066,0.896,0.066,1.768c0,0.875-0.545-0.43-1.485-0.042c-0.422,0.172-0.256,0.833-0.699,0.888
		c-0.289,0.033-0.488-0.085-0.764-0.189c-0.284-0.106-0.596,0.081-0.765,0.043c-0.249-0.056-0.438-0.23-0.75-0.282
		c-0.291-0.047-0.408-0.271-0.778-0.373c-0.48-0.13-0.742-0.341-0.677-0.807c0.218-1.568,1.071-2.228,1.333-2.929
		c0.262-0.697,0.939-1.571,0.939-1.571L108.254,81.147z"/>
	<polygon points="184.817,80.943 184.963,86.331 186.259,86.242 185.866,80.943 	"/>
	<path d="M189.155,86.913c-1.746-1.048-1.629-1.163-3.377-1.048c-2.211,0.148-3.729,1.397-4.076,2.098
		c-0.351,0.698-0.002,1.863,3.609,1.863C188.924,89.826,190.903,87.962,189.155,86.913z M185.734,88.732
		c-2.884,0.219-3.015-0.524-2.271-1.136s0.921-1.021,2.403-1.18c1.223-0.131,1.31,0.524,2.359,0.961
		C189.273,87.815,188.618,88.513,185.734,88.732z"/>
	<polygon points="224.134,86.679 188.312,87.028 188.661,87.727 224.134,87.64 	"/>
	<polygon points="183.069,86.941 142.531,86.941 130.038,94.28 130.212,98.211 131.261,98.211 130.999,94.629 142.706,87.64 
		182.896,87.552 	"/>
	<polygon points="130.737,97.513 224.569,97.6 224.569,98.385 130.212,98.211 	"/>
	<polygon points="130.562,95.154 224.396,95.765 224.481,95.066 130.562,94.542 	"/>
	<polygon points="135.454,98.037 137.901,137.177 172.323,137.439 171.974,138.836 135.63,138.401 134.406,97.862 	"/>
	<path d="M204.009,135.954l-1.805-0.349c0,0-27.783,0-29.356,0c-1.572,0-1.921,2.271-1.572,3.669
		c0.35,1.398,7.863,20.793,8.388,23.24c0.523,2.446,2.271,3.145,5.416,2.97c3.146-0.175,8.387,0.291,8.387,0.291l-1.047-1.339
		c0,0-5.592,0-6.99,0c-1.397,0-3.319-0.524-5.242-5.417c-1.922-4.893-6.291-17.124-6.988-18.872
		c-0.699-1.746,0.35-3.145,3.319-3.145s27.608-0.35,27.608-0.35L204.009,135.954z"/>
	<path d="M169.091,72.263c-1.049,0-2.184,1.137-2.009,2.445c0.175,1.312,1.136,1.836,2.533,1.836s2.01-0.699,2.01-2.01
		S170.577,72.263,169.091,72.263z M169.615,75.845c-1.136,0-1.747-0.438-1.835-1.311s0.524-1.223,1.311-1.223
		c0.874,0,1.748-0.088,1.922,1.048C171.188,75.496,170.751,75.845,169.615,75.845z"/>
	<path d="M207.62,75.758c0.878,0.233,2.081-0.464,2.227-1.601c0.145-1.137-0.543-1.788-1.713-2.098
		c-1.17-0.311-1.836,0.136-2.128,1.234C205.714,74.39,206.378,75.427,207.62,75.758z M207.979,72.644
		c0.95,0.253,1.365,0.754,1.244,1.504c-0.122,0.752-0.71,0.906-1.37,0.732c-0.73-0.194-1.48-0.316-1.374-1.305
		S207.028,72.39,207.979,72.644z"/>
	<path d="M202.313,74.485c0.125-0.476-0.338-1.11-1.051-1.165c-0.711-0.053-1.102,0.328-1.268,0.967
		c-0.166,0.635,0.131,0.986,0.821,1.121C201.506,75.542,202.138,75.163,202.313,74.485z M200.363,74.359
		c0.136-0.518,0.438-0.752,0.909-0.701c0.469,0.047,0.582,0.363,0.488,0.723c-0.104,0.396-0.162,0.805-0.78,0.766
		C200.362,75.111,200.228,74.876,200.363,74.359z"/>
	<path d="M159.917,73.049c-0.961,0.089-1.572,0.786-1.572,1.311s0.523,1.747,1.311,1.747c1.049,0,1.748-0.438,1.748-1.66
		S160.878,72.961,159.917,73.049z M159.739,75.522c-0.488,0-0.812-0.757-0.812-1.083c0-0.325,0.379-0.756,0.975-0.812
		c0.596-0.054,0.92,0.109,0.92,0.866C160.821,75.251,160.389,75.522,159.739,75.522z"/>
	<path d="M195.427,72.961c-0.824,0.075-1.349,0.675-1.349,1.124s0.449,1.498,1.124,1.498c0.898,0,1.497-0.375,1.497-1.422
		C196.699,73.113,196.251,72.888,195.427,72.961z M195.272,75.082c-0.418,0-0.695-0.649-0.695-0.928
		c0-0.277,0.302-0.445,0.812-0.492c0.511-0.048,0.612,0.135,0.612,0.785S195.83,75.082,195.272,75.082z"/>
	<path d="M216.444,71.914c-1.223,0-1.835,0.873-1.835,1.922s0.874,2.186,2.446,2.097c1.572-0.087,1.748-0.698,1.835-1.921
		C218.978,72.787,218.017,71.914,216.444,71.914z M216.966,75.335c-1.105,0.062-1.719-0.736-1.719-1.473
		c0-0.737,0.43-1.35,1.289-1.35c1.104,0,1.779,0.612,1.718,1.473C218.192,74.845,218.069,75.275,216.966,75.335z"/>
	<polygon points="191.021,69.904 223.958,69.818 223.958,68.768 189.972,69.031 	"/>
	<polygon points="179.663,70.429 147.337,70.253 146.812,62.216 147.948,61.779 148.123,69.205 180.012,69.554 	"/>
	<polygon points="146.376,54.003 146.026,16.698 224.134,14.951 224.22,16.436 146.899,17.571 147.161,54.003 	"/>
	<path d="M154.734,48.063c0,0,0.524-0.759,0.757-1.398c0.232-0.641,0.232-1.98,0.758-2.271c0.523-0.29,1.688,0,2.096,0
		s0.932,0.524,0.758,0.873c-0.175,0.351-0.35,0.933-1.166,1.05c-0.814,0.115-1.105,0.29-1.105,0c0-0.292,0.815-0.117,1.224-0.35
		c0.407-0.234,1.164-1.051,0.116-1.108c-1.049-0.057-1.922,0.001-1.98,0.468c-0.059,0.465,0.059,1.164-0.232,2.039
		c-0.292,0.872-0.525,1.222-0.525,1.222L154.734,48.063z"/>
	<path d="M161.898,44.742c-0.524-0.291-0.815-0.407-1.456-0.058c-0.643,0.349-1.574,0.816-2.506,1.632
		c-0.931,0.813-0.662,1.441-0.291,1.862c0.242,0.274,0.99,0.233,1.282,0s1.515-1.049,2.329-1.688
		C162.073,45.849,162.583,45.124,161.898,44.742z M160.899,46.271c-0.646,0.508-1.712,1.279-1.943,1.464
		c-0.23,0.187-0.701,0.483-1.069,0.022c-0.369-0.461-0.192-0.688,0.546-1.334c0.737-0.645,1.393-0.966,1.899-1.244
		c0.509-0.275,0.703-0.305,1.118-0.076C161.993,45.407,161.546,45.765,160.899,46.271z"/>
	<path d="M163.024,45.943c-0.43-0.338-0.744-0.373-1.33-0.055c-0.584,0.318-1.436,0.745-2.285,1.49
		c-0.852,0.744-0.672,1.208-0.387,1.558c0.429,0.528,1.023,0.356,1.291,0.144c0.266-0.213,1.381-0.957,2.127-1.541
		C163.185,46.953,163.39,46.228,163.024,45.943z M162.114,47.337c-0.591,0.465-1.564,1.168-1.775,1.337
		c-0.211,0.171-0.674,0.421-1.011,0s-0.142-0.606,0.532-1.196s1.271-0.883,1.735-1.138c0.464-0.251,0.642-0.28,1.021-0.069
		C163.112,46.546,162.704,46.876,162.114,47.337z"/>
	<path d="M163.966,47.234c-0.367-0.348-0.688-0.344-1.228-0.051c-0.54,0.295-1.326,0.688-2.11,1.376
		c-0.785,0.685-0.551,1.019-0.164,1.513c0.212,0.271,0.752,0.253,0.998,0.057c0.246-0.197,1.276-0.885,1.963-1.423
		C164.112,48.166,164.265,47.517,163.966,47.234z M163.124,48.521c-0.545,0.428-1.443,1.078-1.638,1.232
		c-0.194,0.158-0.515,0.359-0.826-0.031c-0.312-0.388-0.237-0.528,0.385-1.071c0.622-0.545,1.173-0.815,1.601-1.05
		c0.428-0.232,0.684-0.369,0.941-0.064C163.849,47.843,163.669,48.095,163.124,48.521z"/>
	<path d="M157.079,44.525c0,0,2.074-2.054,2.511-2.316c0.438-0.262,1.114-0.961,1.528-1.441c0.416-0.48,1.879-1.529,2.513-1.092
		c0.634,0.436,0.479,0.896-0.044,1.375c-0.523,0.481-0.873,0.984-1.223,1.311c-0.35,0.328-1.137,0.94-1.42,1.223
		c-0.284,0.285-0.152,0.962-0.152,1.158c0,0.197-0.394,0.22-0.394,0.22s-0.131-0.743,0.044-1.202
		c0.174-0.458,0.961-0.916,1.354-1.245c0.393-0.327,1.377-1.376,1.791-1.747c0.415-0.371-0.306-1.223-1.157-0.699
		c-0.853,0.525-1.464,1.486-1.813,1.857c-0.349,0.371-1.267,1.092-1.42,1.267c-0.152,0.175-1.179,0.917-1.287,1.093
		c-0.111,0.174-0.111,0.261-0.111,0.261L157.079,44.525z"/>
	<path d="M163.281,48.804c0,0-0.48,0.787-1.224,1.18c-0.742,0.394-1.441,0.656-2.053,0.83c-0.611,0.176-0.83,0.83-0.83,0.83
		l-0.655-0.218c0,0,0.524-0.874,0.961-1.093s1.136-0.262,1.136-0.262s1.049-0.088,1.66-0.568S163.281,48.804,163.281,48.804z"/>
	<polygon points="223.87,18.621 149.783,19.493 150.569,49.722 151.705,49.023 150.802,21.328 223.929,20.105 	"/>
	<polygon points="151.705,59.595 151.88,66.322 224.134,65.623 224.308,64.576 152.841,65.187 152.491,59.419 	"/>
	<path d="M169.266,76.4c0,0,0.118,2.818,0.087,3.785c-0.057,1.835,1.008,3.488,3.729,3.407c2.941-0.088,11.911-0.437,11.911-0.437
		l0.087-0.438c0,0-9.291,0.35-11.736,0.35c-2.446,0-3.291-0.699-3.465-3.145c-0.176-2.445-0.059-3.554-0.059-3.554L169.266,76.4z"/>
	<path d="M159.655,75.992c0,0,0.118,2.82,0.088,3.785c-0.059,1.835,1.881,4.77,4.602,4.688c2.941-0.087,21.143-0.407,21.143-0.407
		l0.086-0.438c0,0-18.521,0.321-20.967,0.321c-2.447,0-4.164-1.981-4.339-4.427c-0.175-2.447-0.059-3.554-0.059-3.554
		L159.655,75.992z"/>
	<path d="M195.202,75.583c0,0,0.146,3.115,0.187,3.816c0.087,1.543-1.339,2.502-3.319,2.502s-6.466,0.291-6.466,0.291l0.059,0.351
		c0,0,3.932-0.145,6.058-0.203c2.045-0.056,4.309-0.38,4.193-3.175c-0.115-2.796-0.059-3.729-0.059-3.729L195.202,75.583z"/>
	<path d="M200.816,75.408c0,0,0.048,3.699,0.106,4.806c0.058,1.107-0.99,2.038-3.32,2.213s-11.94,0.407-11.94,0.407v0.584
		c0,0,9.61-0.41,11.882-0.467s4.018-0.873,3.844-3.844c-0.174-2.972-0.116-3.787-0.116-3.787L200.816,75.408z"/>
	<path d="M207.562,75.554c0,0,0.233,3.494,0.233,4.601c0,1.107-1.106,3.088-6.64,3.088s-15.318,0.407-15.318,0.407v0.582
		c0,0,13.105-0.233,16.832-0.524c3.729-0.29,5.883-1.455,5.592-4.659c-0.291-3.203-0.291-3.437-0.291-3.437L207.562,75.554z"/>
	<path d="M216.939,75.669c0,0,0.116,2.855,0.116,4.604c0,1.747-0.233,3.491-2.737,3.608c-2.505,0.117-28.365,0.7-28.365,0.7
		l0.058,0.524c0,0,27.783-0.641,29.065-0.641c1.281,0,2.679-0.758,2.503-3.495c-0.174-2.736-0.057-5.358-0.057-5.358L216.939,75.669
		z"/>
	<polygon points="134.668,84.932 135.63,91.571 134.668,92.271 133.795,85.194 	"/>
	<path d="M115.36,123.024c0,0-1.485,0.786-2.271,1.572s-0.437,1.923-0.35,2.796c0.088,0.874,0.088,1.834,0.437,1.834
		c0.35,0-0.087,0.524-0.087,0.524l0.35,0.612c0,0,2.981,0.675,4.805,0.087c2.709-0.874,1.66-1.835,2.534-2.184
		c0.874-0.35,2.708-2.097,2.708-2.097l-0.088-1.922l-0.611,0.262c0,0,0.088,0.699-0.088,1.049c-0.174,0.349-1.663,1.972-4.367,3.844
		c-1.136,0.785-3.67,0.523-4.107,0.437c-0.437-0.088-0.175-0.699-0.175-0.699s-0.523-0.35-0.611-1.66
		c-0.087-1.31,0-2.445,1.485-3.231c1.485-0.787,1.485-0.787,1.485-0.787L115.36,123.024z"/>
	<path d="M123.923,98.385c0,0,1.66,9.087,1.484,9.961c-0.174,0.873-0.786,1.747-0.174,2.097c0.611,0.349-0.176,1.223,0.262,1.484
		c0.437,0.263,1.048,3.67,1.048,3.67l0.437,7.516c0,0,2.271,0.174,3.582,0.698c1.311,0.525,3.932,0.874,4.631,0.525
		c0.699-0.35,0.438-1.836,0.438-1.836s-0.438,0.874-1.66,0.874s-3.932-0.962-4.893-0.962s-1.484-0.086-1.484-0.086
		s-0.613-8.214-0.787-9.438c-0.176-1.224-1.049-0.874-0.699-1.835s-0.35-1.223-0.175-1.747s-0.175-6.378-0.437-7.775
		c-0.262-1.398-0.262-3.32-0.438-4.107c-0.175-0.786-0.262-1.834-0.873-1.048S123.66,97.424,123.923,98.385z"/>
	<path d="M128.203,123.11c0,0-0.349,0.263-1.485,1.05c-1.135,0.786-0.873,2.121-0.873,3.174c0,1.66,0.553,1.864,0.698,2.009
		c0.075,0.073-0.204,0.292-0.204,0.292l0.059,0.612c0,0,1.282,0.728,3.466,0.465c2.184-0.262,3.581-1.048,4.019-2.358
		s1.137-2.358,1.572-2.883c0.438-0.524,0.438-0.874,0.438-0.874l-0.262-0.611c0,0-1.572,1.485-2.186,2.446
		c-0.611,0.961-0.756,1.835-1.805,2.533c-1.049,0.699-3.756,0.438-3.756,0.438l-0.991-0.438c0,0-1.401-1.556-0.231-3.729
		c0.813-1.514,6.391-0.988,6.391-0.988L128.203,123.11z"/>
	<path d="M134.931,105.288c0,0-0.873,2.447-0.787,3.059c0.088,0.611,1.224-0.35,1.137,0.261c-0.088,0.612-0.874,1.312-0.874,1.749
		c0,0.436,0.698,1.047,0.698,1.047L134.931,105.288z"/>
	<path d="M200.893,121.101c0.705,0,1.049,1.661,0.263,1.485C200.368,122.413,200.281,121.101,200.893,121.101z"/>
	<path d="M200.02,123.897c0.392,0.325-0.961,1.137-0.961,1.835c0,0.699,1.747,1.311,1.659,1.66s-2.795-0.873-2.359-2.184
		C198.796,123.897,199.495,123.46,200.02,123.897z"/>
	<path d="M200.368,127.392c0,0-0.262,4.806,0.176,6.115c0.437,1.312,2.795,2.534,3.844,2.184c1.049-0.349,0.873,0.438-1.049,0.351
		c-1.922-0.088-3.319-0.874-3.67-3.757c-0.349-2.883,0.264-5.11,0.264-5.11"/>
	<path d="M205.96,121.101c-0.16,0.964,3.408-0.523,2.533,2.359c-0.873,2.884-2.795,1.835-2.883,2.446
		c-0.087,0.612,3.67,0.088,3.844-2.709C209.63,120.403,206.048,120.578,205.96,121.101z"/>
	<path d="M205.582,126.519c0,0-0.583,0.815-0.583,2.329c0,1.515,0.467,3.728-0.35,4.311c-0.814,0.583-1.049,1.164-1.049,1.164
		l2.214,0.583c0,0,0.116,3.029-1.515,3.379s-1.631,0.931-1.631,0.931l2.33,0.467c0,0-0.35,2.796-1.747,3.494
		c-1.397,0.699-1.397,0.699-1.397,0.699h2.562c0,0-0.582,0.932-0.932,2.329c-0.35,1.398,1.746,1.399,1.863,2.913
		s0.699,1.514,0.699,1.514l0.233-3.494c0,0,1.747,1.631,1.631,2.68c-0.117,1.049-0.117,1.979-0.117,1.979l1.631-2.328
		c0,0,0.349,1.282,1.864,2.097c1.514,0.815,2.912-0.698,2.912-0.698s1.746,0,1.746,1.048c0,1.049,0.117,1.63,0.117,1.63
		s1.631-1.28,1.514-2.213c-0.115-0.933-0.581-0.933-0.581-0.933s0.815,0.581,2.097,0.35s1.631-1.048,1.631-1.048
		s1.863-0.582,2.213,0.117s1.049,1.514,1.049,1.514l0.35-1.282c0,0-1.981-1.397-2.912-1.514c-0.932-0.116-1.049,1.049-2.33,1.398
		c-1.281,0.349-2.33-0.466-2.33-0.466l-0.117,1.979c0,0-1.397-1.282-2.096-1.398c-0.699-0.115-1.048,1.049-1.98,0.934
		c-0.932-0.116-2.912-2.912-2.912-2.912l-0.932,0.814l-2.214-3.262l-1.048,1.98c0,0-0.933,0.116-0.816-1.398
		c0.117-1.514,1.398-3.145,1.398-3.145l-1.164-0.232l1.746-3.729l-1.281-0.465l1.864-3.146v-1.98l-1.515,0.466l0.932-3.378
		L205.582,126.519z"/>
	<path d="M205.989,121.014c0,0,1.265,0.01,0.815,0.408c-0.241,0.215-1.45,0.568-1.573,1.136c-0.35,1.63-1.164,2.796-1.164,2.796
		s-0.35-0.815-0.35-2.914c0-2.096-0.233-2.562-0.233-2.562s-1.397-0.466-2.329-1.048c-0.932-0.584-1.049-1.632-1.049-1.632
		s0.816,0.117,2.446-0.581c1.63-0.699,2.097-9.146,12.581-8.737c8.664,0.338,9.086,2.446,9.086,2.446l0.117,1.281
		c0,0-3.496-2.331-9.553-2.098c-6.058,0.234-8.271,2.215-9.318,4.777c-1.049,2.561-3.496,3.959-3.496,3.959l2.33,0.816l0.059,3.262
		L205.989,121.014z"/>
	<path d="M210.766,135.255c0,0,0.349,1.572,1.572,2.795c1.224,1.224,2.097,1.398,2.097,1.398s-0.698-1.224-0.35-2.621
		c0.35-1.397,1.049-1.747,1.049-1.747s-1.397-0.35-1.748,0.524c-0.349,0.874-0.349,1.922-0.349,1.922L210.766,135.255z"/>
	<path d="M209.542,127.392c0,0,0.699,1.049,0.175,2.271s-0.524,1.223-0.524,1.223s2.621-0.523,2.971-1.573
		c0.35-1.047,0.35-1.047,0.35-1.047l-1.747,0.698L209.542,127.392z"/>
	<path d="M224.104,161.583c0,0-3.262,0.35-9.785,0.932c-6.524,0.582-9.786-1.633-10.834-1.865c-1.049-0.231-3.146,0.118-3.494,2.564
		c-0.351,2.446-1.631,7.572,0,8.736c1.63,1.163,8.037,5.125,14.678,4.31c6.639-0.814,9.668-2.097,9.668-2.097l0.117-1.163
		c0,0-5.242,2.211-11.301,2.211c-6.057,0-12.348-2.911-12.813-5.241s0.349-8.971,2.562-8.271s6.989,2.796,11.999,2.33
		s9.553-1.164,9.553-1.164L224.104,161.583z"/>
	<polygon points="208.493,175.446 208.145,187.328 209.426,187.677 209.426,175.446 	"/>
	<polygon points="205.582,174.048 205.116,187.792 206.048,187.56 206.514,174.63 	"/>
	<polygon points="218.978,175.211 220.026,187.442 221.075,187.56 219.677,174.862 	"/>
	<polygon points="221.425,174.747 222.356,187.328 223.056,187.442 222.124,174.63 	"/>
	<path d="M220.026,184.648c0,0-1.165,1.048-3.146,1.048c-1.979,0-1.863-1.28-3.61-0.699c-1.747,0.585-3.961,0.816-4.193,0.35
		c-0.233-0.465,0,1.515,0,1.515l11.532,0.816L220.026,184.648z"/>
	<path d="M205.233,137.702c0,0-2.447,0.583-4.428,1.281c-1.98,0.699-3.961,6.757-4.193,9.436c-0.233,2.681,0.117,3.381-0.233,4.312
		c-0.349,0.931-2.214,3.027-2.214,4.076s0.584,3.263,0.584,3.263s0.932-4.312,2.445-5.825s0.467-3.843,0.582-6.057
		c0.117-2.214,2.215-6.758,4.66-7.922c2.447-1.165,3.146-1.165,3.146-1.165l-0.233-0.466L205.233,137.702z"/>
	<path d="M199.175,167.757c0,0-0.932-0.815-3.029-1.397c-2.096-0.583-3.145-0.932-4.309-3.845c-1.166-2.912-2.447-6.989-2.447-6.989
		s-0.234-1.633,0.932-3.029c1.165-1.397,3.611-2.098,4.193-1.747c0.584,0.35,1.981,0.583,1.981,0.583l0.581-1.282
		c0,0-2.679-0.467-4.426,0.115c-1.746,0.584-3.844,2.914-3.844,2.914l-0.466,2.678c0,0,0.116,3.03,1.514,4.776
		c1.397,1.747,3.61,6.408,4.427,7.224s2.795,1.047,3.379,0.931c0.582-0.115,1.979,0.583,1.979,0.583L199.175,167.757z"/>
	<path d="M188.924,155.059c0,0,0.116-0.931-1.281-1.63s-1.747-1.516-0.932-2.33s0.874-0.788,1.194-1.69
		c0.35-0.988,1.105-1.428,1.484-1.455c0.626-0.046,1.456-0.844,2.33-0.699c0.873,0.145,1.746,0.582,1.863,1.282
		c0.042,0.248,0.623,1.198,0.641,1.453c0.031,0.462-0.523,0.176-0.523,0.176s-0.467-0.349-1.166-1.163
		c-0.697-0.815-1.164-1.166-1.629-0.815c-0.467,0.35-1.05,0.495-1.865,0.931c-0.814,0.436,0,1.164-0.698,1.748
		c-0.699,0.582-1.05,1.28-0.467,1.631c0.583,0.349,1.515,0.933,1.515,0.933L188.924,155.059z"/>
	<path d="M191.72,147.254l1.615-3.524c0,0,0.19-1.02,0.773-0.902c0.582,0.116,0.988,0.349,1.164,0.465
		c0.174,0.115,0,0.523-0.233,1.34c-0.232,0.816-1.456,3.904-1.456,3.904l-0.699,0.114c0,0,1.166-2.735,1.514-3.726
		c0.047-0.133-0.057-0.432-0.057-0.432s0.246-0.07,0.271-0.135c0.217-0.553,0.271-0.77-0.271-0.951
		c-0.524-0.174-0.557-0.054-0.688,0.362c-0.022,0.072,0.186,0.484,0.186,0.484s-0.329-0.07-0.372,0.028
		c-0.349,0.816-1.339,3.263-1.339,3.263L191.72,147.254z"/>
	<path d="M205.349,185.462c0,0-1.98,0.816-4.193,0c-2.213-0.814-4.545-2.445-6.407-5.241c-1.864-2.796-3.146-3.729-3.146-3.729
		s0,1.747,0.699,2.796c0.699,1.05,3.611,7.57,7.572,7.807c3.961,0.231,5.707-0.118,5.707-0.118L205.349,185.462z"/>
	<path d="M172.032,140.263c0,0-1.514,16.075,2.214,22.716c3.728,6.64,9.552,6.756,11.416,6.989s13.628,0.117,13.628,0.117
		l0.467-1.397c0,0-11.883,0.583-17.24-1.048c-5.358-1.632-9.553-5.238-9.553-24.93C172.964,142.011,172.032,140.263,172.032,140.263
		z"/>
	<polygon points="178.032,166.125 178.731,189.54 177.915,189.657 177.565,165.076 	"/>
	<polygon points="177.216,165.484 176.518,188.492 175.353,188.609 176.343,164.96 	"/>
	<path d="M184.847,169.27c0,0-1.631,0.001-2.797,1.864c-1.164,1.863-1.28,6.873-1.164,8.153s0.117,3.612-0.232,4.312
		c-0.35,0.698-0.35,2.563-0.35,2.563l0.814,0.35c0,0,0.932-2.215,0.932-3.381c0-1.163-0.232-3.377,0.234-7.104
		C182.75,172.298,183.099,169.27,184.847,169.27z"/>
	<path d="M193.351,180.571c0,0,0.582,1.63,0.466,2.446c-0.117,0.813-1.397,0.932-0.933,1.513c0.467,0.584-0.232,1.747-0.232,1.747
		l1.746,0.235l0.351-3.729L193.351,180.571z"/>
	<polygon points="203.835,135.954 203.601,138.285 204.3,138.285 204.388,135.691 	"/>
	<path d="M180.07,162.165c0,0-3.844,3.727-5.708-1.282c-1.863-5.009-1.398-5.009-1.398-5.009s1.631,5.477,3.729,5.477
		c2.097,0,2.213-1.633,2.213-1.633L180.07,162.165z"/>
	<polygon points="205.523,162.338 206.746,157.447 206.572,162.165 	"/>
	<polygon points="123.573,114.988 126.718,114.988 126.95,116.036 124.039,115.918 	"/>
	<path d="M119.467,53.568c0,0-1.136,3.668-1.835,5.241c-0.698,1.572-0.611,2.184,0.437,2.882c1.048,0.699,1.048,1.486,0.699,2.359
		c-0.349,0.874,1.922,10.048,1.922,10.048l-0.087,1.048c0,0-2.01-7.426-2.446-9.348s0.524-2.01,0.263-2.709
		c-0.263-0.699-1.661-1.484-1.835-2.533c-0.175-1.049,2.359-7.426,2.359-7.426L119.467,53.568z"/>
</g>
</svg>
