<?xml version="1.0" encoding="utf-8"?>
<!-- Generator: Adobe Illustrator 16.2.0, SVG Export Plug-In . SVG Version: 6.00 Build 0)  -->
<!DOCTYPE svg PUBLIC "-//W3C//DTD SVG 1.1//EN" "http://www.w3.org/Graphics/SVG/1.1/DTD/svg11.dtd">
<svg version="1.1" id="Layer_1" xmlns="http://www.w3.org/2000/svg" xmlns:xlink="http://www.w3.org/1999/xlink" x="0px" y="0px"
	 width="178.389px" height="127.49px" viewBox="0 0 178.389 127.49" enable-background="new 0 0 178.389 127.49"
	 xml:space="preserve">
<g>
	<path fill="#FFFFFF" d="M161.879,33.868l11.391-19.159l-4.417-6.626l-35.339,1.656l-25.951,13.804l-30.33,2.859L34.931,12.301
		L14.799,29.065l11.454,36.748l-10.486,6.87l-0.723,5.423l-3.495,1.928l3.014,9.4L3.546,94.979l2.38,1.76l10.458-4.658l7.698,10.37
		l5.186-1.084l2.853,0.342l7.872-3.716l31.457,21.332l23.864-13.017l6.729-29.206l27.609-25.951l29.594-15.057
		C159.755,35.018,160.717,34.202,161.879,33.868z"/>
	<polyline fill="#91AEB3" points="128.576,52.917 57.228,94.618 48.067,101.849 41.559,97.27 128.576,52.917 	"/>
	<polyline fill="#91AEB3" points="40.113,80.397 26.856,91.002 25.17,87.87 40.113,80.397 	"/>
	<polyline fill="#91AEB3" points="22.035,91.002 17.694,93.895 17.214,91.604 22.035,89.316 22.035,91.002 	"/>
	<polygon fill="#91AEB3" points="138.941,26.404 140.008,28.437 47.797,79.098 45.312,74.956 137.108,27.884 	"/>
	<g>
		<path d="M20.95,89.797l9.281,13.618c0,0,125.102-64.359,127.633-65.805c2.531-1.446,9.524-9.644,13.107-16.179
			c3.615-6.599,5.092-7.806,2.201-12.145c-2.894-4.339-12.777-2.41-12.777-2.41s4.699,2.169,7.953,7.592
			c3.254,5.424-6.748,18.199-10.123,20.61c-3.375,2.411-124.74,65.805-124.74,65.805l-7.473-13.619L20.95,89.797z"/>
		<path d="M23.722,85.337l-4.701,1.808l-7.594-14.824c0,0,106.301-54.958,114.257-59.659c7.954-4.699,17.716-5.423,21.693-5.423
			c3.977,0,15.546-0.723,15.546-0.723l2.441,4.067c0,0-1.898-3.074-22.688-1.175c-10.951,1-13.018,2.169-21.693,7.594
			c-8.678,5.423-105.217,55.681-105.217,55.681L23.722,85.337z"/>
		<polygon points="135.084,48.82 102.182,78.829 97.481,106.669 71.086,121.856 39.992,97.993 43.246,96.907 71.449,119.325 
			95.312,106.308 99.651,77.382 127.13,52.797 		"/>
		<polygon points="110.497,21.701 77.233,26.402 34.931,12.301 13.597,25.317 26.253,65.813 29.145,65.09 17.214,26.041 
			34.569,15.194 77.596,28.571 105.797,24.956 		"/>
		<polygon points="35.653,60.751 20.106,27.487 24.446,25.317 41.799,57.858 		"/>
		<polygon points="52.286,91.845 71.57,115.586 76.149,113.54 58.434,88.591 		"/>
		<path d="M41.198,77.986c-1.326-1.567-2.773-1.325-6.389,0.723c-3.615,2.049-13.737,7.11-13.737,7.11
			c-4.099,1.445-12.777,5.906-14.344,6.75c-1.567,0.843-3.253,2.289-2.651,3.373c0.604,1.086,2.17,1.689,6.508-0.601
			c4.34-2.29,24.708-12.175,27.721-13.499C41.318,80.516,42.525,79.553,41.198,77.986z M38.306,80.757
			C36.498,81.6,11.79,93.774,9.259,94.98s-3.012,1.084-3.615,0.239c-0.604-0.844,0.995-0.812,1.808-1.445
			c1.085-0.846,26.515-13.017,29.045-14.463c2.531-1.447,2.894-0.723,3.494-0.482C40.595,79.071,40.116,79.913,38.306,80.757z"/>
		<polygon points="28.061,100.042 24.082,102.451 17.214,91.604 16.251,92.329 23.603,104.381 29.268,101.367 		"/>
		<polygon points="14.082,76.298 9.381,78.829 14.563,89.434 15.647,89.073 11.549,80.034 15.044,78.106 		"/>
		<path d="M150.873,16.337l4.28-2.35c0,0,2.105,2.231,2.95,4.039c0.845,1.807,1.025,3.554,1.025,3.554l-3.976,2.231
			c0,0-1.325-2.713-2.169-4.219C152.139,18.086,150.873,16.337,150.873,16.337z"/>
		<path d="M155.272,25.137l4.459-1.688c0,0,1.507,5.243-1.807,6.991C155.464,31.735,155.876,27.547,155.272,25.137z"/>
		<path d="M149.849,15.253l3.858-2.531c0,0-4.427-3.156-7.896-1.206C142.919,13.145,148.102,13.445,149.849,15.253z"/>
		<polyline points="138.461,27.126 137.979,26.404 45.056,74.493 45.78,75.334 		"/>
		<path d="M39.633,61.475c0.761-0.381,4.579,9.521,6.628,13.379c2.049,3.856,6.628,13.015,6.146,13.136
			c-0.481,0.122-6.146-9.038-7.954-13.257C42.646,70.514,38.909,61.837,39.633,61.475z"/>
		<path d="M68.796,48.339c0.635-0.424,3.256,6.748,6.148,11.81c2.892,5.062,6.991,10.486,6.387,11.089
			c-0.603,0.603-5.422-7.353-7.713-11.089C71.33,56.414,68.437,48.58,68.796,48.339z"/>
		<path d="M103.387,30.139c0.965-0.602,4.34,6.989,7.232,12.293c2.893,5.303,5.787,11.33,5.305,11.812
			c-0.484,0.48-4.223-7.111-6.993-12.536C106.16,36.287,103.387,30.139,103.387,30.139z"/>
		<path d="M132.676,16.521c0.557-0.225,3.25,4.7,6.266,9.882c3.014,5.183,7.111,12.414,6.75,12.655
			c-0.363,0.241-4.939-8.558-7.713-12.655C135.205,22.306,132.072,16.763,132.676,16.521z"/>
	</g>
</g>
</svg>
